<?xml version="1.0" encoding="utf-8"?>
<svg xmlns="http://www.w3.org/2000/svg" xmlns:xlink="http://www.w3.org/1999/xlink" width="600" height="400" viewBox="0 0 2400 1600">
<defs>
  <clipPath id="clip880">
    <rect x="0" y="0" width="2400" height="1600"/>
  </clipPath>
</defs>
<path clip-path="url(#clip880)" d="
M0 1600 L2400 1600 L2400 0 L0 0  Z
  " fill="#ffffff" fill-rule="evenodd" fill-opacity="1"/>
<defs>
  <clipPath id="clip881">
    <rect x="480" y="0" width="1681" height="1600"/>
  </clipPath>
</defs>
<path clip-path="url(#clip880)" d="
M232.389 1486.45 L2352.76 1486.45 L2352.76 123.472 L232.389 123.472  Z
  " fill="#ffffff" fill-rule="evenodd" fill-opacity="1"/>
<defs>
  <clipPath id="clip882">
    <rect x="232" y="123" width="2121" height="1364"/>
  </clipPath>
</defs>
<polyline clip-path="url(#clip882)" style="stroke:#000000; stroke-linecap:butt; stroke-linejoin:round; stroke-width:2; stroke-opacity:0.1; fill:none" points="
  479.159,1486.45 479.159,123.472 
  "/>
<polyline clip-path="url(#clip882)" style="stroke:#000000; stroke-linecap:butt; stroke-linejoin:round; stroke-width:2; stroke-opacity:0.1; fill:none" points="
  804.525,1486.45 804.525,123.472 
  "/>
<polyline clip-path="url(#clip882)" style="stroke:#000000; stroke-linecap:butt; stroke-linejoin:round; stroke-width:2; stroke-opacity:0.1; fill:none" points="
  1129.89,1486.45 1129.89,123.472 
  "/>
<polyline clip-path="url(#clip882)" style="stroke:#000000; stroke-linecap:butt; stroke-linejoin:round; stroke-width:2; stroke-opacity:0.1; fill:none" points="
  1455.26,1486.45 1455.26,123.472 
  "/>
<polyline clip-path="url(#clip882)" style="stroke:#000000; stroke-linecap:butt; stroke-linejoin:round; stroke-width:2; stroke-opacity:0.1; fill:none" points="
  1780.62,1486.45 1780.62,123.472 
  "/>
<polyline clip-path="url(#clip882)" style="stroke:#000000; stroke-linecap:butt; stroke-linejoin:round; stroke-width:2; stroke-opacity:0.1; fill:none" points="
  2105.99,1486.45 2105.99,123.472 
  "/>
<polyline clip-path="url(#clip880)" style="stroke:#000000; stroke-linecap:butt; stroke-linejoin:round; stroke-width:4; stroke-opacity:1; fill:none" points="
  232.389,1486.45 2352.76,1486.45 
  "/>
<polyline clip-path="url(#clip880)" style="stroke:#000000; stroke-linecap:butt; stroke-linejoin:round; stroke-width:4; stroke-opacity:1; fill:none" points="
  479.159,1486.45 479.159,1467.55 
  "/>
<polyline clip-path="url(#clip880)" style="stroke:#000000; stroke-linecap:butt; stroke-linejoin:round; stroke-width:4; stroke-opacity:1; fill:none" points="
  804.525,1486.45 804.525,1467.55 
  "/>
<polyline clip-path="url(#clip880)" style="stroke:#000000; stroke-linecap:butt; stroke-linejoin:round; stroke-width:4; stroke-opacity:1; fill:none" points="
  1129.89,1486.45 1129.89,1467.55 
  "/>
<polyline clip-path="url(#clip880)" style="stroke:#000000; stroke-linecap:butt; stroke-linejoin:round; stroke-width:4; stroke-opacity:1; fill:none" points="
  1455.26,1486.45 1455.26,1467.55 
  "/>
<polyline clip-path="url(#clip880)" style="stroke:#000000; stroke-linecap:butt; stroke-linejoin:round; stroke-width:4; stroke-opacity:1; fill:none" points="
  1780.62,1486.45 1780.62,1467.55 
  "/>
<polyline clip-path="url(#clip880)" style="stroke:#000000; stroke-linecap:butt; stroke-linejoin:round; stroke-width:4; stroke-opacity:1; fill:none" points="
  2105.99,1486.45 2105.99,1467.55 
  "/>
<path clip-path="url(#clip880)" d="M368.234 1535.91 Q368.234 1531.21 366.29 1528.55 Q364.368 1525.86 360.989 1525.86 Q357.609 1525.86 355.665 1528.55 Q353.743 1531.21 353.743 1535.91 Q353.743 1540.61 355.665 1543.29 Q357.609 1545.95 360.989 1545.95 Q364.368 1545.95 366.29 1543.29 Q368.234 1540.61 368.234 1535.91 M353.743 1526.86 Q355.086 1524.54 357.123 1523.43 Q359.183 1522.3 362.03 1522.3 Q366.753 1522.3 369.692 1526.05 Q372.655 1529.8 372.655 1535.91 Q372.655 1542.02 369.692 1545.77 Q366.753 1549.52 362.03 1549.52 Q359.183 1549.52 357.123 1548.41 Q355.086 1547.27 353.743 1544.96 L353.743 1548.85 L349.461 1548.85 L349.461 1512.83 L353.743 1512.83 L353.743 1526.86 Z" fill="#000000" fill-rule="evenodd" fill-opacity="1" /><path clip-path="url(#clip880)" d="M379.715 1522.92 L383.975 1522.92 L383.975 1548.85 L379.715 1548.85 L379.715 1522.92 M379.715 1512.83 L383.975 1512.83 L383.975 1518.22 L379.715 1518.22 L379.715 1512.83 Z" fill="#000000" fill-rule="evenodd" fill-opacity="1" /><path clip-path="url(#clip880)" d="M409.947 1535.58 Q409.947 1530.95 408.026 1528.41 Q406.127 1525.86 402.678 1525.86 Q399.252 1525.86 397.331 1528.41 Q395.433 1530.95 395.433 1535.58 Q395.433 1540.19 397.331 1542.74 Q399.252 1545.28 402.678 1545.28 Q406.127 1545.28 408.026 1542.74 Q409.947 1540.19 409.947 1535.58 M414.206 1545.63 Q414.206 1552.25 411.266 1555.47 Q408.326 1558.71 402.262 1558.71 Q400.016 1558.71 398.026 1558.36 Q396.035 1558.04 394.16 1557.34 L394.16 1553.2 Q396.035 1554.22 397.864 1554.7 Q399.692 1555.19 401.59 1555.19 Q405.78 1555.19 407.863 1552.99 Q409.947 1550.82 409.947 1546.39 L409.947 1544.29 Q408.627 1546.58 406.567 1547.71 Q404.507 1548.85 401.637 1548.85 Q396.868 1548.85 393.952 1545.21 Q391.035 1541.58 391.035 1535.58 Q391.035 1529.57 393.952 1525.93 Q396.868 1522.3 401.637 1522.3 Q404.507 1522.3 406.567 1523.43 Q408.627 1524.57 409.947 1526.86 L409.947 1522.92 L414.206 1522.92 L414.206 1545.63 Z" fill="#000000" fill-rule="evenodd" fill-opacity="1" /><path clip-path="url(#clip880)" d="M440.039 1526.86 L440.039 1512.83 L444.298 1512.83 L444.298 1548.85 L440.039 1548.85 L440.039 1544.96 Q438.697 1547.27 436.636 1548.41 Q434.599 1549.52 431.729 1549.52 Q427.03 1549.52 424.067 1545.77 Q421.127 1542.02 421.127 1535.91 Q421.127 1529.8 424.067 1526.05 Q427.03 1522.3 431.729 1522.3 Q434.599 1522.3 436.636 1523.43 Q438.697 1524.54 440.039 1526.86 M425.525 1535.91 Q425.525 1540.61 427.447 1543.29 Q429.391 1545.95 432.771 1545.95 Q436.15 1545.95 438.095 1543.29 Q440.039 1540.61 440.039 1535.91 Q440.039 1531.21 438.095 1528.55 Q436.15 1525.86 432.771 1525.86 Q429.391 1525.86 427.447 1528.55 Q425.525 1531.21 425.525 1535.91 Z" fill="#000000" fill-rule="evenodd" fill-opacity="1" /><path clip-path="url(#clip880)" d="M466.197 1512.83 L466.197 1516.37 L462.122 1516.37 Q459.831 1516.37 458.928 1517.3 Q458.048 1518.22 458.048 1520.63 L458.048 1522.92 L465.062 1522.92 L465.062 1526.23 L458.048 1526.23 L458.048 1548.85 L453.766 1548.85 L453.766 1526.23 L449.692 1526.23 L449.692 1522.92 L453.766 1522.92 L453.766 1521.12 Q453.766 1516.79 455.78 1514.82 Q457.794 1512.83 462.169 1512.83 L466.197 1512.83 Z" fill="#000000" fill-rule="evenodd" fill-opacity="1" /><path clip-path="url(#clip880)" d="M466.914 1542.97 L471.798 1542.97 L471.798 1548.85 L466.914 1548.85 L466.914 1542.97 Z" fill="#000000" fill-rule="evenodd" fill-opacity="1" /><path clip-path="url(#clip880)" d="M493.164 1535.82 Q488.002 1535.82 486.011 1537 Q484.02 1538.18 484.02 1541.02 Q484.02 1543.29 485.502 1544.63 Q487.007 1545.95 489.576 1545.95 Q493.118 1545.95 495.247 1543.45 Q497.4 1540.93 497.4 1536.76 L497.4 1535.82 L493.164 1535.82 M501.659 1534.06 L501.659 1548.85 L497.4 1548.85 L497.4 1544.91 Q495.942 1547.27 493.766 1548.41 Q491.59 1549.52 488.442 1549.52 Q484.46 1549.52 482.099 1547.3 Q479.761 1545.05 479.761 1541.3 Q479.761 1536.93 482.678 1534.7 Q485.618 1532.48 491.428 1532.48 L497.4 1532.48 L497.4 1532.07 Q497.4 1529.13 495.456 1527.53 Q493.534 1525.91 490.039 1525.91 Q487.817 1525.91 485.71 1526.44 Q483.604 1526.97 481.659 1528.04 L481.659 1524.1 Q483.997 1523.2 486.196 1522.76 Q488.395 1522.3 490.479 1522.3 Q496.104 1522.3 498.882 1525.21 Q501.659 1528.13 501.659 1534.06 Z" fill="#000000" fill-rule="evenodd" fill-opacity="1" /><path clip-path="url(#clip880)" d="M525.455 1526.9 Q524.738 1526.49 523.881 1526.3 Q523.048 1526.09 522.03 1526.09 Q518.418 1526.09 516.474 1528.45 Q514.553 1530.79 514.553 1535.19 L514.553 1548.85 L510.27 1548.85 L510.27 1522.92 L514.553 1522.92 L514.553 1526.95 Q515.895 1524.59 518.048 1523.45 Q520.201 1522.3 523.28 1522.3 Q523.719 1522.3 524.252 1522.37 Q524.784 1522.41 525.432 1522.53 L525.455 1526.9 Z" fill="#000000" fill-rule="evenodd" fill-opacity="1" /><path clip-path="url(#clip880)" d="M544.113 1526.9 Q543.395 1526.49 542.539 1526.3 Q541.705 1526.09 540.687 1526.09 Q537.076 1526.09 535.131 1528.45 Q533.21 1530.79 533.21 1535.19 L533.21 1548.85 L528.928 1548.85 L528.928 1522.92 L533.21 1522.92 L533.21 1526.95 Q534.553 1524.59 536.705 1523.45 Q538.858 1522.3 541.937 1522.3 Q542.377 1522.3 542.909 1522.37 Q543.441 1522.41 544.09 1522.53 L544.113 1526.9 Z" fill="#000000" fill-rule="evenodd" fill-opacity="1" /><path clip-path="url(#clip880)" d="M557.585 1525.91 Q554.159 1525.91 552.168 1528.59 Q550.178 1531.26 550.178 1535.91 Q550.178 1540.56 552.145 1543.25 Q554.136 1545.91 557.585 1545.91 Q560.988 1545.91 562.978 1543.22 Q564.969 1540.54 564.969 1535.91 Q564.969 1531.3 562.978 1528.62 Q560.988 1525.91 557.585 1525.91 M557.585 1522.3 Q563.14 1522.3 566.312 1525.91 Q569.483 1529.52 569.483 1535.91 Q569.483 1542.27 566.312 1545.91 Q563.14 1549.52 557.585 1549.52 Q552.006 1549.52 548.835 1545.91 Q545.687 1542.27 545.687 1535.91 Q545.687 1529.52 548.835 1525.91 Q552.006 1522.3 557.585 1522.3 Z" fill="#000000" fill-rule="evenodd" fill-opacity="1" /><path clip-path="url(#clip880)" d="M574.066 1522.92 L578.326 1522.92 L583.65 1543.15 L588.95 1522.92 L593.974 1522.92 L599.298 1543.15 L604.599 1522.92 L608.858 1522.92 L602.075 1548.85 L597.052 1548.85 L591.474 1527.6 L585.872 1548.85 L580.849 1548.85 L574.066 1522.92 Z" fill="#000000" fill-rule="evenodd" fill-opacity="1" /><path clip-path="url(#clip880)" d="M724.93 1535.91 Q724.93 1531.21 722.986 1528.55 Q721.064 1525.86 717.685 1525.86 Q714.305 1525.86 712.361 1528.55 Q710.44 1531.21 710.44 1535.91 Q710.44 1540.61 712.361 1543.29 Q714.305 1545.95 717.685 1545.95 Q721.064 1545.95 722.986 1543.29 Q724.93 1540.61 724.93 1535.91 M710.44 1526.86 Q711.782 1524.54 713.819 1523.43 Q715.879 1522.3 718.727 1522.3 Q723.449 1522.3 726.389 1526.05 Q729.351 1529.8 729.351 1535.91 Q729.351 1542.02 726.389 1545.77 Q723.449 1549.52 718.727 1549.52 Q715.879 1549.52 713.819 1548.41 Q711.782 1547.27 710.44 1544.96 L710.44 1548.85 L706.157 1548.85 L706.157 1512.83 L710.44 1512.83 L710.44 1526.86 Z" fill="#000000" fill-rule="evenodd" fill-opacity="1" /><path clip-path="url(#clip880)" d="M736.412 1522.92 L740.671 1522.92 L740.671 1548.85 L736.412 1548.85 L736.412 1522.92 M736.412 1512.83 L740.671 1512.83 L740.671 1518.22 L736.412 1518.22 L736.412 1512.83 Z" fill="#000000" fill-rule="evenodd" fill-opacity="1" /><path clip-path="url(#clip880)" d="M766.643 1535.58 Q766.643 1530.95 764.722 1528.41 Q762.824 1525.86 759.374 1525.86 Q755.949 1525.86 754.027 1528.41 Q752.129 1530.95 752.129 1535.58 Q752.129 1540.19 754.027 1542.74 Q755.949 1545.28 759.374 1545.28 Q762.824 1545.28 764.722 1542.74 Q766.643 1540.19 766.643 1535.58 M770.902 1545.63 Q770.902 1552.25 767.962 1555.47 Q765.023 1558.71 758.958 1558.71 Q756.712 1558.71 754.722 1558.36 Q752.731 1558.04 750.856 1557.34 L750.856 1553.2 Q752.731 1554.22 754.56 1554.7 Q756.388 1555.19 758.287 1555.19 Q762.476 1555.19 764.56 1552.99 Q766.643 1550.82 766.643 1546.39 L766.643 1544.29 Q765.324 1546.58 763.263 1547.71 Q761.203 1548.85 758.333 1548.85 Q753.564 1548.85 750.648 1545.21 Q747.731 1541.58 747.731 1535.58 Q747.731 1529.57 750.648 1525.93 Q753.564 1522.3 758.333 1522.3 Q761.203 1522.3 763.263 1523.43 Q765.324 1524.57 766.643 1526.86 L766.643 1522.92 L770.902 1522.92 L770.902 1545.63 Z" fill="#000000" fill-rule="evenodd" fill-opacity="1" /><path clip-path="url(#clip880)" d="M796.735 1526.86 L796.735 1512.83 L800.995 1512.83 L800.995 1548.85 L796.735 1548.85 L796.735 1544.96 Q795.393 1547.27 793.333 1548.41 Q791.296 1549.52 788.425 1549.52 Q783.726 1549.52 780.763 1545.77 Q777.823 1542.02 777.823 1535.91 Q777.823 1529.8 780.763 1526.05 Q783.726 1522.3 788.425 1522.3 Q791.296 1522.3 793.333 1523.43 Q795.393 1524.54 796.735 1526.86 M782.222 1535.91 Q782.222 1540.61 784.143 1543.29 Q786.087 1545.95 789.467 1545.95 Q792.847 1545.95 794.791 1543.29 Q796.735 1540.61 796.735 1535.91 Q796.735 1531.21 794.791 1528.55 Q792.847 1525.86 789.467 1525.86 Q786.087 1525.86 784.143 1528.55 Q782.222 1531.21 782.222 1535.91 Z" fill="#000000" fill-rule="evenodd" fill-opacity="1" /><path clip-path="url(#clip880)" d="M822.893 1512.83 L822.893 1516.37 L818.819 1516.37 Q816.527 1516.37 815.624 1517.3 Q814.745 1518.22 814.745 1520.63 L814.745 1522.92 L821.758 1522.92 L821.758 1526.23 L814.745 1526.23 L814.745 1548.85 L810.462 1548.85 L810.462 1526.23 L806.388 1526.23 L806.388 1522.92 L810.462 1522.92 L810.462 1521.12 Q810.462 1516.79 812.476 1514.82 Q814.49 1512.83 818.865 1512.83 L822.893 1512.83 Z" fill="#000000" fill-rule="evenodd" fill-opacity="1" /><path clip-path="url(#clip880)" d="M823.61 1542.97 L828.494 1542.97 L828.494 1548.85 L823.61 1548.85 L823.61 1542.97 Z" fill="#000000" fill-rule="evenodd" fill-opacity="1" /><path clip-path="url(#clip880)" d="M856.689 1535.91 Q856.689 1531.21 854.744 1528.55 Q852.823 1525.86 849.443 1525.86 Q846.064 1525.86 844.119 1528.55 Q842.198 1531.21 842.198 1535.91 Q842.198 1540.61 844.119 1543.29 Q846.064 1545.95 849.443 1545.95 Q852.823 1545.95 854.744 1543.29 Q856.689 1540.61 856.689 1535.91 M842.198 1526.86 Q843.541 1524.54 845.578 1523.43 Q847.638 1522.3 850.485 1522.3 Q855.207 1522.3 858.147 1526.05 Q861.11 1529.8 861.11 1535.91 Q861.11 1542.02 858.147 1545.77 Q855.207 1549.52 850.485 1549.52 Q847.638 1549.52 845.578 1548.41 Q843.541 1547.27 842.198 1544.96 L842.198 1548.85 L837.916 1548.85 L837.916 1512.83 L842.198 1512.83 L842.198 1526.86 Z" fill="#000000" fill-rule="evenodd" fill-opacity="1" /><path clip-path="url(#clip880)" d="M868.17 1522.92 L872.429 1522.92 L872.429 1548.85 L868.17 1548.85 L868.17 1522.92 M868.17 1512.83 L872.429 1512.83 L872.429 1518.22 L868.17 1518.22 L868.17 1512.83 Z" fill="#000000" fill-rule="evenodd" fill-opacity="1" /><path clip-path="url(#clip880)" d="M902.892 1533.2 L902.892 1548.85 L898.633 1548.85 L898.633 1533.34 Q898.633 1529.66 897.198 1527.83 Q895.763 1526 892.892 1526 Q889.443 1526 887.452 1528.2 Q885.462 1530.4 885.462 1534.2 L885.462 1548.85 L881.179 1548.85 L881.179 1522.92 L885.462 1522.92 L885.462 1526.95 Q886.99 1524.61 889.05 1523.45 Q891.133 1522.3 893.841 1522.3 Q898.309 1522.3 900.601 1525.07 Q902.892 1527.83 902.892 1533.2 Z" fill="#000000" fill-rule="evenodd" fill-opacity="1" /><path clip-path="url(#clip880)" d="M1054.51 1535.91 Q1054.51 1531.21 1052.56 1528.55 Q1050.64 1525.86 1047.26 1525.86 Q1043.88 1525.86 1041.94 1528.55 Q1040.02 1531.21 1040.02 1535.91 Q1040.02 1540.61 1041.94 1543.29 Q1043.88 1545.95 1047.26 1545.95 Q1050.64 1545.95 1052.56 1543.29 Q1054.51 1540.61 1054.51 1535.91 M1040.02 1526.86 Q1041.36 1524.54 1043.4 1523.43 Q1045.46 1522.3 1048.3 1522.3 Q1053.03 1522.3 1055.97 1526.05 Q1058.93 1529.8 1058.93 1535.91 Q1058.93 1542.02 1055.97 1545.77 Q1053.03 1549.52 1048.3 1549.52 Q1045.46 1549.52 1043.4 1548.41 Q1041.36 1547.27 1040.02 1544.96 L1040.02 1548.85 L1035.74 1548.85 L1035.74 1512.83 L1040.02 1512.83 L1040.02 1526.86 Z" fill="#000000" fill-rule="evenodd" fill-opacity="1" /><path clip-path="url(#clip880)" d="M1065.99 1522.92 L1070.25 1522.92 L1070.25 1548.85 L1065.99 1548.85 L1065.99 1522.92 M1065.99 1512.83 L1070.25 1512.83 L1070.25 1518.22 L1065.99 1518.22 L1065.99 1512.83 Z" fill="#000000" fill-rule="evenodd" fill-opacity="1" /><path clip-path="url(#clip880)" d="M1096.22 1535.58 Q1096.22 1530.95 1094.3 1528.41 Q1092.4 1525.86 1088.95 1525.86 Q1085.53 1525.86 1083.61 1528.41 Q1081.71 1530.95 1081.71 1535.58 Q1081.71 1540.19 1083.61 1542.74 Q1085.53 1545.28 1088.95 1545.28 Q1092.4 1545.28 1094.3 1542.74 Q1096.22 1540.19 1096.22 1535.58 M1100.48 1545.63 Q1100.48 1552.25 1097.54 1555.47 Q1094.6 1558.71 1088.54 1558.71 Q1086.29 1558.71 1084.3 1558.36 Q1082.31 1558.04 1080.43 1557.34 L1080.43 1553.2 Q1082.31 1554.22 1084.14 1554.7 Q1085.97 1555.19 1087.86 1555.19 Q1092.05 1555.19 1094.14 1552.99 Q1096.22 1550.82 1096.22 1546.39 L1096.22 1544.29 Q1094.9 1546.58 1092.84 1547.71 Q1090.78 1548.85 1087.91 1548.85 Q1083.14 1548.85 1080.23 1545.21 Q1077.31 1541.58 1077.31 1535.58 Q1077.31 1529.57 1080.23 1525.93 Q1083.14 1522.3 1087.91 1522.3 Q1090.78 1522.3 1092.84 1523.43 Q1094.9 1524.57 1096.22 1526.86 L1096.22 1522.92 L1100.48 1522.92 L1100.48 1545.63 Z" fill="#000000" fill-rule="evenodd" fill-opacity="1" /><path clip-path="url(#clip880)" d="M1126.31 1526.86 L1126.31 1512.83 L1130.57 1512.83 L1130.57 1548.85 L1126.31 1548.85 L1126.31 1544.96 Q1124.97 1547.27 1122.91 1548.41 Q1120.87 1549.52 1118 1549.52 Q1113.3 1549.52 1110.34 1545.77 Q1107.4 1542.02 1107.4 1535.91 Q1107.4 1529.8 1110.34 1526.05 Q1113.3 1522.3 1118 1522.3 Q1120.87 1522.3 1122.91 1523.43 Q1124.97 1524.54 1126.31 1526.86 M1111.8 1535.91 Q1111.8 1540.61 1113.72 1543.29 Q1115.67 1545.95 1119.05 1545.95 Q1122.42 1545.95 1124.37 1543.29 Q1126.31 1540.61 1126.31 1535.91 Q1126.31 1531.21 1124.37 1528.55 Q1122.42 1525.86 1119.05 1525.86 Q1115.67 1525.86 1113.72 1528.55 Q1111.8 1531.21 1111.8 1535.91 Z" fill="#000000" fill-rule="evenodd" fill-opacity="1" /><path clip-path="url(#clip880)" d="M1152.47 1512.83 L1152.47 1516.37 L1148.4 1516.37 Q1146.11 1516.37 1145.2 1517.3 Q1144.32 1518.22 1144.32 1520.63 L1144.32 1522.92 L1151.34 1522.92 L1151.34 1526.23 L1144.32 1526.23 L1144.32 1548.85 L1140.04 1548.85 L1140.04 1526.23 L1135.97 1526.23 L1135.97 1522.92 L1140.04 1522.92 L1140.04 1521.12 Q1140.04 1516.79 1142.05 1514.82 Q1144.07 1512.83 1148.44 1512.83 L1152.47 1512.83 Z" fill="#000000" fill-rule="evenodd" fill-opacity="1" /><path clip-path="url(#clip880)" d="M1153.19 1542.97 L1158.07 1542.97 L1158.07 1548.85 L1153.19 1548.85 L1153.19 1542.97 Z" fill="#000000" fill-rule="evenodd" fill-opacity="1" /><path clip-path="url(#clip880)" d="M1167.66 1522.92 L1171.92 1522.92 L1171.92 1549.31 Q1171.92 1554.26 1170.02 1556.49 Q1168.14 1558.71 1163.95 1558.71 L1162.33 1558.71 L1162.33 1555.1 L1163.47 1555.1 Q1165.9 1555.1 1166.78 1553.96 Q1167.66 1552.85 1167.66 1549.31 L1167.66 1522.92 M1167.66 1512.83 L1171.92 1512.83 L1171.92 1518.22 L1167.66 1518.22 L1167.66 1512.83 Z" fill="#000000" fill-rule="evenodd" fill-opacity="1" /><path clip-path="url(#clip880)" d="M1197.89 1526.86 L1197.89 1512.83 L1202.15 1512.83 L1202.15 1548.85 L1197.89 1548.85 L1197.89 1544.96 Q1196.54 1547.27 1194.48 1548.41 Q1192.45 1549.52 1189.58 1549.52 Q1184.88 1549.52 1181.92 1545.77 Q1178.98 1542.02 1178.98 1535.91 Q1178.98 1529.8 1181.92 1526.05 Q1184.88 1522.3 1189.58 1522.3 Q1192.45 1522.3 1194.48 1523.43 Q1196.54 1524.54 1197.89 1526.86 M1183.37 1535.91 Q1183.37 1540.61 1185.29 1543.29 Q1187.24 1545.95 1190.62 1545.95 Q1194 1545.95 1195.94 1543.29 Q1197.89 1540.61 1197.89 1535.91 Q1197.89 1531.21 1195.94 1528.55 Q1194 1525.86 1190.62 1525.86 Q1187.24 1525.86 1185.29 1528.55 Q1183.37 1531.21 1183.37 1535.91 Z" fill="#000000" fill-rule="evenodd" fill-opacity="1" /><path clip-path="url(#clip880)" d="M1224.04 1512.83 L1224.04 1516.37 L1219.97 1516.37 Q1217.68 1516.37 1216.78 1517.3 Q1215.9 1518.22 1215.9 1520.63 L1215.9 1522.92 L1222.91 1522.92 L1222.91 1526.23 L1215.9 1526.23 L1215.9 1548.85 L1211.61 1548.85 L1211.61 1526.23 L1207.54 1526.23 L1207.54 1522.92 L1211.61 1522.92 L1211.61 1521.12 Q1211.61 1516.79 1213.63 1514.82 Q1215.64 1512.83 1220.02 1512.83 L1224.04 1512.83 Z" fill="#000000" fill-rule="evenodd" fill-opacity="1" /><path clip-path="url(#clip880)" d="M1354.79 1535.91 Q1354.79 1531.21 1352.85 1528.55 Q1350.93 1525.86 1347.55 1525.86 Q1344.17 1525.86 1342.22 1528.55 Q1340.3 1531.21 1340.3 1535.91 Q1340.3 1540.61 1342.22 1543.29 Q1344.17 1545.95 1347.55 1545.95 Q1350.93 1545.95 1352.85 1543.29 Q1354.79 1540.61 1354.79 1535.91 M1340.3 1526.86 Q1341.64 1524.54 1343.68 1523.43 Q1345.74 1522.3 1348.59 1522.3 Q1353.31 1522.3 1356.25 1526.05 Q1359.21 1529.8 1359.21 1535.91 Q1359.21 1542.02 1356.25 1545.77 Q1353.31 1549.52 1348.59 1549.52 Q1345.74 1549.52 1343.68 1548.41 Q1341.64 1547.27 1340.3 1544.96 L1340.3 1548.85 L1336.02 1548.85 L1336.02 1512.83 L1340.3 1512.83 L1340.3 1526.86 Z" fill="#000000" fill-rule="evenodd" fill-opacity="1" /><path clip-path="url(#clip880)" d="M1366.27 1522.92 L1370.53 1522.92 L1370.53 1548.85 L1366.27 1548.85 L1366.27 1522.92 M1366.27 1512.83 L1370.53 1512.83 L1370.53 1518.22 L1366.27 1518.22 L1366.27 1512.83 Z" fill="#000000" fill-rule="evenodd" fill-opacity="1" /><path clip-path="url(#clip880)" d="M1396.51 1535.58 Q1396.51 1530.95 1394.58 1528.41 Q1392.69 1525.86 1389.24 1525.86 Q1385.81 1525.86 1383.89 1528.41 Q1381.99 1530.95 1381.99 1535.58 Q1381.99 1540.19 1383.89 1542.74 Q1385.81 1545.28 1389.24 1545.28 Q1392.69 1545.28 1394.58 1542.74 Q1396.51 1540.19 1396.51 1535.58 M1400.76 1545.63 Q1400.76 1552.25 1397.83 1555.47 Q1394.89 1558.71 1388.82 1558.71 Q1386.58 1558.71 1384.58 1558.36 Q1382.59 1558.04 1380.72 1557.34 L1380.72 1553.2 Q1382.59 1554.22 1384.42 1554.7 Q1386.25 1555.19 1388.15 1555.19 Q1392.34 1555.19 1394.42 1552.99 Q1396.51 1550.82 1396.51 1546.39 L1396.51 1544.29 Q1395.19 1546.58 1393.13 1547.71 Q1391.07 1548.85 1388.2 1548.85 Q1383.43 1548.85 1380.51 1545.21 Q1377.59 1541.58 1377.59 1535.58 Q1377.59 1529.57 1380.51 1525.93 Q1383.43 1522.3 1388.2 1522.3 Q1391.07 1522.3 1393.13 1523.43 Q1395.19 1524.57 1396.51 1526.86 L1396.51 1522.92 L1400.76 1522.92 L1400.76 1545.63 Z" fill="#000000" fill-rule="evenodd" fill-opacity="1" /><path clip-path="url(#clip880)" d="M1426.6 1526.86 L1426.6 1512.83 L1430.86 1512.83 L1430.86 1548.85 L1426.6 1548.85 L1426.6 1544.96 Q1425.26 1547.27 1423.2 1548.41 Q1421.16 1549.52 1418.29 1549.52 Q1413.59 1549.52 1410.63 1545.77 Q1407.69 1542.02 1407.69 1535.91 Q1407.69 1529.8 1410.63 1526.05 Q1413.59 1522.3 1418.29 1522.3 Q1421.16 1522.3 1423.2 1523.43 Q1425.26 1524.54 1426.6 1526.86 M1412.08 1535.91 Q1412.08 1540.61 1414.01 1543.29 Q1415.95 1545.95 1419.33 1545.95 Q1422.71 1545.95 1424.65 1543.29 Q1426.6 1540.61 1426.6 1535.91 Q1426.6 1531.21 1424.65 1528.55 Q1422.71 1525.86 1419.33 1525.86 Q1415.95 1525.86 1414.01 1528.55 Q1412.08 1531.21 1412.08 1535.91 Z" fill="#000000" fill-rule="evenodd" fill-opacity="1" /><path clip-path="url(#clip880)" d="M1452.76 1512.83 L1452.76 1516.37 L1448.68 1516.37 Q1446.39 1516.37 1445.49 1517.3 Q1444.61 1518.22 1444.61 1520.63 L1444.61 1522.92 L1451.62 1522.92 L1451.62 1526.23 L1444.61 1526.23 L1444.61 1548.85 L1440.32 1548.85 L1440.32 1526.23 L1436.25 1526.23 L1436.25 1522.92 L1440.32 1522.92 L1440.32 1521.12 Q1440.32 1516.79 1442.34 1514.82 Q1444.35 1512.83 1448.73 1512.83 L1452.76 1512.83 Z" fill="#000000" fill-rule="evenodd" fill-opacity="1" /><path clip-path="url(#clip880)" d="M1457.73 1544.91 L1465.37 1544.91 L1465.37 1518.55 L1457.06 1520.21 L1457.06 1515.95 L1465.32 1514.29 L1470 1514.29 L1470 1544.91 L1477.64 1544.91 L1477.64 1548.85 L1457.73 1548.85 L1457.73 1544.91 Z" fill="#000000" fill-rule="evenodd" fill-opacity="1" /><path clip-path="url(#clip880)" d="M1487.08 1542.97 L1491.97 1542.97 L1491.97 1548.85 L1487.08 1548.85 L1487.08 1542.97 Z" fill="#000000" fill-rule="evenodd" fill-opacity="1" /><path clip-path="url(#clip880)" d="M1520.21 1523.92 L1520.21 1527.9 Q1518.4 1526.9 1516.57 1526.42 Q1514.77 1525.91 1512.92 1525.91 Q1508.77 1525.91 1506.48 1528.55 Q1504.19 1531.16 1504.19 1535.91 Q1504.19 1540.65 1506.48 1543.29 Q1508.77 1545.91 1512.92 1545.91 Q1514.77 1545.91 1516.57 1545.42 Q1518.4 1544.91 1520.21 1543.92 L1520.21 1547.85 Q1518.43 1548.69 1516.5 1549.1 Q1514.61 1549.52 1512.45 1549.52 Q1506.6 1549.52 1503.15 1545.84 Q1499.7 1542.16 1499.7 1535.91 Q1499.7 1529.57 1503.17 1525.93 Q1506.67 1522.3 1512.73 1522.3 Q1514.7 1522.3 1516.57 1522.71 Q1518.45 1523.11 1520.21 1523.92 Z" fill="#000000" fill-rule="evenodd" fill-opacity="1" /><path clip-path="url(#clip880)" d="M1544.14 1523.69 L1544.14 1527.71 Q1542.34 1526.79 1540.39 1526.32 Q1538.45 1525.86 1536.37 1525.86 Q1533.19 1525.86 1531.6 1526.83 Q1530.02 1527.81 1530.02 1529.75 Q1530.02 1531.23 1531.16 1532.09 Q1532.29 1532.92 1535.72 1533.69 L1537.18 1534.01 Q1541.71 1534.98 1543.61 1536.76 Q1545.53 1538.52 1545.53 1541.7 Q1545.53 1545.31 1542.66 1547.41 Q1539.82 1549.52 1534.82 1549.52 Q1532.73 1549.52 1530.46 1549.1 Q1528.22 1548.71 1525.72 1547.9 L1525.72 1543.5 Q1528.08 1544.73 1530.37 1545.35 Q1532.66 1545.95 1534.91 1545.95 Q1537.92 1545.95 1539.54 1544.94 Q1541.16 1543.89 1541.16 1542.02 Q1541.16 1540.28 1539.98 1539.36 Q1538.82 1538.43 1534.86 1537.57 L1533.38 1537.23 Q1529.42 1536.39 1527.66 1534.68 Q1525.9 1532.95 1525.9 1529.94 Q1525.9 1526.28 1528.5 1524.29 Q1531.09 1522.3 1535.86 1522.3 Q1538.22 1522.3 1540.3 1522.64 Q1542.38 1522.99 1544.14 1523.69 Z" fill="#000000" fill-rule="evenodd" fill-opacity="1" /><path clip-path="url(#clip880)" d="M1549.26 1522.92 L1553.77 1522.92 L1561.88 1544.68 L1569.98 1522.92 L1574.49 1522.92 L1564.77 1548.85 L1558.98 1548.85 L1549.26 1522.92 Z" fill="#000000" fill-rule="evenodd" fill-opacity="1" /><path clip-path="url(#clip880)" d="M1672.42 1535.91 Q1672.42 1531.21 1670.47 1528.55 Q1668.55 1525.86 1665.17 1525.86 Q1661.79 1525.86 1659.85 1528.55 Q1657.92 1531.21 1657.92 1535.91 Q1657.92 1540.61 1659.85 1543.29 Q1661.79 1545.95 1665.17 1545.95 Q1668.55 1545.95 1670.47 1543.29 Q1672.42 1540.61 1672.42 1535.91 M1657.92 1526.86 Q1659.27 1524.54 1661.3 1523.43 Q1663.36 1522.3 1666.21 1522.3 Q1670.93 1522.3 1673.87 1526.05 Q1676.84 1529.8 1676.84 1535.91 Q1676.84 1542.02 1673.87 1545.77 Q1670.93 1549.52 1666.21 1549.52 Q1663.36 1549.52 1661.3 1548.41 Q1659.27 1547.27 1657.92 1544.96 L1657.92 1548.85 L1653.64 1548.85 L1653.64 1512.83 L1657.92 1512.83 L1657.92 1526.86 Z" fill="#000000" fill-rule="evenodd" fill-opacity="1" /><path clip-path="url(#clip880)" d="M1683.9 1522.92 L1688.16 1522.92 L1688.16 1548.85 L1683.9 1548.85 L1683.9 1522.92 M1683.9 1512.83 L1688.16 1512.83 L1688.16 1518.22 L1683.9 1518.22 L1683.9 1512.83 Z" fill="#000000" fill-rule="evenodd" fill-opacity="1" /><path clip-path="url(#clip880)" d="M1714.13 1535.58 Q1714.13 1530.95 1712.21 1528.41 Q1710.31 1525.86 1706.86 1525.86 Q1703.43 1525.86 1701.51 1528.41 Q1699.61 1530.95 1699.61 1535.58 Q1699.61 1540.19 1701.51 1542.74 Q1703.43 1545.28 1706.86 1545.28 Q1710.31 1545.28 1712.21 1542.74 Q1714.13 1540.19 1714.13 1535.58 M1718.39 1545.63 Q1718.39 1552.25 1715.45 1555.47 Q1712.51 1558.71 1706.44 1558.71 Q1704.2 1558.71 1702.21 1558.36 Q1700.22 1558.04 1698.34 1557.34 L1698.34 1553.2 Q1700.22 1554.22 1702.04 1554.7 Q1703.87 1555.19 1705.77 1555.19 Q1709.96 1555.19 1712.04 1552.99 Q1714.13 1550.82 1714.13 1546.39 L1714.13 1544.29 Q1712.81 1546.58 1710.75 1547.71 Q1708.69 1548.85 1705.82 1548.85 Q1701.05 1548.85 1698.13 1545.21 Q1695.22 1541.58 1695.22 1535.58 Q1695.22 1529.57 1698.13 1525.93 Q1701.05 1522.3 1705.82 1522.3 Q1708.69 1522.3 1710.75 1523.43 Q1712.81 1524.57 1714.13 1526.86 L1714.13 1522.92 L1718.39 1522.92 L1718.39 1545.63 Z" fill="#000000" fill-rule="evenodd" fill-opacity="1" /><path clip-path="url(#clip880)" d="M1744.22 1526.86 L1744.22 1512.83 L1748.48 1512.83 L1748.48 1548.85 L1744.22 1548.85 L1744.22 1544.96 Q1742.88 1547.27 1740.82 1548.41 Q1738.78 1549.52 1735.91 1549.52 Q1731.21 1549.52 1728.25 1545.77 Q1725.31 1542.02 1725.31 1535.91 Q1725.31 1529.8 1728.25 1526.05 Q1731.21 1522.3 1735.91 1522.3 Q1738.78 1522.3 1740.82 1523.43 Q1742.88 1524.54 1744.22 1526.86 M1729.71 1535.91 Q1729.71 1540.61 1731.63 1543.29 Q1733.57 1545.95 1736.95 1545.95 Q1740.33 1545.95 1742.28 1543.29 Q1744.22 1540.61 1744.22 1535.91 Q1744.22 1531.21 1742.28 1528.55 Q1740.33 1525.86 1736.95 1525.86 Q1733.57 1525.86 1731.63 1528.55 Q1729.71 1531.21 1729.71 1535.91 Z" fill="#000000" fill-rule="evenodd" fill-opacity="1" /><path clip-path="url(#clip880)" d="M1770.38 1512.83 L1770.38 1516.37 L1766.3 1516.37 Q1764.01 1516.37 1763.11 1517.3 Q1762.23 1518.22 1762.23 1520.63 L1762.23 1522.92 L1769.24 1522.92 L1769.24 1526.23 L1762.23 1526.23 L1762.23 1548.85 L1757.95 1548.85 L1757.95 1526.23 L1753.87 1526.23 L1753.87 1522.92 L1757.95 1522.92 L1757.95 1521.12 Q1757.95 1516.79 1759.96 1514.82 Q1761.97 1512.83 1766.35 1512.83 L1770.38 1512.83 Z" fill="#000000" fill-rule="evenodd" fill-opacity="1" /><path clip-path="url(#clip880)" d="M1778.57 1544.91 L1794.89 1544.91 L1794.89 1548.85 L1772.95 1548.85 L1772.95 1544.91 Q1775.61 1542.16 1780.19 1537.53 Q1784.8 1532.88 1785.98 1531.53 Q1788.22 1529.01 1789.1 1527.27 Q1790.01 1525.51 1790.01 1523.82 Q1790.01 1521.07 1788.06 1519.33 Q1786.14 1517.6 1783.04 1517.6 Q1780.84 1517.6 1778.39 1518.36 Q1775.96 1519.13 1773.18 1520.68 L1773.18 1515.95 Q1776 1514.82 1778.46 1514.24 Q1780.91 1513.66 1782.95 1513.66 Q1788.32 1513.66 1791.51 1516.35 Q1794.71 1519.03 1794.71 1523.52 Q1794.71 1525.65 1793.9 1527.57 Q1793.11 1529.47 1791 1532.07 Q1790.42 1532.74 1787.32 1535.95 Q1784.22 1539.15 1778.57 1544.91 Z" fill="#000000" fill-rule="evenodd" fill-opacity="1" /><path clip-path="url(#clip880)" d="M1804.71 1542.97 L1809.59 1542.97 L1809.59 1548.85 L1804.71 1548.85 L1804.71 1542.97 Z" fill="#000000" fill-rule="evenodd" fill-opacity="1" /><path clip-path="url(#clip880)" d="M1819.17 1522.92 L1823.43 1522.92 L1823.43 1549.31 Q1823.43 1554.26 1821.53 1556.49 Q1819.66 1558.71 1815.47 1558.71 L1813.85 1558.71 L1813.85 1555.1 L1814.98 1555.1 Q1817.41 1555.1 1818.29 1553.96 Q1819.17 1552.85 1819.17 1549.31 L1819.17 1522.92 M1819.17 1512.83 L1823.43 1512.83 L1823.43 1518.22 L1819.17 1518.22 L1819.17 1512.83 Z" fill="#000000" fill-rule="evenodd" fill-opacity="1" /><path clip-path="url(#clip880)" d="M1848.87 1523.69 L1848.87 1527.71 Q1847.07 1526.79 1845.12 1526.32 Q1843.18 1525.86 1841.09 1525.86 Q1837.92 1525.86 1836.33 1526.83 Q1834.75 1527.81 1834.75 1529.75 Q1834.75 1531.23 1835.89 1532.09 Q1837.02 1532.92 1840.45 1533.69 L1841.9 1534.01 Q1846.44 1534.98 1848.34 1536.76 Q1850.26 1538.52 1850.26 1541.7 Q1850.26 1545.31 1847.39 1547.41 Q1844.54 1549.52 1839.54 1549.52 Q1837.46 1549.52 1835.19 1549.1 Q1832.95 1548.71 1830.45 1547.9 L1830.45 1543.5 Q1832.81 1544.73 1835.1 1545.35 Q1837.39 1545.95 1839.64 1545.95 Q1842.65 1545.95 1844.27 1544.94 Q1845.89 1543.89 1845.89 1542.02 Q1845.89 1540.28 1844.71 1539.36 Q1843.55 1538.43 1839.59 1537.57 L1838.11 1537.23 Q1834.15 1536.39 1832.39 1534.68 Q1830.63 1532.95 1830.63 1529.94 Q1830.63 1526.28 1833.22 1524.29 Q1835.82 1522.3 1840.59 1522.3 Q1842.95 1522.3 1845.03 1522.64 Q1847.11 1522.99 1848.87 1523.69 Z" fill="#000000" fill-rule="evenodd" fill-opacity="1" /><path clip-path="url(#clip880)" d="M1867.09 1525.91 Q1863.66 1525.91 1861.67 1528.59 Q1859.68 1531.26 1859.68 1535.91 Q1859.68 1540.56 1861.65 1543.25 Q1863.64 1545.91 1867.09 1545.91 Q1870.49 1545.91 1872.48 1543.22 Q1874.47 1540.54 1874.47 1535.91 Q1874.47 1531.3 1872.48 1528.62 Q1870.49 1525.91 1867.09 1525.91 M1867.09 1522.3 Q1872.65 1522.3 1875.82 1525.91 Q1878.99 1529.52 1878.99 1535.91 Q1878.99 1542.27 1875.82 1545.91 Q1872.65 1549.52 1867.09 1549.52 Q1861.51 1549.52 1858.34 1545.91 Q1855.19 1542.27 1855.19 1535.91 Q1855.19 1529.52 1858.34 1525.91 Q1861.51 1522.3 1867.09 1522.3 Z" fill="#000000" fill-rule="evenodd" fill-opacity="1" /><path clip-path="url(#clip880)" d="M1907.6 1533.2 L1907.6 1548.85 L1903.34 1548.85 L1903.34 1533.34 Q1903.34 1529.66 1901.9 1527.83 Q1900.47 1526 1897.6 1526 Q1894.15 1526 1892.16 1528.2 Q1890.17 1530.4 1890.17 1534.2 L1890.17 1548.85 L1885.89 1548.85 L1885.89 1522.92 L1890.17 1522.92 L1890.17 1526.95 Q1891.7 1524.61 1893.76 1523.45 Q1895.84 1522.3 1898.55 1522.3 Q1903.02 1522.3 1905.31 1525.07 Q1907.6 1527.83 1907.6 1533.2 Z" fill="#000000" fill-rule="evenodd" fill-opacity="1" /><path clip-path="url(#clip880)" d="M1997.78 1535.91 Q1997.78 1531.21 1995.84 1528.55 Q1993.91 1525.86 1990.54 1525.86 Q1987.16 1525.86 1985.21 1528.55 Q1983.29 1531.21 1983.29 1535.91 Q1983.29 1540.61 1985.21 1543.29 Q1987.16 1545.95 1990.54 1545.95 Q1993.91 1545.95 1995.84 1543.29 Q1997.78 1540.61 1997.78 1535.91 M1983.29 1526.86 Q1984.63 1524.54 1986.67 1523.43 Q1988.73 1522.3 1991.58 1522.3 Q1996.3 1522.3 1999.24 1526.05 Q2002.2 1529.8 2002.2 1535.91 Q2002.2 1542.02 1999.24 1545.77 Q1996.3 1549.52 1991.58 1549.52 Q1988.73 1549.52 1986.67 1548.41 Q1984.63 1547.27 1983.29 1544.96 L1983.29 1548.85 L1979.01 1548.85 L1979.01 1512.83 L1983.29 1512.83 L1983.29 1526.86 Z" fill="#000000" fill-rule="evenodd" fill-opacity="1" /><path clip-path="url(#clip880)" d="M2009.26 1522.92 L2013.52 1522.92 L2013.52 1548.85 L2009.26 1548.85 L2009.26 1522.92 M2009.26 1512.83 L2013.52 1512.83 L2013.52 1518.22 L2009.26 1518.22 L2009.26 1512.83 Z" fill="#000000" fill-rule="evenodd" fill-opacity="1" /><path clip-path="url(#clip880)" d="M2039.49 1535.58 Q2039.49 1530.95 2037.57 1528.41 Q2035.67 1525.86 2032.22 1525.86 Q2028.8 1525.86 2026.88 1528.41 Q2024.98 1530.95 2024.98 1535.58 Q2024.98 1540.19 2026.88 1542.74 Q2028.8 1545.28 2032.22 1545.28 Q2035.67 1545.28 2037.57 1542.74 Q2039.49 1540.19 2039.49 1535.58 M2043.75 1545.63 Q2043.75 1552.25 2040.81 1555.47 Q2037.87 1558.71 2031.81 1558.71 Q2029.56 1558.71 2027.57 1558.36 Q2025.58 1558.04 2023.71 1557.34 L2023.71 1553.2 Q2025.58 1554.22 2027.41 1554.7 Q2029.24 1555.19 2031.14 1555.19 Q2035.33 1555.19 2037.41 1552.99 Q2039.49 1550.82 2039.49 1546.39 L2039.49 1544.29 Q2038.17 1546.58 2036.11 1547.71 Q2034.05 1548.85 2031.18 1548.85 Q2026.41 1548.85 2023.5 1545.21 Q2020.58 1541.58 2020.58 1535.58 Q2020.58 1529.57 2023.5 1525.93 Q2026.41 1522.3 2031.18 1522.3 Q2034.05 1522.3 2036.11 1523.43 Q2038.17 1524.57 2039.49 1526.86 L2039.49 1522.92 L2043.75 1522.92 L2043.75 1545.63 Z" fill="#000000" fill-rule="evenodd" fill-opacity="1" /><path clip-path="url(#clip880)" d="M2069.59 1526.86 L2069.59 1512.83 L2073.84 1512.83 L2073.84 1548.85 L2069.59 1548.85 L2069.59 1544.96 Q2068.24 1547.27 2066.18 1548.41 Q2064.15 1549.52 2061.28 1549.52 Q2056.58 1549.52 2053.61 1545.77 Q2050.67 1542.02 2050.67 1535.91 Q2050.67 1529.8 2053.61 1526.05 Q2056.58 1522.3 2061.28 1522.3 Q2064.15 1522.3 2066.18 1523.43 Q2068.24 1524.54 2069.59 1526.86 M2055.07 1535.91 Q2055.07 1540.61 2056.99 1543.29 Q2058.94 1545.95 2062.32 1545.95 Q2065.7 1545.95 2067.64 1543.29 Q2069.59 1540.61 2069.59 1535.91 Q2069.59 1531.21 2067.64 1528.55 Q2065.7 1525.86 2062.32 1525.86 Q2058.94 1525.86 2056.99 1528.55 Q2055.07 1531.21 2055.07 1535.91 Z" fill="#000000" fill-rule="evenodd" fill-opacity="1" /><path clip-path="url(#clip880)" d="M2095.74 1512.83 L2095.74 1516.37 L2091.67 1516.37 Q2089.38 1516.37 2088.47 1517.3 Q2087.59 1518.22 2087.59 1520.63 L2087.59 1522.92 L2094.61 1522.92 L2094.61 1526.23 L2087.59 1526.23 L2087.59 1548.85 L2083.31 1548.85 L2083.31 1526.23 L2079.24 1526.23 L2079.24 1522.92 L2083.31 1522.92 L2083.31 1521.12 Q2083.31 1516.79 2085.33 1514.82 Q2087.34 1512.83 2091.72 1512.83 L2095.74 1512.83 Z" fill="#000000" fill-rule="evenodd" fill-opacity="1" /><path clip-path="url(#clip880)" d="M2100.72 1544.91 L2108.36 1544.91 L2108.36 1518.55 L2100.05 1520.21 L2100.05 1515.95 L2108.31 1514.29 L2112.99 1514.29 L2112.99 1544.91 L2120.63 1544.91 L2120.63 1548.85 L2100.72 1548.85 L2100.72 1544.91 Z" fill="#000000" fill-rule="evenodd" fill-opacity="1" /><path clip-path="url(#clip880)" d="M2130.07 1542.97 L2134.96 1542.97 L2134.96 1548.85 L2130.07 1548.85 L2130.07 1542.97 Z" fill="#000000" fill-rule="evenodd" fill-opacity="1" /><path clip-path="url(#clip880)" d="M2144.54 1522.92 L2148.8 1522.92 L2148.8 1549.31 Q2148.8 1554.26 2146.9 1556.49 Q2145.02 1558.71 2140.84 1558.71 L2139.21 1558.71 L2139.21 1555.1 L2140.35 1555.1 Q2142.78 1555.1 2143.66 1553.96 Q2144.54 1552.85 2144.54 1549.31 L2144.54 1522.92 M2144.54 1512.83 L2148.8 1512.83 L2148.8 1518.22 L2144.54 1518.22 L2144.54 1512.83 Z" fill="#000000" fill-rule="evenodd" fill-opacity="1" /><path clip-path="url(#clip880)" d="M2174.24 1523.69 L2174.24 1527.71 Q2172.43 1526.79 2170.49 1526.32 Q2168.54 1525.86 2166.46 1525.86 Q2163.29 1525.86 2161.69 1526.83 Q2160.12 1527.81 2160.12 1529.75 Q2160.12 1531.23 2161.25 1532.09 Q2162.39 1532.92 2165.81 1533.69 L2167.27 1534.01 Q2171.81 1534.98 2173.71 1536.76 Q2175.63 1538.52 2175.63 1541.7 Q2175.63 1545.31 2172.76 1547.41 Q2169.91 1549.52 2164.91 1549.52 Q2162.83 1549.52 2160.56 1549.1 Q2158.31 1548.71 2155.81 1547.9 L2155.81 1543.5 Q2158.17 1544.73 2160.46 1545.35 Q2162.76 1545.95 2165 1545.95 Q2168.01 1545.95 2169.63 1544.94 Q2171.25 1543.89 2171.25 1542.02 Q2171.25 1540.28 2170.07 1539.36 Q2168.91 1538.43 2164.96 1537.57 L2163.47 1537.23 Q2159.52 1536.39 2157.76 1534.68 Q2156 1532.95 2156 1529.94 Q2156 1526.28 2158.59 1524.29 Q2161.18 1522.3 2165.95 1522.3 Q2168.31 1522.3 2170.4 1522.64 Q2172.48 1522.99 2174.24 1523.69 Z" fill="#000000" fill-rule="evenodd" fill-opacity="1" /><path clip-path="url(#clip880)" d="M2192.46 1525.91 Q2189.03 1525.91 2187.04 1528.59 Q2185.05 1531.26 2185.05 1535.91 Q2185.05 1540.56 2187.02 1543.25 Q2189.01 1545.91 2192.46 1545.91 Q2195.86 1545.91 2197.85 1543.22 Q2199.84 1540.54 2199.84 1535.91 Q2199.84 1531.3 2197.85 1528.62 Q2195.86 1525.91 2192.46 1525.91 M2192.46 1522.3 Q2198.01 1522.3 2201.18 1525.91 Q2204.35 1529.52 2204.35 1535.91 Q2204.35 1542.27 2201.18 1545.91 Q2198.01 1549.52 2192.46 1549.52 Q2186.88 1549.52 2183.71 1545.91 Q2180.56 1542.27 2180.56 1535.91 Q2180.56 1529.52 2183.71 1525.91 Q2186.88 1522.3 2192.46 1522.3 Z" fill="#000000" fill-rule="evenodd" fill-opacity="1" /><path clip-path="url(#clip880)" d="M2232.96 1533.2 L2232.96 1548.85 L2228.71 1548.85 L2228.71 1533.34 Q2228.71 1529.66 2227.27 1527.83 Q2225.83 1526 2222.96 1526 Q2219.52 1526 2217.52 1528.2 Q2215.53 1530.4 2215.53 1534.2 L2215.53 1548.85 L2211.25 1548.85 L2211.25 1522.92 L2215.53 1522.92 L2215.53 1526.95 Q2217.06 1524.61 2219.12 1523.45 Q2221.21 1522.3 2223.91 1522.3 Q2228.38 1522.3 2230.67 1525.07 Q2232.96 1527.83 2232.96 1533.2 Z" fill="#000000" fill-rule="evenodd" fill-opacity="1" /><polyline clip-path="url(#clip882)" style="stroke:#000000; stroke-linecap:butt; stroke-linejoin:round; stroke-width:2; stroke-opacity:0.1; fill:none" points="
  232.389,1447.87 2352.76,1447.87 
  "/>
<polyline clip-path="url(#clip882)" style="stroke:#000000; stroke-linecap:butt; stroke-linejoin:round; stroke-width:2; stroke-opacity:0.1; fill:none" points="
  232.389,1176.11 2352.76,1176.11 
  "/>
<polyline clip-path="url(#clip882)" style="stroke:#000000; stroke-linecap:butt; stroke-linejoin:round; stroke-width:2; stroke-opacity:0.1; fill:none" points="
  232.389,904.339 2352.76,904.339 
  "/>
<polyline clip-path="url(#clip882)" style="stroke:#000000; stroke-linecap:butt; stroke-linejoin:round; stroke-width:2; stroke-opacity:0.1; fill:none" points="
  232.389,632.573 2352.76,632.573 
  "/>
<polyline clip-path="url(#clip882)" style="stroke:#000000; stroke-linecap:butt; stroke-linejoin:round; stroke-width:2; stroke-opacity:0.1; fill:none" points="
  232.389,360.806 2352.76,360.806 
  "/>
<polyline clip-path="url(#clip880)" style="stroke:#000000; stroke-linecap:butt; stroke-linejoin:round; stroke-width:4; stroke-opacity:1; fill:none" points="
  232.389,1486.45 232.389,123.472 
  "/>
<polyline clip-path="url(#clip880)" style="stroke:#000000; stroke-linecap:butt; stroke-linejoin:round; stroke-width:4; stroke-opacity:1; fill:none" points="
  232.389,1447.87 251.287,1447.87 
  "/>
<polyline clip-path="url(#clip880)" style="stroke:#000000; stroke-linecap:butt; stroke-linejoin:round; stroke-width:4; stroke-opacity:1; fill:none" points="
  232.389,1176.11 251.287,1176.11 
  "/>
<polyline clip-path="url(#clip880)" style="stroke:#000000; stroke-linecap:butt; stroke-linejoin:round; stroke-width:4; stroke-opacity:1; fill:none" points="
  232.389,904.339 251.287,904.339 
  "/>
<polyline clip-path="url(#clip880)" style="stroke:#000000; stroke-linecap:butt; stroke-linejoin:round; stroke-width:4; stroke-opacity:1; fill:none" points="
  232.389,632.573 251.287,632.573 
  "/>
<polyline clip-path="url(#clip880)" style="stroke:#000000; stroke-linecap:butt; stroke-linejoin:round; stroke-width:4; stroke-opacity:1; fill:none" points="
  232.389,360.806 251.287,360.806 
  "/>
<path clip-path="url(#clip880)" d="M184.445 1433.67 Q180.834 1433.67 179.005 1437.24 Q177.2 1440.78 177.2 1447.91 Q177.2 1455.01 179.005 1458.58 Q180.834 1462.12 184.445 1462.12 Q188.079 1462.12 189.885 1458.58 Q191.713 1455.01 191.713 1447.91 Q191.713 1440.78 189.885 1437.24 Q188.079 1433.67 184.445 1433.67 M184.445 1429.97 Q190.255 1429.97 193.311 1434.57 Q196.389 1439.16 196.389 1447.91 Q196.389 1456.63 193.311 1461.24 Q190.255 1465.82 184.445 1465.82 Q178.635 1465.82 175.556 1461.24 Q172.501 1456.63 172.501 1447.91 Q172.501 1439.16 175.556 1434.57 Q178.635 1429.97 184.445 1429.97 Z" fill="#000000" fill-rule="evenodd" fill-opacity="1" /><path clip-path="url(#clip880)" d="M149.306 1189.45 L165.626 1189.45 L165.626 1193.39 L143.681 1193.39 L143.681 1189.45 Q146.343 1186.7 150.927 1182.07 Q155.533 1177.41 156.714 1176.07 Q158.959 1173.55 159.839 1171.81 Q160.741 1170.05 160.741 1168.36 Q160.741 1165.61 158.797 1163.87 Q156.876 1162.14 153.774 1162.14 Q151.575 1162.14 149.121 1162.9 Q146.691 1163.66 143.913 1165.22 L143.913 1160.49 Q146.737 1159.36 149.191 1158.78 Q151.644 1158.2 153.681 1158.2 Q159.052 1158.2 162.246 1160.89 Q165.44 1163.57 165.44 1168.06 Q165.44 1170.19 164.63 1172.11 Q163.843 1174.01 161.737 1176.6 Q161.158 1177.28 158.056 1180.49 Q154.954 1183.69 149.306 1189.45 Z" fill="#000000" fill-rule="evenodd" fill-opacity="1" /><path clip-path="url(#clip880)" d="M175.487 1158.83 L193.843 1158.83 L193.843 1162.76 L179.769 1162.76 L179.769 1171.23 Q180.788 1170.89 181.806 1170.72 Q182.825 1170.54 183.843 1170.54 Q189.63 1170.54 193.01 1173.71 Q196.389 1176.88 196.389 1182.3 Q196.389 1187.88 192.917 1190.98 Q189.445 1194.06 183.126 1194.06 Q180.95 1194.06 178.681 1193.69 Q176.436 1193.32 174.028 1192.58 L174.028 1187.88 Q176.112 1189.01 178.334 1189.57 Q180.556 1190.12 183.033 1190.12 Q187.038 1190.12 189.375 1188.02 Q191.713 1185.91 191.713 1182.3 Q191.713 1178.69 189.375 1176.58 Q187.038 1174.47 183.033 1174.47 Q181.158 1174.47 179.283 1174.89 Q177.431 1175.31 175.487 1176.19 L175.487 1158.83 Z" fill="#000000" fill-rule="evenodd" fill-opacity="1" /><path clip-path="url(#clip880)" d="M144.329 887.059 L162.686 887.059 L162.686 890.995 L148.612 890.995 L148.612 899.467 Q149.63 899.119 150.649 898.957 Q151.667 898.772 152.686 898.772 Q158.473 898.772 161.852 901.944 Q165.232 905.115 165.232 910.531 Q165.232 916.11 161.76 919.212 Q158.288 922.291 151.968 922.291 Q149.792 922.291 147.524 921.92 Q145.279 921.55 142.871 920.809 L142.871 916.11 Q144.954 917.244 147.177 917.8 Q149.399 918.355 151.876 918.355 Q155.88 918.355 158.218 916.249 Q160.556 914.143 160.556 910.531 Q160.556 906.92 158.218 904.814 Q155.88 902.707 151.876 902.707 Q150.001 902.707 148.126 903.124 Q146.274 903.541 144.329 904.42 L144.329 887.059 Z" fill="#000000" fill-rule="evenodd" fill-opacity="1" /><path clip-path="url(#clip880)" d="M184.445 890.138 Q180.834 890.138 179.005 893.703 Q177.2 897.245 177.2 904.374 Q177.2 911.481 179.005 915.045 Q180.834 918.587 184.445 918.587 Q188.079 918.587 189.885 915.045 Q191.713 911.481 191.713 904.374 Q191.713 897.245 189.885 893.703 Q188.079 890.138 184.445 890.138 M184.445 886.434 Q190.255 886.434 193.311 891.041 Q196.389 895.624 196.389 904.374 Q196.389 913.101 193.311 917.707 Q190.255 922.291 184.445 922.291 Q178.635 922.291 175.556 917.707 Q172.501 913.101 172.501 904.374 Q172.501 895.624 175.556 891.041 Q178.635 886.434 184.445 886.434 Z" fill="#000000" fill-rule="evenodd" fill-opacity="1" /><path clip-path="url(#clip880)" d="M144.098 615.293 L166.32 615.293 L166.32 617.283 L153.774 649.853 L148.89 649.853 L160.695 619.228 L144.098 619.228 L144.098 615.293 Z" fill="#000000" fill-rule="evenodd" fill-opacity="1" /><path clip-path="url(#clip880)" d="M175.487 615.293 L193.843 615.293 L193.843 619.228 L179.769 619.228 L179.769 627.7 Q180.788 627.353 181.806 627.191 Q182.825 627.005 183.843 627.005 Q189.63 627.005 193.01 630.177 Q196.389 633.348 196.389 638.765 Q196.389 644.343 192.917 647.445 Q189.445 650.524 183.126 650.524 Q180.95 650.524 178.681 650.153 Q176.436 649.783 174.028 649.042 L174.028 644.343 Q176.112 645.478 178.334 646.033 Q180.556 646.589 183.033 646.589 Q187.038 646.589 189.375 644.482 Q191.713 642.376 191.713 638.765 Q191.713 635.154 189.375 633.047 Q187.038 630.941 183.033 630.941 Q181.158 630.941 179.283 631.357 Q177.431 631.774 175.487 632.654 L175.487 615.293 Z" fill="#000000" fill-rule="evenodd" fill-opacity="1" /><path clip-path="url(#clip880)" d="M114.931 374.15 L122.57 374.15 L122.57 347.785 L114.26 349.452 L114.26 345.192 L122.524 343.526 L127.2 343.526 L127.2 374.15 L134.839 374.15 L134.839 378.086 L114.931 378.086 L114.931 374.15 Z" fill="#000000" fill-rule="evenodd" fill-opacity="1" /><path clip-path="url(#clip880)" d="M154.283 346.604 Q150.672 346.604 148.843 350.169 Q147.038 353.711 147.038 360.84 Q147.038 367.947 148.843 371.512 Q150.672 375.053 154.283 375.053 Q157.917 375.053 159.723 371.512 Q161.552 367.947 161.552 360.84 Q161.552 353.711 159.723 350.169 Q157.917 346.604 154.283 346.604 M154.283 342.901 Q160.093 342.901 163.149 347.507 Q166.227 352.09 166.227 360.84 Q166.227 369.567 163.149 374.174 Q160.093 378.757 154.283 378.757 Q148.473 378.757 145.394 374.174 Q142.339 369.567 142.339 360.84 Q142.339 352.09 145.394 347.507 Q148.473 342.901 154.283 342.901 Z" fill="#000000" fill-rule="evenodd" fill-opacity="1" /><path clip-path="url(#clip880)" d="M184.445 346.604 Q180.834 346.604 179.005 350.169 Q177.2 353.711 177.2 360.84 Q177.2 367.947 179.005 371.512 Q180.834 375.053 184.445 375.053 Q188.079 375.053 189.885 371.512 Q191.713 367.947 191.713 360.84 Q191.713 353.711 189.885 350.169 Q188.079 346.604 184.445 346.604 M184.445 342.901 Q190.255 342.901 193.311 347.507 Q196.389 352.09 196.389 360.84 Q196.389 369.567 193.311 374.174 Q190.255 378.757 184.445 378.757 Q178.635 378.757 175.556 374.174 Q172.501 369.567 172.501 360.84 Q172.501 352.09 175.556 347.507 Q178.635 342.901 184.445 342.901 Z" fill="#000000" fill-rule="evenodd" fill-opacity="1" /><path clip-path="url(#clip880)" d="M16.4842 849.934 L16.4842 840.353 L48.8219 828.227 L16.4842 816.036 L16.4842 806.456 L64.0042 806.456 L64.0042 812.726 L22.277 812.726 L54.8694 824.98 L54.8694 831.441 L22.277 843.695 L64.0042 843.695 L64.0042 849.934 L16.4842 849.934 Z" fill="#000000" fill-rule="evenodd" fill-opacity="1" /><path clip-path="url(#clip880)" d="M41.3104 787.263 L58.7206 787.263 L58.7206 776.951 Q58.7206 771.763 56.5881 769.28 Q54.4238 766.766 49.9996 766.766 Q45.5436 766.766 43.4429 769.28 Q41.3104 771.763 41.3104 776.951 L41.3104 787.263 M21.7677 787.263 L36.0905 787.263 L36.0905 777.747 Q36.0905 773.036 34.34 770.744 Q32.5576 768.421 28.9291 768.421 Q25.3325 768.421 23.5501 770.744 Q21.7677 773.036 21.7677 777.747 L21.7677 787.263 M16.4842 793.693 L16.4842 777.269 Q16.4842 769.917 19.5397 765.938 Q22.5952 761.96 28.2289 761.96 Q32.5894 761.96 35.1675 763.997 Q37.7456 766.034 38.3822 769.98 Q39.4007 765.238 42.6472 762.628 Q45.8619 759.986 50.6998 759.986 Q57.0655 759.986 60.5348 764.315 Q64.0042 768.644 64.0042 776.633 L64.0042 793.693 L16.4842 793.693 Z" fill="#000000" fill-rule="evenodd" fill-opacity="1" /><path clip-path="url(#clip880)" d="M863.298 12.096 L898.055 12.096 L898.055 18.9825 L871.481 18.9825 L871.481 36.8065 L895.462 36.8065 L895.462 43.6931 L871.481 43.6931 L871.481 72.576 L863.298 72.576 L863.298 12.096 Z" fill="#000000" fill-rule="evenodd" fill-opacity="1" /><path clip-path="url(#clip880)" d="M925.318 32.4315 Q919.322 32.4315 915.839 37.1306 Q912.355 41.7891 912.355 49.9314 Q912.355 58.0738 915.798 62.7728 Q919.282 67.4314 925.318 67.4314 Q931.272 67.4314 934.756 62.7323 Q938.24 58.0333 938.24 49.9314 Q938.24 41.8701 934.756 37.1711 Q931.272 32.4315 925.318 32.4315 M925.318 26.1121 Q935.04 26.1121 940.59 32.4315 Q946.139 38.7509 946.139 49.9314 Q946.139 61.0714 940.59 67.4314 Q935.04 73.7508 925.318 73.7508 Q915.555 73.7508 910.005 67.4314 Q904.496 61.0714 904.496 49.9314 Q904.496 38.7509 910.005 32.4315 Q915.555 26.1121 925.318 26.1121 Z" fill="#000000" fill-rule="evenodd" fill-opacity="1" /><path clip-path="url(#clip880)" d="M984.785 34.1734 Q983.529 33.4443 982.03 33.1202 Q980.572 32.7556 978.79 32.7556 Q972.47 32.7556 969.067 36.8875 Q965.705 40.9789 965.705 48.6757 L965.705 72.576 L958.211 72.576 L958.211 27.2059 L965.705 27.2059 L965.705 34.2544 Q968.055 30.1225 971.822 28.1376 Q975.589 26.1121 980.977 26.1121 Q981.747 26.1121 982.678 26.2337 Q983.61 26.3147 984.744 26.5172 L984.785 34.1734 Z" fill="#000000" fill-rule="evenodd" fill-opacity="1" /><path clip-path="url(#clip880)" d="M1026.47 35.9153 Q1029.26 30.8922 1033.15 28.5022 Q1037.04 26.1121 1042.31 26.1121 Q1049.4 26.1121 1053.25 31.0947 Q1057.09 36.0368 1057.09 45.1919 L1057.09 72.576 L1049.6 72.576 L1049.6 45.4349 Q1049.6 38.913 1047.29 35.7533 Q1044.98 32.5936 1040.24 32.5936 Q1034.45 32.5936 1031.09 36.4419 Q1027.72 40.2903 1027.72 46.9338 L1027.72 72.576 L1020.23 72.576 L1020.23 45.4349 Q1020.23 38.8725 1017.92 35.7533 Q1015.61 32.5936 1010.79 32.5936 Q1005.08 32.5936 1001.72 36.4824 Q998.355 40.3308 998.355 46.9338 L998.355 72.576 L990.861 72.576 L990.861 27.2059 L998.355 27.2059 L998.355 34.2544 Q1000.91 30.082 1004.47 28.0971 Q1008.04 26.1121 1012.94 26.1121 Q1017.88 26.1121 1021.32 28.6237 Q1024.81 31.1352 1026.47 35.9153 Z" fill="#000000" fill-rule="evenodd" fill-opacity="1" /><path clip-path="url(#clip880)" d="M1092.58 49.7694 Q1083.55 49.7694 1080.06 51.8354 Q1076.58 53.9013 1076.58 58.8839 Q1076.58 62.8538 1079.17 65.2034 Q1081.8 67.5124 1086.3 67.5124 Q1092.5 67.5124 1096.23 63.1374 Q1099.99 58.7219 1099.99 51.4303 L1099.99 49.7694 L1092.58 49.7694 M1107.45 46.6907 L1107.45 72.576 L1099.99 72.576 L1099.99 65.6895 Q1097.44 69.8214 1093.63 71.8063 Q1089.82 73.7508 1084.32 73.7508 Q1077.35 73.7508 1073.22 69.8619 Q1069.12 65.9325 1069.12 59.3701 Q1069.12 51.7138 1074.23 47.825 Q1079.37 43.9361 1089.54 43.9361 L1099.99 43.9361 L1099.99 43.2069 Q1099.99 38.0623 1096.59 35.2672 Q1093.23 32.4315 1087.11 32.4315 Q1083.22 32.4315 1079.54 33.3632 Q1075.85 34.295 1072.45 36.1584 L1072.45 29.2718 Q1076.54 27.692 1080.39 26.9223 Q1084.23 26.1121 1087.88 26.1121 Q1097.72 26.1121 1102.59 31.2163 Q1107.45 36.3204 1107.45 46.6907 Z" fill="#000000" fill-rule="evenodd" fill-opacity="1" /><path clip-path="url(#clip880)" d="M1130.17 14.324 L1130.17 27.2059 L1145.52 27.2059 L1145.52 32.9987 L1130.17 32.9987 L1130.17 57.6282 Q1130.17 63.1779 1131.67 64.7578 Q1133.21 66.3376 1137.87 66.3376 L1145.52 66.3376 L1145.52 72.576 L1137.87 72.576 Q1129.24 72.576 1125.96 69.3758 Q1122.68 66.1351 1122.68 57.6282 L1122.68 32.9987 L1117.21 32.9987 L1117.21 27.2059 L1122.68 27.2059 L1122.68 14.324 L1130.17 14.324 Z" fill="#000000" fill-rule="evenodd" fill-opacity="1" /><path clip-path="url(#clip880)" d="M1182.02 12.096 L1216.78 12.096 L1216.78 18.9825 L1190.21 18.9825 L1190.21 36.8065 L1214.19 36.8065 L1214.19 43.6931 L1190.21 43.6931 L1190.21 72.576 L1182.02 72.576 L1182.02 12.096 Z" fill="#000000" fill-rule="evenodd" fill-opacity="1" /><path clip-path="url(#clip880)" d="M1223.38 27.2059 L1230.84 27.2059 L1230.84 72.576 L1223.38 72.576 L1223.38 27.2059 M1223.38 9.54393 L1230.84 9.54393 L1230.84 18.9825 L1223.38 18.9825 L1223.38 9.54393 Z" fill="#000000" fill-rule="evenodd" fill-opacity="1" /><path clip-path="url(#clip880)" d="M1246.43 9.54393 L1253.89 9.54393 L1253.89 72.576 L1246.43 72.576 L1246.43 9.54393 Z" fill="#000000" fill-rule="evenodd" fill-opacity="1" /><path clip-path="url(#clip880)" d="M1308.29 48.0275 L1308.29 51.6733 L1274.02 51.6733 Q1274.51 59.3701 1278.64 63.421 Q1282.81 67.4314 1290.22 67.4314 Q1294.52 67.4314 1298.53 66.3781 Q1302.58 65.3249 1306.55 63.2184 L1306.55 70.267 Q1302.54 71.9684 1298.32 72.8596 Q1294.11 73.7508 1289.78 73.7508 Q1278.92 73.7508 1272.56 67.4314 Q1266.24 61.1119 1266.24 50.3365 Q1266.24 39.1965 1272.24 32.6746 Q1278.27 26.1121 1288.48 26.1121 Q1297.64 26.1121 1302.94 32.0264 Q1308.29 37.9003 1308.29 48.0275 M1300.84 45.84 Q1300.76 39.7232 1297.39 36.0774 Q1294.07 32.4315 1288.56 32.4315 Q1282.32 32.4315 1278.56 35.9558 Q1274.83 39.4801 1274.26 45.8805 L1300.84 45.84 Z" fill="#000000" fill-rule="evenodd" fill-opacity="1" /><path clip-path="url(#clip880)" d="M1383.47 14.0809 L1383.47 22.0612 Q1378.82 19.8332 1374.68 18.7395 Q1370.55 17.6457 1366.7 17.6457 Q1360.02 17.6457 1356.37 20.2383 Q1352.77 22.8309 1352.77 27.611 Q1352.77 31.6214 1355.16 33.6873 Q1357.59 35.7128 1364.31 36.9686 L1369.26 37.9813 Q1378.41 39.7232 1382.75 44.1387 Q1387.12 48.5136 1387.12 55.8863 Q1387.12 64.6767 1381.21 69.2137 Q1375.33 73.7508 1363.95 73.7508 Q1359.66 73.7508 1354.79 72.7785 Q1349.97 71.8063 1344.79 69.9024 L1344.79 61.4765 Q1349.77 64.2716 1354.55 65.6895 Q1359.33 67.1073 1363.95 67.1073 Q1370.96 67.1073 1374.77 64.3527 Q1378.57 61.598 1378.57 56.4939 Q1378.57 52.0379 1375.82 49.5264 Q1373.1 47.0148 1366.87 45.759 L1361.88 44.7868 Q1352.73 42.9639 1348.64 39.075 Q1344.55 35.1862 1344.55 28.2591 Q1344.55 20.2383 1350.18 15.6203 Q1355.85 11.0023 1365.77 11.0023 Q1370.03 11.0023 1374.44 11.7719 Q1378.86 12.5416 1383.47 14.0809 Z" fill="#000000" fill-rule="evenodd" fill-opacity="1" /><path clip-path="url(#clip880)" d="M1399.56 27.2059 L1407.01 27.2059 L1407.01 72.576 L1399.56 72.576 L1399.56 27.2059 M1399.56 9.54393 L1407.01 9.54393 L1407.01 18.9825 L1399.56 18.9825 L1399.56 9.54393 Z" fill="#000000" fill-rule="evenodd" fill-opacity="1" /><path clip-path="url(#clip880)" d="M1419.37 27.2059 L1454.77 27.2059 L1454.77 34.0114 L1426.74 66.6212 L1454.77 66.6212 L1454.77 72.576 L1418.35 72.576 L1418.35 65.7705 L1446.39 33.1607 L1419.37 33.1607 L1419.37 27.2059 Z" fill="#000000" fill-rule="evenodd" fill-opacity="1" /><path clip-path="url(#clip880)" d="M1504.96 48.0275 L1504.96 51.6733 L1470.69 51.6733 Q1471.18 59.3701 1475.31 63.421 Q1479.48 67.4314 1486.89 67.4314 Q1491.19 67.4314 1495.2 66.3781 Q1499.25 65.3249 1503.22 63.2184 L1503.22 70.267 Q1499.21 71.9684 1495 72.8596 Q1490.78 73.7508 1486.45 73.7508 Q1475.59 73.7508 1469.23 67.4314 Q1462.91 61.1119 1462.91 50.3365 Q1462.91 39.1965 1468.91 32.6746 Q1474.94 26.1121 1485.15 26.1121 Q1494.31 26.1121 1499.61 32.0264 Q1504.96 37.9003 1504.96 48.0275 M1497.51 45.84 Q1497.43 39.7232 1494.06 36.0774 Q1490.74 32.4315 1485.23 32.4315 Q1479 32.4315 1475.23 35.9558 Q1471.5 39.4801 1470.93 45.8805 L1497.51 45.84 Z" fill="#000000" fill-rule="evenodd" fill-opacity="1" /><path clip-path="url(#clip880)" d="M1561.47 9.62495 Q1556.04 18.942 1553.41 28.0566 Q1550.78 37.1711 1550.78 46.5287 Q1550.78 55.8863 1553.41 65.0818 Q1556.08 74.2369 1561.47 83.5134 L1554.99 83.5134 Q1548.91 73.9938 1545.88 64.7983 Q1542.88 55.6027 1542.88 46.5287 Q1542.88 37.4952 1545.88 28.3401 Q1548.87 19.1851 1554.99 9.62495 L1561.47 9.62495 Z" fill="#000000" fill-rule="evenodd" fill-opacity="1" /><path clip-path="url(#clip880)" d="M1576.26 12.096 L1588.45 12.096 L1603.88 53.2532 L1619.4 12.096 L1631.59 12.096 L1631.59 72.576 L1623.61 72.576 L1623.61 19.4686 L1608.02 60.9499 L1599.79 60.9499 L1584.2 19.4686 L1584.2 72.576 L1576.26 72.576 L1576.26 12.096 Z" fill="#000000" fill-rule="evenodd" fill-opacity="1" /><path clip-path="url(#clip880)" d="M1656.02 43.6931 L1656.02 65.8515 L1669.14 65.8515 Q1675.75 65.8515 1678.91 63.1374 Q1682.11 60.3828 1682.11 54.752 Q1682.11 49.0808 1678.91 46.4072 Q1675.75 43.6931 1669.14 43.6931 L1656.02 43.6931 M1656.02 18.8205 L1656.02 37.0496 L1668.13 37.0496 Q1674.13 37.0496 1677.04 34.8216 Q1680 32.5531 1680 27.935 Q1680 23.3575 1677.04 21.089 Q1674.13 18.8205 1668.13 18.8205 L1656.02 18.8205 M1647.84 12.096 L1668.74 12.096 Q1678.1 12.096 1683.16 15.9849 Q1688.22 19.8737 1688.22 27.0438 Q1688.22 32.5936 1685.63 35.8748 Q1683.04 39.156 1678.02 39.9662 Q1684.05 41.2625 1687.37 45.3944 Q1690.74 49.4858 1690.74 55.6432 Q1690.74 63.745 1685.23 68.1605 Q1679.72 72.576 1669.55 72.576 L1647.84 72.576 L1647.84 12.096 Z" fill="#000000" fill-rule="evenodd" fill-opacity="1" /><path clip-path="url(#clip880)" d="M1703.25 9.62495 L1709.73 9.62495 Q1715.81 19.1851 1718.81 28.3401 Q1721.85 37.4952 1721.85 46.5287 Q1721.85 55.6027 1718.81 64.7983 Q1715.81 73.9938 1709.73 83.5134 L1703.25 83.5134 Q1708.64 74.2369 1711.27 65.0818 Q1713.95 55.8863 1713.95 46.5287 Q1713.95 37.1711 1711.27 28.0566 Q1708.64 18.942 1703.25 9.62495 Z" fill="#000000" fill-rule="evenodd" fill-opacity="1" /><path clip-path="url(#clip882)" d="
M349.013 1429.8 L349.013 1447.87 L609.306 1447.87 L609.306 1429.8 L349.013 1429.8 L349.013 1429.8  Z
  " fill="#009af9" fill-rule="evenodd" fill-opacity="1"/>
<polyline clip-path="url(#clip882)" style="stroke:#000000; stroke-linecap:butt; stroke-linejoin:round; stroke-width:4; stroke-opacity:1; fill:none" points="
  349.013,1429.8 349.013,1447.87 609.306,1447.87 609.306,1429.8 349.013,1429.8 
  "/>
<path clip-path="url(#clip882)" d="
M674.379 1393.96 L674.379 1447.87 L934.671 1447.87 L934.671 1393.96 L674.379 1393.96 L674.379 1393.96  Z
  " fill="#009af9" fill-rule="evenodd" fill-opacity="1"/>
<polyline clip-path="url(#clip882)" style="stroke:#000000; stroke-linecap:butt; stroke-linejoin:round; stroke-width:4; stroke-opacity:1; fill:none" points="
  674.379,1393.96 674.379,1447.87 934.671,1447.87 934.671,1393.96 674.379,1393.96 
  "/>
<path clip-path="url(#clip882)" d="
M999.744 1393.76 L999.744 1447.87 L1260.04 1447.87 L1260.04 1393.76 L999.744 1393.76 L999.744 1393.76  Z
  " fill="#009af9" fill-rule="evenodd" fill-opacity="1"/>
<polyline clip-path="url(#clip882)" style="stroke:#000000; stroke-linecap:butt; stroke-linejoin:round; stroke-width:4; stroke-opacity:1; fill:none" points="
  999.744,1393.76 999.744,1447.87 1260.04,1447.87 1260.04,1393.76 999.744,1393.76 
  "/>
<path clip-path="url(#clip882)" d="
M1325.11 876.807 L1325.11 1447.87 L1585.4 1447.87 L1585.4 876.807 L1325.11 876.807 L1325.11 876.807  Z
  " fill="#009af9" fill-rule="evenodd" fill-opacity="1"/>
<polyline clip-path="url(#clip882)" style="stroke:#000000; stroke-linecap:butt; stroke-linejoin:round; stroke-width:4; stroke-opacity:1; fill:none" points="
  1325.11,876.807 1325.11,1447.87 1585.4,1447.87 1585.4,876.807 1325.11,876.807 
  "/>
<path clip-path="url(#clip882)" d="
M1650.47 876.765 L1650.47 1447.87 L1910.77 1447.87 L1910.77 876.765 L1650.47 876.765 L1650.47 876.765  Z
  " fill="#009af9" fill-rule="evenodd" fill-opacity="1"/>
<polyline clip-path="url(#clip882)" style="stroke:#000000; stroke-linecap:butt; stroke-linejoin:round; stroke-width:4; stroke-opacity:1; fill:none" points="
  1650.47,876.765 1650.47,1447.87 1910.77,1447.87 1910.77,876.765 1650.47,876.765 
  "/>
<path clip-path="url(#clip882)" d="
M1975.84 162.047 L1975.84 1447.87 L2236.13 1447.87 L2236.13 162.047 L1975.84 162.047 L1975.84 162.047  Z
  " fill="#009af9" fill-rule="evenodd" fill-opacity="1"/>
<polyline clip-path="url(#clip882)" style="stroke:#000000; stroke-linecap:butt; stroke-linejoin:round; stroke-width:4; stroke-opacity:1; fill:none" points="
  1975.84,162.047 1975.84,1447.87 2236.13,1447.87 2236.13,162.047 1975.84,162.047 
  "/>
<circle clip-path="url(#clip882)" style="fill:#009af9; stroke:none; fill-opacity:0" cx="479.159" cy="1429.8" r="2"/>
<circle clip-path="url(#clip882)" style="fill:#009af9; stroke:none; fill-opacity:0" cx="804.525" cy="1393.96" r="2"/>
<circle clip-path="url(#clip882)" style="fill:#009af9; stroke:none; fill-opacity:0" cx="1129.89" cy="1393.76" r="2"/>
<circle clip-path="url(#clip882)" style="fill:#009af9; stroke:none; fill-opacity:0" cx="1455.26" cy="876.807" r="2"/>
<circle clip-path="url(#clip882)" style="fill:#009af9; stroke:none; fill-opacity:0" cx="1780.62" cy="876.765" r="2"/>
<circle clip-path="url(#clip882)" style="fill:#009af9; stroke:none; fill-opacity:0" cx="2105.99" cy="162.047" r="2"/>
<path clip-path="url(#clip880)" d="
M1954.81 272.585 L2282.08 272.585 L2282.08 168.905 L1954.81 168.905  Z
  " fill="#ffffff" fill-rule="evenodd" fill-opacity="1"/>
<polyline clip-path="url(#clip880)" style="stroke:#000000; stroke-linecap:butt; stroke-linejoin:round; stroke-width:4; stroke-opacity:1; fill:none" points="
  1954.81,272.585 2282.08,272.585 2282.08,168.905 1954.81,168.905 1954.81,272.585 
  "/>
<path clip-path="url(#clip880)" d="
M1978.37 241.481 L2119.73 241.481 L2119.73 200.009 L1978.37 200.009 L1978.37 241.481  Z
  " fill="#009af9" fill-rule="evenodd" fill-opacity="1"/>
<polyline clip-path="url(#clip880)" style="stroke:#000000; stroke-linecap:butt; stroke-linejoin:round; stroke-width:4; stroke-opacity:1; fill:none" points="
  1978.37,241.481 2119.73,241.481 2119.73,200.009 1978.37,200.009 1978.37,241.481 
  "/>
<path clip-path="url(#clip880)" d="M2165.54 204.599 L2165.54 209.159 Q2162.87 207.886 2160.51 207.261 Q2158.15 206.636 2155.95 206.636 Q2152.13 206.636 2150.05 208.117 Q2147.99 209.599 2147.99 212.33 Q2147.99 214.622 2149.36 215.803 Q2150.75 216.96 2154.59 217.678 L2157.41 218.256 Q2162.64 219.252 2165.12 221.775 Q2167.62 224.275 2167.62 228.488 Q2167.62 233.511 2164.24 236.103 Q2160.88 238.696 2154.38 238.696 Q2151.93 238.696 2149.15 238.14 Q2146.39 237.585 2143.43 236.497 L2143.43 231.682 Q2146.28 233.279 2149.01 234.089 Q2151.74 234.9 2154.38 234.9 Q2158.38 234.9 2160.56 233.326 Q2162.74 231.752 2162.74 228.835 Q2162.74 226.289 2161.16 224.853 Q2159.61 223.418 2156.05 222.701 L2153.2 222.145 Q2147.97 221.103 2145.63 218.881 Q2143.29 216.659 2143.29 212.701 Q2143.29 208.117 2146.51 205.479 Q2149.75 202.84 2155.42 202.84 Q2157.85 202.84 2160.37 203.279 Q2162.9 203.719 2165.54 204.599 Z" fill="#000000" fill-rule="evenodd" fill-opacity="1" /><path clip-path="url(#clip880)" d="M2174.73 212.099 L2178.99 212.099 L2178.99 238.025 L2174.73 238.025 L2174.73 212.099 M2174.73 202.006 L2178.99 202.006 L2178.99 207.4 L2174.73 207.4 L2174.73 202.006 Z" fill="#000000" fill-rule="evenodd" fill-opacity="1" /><path clip-path="url(#clip880)" d="M2186.05 212.099 L2206.28 212.099 L2206.28 215.988 L2190.26 234.622 L2206.28 234.622 L2206.28 238.025 L2185.47 238.025 L2185.47 234.136 L2201.49 215.502 L2186.05 215.502 L2186.05 212.099 Z" fill="#000000" fill-rule="evenodd" fill-opacity="1" /><path clip-path="url(#clip880)" d="M2234.96 223.997 L2234.96 226.08 L2215.37 226.08 Q2215.65 230.478 2218.01 232.793 Q2220.4 235.085 2224.63 235.085 Q2227.09 235.085 2229.38 234.483 Q2231.69 233.881 2233.96 232.677 L2233.96 236.705 Q2231.67 237.677 2229.26 238.187 Q2226.86 238.696 2224.38 238.696 Q2218.18 238.696 2214.54 235.085 Q2210.93 231.474 2210.93 225.316 Q2210.93 218.951 2214.36 215.224 Q2217.81 211.474 2223.64 211.474 Q2228.87 211.474 2231.9 214.853 Q2234.96 218.21 2234.96 223.997 M2230.7 222.747 Q2230.65 219.252 2228.73 217.168 Q2226.83 215.085 2223.68 215.085 Q2220.12 215.085 2217.97 217.099 Q2215.84 219.113 2215.51 222.77 L2230.7 222.747 Z" fill="#000000" fill-rule="evenodd" fill-opacity="1" /></svg>
