<?xml version="1.0" encoding="utf-8"?>
<svg xmlns="http://www.w3.org/2000/svg" xmlns:xlink="http://www.w3.org/1999/xlink" width="600" height="400" viewBox="0 0 2400 1600">
<defs>
  <clipPath id="clip920">
    <rect x="0" y="0" width="2400" height="1600"/>
  </clipPath>
</defs>
<path clip-path="url(#clip920)" d="
M0 1600 L2400 1600 L2400 0 L0 0  Z
  " fill="#ffffff" fill-rule="evenodd" fill-opacity="1"/>
<defs>
  <clipPath id="clip921">
    <rect x="480" y="0" width="1681" height="1600"/>
  </clipPath>
</defs>
<path clip-path="url(#clip920)" d="
M219.38 1451.89 L2352.76 1451.89 L2352.76 244.432 L219.38 244.432  Z
  " fill="#ffffff" fill-rule="evenodd" fill-opacity="1"/>
<defs>
  <clipPath id="clip922">
    <rect x="219" y="244" width="2134" height="1208"/>
  </clipPath>
</defs>
<polyline clip-path="url(#clip922)" style="stroke:#000000; stroke-linecap:butt; stroke-linejoin:round; stroke-width:2; stroke-opacity:0.1; fill:none" points="
  445.609,1451.89 445.609,244.432 
  "/>
<polyline clip-path="url(#clip922)" style="stroke:#000000; stroke-linecap:butt; stroke-linejoin:round; stroke-width:2; stroke-opacity:0.1; fill:none" points="
  725.762,1451.89 725.762,244.432 
  "/>
<polyline clip-path="url(#clip922)" style="stroke:#000000; stroke-linecap:butt; stroke-linejoin:round; stroke-width:2; stroke-opacity:0.1; fill:none" points="
  1005.92,1451.89 1005.92,244.432 
  "/>
<polyline clip-path="url(#clip922)" style="stroke:#000000; stroke-linecap:butt; stroke-linejoin:round; stroke-width:2; stroke-opacity:0.1; fill:none" points="
  1286.07,1451.89 1286.07,244.432 
  "/>
<polyline clip-path="url(#clip922)" style="stroke:#000000; stroke-linecap:butt; stroke-linejoin:round; stroke-width:2; stroke-opacity:0.1; fill:none" points="
  1566.22,1451.89 1566.22,244.432 
  "/>
<polyline clip-path="url(#clip922)" style="stroke:#000000; stroke-linecap:butt; stroke-linejoin:round; stroke-width:2; stroke-opacity:0.1; fill:none" points="
  1846.37,1451.89 1846.37,244.432 
  "/>
<polyline clip-path="url(#clip922)" style="stroke:#000000; stroke-linecap:butt; stroke-linejoin:round; stroke-width:2; stroke-opacity:0.1; fill:none" points="
  2126.53,1451.89 2126.53,244.432 
  "/>
<polyline clip-path="url(#clip920)" style="stroke:#000000; stroke-linecap:butt; stroke-linejoin:round; stroke-width:4; stroke-opacity:1; fill:none" points="
  219.38,1451.89 2352.76,1451.89 
  "/>
<polyline clip-path="url(#clip920)" style="stroke:#000000; stroke-linecap:butt; stroke-linejoin:round; stroke-width:4; stroke-opacity:1; fill:none" points="
  445.609,1451.89 445.609,1432.99 
  "/>
<polyline clip-path="url(#clip920)" style="stroke:#000000; stroke-linecap:butt; stroke-linejoin:round; stroke-width:4; stroke-opacity:1; fill:none" points="
  725.762,1451.89 725.762,1432.99 
  "/>
<polyline clip-path="url(#clip920)" style="stroke:#000000; stroke-linecap:butt; stroke-linejoin:round; stroke-width:4; stroke-opacity:1; fill:none" points="
  1005.92,1451.89 1005.92,1432.99 
  "/>
<polyline clip-path="url(#clip920)" style="stroke:#000000; stroke-linecap:butt; stroke-linejoin:round; stroke-width:4; stroke-opacity:1; fill:none" points="
  1286.07,1451.89 1286.07,1432.99 
  "/>
<polyline clip-path="url(#clip920)" style="stroke:#000000; stroke-linecap:butt; stroke-linejoin:round; stroke-width:4; stroke-opacity:1; fill:none" points="
  1566.22,1451.89 1566.22,1432.99 
  "/>
<polyline clip-path="url(#clip920)" style="stroke:#000000; stroke-linecap:butt; stroke-linejoin:round; stroke-width:4; stroke-opacity:1; fill:none" points="
  1846.37,1451.89 1846.37,1432.99 
  "/>
<polyline clip-path="url(#clip920)" style="stroke:#000000; stroke-linecap:butt; stroke-linejoin:round; stroke-width:4; stroke-opacity:1; fill:none" points="
  2126.53,1451.89 2126.53,1432.99 
  "/>
<path clip-path="url(#clip920)" d="M376.663 1484.33 L370.32 1501.53 L383.029 1501.53 L376.663 1484.33 M374.024 1479.73 L379.325 1479.73 L392.496 1514.29 L387.635 1514.29 L384.487 1505.42 L368.908 1505.42 L365.76 1514.29 L360.83 1514.29 L374.024 1479.73 Z" fill="#000000" fill-rule="evenodd" fill-opacity="1" /><path clip-path="url(#clip920)" d="M412.38 1492.34 Q411.663 1491.93 410.806 1491.74 Q409.973 1491.53 408.954 1491.53 Q405.343 1491.53 403.399 1493.89 Q401.478 1496.23 401.478 1500.63 L401.478 1514.29 L397.195 1514.29 L397.195 1488.36 L401.478 1488.36 L401.478 1492.39 Q402.82 1490.03 404.973 1488.89 Q407.126 1487.74 410.204 1487.74 Q410.644 1487.74 411.177 1487.81 Q411.709 1487.85 412.357 1487.97 L412.38 1492.34 Z" fill="#000000" fill-rule="evenodd" fill-opacity="1" /><path clip-path="url(#clip920)" d="M431.038 1492.34 Q430.32 1491.93 429.464 1491.74 Q428.63 1491.53 427.612 1491.53 Q424.001 1491.53 422.056 1493.89 Q420.135 1496.23 420.135 1500.63 L420.135 1514.29 L415.852 1514.29 L415.852 1488.36 L420.135 1488.36 L420.135 1492.39 Q421.477 1490.03 423.63 1488.89 Q425.783 1487.74 428.862 1487.74 Q429.301 1487.74 429.834 1487.81 Q430.366 1487.85 431.014 1487.97 L431.038 1492.34 Z" fill="#000000" fill-rule="evenodd" fill-opacity="1" /><path clip-path="url(#clip920)" d="M444.51 1491.35 Q441.084 1491.35 439.093 1494.03 Q437.102 1496.7 437.102 1501.35 Q437.102 1506 439.07 1508.69 Q441.061 1511.35 444.51 1511.35 Q447.912 1511.35 449.903 1508.66 Q451.894 1505.98 451.894 1501.35 Q451.894 1496.74 449.903 1494.06 Q447.912 1491.35 444.51 1491.35 M444.51 1487.74 Q450.065 1487.74 453.237 1491.35 Q456.408 1494.96 456.408 1501.35 Q456.408 1507.71 453.237 1511.35 Q450.065 1514.96 444.51 1514.96 Q438.931 1514.96 435.76 1511.35 Q432.612 1507.71 432.612 1501.35 Q432.612 1494.96 435.76 1491.35 Q438.931 1487.74 444.51 1487.74 Z" fill="#000000" fill-rule="evenodd" fill-opacity="1" /><path clip-path="url(#clip920)" d="M460.991 1488.36 L465.25 1488.36 L470.574 1508.59 L475.875 1488.36 L480.898 1488.36 L486.222 1508.59 L491.523 1488.36 L495.783 1488.36 L489 1514.29 L483.977 1514.29 L478.398 1493.04 L472.797 1514.29 L467.773 1514.29 L460.991 1488.36 Z" fill="#000000" fill-rule="evenodd" fill-opacity="1" /><path clip-path="url(#clip920)" d="M498.491 1508.41 L503.375 1508.41 L503.375 1514.29 L498.491 1514.29 L498.491 1508.41 Z" fill="#000000" fill-rule="evenodd" fill-opacity="1" /><path clip-path="url(#clip920)" d="M512.958 1488.36 L517.218 1488.36 L517.218 1514.75 Q517.218 1519.7 515.32 1521.93 Q513.445 1524.15 509.255 1524.15 L507.634 1524.15 L507.634 1520.54 L508.769 1520.54 Q511.199 1520.54 512.079 1519.4 Q512.958 1518.29 512.958 1514.75 L512.958 1488.36 M512.958 1478.27 L517.218 1478.27 L517.218 1483.66 L512.958 1483.66 L512.958 1478.27 Z" fill="#000000" fill-rule="evenodd" fill-opacity="1" /><path clip-path="url(#clip920)" d="M526.13 1478.27 L530.389 1478.27 L530.389 1514.29 L526.13 1514.29 L526.13 1478.27 Z" fill="#000000" fill-rule="evenodd" fill-opacity="1" /><path clip-path="url(#clip920)" d="M656.816 1484.33 L650.473 1501.53 L663.181 1501.53 L656.816 1484.33 M654.177 1479.73 L659.478 1479.73 L672.649 1514.29 L667.788 1514.29 L664.64 1505.42 L649.061 1505.42 L645.913 1514.29 L640.983 1514.29 L654.177 1479.73 Z" fill="#000000" fill-rule="evenodd" fill-opacity="1" /><path clip-path="url(#clip920)" d="M692.533 1492.34 Q691.816 1491.93 690.959 1491.74 Q690.126 1491.53 689.107 1491.53 Q685.496 1491.53 683.552 1493.89 Q681.63 1496.23 681.63 1500.63 L681.63 1514.29 L677.348 1514.29 L677.348 1488.36 L681.63 1488.36 L681.63 1492.39 Q682.973 1490.03 685.126 1488.89 Q687.279 1487.74 690.357 1487.74 Q690.797 1487.74 691.329 1487.81 Q691.862 1487.85 692.51 1487.97 L692.533 1492.34 Z" fill="#000000" fill-rule="evenodd" fill-opacity="1" /><path clip-path="url(#clip920)" d="M711.19 1492.34 Q710.473 1491.93 709.616 1491.74 Q708.783 1491.53 707.765 1491.53 Q704.153 1491.53 702.209 1493.89 Q700.288 1496.23 700.288 1500.63 L700.288 1514.29 L696.005 1514.29 L696.005 1488.36 L700.288 1488.36 L700.288 1492.39 Q701.63 1490.03 703.783 1488.89 Q705.936 1487.74 709.015 1487.74 Q709.454 1487.74 709.987 1487.81 Q710.519 1487.85 711.167 1487.97 L711.19 1492.34 Z" fill="#000000" fill-rule="evenodd" fill-opacity="1" /><path clip-path="url(#clip920)" d="M724.663 1491.35 Q721.237 1491.35 719.246 1494.03 Q717.255 1496.7 717.255 1501.35 Q717.255 1506 719.223 1508.69 Q721.214 1511.35 724.663 1511.35 Q728.065 1511.35 730.056 1508.66 Q732.047 1505.98 732.047 1501.35 Q732.047 1496.74 730.056 1494.06 Q728.065 1491.35 724.663 1491.35 M724.663 1487.74 Q730.218 1487.74 733.389 1491.35 Q736.561 1494.96 736.561 1501.35 Q736.561 1507.71 733.389 1511.35 Q730.218 1514.96 724.663 1514.96 Q719.084 1514.96 715.913 1511.35 Q712.765 1507.71 712.765 1501.35 Q712.765 1494.96 715.913 1491.35 Q719.084 1487.74 724.663 1487.74 Z" fill="#000000" fill-rule="evenodd" fill-opacity="1" /><path clip-path="url(#clip920)" d="M741.144 1488.36 L745.403 1488.36 L750.727 1508.59 L756.028 1488.36 L761.051 1488.36 L766.375 1508.59 L771.676 1488.36 L775.936 1488.36 L769.153 1514.29 L764.13 1514.29 L758.551 1493.04 L752.95 1514.29 L747.926 1514.29 L741.144 1488.36 Z" fill="#000000" fill-rule="evenodd" fill-opacity="1" /><path clip-path="url(#clip920)" d="M778.644 1508.41 L783.528 1508.41 L783.528 1514.29 L778.644 1514.29 L778.644 1508.41 Z" fill="#000000" fill-rule="evenodd" fill-opacity="1" /><path clip-path="url(#clip920)" d="M793.111 1488.36 L797.371 1488.36 L797.371 1514.75 Q797.371 1519.7 795.472 1521.93 Q793.597 1524.15 789.408 1524.15 L787.787 1524.15 L787.787 1520.54 L788.922 1520.54 Q791.352 1520.54 792.232 1519.4 Q793.111 1518.29 793.111 1514.75 L793.111 1488.36 M793.111 1478.27 L797.371 1478.27 L797.371 1483.66 L793.111 1483.66 L793.111 1478.27 Z" fill="#000000" fill-rule="evenodd" fill-opacity="1" /><path clip-path="url(#clip920)" d="M806.283 1478.27 L810.542 1478.27 L810.542 1514.29 L806.283 1514.29 L806.283 1478.27 Z" fill="#000000" fill-rule="evenodd" fill-opacity="1" /><path clip-path="url(#clip920)" d="M691.677 1541.2 L691.677 1545.18 Q689.871 1544.18 688.042 1543.7 Q686.237 1543.19 684.385 1543.19 Q680.242 1543.19 677.95 1545.83 Q675.658 1548.44 675.658 1553.19 Q675.658 1557.93 677.95 1560.57 Q680.242 1563.19 684.385 1563.19 Q686.237 1563.19 688.042 1562.7 Q689.871 1562.19 691.677 1561.2 L691.677 1565.13 Q689.894 1565.97 687.973 1566.38 Q686.075 1566.8 683.922 1566.8 Q678.066 1566.8 674.617 1563.12 Q671.168 1559.44 671.168 1553.19 Q671.168 1546.85 674.64 1543.21 Q678.135 1539.58 684.2 1539.58 Q686.167 1539.58 688.042 1539.99 Q689.917 1540.39 691.677 1541.2 Z" fill="#000000" fill-rule="evenodd" fill-opacity="1" /><path clip-path="url(#clip920)" d="M709.13 1543.19 Q705.704 1543.19 703.714 1545.87 Q701.723 1548.54 701.723 1553.19 Q701.723 1557.84 703.691 1560.53 Q705.681 1563.19 709.13 1563.19 Q712.533 1563.19 714.524 1560.5 Q716.515 1557.82 716.515 1553.19 Q716.515 1548.58 714.524 1545.9 Q712.533 1543.19 709.13 1543.19 M709.13 1539.58 Q714.686 1539.58 717.857 1543.19 Q721.028 1546.8 721.028 1553.19 Q721.028 1559.55 717.857 1563.19 Q714.686 1566.8 709.13 1566.8 Q703.552 1566.8 700.38 1563.19 Q697.232 1559.55 697.232 1553.19 Q697.232 1546.8 700.38 1543.19 Q703.552 1539.58 709.13 1539.58 Z" fill="#000000" fill-rule="evenodd" fill-opacity="1" /><path clip-path="url(#clip920)" d="M732.209 1562.24 L732.209 1575.99 L727.927 1575.99 L727.927 1540.2 L732.209 1540.2 L732.209 1544.14 Q733.551 1541.82 735.589 1540.71 Q737.649 1539.58 740.496 1539.58 Q745.218 1539.58 748.158 1543.33 Q751.121 1547.08 751.121 1553.19 Q751.121 1559.3 748.158 1563.05 Q745.218 1566.8 740.496 1566.8 Q737.649 1566.8 735.589 1565.69 Q733.551 1564.55 732.209 1562.24 M746.7 1553.19 Q746.7 1548.49 744.755 1545.83 Q742.834 1543.14 739.454 1543.14 Q736.075 1543.14 734.13 1545.83 Q732.209 1548.49 732.209 1553.19 Q732.209 1557.89 734.13 1560.57 Q736.075 1563.23 739.454 1563.23 Q742.834 1563.23 744.755 1560.57 Q746.7 1557.89 746.7 1553.19 Z" fill="#000000" fill-rule="evenodd" fill-opacity="1" /><path clip-path="url(#clip920)" d="M768.968 1568.54 Q767.162 1573.16 765.449 1574.58 Q763.737 1575.99 760.866 1575.99 L757.463 1575.99 L757.463 1572.42 L759.963 1572.42 Q761.723 1572.42 762.695 1571.59 Q763.667 1570.76 764.848 1567.66 L765.612 1565.71 L755.125 1540.2 L759.639 1540.2 L767.741 1560.48 L775.843 1540.2 L780.357 1540.2 L768.968 1568.54 Z" fill="#000000" fill-rule="evenodd" fill-opacity="1" /><path clip-path="url(#clip920)" d="M971.876 1482.39 L971.876 1487.32 Q969.515 1485.12 966.83 1484.03 Q964.168 1482.95 961.158 1482.95 Q955.233 1482.95 952.084 1486.58 Q948.936 1490.19 948.936 1497.04 Q948.936 1503.87 952.084 1507.51 Q955.233 1511.12 961.158 1511.12 Q964.168 1511.12 966.83 1510.03 Q969.515 1508.94 971.876 1506.74 L971.876 1511.63 Q969.422 1513.29 966.668 1514.13 Q963.936 1514.96 960.881 1514.96 Q953.033 1514.96 948.52 1510.17 Q944.006 1505.35 944.006 1497.04 Q944.006 1488.71 948.52 1483.92 Q953.033 1479.1 960.881 1479.1 Q963.982 1479.1 966.714 1479.94 Q969.469 1480.75 971.876 1482.39 Z" fill="#000000" fill-rule="evenodd" fill-opacity="1" /><path clip-path="url(#clip920)" d="M999.816 1480.86 L999.816 1485.42 Q997.154 1484.15 994.792 1483.52 Q992.431 1482.9 990.232 1482.9 Q986.413 1482.9 984.33 1484.38 Q982.269 1485.86 982.269 1488.59 Q982.269 1490.89 983.635 1492.07 Q985.024 1493.22 988.867 1493.94 L991.691 1494.52 Q996.922 1495.51 999.399 1498.04 Q1001.9 1500.54 1001.9 1504.75 Q1001.9 1509.77 998.519 1512.37 Q995.163 1514.96 988.658 1514.96 Q986.205 1514.96 983.427 1514.4 Q980.672 1513.85 977.709 1512.76 L977.709 1507.95 Q980.556 1509.54 983.288 1510.35 Q986.019 1511.16 988.658 1511.16 Q992.663 1511.16 994.839 1509.59 Q997.015 1508.01 997.015 1505.1 Q997.015 1502.55 995.441 1501.12 Q993.89 1499.68 990.325 1498.96 L987.478 1498.41 Q982.246 1497.37 979.908 1495.14 Q977.57 1492.92 977.57 1488.96 Q977.57 1484.38 980.788 1481.74 Q984.029 1479.1 989.7 1479.1 Q992.13 1479.1 994.654 1479.54 Q997.177 1479.98 999.816 1480.86 Z" fill="#000000" fill-rule="evenodd" fill-opacity="1" /><path clip-path="url(#clip920)" d="M1018.1 1514.29 L1004.91 1479.73 L1009.79 1479.73 L1020.74 1508.82 L1031.71 1479.73 L1036.57 1479.73 L1023.4 1514.29 L1018.1 1514.29 Z" fill="#000000" fill-rule="evenodd" fill-opacity="1" /><path clip-path="url(#clip920)" d="M1035.93 1508.41 L1040.81 1508.41 L1040.81 1514.29 L1035.93 1514.29 L1035.93 1508.41 Z" fill="#000000" fill-rule="evenodd" fill-opacity="1" /><path clip-path="url(#clip920)" d="M1050.39 1488.36 L1054.65 1488.36 L1054.65 1514.75 Q1054.65 1519.7 1052.76 1521.93 Q1050.88 1524.15 1046.69 1524.15 L1045.07 1524.15 L1045.07 1520.54 L1046.2 1520.54 Q1048.63 1520.54 1049.51 1519.4 Q1050.39 1518.29 1050.39 1514.75 L1050.39 1488.36 M1050.39 1478.27 L1054.65 1478.27 L1054.65 1483.66 L1050.39 1483.66 L1050.39 1478.27 Z" fill="#000000" fill-rule="evenodd" fill-opacity="1" /><path clip-path="url(#clip920)" d="M1063.57 1478.27 L1067.82 1478.27 L1067.82 1514.29 L1063.57 1514.29 L1063.57 1478.27 Z" fill="#000000" fill-rule="evenodd" fill-opacity="1" /><path clip-path="url(#clip920)" d="M1238.39 1479.73 L1243.07 1479.73 L1243.07 1511.88 Q1243.07 1518.13 1240.69 1520.95 Q1238.33 1523.78 1233.07 1523.78 L1231.29 1523.78 L1231.29 1519.84 L1232.75 1519.84 Q1235.85 1519.84 1237.12 1518.11 Q1238.39 1516.37 1238.39 1511.88 L1238.39 1479.73 Z" fill="#000000" fill-rule="evenodd" fill-opacity="1" /><path clip-path="url(#clip920)" d="M1257.05 1483.57 L1257.05 1510.45 L1262.7 1510.45 Q1269.85 1510.45 1273.16 1507.2 Q1276.5 1503.96 1276.5 1496.97 Q1276.5 1490.03 1273.16 1486.81 Q1269.85 1483.57 1262.7 1483.57 L1257.05 1483.57 M1252.38 1479.73 L1261.98 1479.73 Q1272.03 1479.73 1276.73 1483.92 Q1281.43 1488.08 1281.43 1496.97 Q1281.43 1505.91 1276.7 1510.1 Q1271.98 1514.29 1261.98 1514.29 L1252.38 1514.29 L1252.38 1479.73 Z" fill="#000000" fill-rule="evenodd" fill-opacity="1" /><path clip-path="url(#clip920)" d="M1288.88 1479.73 L1308.74 1479.73 L1308.74 1483.66 L1293.56 1483.66 L1293.56 1493.85 L1307.26 1493.85 L1307.26 1497.78 L1293.56 1497.78 L1293.56 1514.29 L1288.88 1514.29 L1288.88 1479.73 Z" fill="#000000" fill-rule="evenodd" fill-opacity="1" /><path clip-path="url(#clip920)" d="M1308.95 1508.41 L1313.83 1508.41 L1313.83 1514.29 L1308.95 1514.29 L1308.95 1508.41 Z" fill="#000000" fill-rule="evenodd" fill-opacity="1" /><path clip-path="url(#clip920)" d="M1323.42 1488.36 L1327.68 1488.36 L1327.68 1514.75 Q1327.68 1519.7 1325.78 1521.93 Q1323.9 1524.15 1319.71 1524.15 L1318.09 1524.15 L1318.09 1520.54 L1319.23 1520.54 Q1321.66 1520.54 1322.54 1519.4 Q1323.42 1518.29 1323.42 1514.75 L1323.42 1488.36 M1323.42 1478.27 L1327.68 1478.27 L1327.68 1483.66 L1323.42 1483.66 L1323.42 1478.27 Z" fill="#000000" fill-rule="evenodd" fill-opacity="1" /><path clip-path="url(#clip920)" d="M1336.59 1478.27 L1340.85 1478.27 L1340.85 1514.29 L1336.59 1514.29 L1336.59 1478.27 Z" fill="#000000" fill-rule="evenodd" fill-opacity="1" /><path clip-path="url(#clip920)" d="M1500.68 1479.73 L1505.35 1479.73 L1505.35 1511.88 Q1505.35 1518.13 1502.97 1520.95 Q1500.61 1523.78 1495.35 1523.78 L1493.57 1523.78 L1493.57 1519.84 L1495.03 1519.84 Q1498.13 1519.84 1499.4 1518.11 Q1500.68 1516.37 1500.68 1511.88 L1500.68 1479.73 Z" fill="#000000" fill-rule="evenodd" fill-opacity="1" /><path clip-path="url(#clip920)" d="M1514.66 1479.73 L1519.33 1479.73 L1519.33 1510.35 L1536.16 1510.35 L1536.16 1514.29 L1514.66 1514.29 L1514.66 1479.73 Z" fill="#000000" fill-rule="evenodd" fill-opacity="1" /><path clip-path="url(#clip920)" d="M1561.79 1480.86 L1561.79 1485.42 Q1559.13 1484.15 1556.76 1483.52 Q1554.4 1482.9 1552.2 1482.9 Q1548.39 1482.9 1546.3 1484.38 Q1544.24 1485.86 1544.24 1488.59 Q1544.24 1490.89 1545.61 1492.07 Q1547 1493.22 1550.84 1493.94 L1553.66 1494.52 Q1558.89 1495.51 1561.37 1498.04 Q1563.87 1500.54 1563.87 1504.75 Q1563.87 1509.77 1560.49 1512.37 Q1557.14 1514.96 1550.63 1514.96 Q1548.18 1514.96 1545.4 1514.4 Q1542.64 1513.85 1539.68 1512.76 L1539.68 1507.95 Q1542.53 1509.54 1545.26 1510.35 Q1547.99 1511.16 1550.63 1511.16 Q1554.64 1511.16 1556.81 1509.59 Q1558.99 1508.01 1558.99 1505.1 Q1558.99 1502.55 1557.41 1501.12 Q1555.86 1499.68 1552.3 1498.96 L1549.45 1498.41 Q1544.22 1497.37 1541.88 1495.14 Q1539.54 1492.92 1539.54 1488.96 Q1539.54 1484.38 1542.76 1481.74 Q1546 1479.1 1551.67 1479.1 Q1554.1 1479.1 1556.63 1479.54 Q1559.15 1479.98 1561.79 1480.86 Z" fill="#000000" fill-rule="evenodd" fill-opacity="1" /><path clip-path="url(#clip920)" d="M1585.19 1482.9 Q1580.1 1482.9 1577.09 1486.7 Q1574.1 1490.49 1574.1 1497.04 Q1574.1 1503.57 1577.09 1507.37 Q1580.1 1511.16 1585.19 1511.16 Q1590.28 1511.16 1593.25 1507.37 Q1596.23 1503.57 1596.23 1497.04 Q1596.23 1490.49 1593.25 1486.7 Q1590.28 1482.9 1585.19 1482.9 M1585.19 1479.1 Q1592.46 1479.1 1596.81 1483.99 Q1601.16 1488.85 1601.16 1497.04 Q1601.16 1505.21 1596.81 1510.1 Q1592.46 1514.96 1585.19 1514.96 Q1577.9 1514.96 1573.52 1510.1 Q1569.17 1505.24 1569.17 1497.04 Q1569.17 1488.85 1573.52 1483.99 Q1577.9 1479.1 1585.19 1479.1 Z" fill="#000000" fill-rule="evenodd" fill-opacity="1" /><path clip-path="url(#clip920)" d="M1606.97 1508.41 L1611.86 1508.41 L1611.86 1514.29 L1606.97 1514.29 L1606.97 1508.41 Z" fill="#000000" fill-rule="evenodd" fill-opacity="1" /><path clip-path="url(#clip920)" d="M1621.44 1488.36 L1625.7 1488.36 L1625.7 1514.75 Q1625.7 1519.7 1623.8 1521.93 Q1621.93 1524.15 1617.74 1524.15 L1616.12 1524.15 L1616.12 1520.54 L1617.25 1520.54 Q1619.68 1520.54 1620.56 1519.4 Q1621.44 1518.29 1621.44 1514.75 L1621.44 1488.36 M1621.44 1478.27 L1625.7 1478.27 L1625.7 1483.66 L1621.44 1483.66 L1621.44 1478.27 Z" fill="#000000" fill-rule="evenodd" fill-opacity="1" /><path clip-path="url(#clip920)" d="M1634.61 1478.27 L1638.87 1478.27 L1638.87 1514.29 L1634.61 1514.29 L1634.61 1478.27 Z" fill="#000000" fill-rule="evenodd" fill-opacity="1" /><path clip-path="url(#clip920)" d="M1796.15 1479.73 L1800.83 1479.73 L1800.83 1511.88 Q1800.83 1518.13 1798.45 1520.95 Q1796.08 1523.78 1790.83 1523.78 L1789.05 1523.78 L1789.05 1519.84 L1790.51 1519.84 Q1793.61 1519.84 1794.88 1518.11 Q1796.15 1516.37 1796.15 1511.88 L1796.15 1479.73 Z" fill="#000000" fill-rule="evenodd" fill-opacity="1" /><path clip-path="url(#clip920)" d="M1830.85 1480.86 L1830.85 1485.42 Q1828.19 1484.15 1825.83 1483.52 Q1823.47 1482.9 1821.27 1482.9 Q1817.45 1482.9 1815.37 1484.38 Q1813.31 1485.86 1813.31 1488.59 Q1813.31 1490.89 1814.67 1492.07 Q1816.06 1493.22 1819.9 1493.94 L1822.73 1494.52 Q1827.96 1495.51 1830.44 1498.04 Q1832.94 1500.54 1832.94 1504.75 Q1832.94 1509.77 1829.56 1512.37 Q1826.2 1514.96 1819.7 1514.96 Q1817.24 1514.96 1814.46 1514.4 Q1811.71 1513.85 1808.75 1512.76 L1808.75 1507.95 Q1811.59 1509.54 1814.33 1510.35 Q1817.06 1511.16 1819.7 1511.16 Q1823.7 1511.16 1825.88 1509.59 Q1828.05 1508.01 1828.05 1505.1 Q1828.05 1502.55 1826.48 1501.12 Q1824.93 1499.68 1821.36 1498.96 L1818.52 1498.41 Q1813.28 1497.37 1810.95 1495.14 Q1808.61 1492.92 1808.61 1488.96 Q1808.61 1484.38 1811.83 1481.74 Q1815.07 1479.1 1820.74 1479.1 Q1823.17 1479.1 1825.69 1479.54 Q1828.21 1479.98 1830.85 1480.86 Z" fill="#000000" fill-rule="evenodd" fill-opacity="1" /><path clip-path="url(#clip920)" d="M1854.26 1482.9 Q1849.16 1482.9 1846.15 1486.7 Q1843.17 1490.49 1843.17 1497.04 Q1843.17 1503.57 1846.15 1507.37 Q1849.16 1511.16 1854.26 1511.16 Q1859.35 1511.16 1862.31 1507.37 Q1865.3 1503.57 1865.3 1497.04 Q1865.3 1490.49 1862.31 1486.7 Q1859.35 1482.9 1854.26 1482.9 M1854.26 1479.1 Q1861.52 1479.1 1865.88 1483.99 Q1870.23 1488.85 1870.23 1497.04 Q1870.23 1505.21 1865.88 1510.1 Q1861.52 1514.96 1854.26 1514.96 Q1846.96 1514.96 1842.59 1510.1 Q1838.24 1505.24 1838.24 1497.04 Q1838.24 1488.85 1842.59 1483.99 Q1846.96 1479.1 1854.26 1479.1 Z" fill="#000000" fill-rule="evenodd" fill-opacity="1" /><path clip-path="url(#clip920)" d="M1877.54 1479.73 L1883.84 1479.73 L1899.16 1508.64 L1899.16 1479.73 L1903.7 1479.73 L1903.7 1514.29 L1897.4 1514.29 L1882.08 1485.38 L1882.08 1514.29 L1877.54 1514.29 L1877.54 1479.73 Z" fill="#000000" fill-rule="evenodd" fill-opacity="1" /><path clip-path="url(#clip920)" d="M1727.76 1543.19 Q1724.34 1543.19 1722.35 1545.87 Q1720.36 1548.54 1720.36 1553.19 Q1720.36 1557.84 1722.32 1560.53 Q1724.31 1563.19 1727.76 1563.19 Q1731.17 1563.19 1733.16 1560.5 Q1735.15 1557.82 1735.15 1553.19 Q1735.15 1548.58 1733.16 1545.9 Q1731.17 1543.19 1727.76 1543.19 M1727.76 1539.58 Q1733.32 1539.58 1736.49 1543.19 Q1739.66 1546.8 1739.66 1553.19 Q1739.66 1559.55 1736.49 1563.19 Q1733.32 1566.8 1727.76 1566.8 Q1722.18 1566.8 1719.01 1563.19 Q1715.87 1559.55 1715.87 1553.19 Q1715.87 1546.8 1719.01 1543.19 Q1722.18 1539.58 1727.76 1539.58 Z" fill="#000000" fill-rule="evenodd" fill-opacity="1" /><path clip-path="url(#clip920)" d="M1765.33 1553.19 Q1765.33 1548.49 1763.39 1545.83 Q1761.47 1543.14 1758.09 1543.14 Q1754.71 1543.14 1752.76 1545.83 Q1750.84 1548.49 1750.84 1553.19 Q1750.84 1557.89 1752.76 1560.57 Q1754.71 1563.23 1758.09 1563.23 Q1761.47 1563.23 1763.39 1560.57 Q1765.33 1557.89 1765.33 1553.19 M1750.84 1544.14 Q1752.18 1541.82 1754.22 1540.71 Q1756.28 1539.58 1759.13 1539.58 Q1763.85 1539.58 1766.79 1543.33 Q1769.75 1547.08 1769.75 1553.19 Q1769.75 1559.3 1766.79 1563.05 Q1763.85 1566.8 1759.13 1566.8 Q1756.28 1566.8 1754.22 1565.69 Q1752.18 1564.55 1750.84 1562.24 L1750.84 1566.13 L1746.56 1566.13 L1746.56 1530.11 L1750.84 1530.11 L1750.84 1544.14 Z" fill="#000000" fill-rule="evenodd" fill-opacity="1" /><path clip-path="url(#clip920)" d="M1776.81 1540.2 L1781.07 1540.2 L1781.07 1566.59 Q1781.07 1571.54 1779.18 1573.77 Q1777.3 1575.99 1773.11 1575.99 L1771.49 1575.99 L1771.49 1572.38 L1772.62 1572.38 Q1775.05 1572.38 1775.93 1571.24 Q1776.81 1570.13 1776.81 1566.59 L1776.81 1540.2 M1776.81 1530.11 L1781.07 1530.11 L1781.07 1535.5 L1776.81 1535.5 L1776.81 1530.11 Z" fill="#000000" fill-rule="evenodd" fill-opacity="1" /><path clip-path="url(#clip920)" d="M1812.16 1552.1 L1812.16 1554.18 L1792.58 1554.18 Q1792.86 1558.58 1795.22 1560.9 Q1797.6 1563.19 1801.84 1563.19 Q1804.29 1563.19 1806.58 1562.59 Q1808.9 1561.98 1811.17 1560.78 L1811.17 1564.81 Q1808.87 1565.78 1806.47 1566.29 Q1804.06 1566.8 1801.58 1566.8 Q1795.38 1566.8 1791.74 1563.19 Q1788.13 1559.58 1788.13 1553.42 Q1788.13 1547.05 1791.56 1543.33 Q1795.01 1539.58 1800.84 1539.58 Q1806.07 1539.58 1809.11 1542.96 Q1812.16 1546.31 1812.16 1552.1 M1807.9 1550.85 Q1807.86 1547.35 1805.93 1545.27 Q1804.04 1543.19 1800.89 1543.19 Q1797.32 1543.19 1795.17 1545.2 Q1793.04 1547.22 1792.72 1550.87 L1807.9 1550.85 Z" fill="#000000" fill-rule="evenodd" fill-opacity="1" /><path clip-path="url(#clip920)" d="M1837.81 1541.2 L1837.81 1545.18 Q1836 1544.18 1834.17 1543.7 Q1832.37 1543.19 1830.52 1543.19 Q1826.37 1543.19 1824.08 1545.83 Q1821.79 1548.44 1821.79 1553.19 Q1821.79 1557.93 1824.08 1560.57 Q1826.37 1563.19 1830.52 1563.19 Q1832.37 1563.19 1834.17 1562.7 Q1836 1562.19 1837.81 1561.2 L1837.81 1565.13 Q1836.03 1565.97 1834.11 1566.38 Q1832.21 1566.8 1830.05 1566.8 Q1824.2 1566.8 1820.75 1563.12 Q1817.3 1559.44 1817.3 1553.19 Q1817.3 1546.85 1820.77 1543.21 Q1824.27 1539.58 1830.33 1539.58 Q1832.3 1539.58 1834.17 1539.99 Q1836.05 1540.39 1837.81 1541.2 Z" fill="#000000" fill-rule="evenodd" fill-opacity="1" /><path clip-path="url(#clip920)" d="M1849.43 1532.84 L1849.43 1540.2 L1858.2 1540.2 L1858.2 1543.51 L1849.43 1543.51 L1849.43 1557.59 Q1849.43 1560.76 1850.29 1561.66 Q1851.17 1562.56 1853.83 1562.56 L1858.2 1562.56 L1858.2 1566.13 L1853.83 1566.13 Q1848.9 1566.13 1847.02 1564.3 Q1845.15 1562.45 1845.15 1557.59 L1845.15 1543.51 L1842.02 1543.51 L1842.02 1540.2 L1845.15 1540.2 L1845.15 1532.84 L1849.43 1532.84 Z" fill="#000000" fill-rule="evenodd" fill-opacity="1" /><path clip-path="url(#clip920)" d="M1868.02 1532.84 L1868.02 1540.2 L1876.79 1540.2 L1876.79 1543.51 L1868.02 1543.51 L1868.02 1557.59 Q1868.02 1560.76 1868.87 1561.66 Q1869.75 1562.56 1872.42 1562.56 L1876.79 1562.56 L1876.79 1566.13 L1872.42 1566.13 Q1867.48 1566.13 1865.61 1564.3 Q1863.73 1562.45 1863.73 1557.59 L1863.73 1543.51 L1860.61 1543.51 L1860.61 1540.2 L1863.73 1540.2 L1863.73 1532.84 L1868.02 1532.84 Z" fill="#000000" fill-rule="evenodd" fill-opacity="1" /><path clip-path="url(#clip920)" d="M1894.17 1553.1 Q1889.01 1553.1 1887.02 1554.28 Q1885.03 1555.46 1885.03 1558.3 Q1885.03 1560.57 1886.51 1561.91 Q1888.02 1563.23 1890.59 1563.23 Q1894.13 1563.23 1896.26 1560.73 Q1898.41 1558.21 1898.41 1554.04 L1898.41 1553.1 L1894.17 1553.1 M1902.67 1551.34 L1902.67 1566.13 L1898.41 1566.13 L1898.41 1562.19 Q1896.95 1564.55 1894.78 1565.69 Q1892.6 1566.8 1889.45 1566.8 Q1885.47 1566.8 1883.11 1564.58 Q1880.77 1562.33 1880.77 1558.58 Q1880.77 1554.21 1883.69 1551.98 Q1886.63 1549.76 1892.44 1549.76 L1898.41 1549.76 L1898.41 1549.35 Q1898.41 1546.41 1896.47 1544.81 Q1894.54 1543.19 1891.05 1543.19 Q1888.83 1543.19 1886.72 1543.72 Q1884.61 1544.25 1882.67 1545.32 L1882.67 1541.38 Q1885.01 1540.48 1887.21 1540.04 Q1889.41 1539.58 1891.49 1539.58 Q1897.11 1539.58 1899.89 1542.49 Q1902.67 1545.41 1902.67 1551.34 Z" fill="#000000" fill-rule="evenodd" fill-opacity="1" /><path clip-path="url(#clip920)" d="M1930.05 1553.19 Q1930.05 1548.49 1928.11 1545.83 Q1926.19 1543.14 1922.81 1543.14 Q1919.43 1543.14 1917.48 1545.83 Q1915.56 1548.49 1915.56 1553.19 Q1915.56 1557.89 1917.48 1560.57 Q1919.43 1563.23 1922.81 1563.23 Q1926.19 1563.23 1928.11 1560.57 Q1930.05 1557.89 1930.05 1553.19 M1915.56 1544.14 Q1916.91 1541.82 1918.94 1540.71 Q1921 1539.58 1923.85 1539.58 Q1928.57 1539.58 1931.51 1543.33 Q1934.48 1547.08 1934.48 1553.19 Q1934.48 1559.3 1931.51 1563.05 Q1928.57 1566.8 1923.85 1566.8 Q1921 1566.8 1918.94 1565.69 Q1916.91 1564.55 1915.56 1562.24 L1915.56 1566.13 L1911.28 1566.13 L1911.28 1530.11 L1915.56 1530.11 L1915.56 1544.14 Z" fill="#000000" fill-rule="evenodd" fill-opacity="1" /><path clip-path="url(#clip920)" d="M1941.54 1530.11 L1945.79 1530.11 L1945.79 1566.13 L1941.54 1566.13 L1941.54 1530.11 Z" fill="#000000" fill-rule="evenodd" fill-opacity="1" /><path clip-path="url(#clip920)" d="M1976.88 1552.1 L1976.88 1554.18 L1957.3 1554.18 Q1957.58 1558.58 1959.94 1560.9 Q1962.32 1563.19 1966.56 1563.19 Q1969.01 1563.19 1971.3 1562.59 Q1973.62 1561.98 1975.89 1560.78 L1975.89 1564.81 Q1973.6 1565.78 1971.19 1566.29 Q1968.78 1566.8 1966.3 1566.8 Q1960.1 1566.8 1956.47 1563.19 Q1952.85 1559.58 1952.85 1553.42 Q1952.85 1547.05 1956.28 1543.33 Q1959.73 1539.58 1965.56 1539.58 Q1970.79 1539.58 1973.83 1542.96 Q1976.88 1546.31 1976.88 1552.1 M1972.62 1550.85 Q1972.58 1547.35 1970.66 1545.27 Q1968.76 1543.19 1965.61 1543.19 Q1962.04 1543.19 1959.89 1545.2 Q1957.76 1547.22 1957.44 1550.87 L1972.62 1550.85 Z" fill="#000000" fill-rule="evenodd" fill-opacity="1" /><path clip-path="url(#clip920)" d="M2006.32 1480.86 L2006.32 1485.42 Q2003.66 1484.15 2001.3 1483.52 Q1998.93 1482.9 1996.74 1482.9 Q1992.92 1482.9 1990.83 1484.38 Q1988.77 1485.86 1988.77 1488.59 Q1988.77 1490.89 1990.14 1492.07 Q1991.53 1493.22 1995.37 1493.94 L1998.19 1494.52 Q2003.43 1495.51 2005.9 1498.04 Q2008.4 1500.54 2008.4 1504.75 Q2008.4 1509.77 2005.02 1512.37 Q2001.67 1514.96 1995.16 1514.96 Q1992.71 1514.96 1989.93 1514.4 Q1987.18 1513.85 1984.21 1512.76 L1984.21 1507.95 Q1987.06 1509.54 1989.79 1510.35 Q1992.52 1511.16 1995.16 1511.16 Q1999.17 1511.16 2001.34 1509.59 Q2003.52 1508.01 2003.52 1505.1 Q2003.52 1502.55 2001.94 1501.12 Q2000.39 1499.68 1996.83 1498.96 L1993.98 1498.41 Q1988.75 1497.37 1986.41 1495.14 Q1984.07 1492.92 1984.07 1488.96 Q1984.07 1484.38 1987.29 1481.74 Q1990.53 1479.1 1996.2 1479.1 Q1998.63 1479.1 2001.16 1479.54 Q2003.68 1479.98 2006.32 1480.86 Z" fill="#000000" fill-rule="evenodd" fill-opacity="1" /><path clip-path="url(#clip920)" d="M2037.68 1500.26 L2037.68 1502.34 L2018.1 1502.34 Q2018.38 1506.74 2020.74 1509.06 Q2023.12 1511.35 2027.36 1511.35 Q2029.81 1511.35 2032.11 1510.75 Q2034.42 1510.14 2036.69 1508.94 L2036.69 1512.97 Q2034.4 1513.94 2031.99 1514.45 Q2029.58 1514.96 2027.11 1514.96 Q2020.9 1514.96 2017.27 1511.35 Q2013.66 1507.74 2013.66 1501.58 Q2013.66 1495.21 2017.08 1491.49 Q2020.53 1487.74 2026.37 1487.74 Q2031.6 1487.74 2034.63 1491.12 Q2037.68 1494.47 2037.68 1500.26 M2033.43 1499.01 Q2033.38 1495.51 2031.46 1493.43 Q2029.56 1491.35 2026.41 1491.35 Q2022.85 1491.35 2020.69 1493.36 Q2018.56 1495.38 2018.24 1499.03 L2033.43 1499.01 Z" fill="#000000" fill-rule="evenodd" fill-opacity="1" /><path clip-path="url(#clip920)" d="M2059.7 1492.34 Q2058.98 1491.93 2058.12 1491.74 Q2057.29 1491.53 2056.27 1491.53 Q2052.66 1491.53 2050.72 1493.89 Q2048.8 1496.23 2048.8 1500.63 L2048.8 1514.29 L2044.51 1514.29 L2044.51 1488.36 L2048.8 1488.36 L2048.8 1492.39 Q2050.14 1490.03 2052.29 1488.89 Q2054.44 1487.74 2057.52 1487.74 Q2057.96 1487.74 2058.49 1487.81 Q2059.03 1487.85 2059.68 1487.97 L2059.7 1492.34 Z" fill="#000000" fill-rule="evenodd" fill-opacity="1" /><path clip-path="url(#clip920)" d="M2064.17 1488.36 L2068.43 1488.36 L2068.43 1514.29 L2064.17 1514.29 L2064.17 1488.36 M2064.17 1478.27 L2068.43 1478.27 L2068.43 1483.66 L2064.17 1483.66 L2064.17 1478.27 Z" fill="#000000" fill-rule="evenodd" fill-opacity="1" /><path clip-path="url(#clip920)" d="M2089.12 1501.26 Q2083.96 1501.26 2081.97 1502.44 Q2079.98 1503.62 2079.98 1506.46 Q2079.98 1508.73 2081.46 1510.07 Q2082.96 1511.39 2085.53 1511.39 Q2089.07 1511.39 2091.2 1508.89 Q2093.36 1506.37 2093.36 1502.2 L2093.36 1501.26 L2089.12 1501.26 M2097.61 1499.5 L2097.61 1514.29 L2093.36 1514.29 L2093.36 1510.35 Q2091.9 1512.71 2089.72 1513.85 Q2087.55 1514.96 2084.4 1514.96 Q2080.42 1514.96 2078.05 1512.74 Q2075.72 1510.49 2075.72 1506.74 Q2075.72 1502.37 2078.63 1500.14 Q2081.57 1497.92 2087.38 1497.92 L2093.36 1497.92 L2093.36 1497.51 Q2093.36 1494.57 2091.41 1492.97 Q2089.49 1491.35 2085.99 1491.35 Q2083.77 1491.35 2081.67 1491.88 Q2079.56 1492.41 2077.62 1493.48 L2077.62 1489.54 Q2079.95 1488.64 2082.15 1488.2 Q2084.35 1487.74 2086.43 1487.74 Q2092.06 1487.74 2094.84 1490.65 Q2097.61 1493.57 2097.61 1499.5 Z" fill="#000000" fill-rule="evenodd" fill-opacity="1" /><path clip-path="url(#clip920)" d="M2106.39 1478.27 L2110.65 1478.27 L2110.65 1514.29 L2106.39 1514.29 L2106.39 1478.27 Z" fill="#000000" fill-rule="evenodd" fill-opacity="1" /><path clip-path="url(#clip920)" d="M2119.56 1488.36 L2123.82 1488.36 L2123.82 1514.29 L2119.56 1514.29 L2119.56 1488.36 M2119.56 1478.27 L2123.82 1478.27 L2123.82 1483.66 L2119.56 1483.66 L2119.56 1478.27 Z" fill="#000000" fill-rule="evenodd" fill-opacity="1" /><path clip-path="url(#clip920)" d="M2130.88 1488.36 L2151.11 1488.36 L2151.11 1492.25 L2135.09 1510.89 L2151.11 1510.89 L2151.11 1514.29 L2130.3 1514.29 L2130.3 1510.4 L2146.32 1491.76 L2130.88 1491.76 L2130.88 1488.36 Z" fill="#000000" fill-rule="evenodd" fill-opacity="1" /><path clip-path="url(#clip920)" d="M2169.4 1501.26 Q2164.23 1501.26 2162.24 1502.44 Q2160.25 1503.62 2160.25 1506.46 Q2160.25 1508.73 2161.73 1510.07 Q2163.24 1511.39 2165.81 1511.39 Q2169.35 1511.39 2171.48 1508.89 Q2173.63 1506.37 2173.63 1502.2 L2173.63 1501.26 L2169.4 1501.26 M2177.89 1499.5 L2177.89 1514.29 L2173.63 1514.29 L2173.63 1510.35 Q2172.17 1512.71 2170 1513.85 Q2167.82 1514.96 2164.67 1514.96 Q2160.69 1514.96 2158.33 1512.74 Q2155.99 1510.49 2155.99 1506.74 Q2155.99 1502.37 2158.91 1500.14 Q2161.85 1497.92 2167.66 1497.92 L2173.63 1497.92 L2173.63 1497.51 Q2173.63 1494.57 2171.69 1492.97 Q2169.77 1491.35 2166.27 1491.35 Q2164.05 1491.35 2161.94 1491.88 Q2159.84 1492.41 2157.89 1493.48 L2157.89 1489.54 Q2160.23 1488.64 2162.43 1488.2 Q2164.63 1487.74 2166.71 1487.74 Q2172.34 1487.74 2175.11 1490.65 Q2177.89 1493.57 2177.89 1499.5 Z" fill="#000000" fill-rule="evenodd" fill-opacity="1" /><path clip-path="url(#clip920)" d="M2190.88 1481 L2190.88 1488.36 L2199.65 1488.36 L2199.65 1491.67 L2190.88 1491.67 L2190.88 1505.75 Q2190.88 1508.92 2191.73 1509.82 Q2192.61 1510.72 2195.28 1510.72 L2199.65 1510.72 L2199.65 1514.29 L2195.28 1514.29 Q2190.35 1514.29 2188.47 1512.46 Q2186.6 1510.61 2186.6 1505.75 L2186.6 1491.67 L2183.47 1491.67 L2183.47 1488.36 L2186.6 1488.36 L2186.6 1481 L2190.88 1481 Z" fill="#000000" fill-rule="evenodd" fill-opacity="1" /><path clip-path="url(#clip920)" d="M2205.25 1488.36 L2209.51 1488.36 L2209.51 1514.29 L2205.25 1514.29 L2205.25 1488.36 M2205.25 1478.27 L2209.51 1478.27 L2209.51 1483.66 L2205.25 1483.66 L2205.25 1478.27 Z" fill="#000000" fill-rule="evenodd" fill-opacity="1" /><path clip-path="url(#clip920)" d="M2228.47 1491.35 Q2225.04 1491.35 2223.05 1494.03 Q2221.06 1496.7 2221.06 1501.35 Q2221.06 1506 2223.03 1508.69 Q2225.02 1511.35 2228.47 1511.35 Q2231.87 1511.35 2233.86 1508.66 Q2235.85 1505.98 2235.85 1501.35 Q2235.85 1496.74 2233.86 1494.06 Q2231.87 1491.35 2228.47 1491.35 M2228.47 1487.74 Q2234.03 1487.74 2237.2 1491.35 Q2240.37 1494.96 2240.37 1501.35 Q2240.37 1507.71 2237.2 1511.35 Q2234.03 1514.96 2228.47 1514.96 Q2222.89 1514.96 2219.72 1511.35 Q2216.57 1507.71 2216.57 1501.35 Q2216.57 1494.96 2219.72 1491.35 Q2222.89 1487.74 2228.47 1487.74 Z" fill="#000000" fill-rule="evenodd" fill-opacity="1" /><path clip-path="url(#clip920)" d="M2268.98 1498.64 L2268.98 1514.29 L2264.72 1514.29 L2264.72 1498.78 Q2264.72 1495.1 2263.29 1493.27 Q2261.85 1491.44 2258.98 1491.44 Q2255.53 1491.44 2253.54 1493.64 Q2251.55 1495.84 2251.55 1499.64 L2251.55 1514.29 L2247.27 1514.29 L2247.27 1488.36 L2251.55 1488.36 L2251.55 1492.39 Q2253.08 1490.05 2255.14 1488.89 Q2257.22 1487.74 2259.93 1487.74 Q2264.4 1487.74 2266.69 1490.51 Q2268.98 1493.27 2268.98 1498.64 Z" fill="#000000" fill-rule="evenodd" fill-opacity="1" /><polyline clip-path="url(#clip922)" style="stroke:#000000; stroke-linecap:butt; stroke-linejoin:round; stroke-width:2; stroke-opacity:0.1; fill:none" points="
  219.38,1417.71 2352.76,1417.71 
  "/>
<polyline clip-path="url(#clip922)" style="stroke:#000000; stroke-linecap:butt; stroke-linejoin:round; stroke-width:2; stroke-opacity:0.1; fill:none" points="
  219.38,1111.03 2352.76,1111.03 
  "/>
<polyline clip-path="url(#clip922)" style="stroke:#000000; stroke-linecap:butt; stroke-linejoin:round; stroke-width:2; stroke-opacity:0.1; fill:none" points="
  219.38,804.348 2352.76,804.348 
  "/>
<polyline clip-path="url(#clip922)" style="stroke:#000000; stroke-linecap:butt; stroke-linejoin:round; stroke-width:2; stroke-opacity:0.1; fill:none" points="
  219.38,497.665 2352.76,497.665 
  "/>
<polyline clip-path="url(#clip920)" style="stroke:#000000; stroke-linecap:butt; stroke-linejoin:round; stroke-width:4; stroke-opacity:1; fill:none" points="
  219.38,1451.89 219.38,244.432 
  "/>
<polyline clip-path="url(#clip920)" style="stroke:#000000; stroke-linecap:butt; stroke-linejoin:round; stroke-width:4; stroke-opacity:1; fill:none" points="
  219.38,1417.71 238.278,1417.71 
  "/>
<polyline clip-path="url(#clip920)" style="stroke:#000000; stroke-linecap:butt; stroke-linejoin:round; stroke-width:4; stroke-opacity:1; fill:none" points="
  219.38,1111.03 238.278,1111.03 
  "/>
<polyline clip-path="url(#clip920)" style="stroke:#000000; stroke-linecap:butt; stroke-linejoin:round; stroke-width:4; stroke-opacity:1; fill:none" points="
  219.38,804.348 238.278,804.348 
  "/>
<polyline clip-path="url(#clip920)" style="stroke:#000000; stroke-linecap:butt; stroke-linejoin:round; stroke-width:4; stroke-opacity:1; fill:none" points="
  219.38,497.665 238.278,497.665 
  "/>
<path clip-path="url(#clip920)" d="M126.205 1403.51 Q122.593 1403.51 120.765 1407.08 Q118.959 1410.62 118.959 1417.75 Q118.959 1424.86 120.765 1428.42 Q122.593 1431.96 126.205 1431.96 Q129.839 1431.96 131.644 1428.42 Q133.473 1424.86 133.473 1417.75 Q133.473 1410.62 131.644 1407.08 Q129.839 1403.51 126.205 1403.51 M126.205 1399.81 Q132.015 1399.81 135.07 1404.42 Q138.149 1409 138.149 1417.75 Q138.149 1426.48 135.07 1431.08 Q132.015 1435.67 126.205 1435.67 Q120.394 1435.67 117.316 1431.08 Q114.26 1426.48 114.26 1417.75 Q114.26 1409 117.316 1404.42 Q120.394 1399.81 126.205 1399.81 Z" fill="#000000" fill-rule="evenodd" fill-opacity="1" /><path clip-path="url(#clip920)" d="M146.366 1429.12 L151.251 1429.12 L151.251 1434.99 L146.366 1434.99 L146.366 1429.12 Z" fill="#000000" fill-rule="evenodd" fill-opacity="1" /><path clip-path="url(#clip920)" d="M171.436 1403.51 Q167.825 1403.51 165.996 1407.08 Q164.19 1410.62 164.19 1417.75 Q164.19 1424.86 165.996 1428.42 Q167.825 1431.96 171.436 1431.96 Q175.07 1431.96 176.876 1428.42 Q178.704 1424.86 178.704 1417.75 Q178.704 1410.62 176.876 1407.08 Q175.07 1403.51 171.436 1403.51 M171.436 1399.81 Q177.246 1399.81 180.301 1404.42 Q183.38 1409 183.38 1417.75 Q183.38 1426.48 180.301 1431.08 Q177.246 1435.67 171.436 1435.67 Q165.626 1435.67 162.547 1431.08 Q159.491 1426.48 159.491 1417.75 Q159.491 1409 162.547 1404.42 Q165.626 1399.81 171.436 1399.81 Z" fill="#000000" fill-rule="evenodd" fill-opacity="1" /><path clip-path="url(#clip920)" d="M127.2 1096.83 Q123.589 1096.83 121.76 1100.39 Q119.955 1103.94 119.955 1111.07 Q119.955 1118.17 121.76 1121.74 Q123.589 1125.28 127.2 1125.28 Q130.834 1125.28 132.64 1121.74 Q134.468 1118.17 134.468 1111.07 Q134.468 1103.94 132.64 1100.39 Q130.834 1096.83 127.2 1096.83 M127.2 1093.13 Q133.01 1093.13 136.066 1097.73 Q139.144 1102.32 139.144 1111.07 Q139.144 1119.79 136.066 1124.4 Q133.01 1128.98 127.2 1128.98 Q121.39 1128.98 118.311 1124.4 Q115.256 1119.79 115.256 1111.07 Q115.256 1102.32 118.311 1097.73 Q121.39 1093.13 127.2 1093.13 Z" fill="#000000" fill-rule="evenodd" fill-opacity="1" /><path clip-path="url(#clip920)" d="M147.362 1122.43 L152.246 1122.43 L152.246 1128.31 L147.362 1128.31 L147.362 1122.43 Z" fill="#000000" fill-rule="evenodd" fill-opacity="1" /><path clip-path="url(#clip920)" d="M162.477 1093.75 L180.834 1093.75 L180.834 1097.69 L166.76 1097.69 L166.76 1106.16 Q167.778 1105.81 168.797 1105.65 Q169.815 1105.46 170.834 1105.46 Q176.621 1105.46 180.001 1108.64 Q183.38 1111.81 183.38 1117.22 Q183.38 1122.8 179.908 1125.9 Q176.436 1128.98 170.116 1128.98 Q167.94 1128.98 165.672 1128.61 Q163.427 1128.24 161.019 1127.5 L161.019 1122.8 Q163.102 1123.94 165.325 1124.49 Q167.547 1125.05 170.024 1125.05 Q174.028 1125.05 176.366 1122.94 Q178.704 1120.83 178.704 1117.22 Q178.704 1113.61 176.366 1111.51 Q174.028 1109.4 170.024 1109.4 Q168.149 1109.4 166.274 1109.82 Q164.422 1110.23 162.477 1111.11 L162.477 1093.75 Z" fill="#000000" fill-rule="evenodd" fill-opacity="1" /><path clip-path="url(#clip920)" d="M117.015 817.693 L124.654 817.693 L124.654 791.327 L116.343 792.994 L116.343 788.735 L124.607 787.068 L129.283 787.068 L129.283 817.693 L136.922 817.693 L136.922 821.628 L117.015 821.628 L117.015 817.693 Z" fill="#000000" fill-rule="evenodd" fill-opacity="1" /><path clip-path="url(#clip920)" d="M146.366 815.749 L151.251 815.749 L151.251 821.628 L146.366 821.628 L146.366 815.749 Z" fill="#000000" fill-rule="evenodd" fill-opacity="1" /><path clip-path="url(#clip920)" d="M171.436 790.147 Q167.825 790.147 165.996 793.712 Q164.19 797.253 164.19 804.383 Q164.19 811.489 165.996 815.054 Q167.825 818.596 171.436 818.596 Q175.07 818.596 176.876 815.054 Q178.704 811.489 178.704 804.383 Q178.704 797.253 176.876 793.712 Q175.07 790.147 171.436 790.147 M171.436 786.443 Q177.246 786.443 180.301 791.05 Q183.38 795.633 183.38 804.383 Q183.38 813.11 180.301 817.716 Q177.246 822.3 171.436 822.3 Q165.626 822.3 162.547 817.716 Q159.491 813.11 159.491 804.383 Q159.491 795.633 162.547 791.05 Q165.626 786.443 171.436 786.443 Z" fill="#000000" fill-rule="evenodd" fill-opacity="1" /><path clip-path="url(#clip920)" d="M118.01 511.01 L125.649 511.01 L125.649 484.644 L117.339 486.311 L117.339 482.052 L125.603 480.385 L130.279 480.385 L130.279 511.01 L137.917 511.01 L137.917 514.945 L118.01 514.945 L118.01 511.01 Z" fill="#000000" fill-rule="evenodd" fill-opacity="1" /><path clip-path="url(#clip920)" d="M147.362 509.065 L152.246 509.065 L152.246 514.945 L147.362 514.945 L147.362 509.065 Z" fill="#000000" fill-rule="evenodd" fill-opacity="1" /><path clip-path="url(#clip920)" d="M162.477 480.385 L180.834 480.385 L180.834 484.32 L166.76 484.32 L166.76 492.792 Q167.778 492.445 168.797 492.283 Q169.815 492.098 170.834 492.098 Q176.621 492.098 180.001 495.269 Q183.38 498.441 183.38 503.857 Q183.38 509.436 179.908 512.538 Q176.436 515.616 170.116 515.616 Q167.94 515.616 165.672 515.246 Q163.427 514.876 161.019 514.135 L161.019 509.436 Q163.102 510.57 165.325 511.126 Q167.547 511.681 170.024 511.681 Q174.028 511.681 176.366 509.575 Q178.704 507.468 178.704 503.857 Q178.704 500.246 176.366 498.14 Q174.028 496.033 170.024 496.033 Q168.149 496.033 166.274 496.45 Q164.422 496.866 162.477 497.746 L162.477 480.385 Z" fill="#000000" fill-rule="evenodd" fill-opacity="1" /><path clip-path="url(#clip920)" d="M18.0438 932.41 L24.314 932.41 Q22.5634 936.07 21.704 939.317 Q20.8447 942.563 20.8447 945.587 Q20.8447 950.839 22.8817 953.703 Q24.9187 956.536 28.6745 956.536 Q31.8255 956.536 33.4488 954.658 Q35.0402 952.749 36.0269 947.465 L36.8226 943.582 Q38.1912 936.389 41.6605 932.983 Q45.098 929.546 50.8908 929.546 Q57.7976 929.546 61.3624 934.193 Q64.9272 938.808 64.9272 947.751 Q64.9272 951.125 64.1633 954.945 Q63.3994 958.732 61.9035 962.806 L55.2831 962.806 Q57.4793 958.891 58.5933 955.136 Q59.7073 951.38 59.7073 947.751 Q59.7073 942.245 57.543 939.253 Q55.3786 936.261 51.3682 936.261 Q47.8671 936.261 45.8937 938.426 Q43.9204 940.558 42.9337 945.46 L42.1698 949.375 Q40.7375 956.568 37.682 959.783 Q34.6264 962.997 29.1837 962.997 Q22.8817 962.997 19.2532 958.573 Q15.6248 954.117 15.6248 946.319 Q15.6248 942.977 16.2295 939.508 Q16.8343 936.039 18.0438 932.41 Z" fill="#000000" fill-rule="evenodd" fill-opacity="1" /><path clip-path="url(#clip920)" d="M44.7161 889.282 L47.5806 889.282 L47.5806 916.209 Q53.6281 915.827 56.8109 912.581 Q59.9619 909.303 59.9619 903.478 Q59.9619 900.104 59.1344 896.953 Q58.3069 893.77 56.6518 890.651 L62.1899 890.651 Q63.5267 893.802 64.227 897.112 Q64.9272 900.422 64.9272 903.828 Q64.9272 912.358 59.9619 917.355 Q54.9967 922.32 46.5303 922.32 Q37.7774 922.32 32.6531 917.61 Q27.4968 912.867 27.4968 904.847 Q27.4968 897.653 32.1438 893.484 Q36.7589 889.282 44.7161 889.282 M42.9973 895.139 Q38.1912 895.203 35.3266 897.844 Q32.4621 900.454 32.4621 904.783 Q32.4621 909.685 35.2312 912.645 Q38.0002 915.573 43.0292 916.018 L42.9973 895.139 Z" fill="#000000" fill-rule="evenodd" fill-opacity="1" /><path clip-path="url(#clip920)" d="M29.7248 854.016 L35.1993 854.016 Q33.8307 856.499 33.1623 859.014 Q32.4621 861.496 32.4621 864.042 Q32.4621 869.74 36.0905 872.891 Q39.6872 876.042 46.212 876.042 Q52.7369 876.042 56.3653 872.891 Q59.9619 869.74 59.9619 864.042 Q59.9619 861.496 59.2935 859.014 Q58.5933 856.499 57.2247 854.016 L62.6355 854.016 Q63.7814 856.467 64.3543 859.109 Q64.9272 861.719 64.9272 864.679 Q64.9272 872.732 59.8664 877.474 Q54.8057 882.217 46.212 882.217 Q37.491 882.217 32.4939 877.442 Q27.4968 872.636 27.4968 864.297 Q27.4968 861.592 28.0697 859.014 Q28.6108 856.435 29.7248 854.016 Z" fill="#000000" fill-rule="evenodd" fill-opacity="1" /><path clip-path="url(#clip920)" d="M32.4621 830.018 Q32.4621 834.728 36.1542 837.466 Q39.8145 840.203 46.212 840.203 Q52.6095 840.203 56.3017 837.497 Q59.9619 834.76 59.9619 830.018 Q59.9619 825.339 56.2698 822.602 Q52.5777 819.864 46.212 819.864 Q39.8781 819.864 36.186 822.602 Q32.4621 825.339 32.4621 830.018 M27.4968 830.018 Q27.4968 822.379 32.4621 818.018 Q37.4273 813.658 46.212 813.658 Q54.9649 813.658 59.9619 818.018 Q64.9272 822.379 64.9272 830.018 Q64.9272 837.688 59.9619 842.049 Q54.9649 846.378 46.212 846.378 Q37.4273 846.378 32.4621 842.049 Q27.4968 837.688 27.4968 830.018 Z" fill="#000000" fill-rule="evenodd" fill-opacity="1" /><path clip-path="url(#clip920)" d="M42.4881 774.318 L64.0042 774.318 L64.0042 780.174 L42.679 780.174 Q37.6183 780.174 35.1038 782.148 Q32.5894 784.121 32.5894 788.068 Q32.5894 792.81 35.6131 795.547 Q38.6368 798.285 43.8567 798.285 L64.0042 798.285 L64.0042 804.173 L28.3562 804.173 L28.3562 798.285 L33.8944 798.285 Q30.6797 796.184 29.0883 793.351 Q27.4968 790.487 27.4968 786.763 Q27.4968 780.62 31.3163 777.469 Q35.1038 774.318 42.4881 774.318 Z" fill="#000000" fill-rule="evenodd" fill-opacity="1" /><path clip-path="url(#clip920)" d="M33.7671 739.179 L14.479 739.179 L14.479 733.323 L64.0042 733.323 L64.0042 739.179 L58.657 739.179 Q61.8398 741.025 63.3994 743.858 Q64.9272 746.659 64.9272 750.606 Q64.9272 757.067 59.771 761.141 Q54.6147 765.183 46.212 765.183 Q37.8093 765.183 32.6531 761.141 Q27.4968 757.067 27.4968 750.606 Q27.4968 746.659 29.0564 743.858 Q30.5842 741.025 33.7671 739.179 M46.212 759.136 Q52.6732 759.136 56.3653 756.494 Q60.0256 753.82 60.0256 749.173 Q60.0256 744.526 56.3653 741.853 Q52.6732 739.179 46.212 739.179 Q39.7508 739.179 36.0905 741.853 Q32.3984 744.526 32.3984 749.173 Q32.3984 753.82 36.0905 756.494 Q39.7508 759.136 46.212 759.136 Z" fill="#000000" fill-rule="evenodd" fill-opacity="1" /><path clip-path="url(#clip920)" d="M940.749 74.4597 Q943.382 75.3509 945.853 78.2675 Q948.364 81.1842 950.876 86.2883 L959.18 102.816 L950.39 102.816 L942.653 87.301 Q939.655 81.2247 936.819 79.2397 Q934.024 77.2548 929.163 77.2548 L920.251 77.2548 L920.251 102.816 L912.068 102.816 L912.068 42.336 L930.54 42.336 Q940.911 42.336 946.015 46.6705 Q951.119 51.0049 951.119 59.7549 Q951.119 65.4667 948.445 69.234 Q945.812 73.0013 940.749 74.4597 M920.251 49.0605 L920.251 70.5303 L930.54 70.5303 Q936.455 70.5303 939.452 67.8162 Q942.491 65.0616 942.491 59.7549 Q942.491 54.4482 939.452 51.7746 Q936.455 49.0605 930.54 49.0605 L920.251 49.0605 Z" fill="#000000" fill-rule="evenodd" fill-opacity="1" /><path clip-path="url(#clip920)" d="M1004.47 78.2675 L1004.47 81.9133 L970.199 81.9133 Q970.685 89.6101 974.817 93.661 Q978.989 97.6714 986.402 97.6714 Q990.696 97.6714 994.707 96.6181 Q998.758 95.5649 1002.73 93.4584 L1002.73 100.507 Q998.717 102.208 994.504 103.1 Q990.291 103.991 985.957 103.991 Q975.1 103.991 968.74 97.6714 Q962.421 91.3519 962.421 80.5765 Q962.421 69.4365 968.416 62.9146 Q974.452 56.3521 984.661 56.3521 Q993.816 56.3521 999.122 62.2664 Q1004.47 68.1403 1004.47 78.2675 M997.016 76.08 Q996.935 69.9632 993.572 66.3174 Q990.251 62.6715 984.742 62.6715 Q978.503 62.6715 974.736 66.1958 Q971.009 69.7201 970.442 76.1205 L997.016 76.08 Z" fill="#000000" fill-rule="evenodd" fill-opacity="1" /><path clip-path="url(#clip920)" d="M1037.32 80.0094 Q1028.29 80.0094 1024.8 82.0754 Q1021.32 84.1413 1021.32 89.1239 Q1021.32 93.0938 1023.91 95.4434 Q1026.55 97.7524 1031.04 97.7524 Q1037.24 97.7524 1040.97 93.3774 Q1044.74 88.9619 1044.74 81.6703 L1044.74 80.0094 L1037.32 80.0094 M1052.19 76.9307 L1052.19 102.816 L1044.74 102.816 L1044.74 95.9295 Q1042.18 100.061 1038.38 102.046 Q1034.57 103.991 1029.06 103.991 Q1022.09 103.991 1017.96 100.102 Q1013.87 96.1725 1013.87 89.6101 Q1013.87 81.9538 1018.97 78.065 Q1024.12 74.1761 1034.28 74.1761 L1044.74 74.1761 L1044.74 73.4469 Q1044.74 68.3023 1041.33 65.5072 Q1037.97 62.6715 1031.85 62.6715 Q1027.96 62.6715 1024.28 63.6032 Q1020.59 64.535 1017.19 66.3984 L1017.19 59.5118 Q1021.28 57.932 1025.13 57.1623 Q1028.98 56.3521 1032.62 56.3521 Q1042.47 56.3521 1047.33 61.4563 Q1052.19 66.5604 1052.19 76.9307 Z" fill="#000000" fill-rule="evenodd" fill-opacity="1" /><path clip-path="url(#clip920)" d="M1097.4 64.3324 L1097.4 39.7839 L1104.85 39.7839 L1104.85 102.816 L1097.4 102.816 L1097.4 96.0105 Q1095.05 100.061 1091.44 102.046 Q1087.88 103.991 1082.85 103.991 Q1074.63 103.991 1069.45 97.4283 Q1064.3 90.8658 1064.3 80.1714 Q1064.3 69.4771 1069.45 62.9146 Q1074.63 56.3521 1082.85 56.3521 Q1087.88 56.3521 1091.44 58.3371 Q1095.05 60.2815 1097.4 64.3324 M1072 80.1714 Q1072 88.3948 1075.36 93.0938 Q1078.76 97.7524 1084.68 97.7524 Q1090.59 97.7524 1093.99 93.0938 Q1097.4 88.3948 1097.4 80.1714 Q1097.4 71.9481 1093.99 67.2896 Q1090.59 62.5905 1084.68 62.5905 Q1078.76 62.5905 1075.36 67.2896 Q1072 71.9481 1072 80.1714 Z" fill="#000000" fill-rule="evenodd" fill-opacity="1" /><path clip-path="url(#clip920)" d="M1155.08 49.0605 L1155.08 71.7861 L1165.37 71.7861 Q1171.08 71.7861 1174.2 68.8289 Q1177.32 65.8718 1177.32 60.403 Q1177.32 54.9748 1174.2 52.0177 Q1171.08 49.0605 1165.37 49.0605 L1155.08 49.0605 M1146.9 42.336 L1165.37 42.336 Q1175.54 42.336 1180.72 46.954 Q1185.95 51.5316 1185.95 60.403 Q1185.95 69.3555 1180.72 73.9331 Q1175.54 78.5106 1165.37 78.5106 L1155.08 78.5106 L1155.08 102.816 L1146.9 102.816 L1146.9 42.336 Z" fill="#000000" fill-rule="evenodd" fill-opacity="1" /><path clip-path="url(#clip920)" d="M1232.45 78.2675 L1232.45 81.9133 L1198.18 81.9133 Q1198.67 89.6101 1202.8 93.661 Q1206.97 97.6714 1214.39 97.6714 Q1218.68 97.6714 1222.69 96.6181 Q1226.74 95.5649 1230.71 93.4584 L1230.71 100.507 Q1226.7 102.208 1222.49 103.1 Q1218.28 103.991 1213.94 103.991 Q1203.09 103.991 1196.73 97.6714 Q1190.41 91.3519 1190.41 80.5765 Q1190.41 69.4365 1196.4 62.9146 Q1202.44 56.3521 1212.65 56.3521 Q1221.8 56.3521 1227.11 62.2664 Q1232.45 68.1403 1232.45 78.2675 M1225 76.08 Q1224.92 69.9632 1221.56 66.3174 Q1218.24 62.6715 1212.73 62.6715 Q1206.49 62.6715 1202.72 66.1958 Q1198.99 69.7201 1198.43 76.1205 L1225 76.08 Z" fill="#000000" fill-rule="evenodd" fill-opacity="1" /><path clip-path="url(#clip920)" d="M1270.98 64.4134 Q1269.72 63.6843 1268.22 63.3602 Q1266.77 62.9956 1264.98 62.9956 Q1258.66 62.9956 1255.26 67.1275 Q1251.9 71.2189 1251.9 78.9157 L1251.9 102.816 L1244.4 102.816 L1244.4 57.4459 L1251.9 57.4459 L1251.9 64.4944 Q1254.25 60.3625 1258.02 58.3776 Q1261.78 56.3521 1267.17 56.3521 Q1267.94 56.3521 1268.87 56.4737 Q1269.8 56.5547 1270.94 56.7572 L1270.98 64.4134 Z" fill="#000000" fill-rule="evenodd" fill-opacity="1" /><path clip-path="url(#clip920)" d="M1301.77 39.7839 L1301.77 45.9818 L1294.64 45.9818 Q1290.63 45.9818 1289.05 47.6022 Q1287.51 49.2225 1287.51 53.4355 L1287.51 57.4459 L1299.78 57.4459 L1299.78 63.2387 L1287.51 63.2387 L1287.51 102.816 L1280.01 102.816 L1280.01 63.2387 L1272.88 63.2387 L1272.88 57.4459 L1280.01 57.4459 L1280.01 54.2862 Q1280.01 46.711 1283.54 43.2677 Q1287.06 39.7839 1294.72 39.7839 L1301.77 39.7839 Z" fill="#000000" fill-rule="evenodd" fill-opacity="1" /><path clip-path="url(#clip920)" d="M1325.58 62.6715 Q1319.59 62.6715 1316.11 67.3706 Q1312.62 72.0291 1312.62 80.1714 Q1312.62 88.3138 1316.06 93.0128 Q1319.55 97.6714 1325.58 97.6714 Q1331.54 97.6714 1335.02 92.9723 Q1338.51 88.2733 1338.51 80.1714 Q1338.51 72.1101 1335.02 67.4111 Q1331.54 62.6715 1325.58 62.6715 M1325.58 56.3521 Q1335.31 56.3521 1340.86 62.6715 Q1346.41 68.9909 1346.41 80.1714 Q1346.41 91.3114 1340.86 97.6714 Q1335.31 103.991 1325.58 103.991 Q1315.82 103.991 1310.27 97.6714 Q1304.76 91.3114 1304.76 80.1714 Q1304.76 68.9909 1310.27 62.6715 Q1315.82 56.3521 1325.58 56.3521 Z" fill="#000000" fill-rule="evenodd" fill-opacity="1" /><path clip-path="url(#clip920)" d="M1385.05 64.4134 Q1383.8 63.6843 1382.3 63.3602 Q1380.84 62.9956 1379.06 62.9956 Q1372.74 62.9956 1369.33 67.1275 Q1365.97 71.2189 1365.97 78.9157 L1365.97 102.816 L1358.48 102.816 L1358.48 57.4459 L1365.97 57.4459 L1365.97 64.4944 Q1368.32 60.3625 1372.09 58.3776 Q1375.86 56.3521 1381.24 56.3521 Q1382.01 56.3521 1382.95 56.4737 Q1383.88 56.5547 1385.01 56.7572 L1385.05 64.4134 Z" fill="#000000" fill-rule="evenodd" fill-opacity="1" /><path clip-path="url(#clip920)" d="M1426.74 66.1553 Q1429.53 61.1322 1433.42 58.7422 Q1437.31 56.3521 1442.57 56.3521 Q1449.66 56.3521 1453.51 61.3347 Q1457.36 66.2768 1457.36 75.4319 L1457.36 102.816 L1449.87 102.816 L1449.87 75.6749 Q1449.87 69.153 1447.56 65.9933 Q1445.25 62.8336 1440.51 62.8336 Q1434.72 62.8336 1431.35 66.6819 Q1427.99 70.5303 1427.99 77.1738 L1427.99 102.816 L1420.5 102.816 L1420.5 75.6749 Q1420.5 69.1125 1418.19 65.9933 Q1415.88 62.8336 1411.06 62.8336 Q1405.35 62.8336 1401.98 66.7224 Q1398.62 70.5708 1398.62 77.1738 L1398.62 102.816 L1391.13 102.816 L1391.13 57.4459 L1398.62 57.4459 L1398.62 64.4944 Q1401.17 60.322 1404.74 58.3371 Q1408.3 56.3521 1413.21 56.3521 Q1418.15 56.3521 1421.59 58.8637 Q1425.07 61.3752 1426.74 66.1553 Z" fill="#000000" fill-rule="evenodd" fill-opacity="1" /><path clip-path="url(#clip920)" d="M1492.85 80.0094 Q1483.81 80.0094 1480.33 82.0754 Q1476.85 84.1413 1476.85 89.1239 Q1476.85 93.0938 1479.44 95.4434 Q1482.07 97.7524 1486.57 97.7524 Q1492.77 97.7524 1496.49 93.3774 Q1500.26 88.9619 1500.26 81.6703 L1500.26 80.0094 L1492.85 80.0094 M1507.71 76.9307 L1507.71 102.816 L1500.26 102.816 L1500.26 95.9295 Q1497.71 100.061 1493.9 102.046 Q1490.09 103.991 1484.58 103.991 Q1477.62 103.991 1473.48 100.102 Q1469.39 96.1725 1469.39 89.6101 Q1469.39 81.9538 1474.5 78.065 Q1479.64 74.1761 1489.81 74.1761 L1500.26 74.1761 L1500.26 73.4469 Q1500.26 68.3023 1496.86 65.5072 Q1493.49 62.6715 1487.38 62.6715 Q1483.49 62.6715 1479.8 63.6032 Q1476.12 64.535 1472.71 66.3984 L1472.71 59.5118 Q1476.8 57.932 1480.65 57.1623 Q1484.5 56.3521 1488.15 56.3521 Q1497.99 56.3521 1502.85 61.4563 Q1507.71 66.5604 1507.71 76.9307 Z" fill="#000000" fill-rule="evenodd" fill-opacity="1" /><path clip-path="url(#clip920)" d="M1560.78 75.4319 L1560.78 102.816 L1553.33 102.816 L1553.33 75.6749 Q1553.33 69.234 1550.81 66.0338 Q1548.3 62.8336 1543.28 62.8336 Q1537.24 62.8336 1533.76 66.6819 Q1530.28 70.5303 1530.28 77.1738 L1530.28 102.816 L1522.78 102.816 L1522.78 57.4459 L1530.28 57.4459 L1530.28 64.4944 Q1532.95 60.403 1536.56 58.3776 Q1540.2 56.3521 1544.94 56.3521 Q1552.76 56.3521 1556.77 61.2132 Q1560.78 66.0338 1560.78 75.4319 Z" fill="#000000" fill-rule="evenodd" fill-opacity="1" /><path clip-path="url(#clip920)" d="M1608.3 59.1878 L1608.3 66.1553 Q1605.14 64.4134 1601.94 63.5627 Q1598.78 62.6715 1595.54 62.6715 Q1588.29 62.6715 1584.28 67.2896 Q1580.26 71.8671 1580.26 80.1714 Q1580.26 88.4758 1584.28 93.0938 Q1588.29 97.6714 1595.54 97.6714 Q1598.78 97.6714 1601.94 96.8207 Q1605.14 95.9295 1608.3 94.1876 L1608.3 101.074 Q1605.18 102.532 1601.82 103.262 Q1598.49 103.991 1594.73 103.991 Q1584.48 103.991 1578.44 97.5498 Q1572.41 91.1089 1572.41 80.1714 Q1572.41 69.072 1578.48 62.712 Q1584.6 56.3521 1595.21 56.3521 Q1598.66 56.3521 1601.94 57.0813 Q1605.22 57.7699 1608.3 59.1878 Z" fill="#000000" fill-rule="evenodd" fill-opacity="1" /><path clip-path="url(#clip920)" d="M1660.07 78.2675 L1660.07 81.9133 L1625.8 81.9133 Q1626.28 89.6101 1630.42 93.661 Q1634.59 97.6714 1642 97.6714 Q1646.29 97.6714 1650.31 96.6181 Q1654.36 95.5649 1658.33 93.4584 L1658.33 100.507 Q1654.32 102.208 1650.1 103.1 Q1645.89 103.991 1641.56 103.991 Q1630.7 103.991 1624.34 97.6714 Q1618.02 91.3519 1618.02 80.5765 Q1618.02 69.4365 1624.01 62.9146 Q1630.05 56.3521 1640.26 56.3521 Q1649.41 56.3521 1654.72 62.2664 Q1660.07 68.1403 1660.07 78.2675 M1652.61 76.08 Q1652.53 69.9632 1649.17 66.3174 Q1645.85 62.6715 1640.34 62.6715 Q1634.1 62.6715 1630.33 66.1958 Q1626.61 69.7201 1626.04 76.1205 L1652.61 76.08 Z" fill="#000000" fill-rule="evenodd" fill-opacity="1" /><path clip-path="url(#clip920)" d="M936.961 139.781 L936.961 186.811 L946.845 186.811 Q959.363 186.811 965.155 181.14 Q970.989 175.469 970.989 163.235 Q970.989 151.083 965.155 145.452 Q959.363 139.781 946.845 139.781 L936.961 139.781 M928.778 133.056 L945.59 133.056 Q963.17 133.056 971.394 140.388 Q979.617 147.68 979.617 163.235 Q979.617 178.872 971.353 186.204 Q963.089 193.536 945.59 193.536 L928.778 193.536 L928.778 133.056 Z" fill="#000000" fill-rule="evenodd" fill-opacity="1" /><path clip-path="url(#clip920)" d="M1012.96 170.729 Q1003.92 170.729 1000.44 172.795 Q996.955 174.861 996.955 179.844 Q996.955 183.814 999.548 186.163 Q1002.18 188.472 1006.68 188.472 Q1012.88 188.472 1016.6 184.097 Q1020.37 179.682 1020.37 172.39 L1020.37 170.729 L1012.96 170.729 M1027.82 167.651 L1027.82 193.536 L1020.37 193.536 L1020.37 186.649 Q1017.82 190.781 1014.01 192.766 Q1010.2 194.711 1004.69 194.711 Q997.725 194.711 993.593 190.822 Q989.501 186.893 989.501 180.33 Q989.501 172.674 994.605 168.785 Q999.75 164.896 1009.92 164.896 L1020.37 164.896 L1020.37 164.167 Q1020.37 159.022 1016.97 156.227 Q1013.6 153.392 1007.49 153.392 Q1003.6 153.392 999.912 154.323 Q996.226 155.255 992.823 157.118 L992.823 150.232 Q996.914 148.652 1000.76 147.882 Q1004.61 147.072 1008.26 147.072 Q1018.1 147.072 1022.96 152.176 Q1027.82 157.28 1027.82 167.651 Z" fill="#000000" fill-rule="evenodd" fill-opacity="1" /><path clip-path="url(#clip920)" d="M1050.55 135.284 L1050.55 148.166 L1065.9 148.166 L1065.9 153.959 L1050.55 153.959 L1050.55 178.588 Q1050.55 184.138 1052.05 185.718 Q1053.59 187.298 1058.25 187.298 L1065.9 187.298 L1065.9 193.536 L1058.25 193.536 Q1049.62 193.536 1046.34 190.336 Q1043.05 187.095 1043.05 178.588 L1043.05 153.959 L1037.59 153.959 L1037.59 148.166 L1043.05 148.166 L1043.05 135.284 L1050.55 135.284 Z" fill="#000000" fill-rule="evenodd" fill-opacity="1" /><path clip-path="url(#clip920)" d="M1096.32 170.729 Q1087.29 170.729 1083.81 172.795 Q1080.32 174.861 1080.32 179.844 Q1080.32 183.814 1082.92 186.163 Q1085.55 188.472 1090.04 188.472 Q1096.24 188.472 1099.97 184.097 Q1103.74 179.682 1103.74 172.39 L1103.74 170.729 L1096.32 170.729 M1111.19 167.651 L1111.19 193.536 L1103.74 193.536 L1103.74 186.649 Q1101.18 190.781 1097.38 192.766 Q1093.57 194.711 1088.06 194.711 Q1081.09 194.711 1076.96 190.822 Q1072.87 186.893 1072.87 180.33 Q1072.87 172.674 1077.97 168.785 Q1083.12 164.896 1093.29 164.896 L1103.74 164.896 L1103.74 164.167 Q1103.74 159.022 1100.33 156.227 Q1096.97 153.392 1090.85 153.392 Q1086.97 153.392 1083.28 154.323 Q1079.59 155.255 1076.19 157.118 L1076.19 150.232 Q1080.28 148.652 1084.13 147.882 Q1087.98 147.072 1091.62 147.072 Q1101.47 147.072 1106.33 152.176 Q1111.19 157.28 1111.19 167.651 Z" fill="#000000" fill-rule="evenodd" fill-opacity="1" /><path clip-path="url(#clip920)" d="M1126.87 133.056 L1161.62 133.056 L1161.62 139.943 L1135.05 139.943 L1135.05 157.767 L1159.03 157.767 L1159.03 164.653 L1135.05 164.653 L1135.05 193.536 L1126.87 193.536 L1126.87 133.056 Z" fill="#000000" fill-rule="evenodd" fill-opacity="1" /><path clip-path="url(#clip920)" d="M1194.52 155.133 Q1193.26 154.404 1191.76 154.08 Q1190.3 153.716 1188.52 153.716 Q1182.2 153.716 1178.8 157.848 Q1175.44 161.939 1175.44 169.636 L1175.44 193.536 L1167.94 193.536 L1167.94 148.166 L1175.44 148.166 L1175.44 155.214 Q1177.79 151.083 1181.55 149.098 Q1185.32 147.072 1190.71 147.072 Q1191.48 147.072 1192.41 147.194 Q1193.34 147.275 1194.48 147.477 L1194.52 155.133 Z" fill="#000000" fill-rule="evenodd" fill-opacity="1" /><path clip-path="url(#clip920)" d="M1222.95 170.729 Q1213.92 170.729 1210.44 172.795 Q1206.95 174.861 1206.95 179.844 Q1206.95 183.814 1209.55 186.163 Q1212.18 188.472 1216.68 188.472 Q1222.87 188.472 1226.6 184.097 Q1230.37 179.682 1230.37 172.39 L1230.37 170.729 L1222.95 170.729 M1237.82 167.651 L1237.82 193.536 L1230.37 193.536 L1230.37 186.649 Q1227.82 190.781 1224.01 192.766 Q1220.2 194.711 1214.69 194.711 Q1207.72 194.711 1203.59 190.822 Q1199.5 186.893 1199.5 180.33 Q1199.5 172.674 1204.6 168.785 Q1209.75 164.896 1219.92 164.896 L1230.37 164.896 L1230.37 164.167 Q1230.37 159.022 1226.97 156.227 Q1223.6 153.392 1217.49 153.392 Q1213.6 153.392 1209.91 154.323 Q1206.22 155.255 1202.82 157.118 L1202.82 150.232 Q1206.91 148.652 1210.76 147.882 Q1214.61 147.072 1218.26 147.072 Q1228.1 147.072 1232.96 152.176 Q1237.82 157.28 1237.82 167.651 Z" fill="#000000" fill-rule="evenodd" fill-opacity="1" /><path clip-path="url(#clip920)" d="M1288.5 156.875 Q1291.29 151.852 1295.18 149.462 Q1299.07 147.072 1304.34 147.072 Q1311.43 147.072 1315.28 152.055 Q1319.12 156.997 1319.12 166.152 L1319.12 193.536 L1311.63 193.536 L1311.63 166.395 Q1311.63 159.873 1309.32 156.713 Q1307.01 153.554 1302.27 153.554 Q1296.48 153.554 1293.12 157.402 Q1289.75 161.25 1289.75 167.894 L1289.75 193.536 L1282.26 193.536 L1282.26 166.395 Q1282.26 159.832 1279.95 156.713 Q1277.64 153.554 1272.82 153.554 Q1267.11 153.554 1263.75 157.442 Q1260.39 161.291 1260.39 167.894 L1260.39 193.536 L1252.89 193.536 L1252.89 148.166 L1260.39 148.166 L1260.39 155.214 Q1262.94 151.042 1266.5 149.057 Q1270.07 147.072 1274.97 147.072 Q1279.91 147.072 1283.35 149.584 Q1286.84 152.095 1288.5 156.875 Z" fill="#000000" fill-rule="evenodd" fill-opacity="1" /><path clip-path="url(#clip920)" d="M1372.8 168.988 L1372.8 172.633 L1338.53 172.633 Q1339.01 180.33 1343.15 184.381 Q1347.32 188.391 1354.73 188.391 Q1359.02 188.391 1363.04 187.338 Q1367.09 186.285 1371.06 184.178 L1371.06 191.227 Q1367.05 192.928 1362.83 193.82 Q1358.62 194.711 1354.29 194.711 Q1343.43 194.711 1337.07 188.391 Q1330.75 182.072 1330.75 171.297 Q1330.75 160.157 1336.74 153.635 Q1342.78 147.072 1352.99 147.072 Q1362.14 147.072 1367.45 152.986 Q1372.8 158.86 1372.8 168.988 M1365.34 166.8 Q1365.26 160.683 1361.9 157.037 Q1358.58 153.392 1353.07 153.392 Q1346.83 153.392 1343.06 156.916 Q1339.34 160.44 1338.77 166.841 L1365.34 166.8 Z" fill="#000000" fill-rule="evenodd" fill-opacity="1" /><path clip-path="url(#clip920)" d="M1386.94 183.247 L1395.48 183.247 L1395.48 193.536 L1386.94 193.536 L1386.94 183.247 M1386.94 150.637 L1395.48 150.637 L1395.48 160.926 L1386.94 160.926 L1386.94 150.637 Z" fill="#000000" fill-rule="evenodd" fill-opacity="1" /><path clip-path="url(#clip920)" d="M1471.92 170.891 Q1471.92 162.668 1468.52 158.01 Q1465.16 153.311 1459.24 153.311 Q1453.33 153.311 1449.93 158.01 Q1446.56 162.668 1446.56 170.891 Q1446.56 179.115 1449.93 183.814 Q1453.33 188.472 1459.24 188.472 Q1465.16 188.472 1468.52 183.814 Q1471.92 179.115 1471.92 170.891 M1446.56 155.052 Q1448.91 151.002 1452.48 149.057 Q1456.08 147.072 1461.07 147.072 Q1469.33 147.072 1474.48 153.635 Q1479.66 160.197 1479.66 170.891 Q1479.66 181.586 1474.48 188.148 Q1469.33 194.711 1461.07 194.711 Q1456.08 194.711 1452.48 192.766 Q1448.91 190.781 1446.56 186.73 L1446.56 193.536 L1439.07 193.536 L1439.07 130.504 L1446.56 130.504 L1446.56 155.052 Z" fill="#000000" fill-rule="evenodd" fill-opacity="1" /><path clip-path="url(#clip920)" d="M1492.02 148.166 L1499.47 148.166 L1499.47 193.536 L1492.02 193.536 L1492.02 148.166 M1492.02 130.504 L1499.47 130.504 L1499.47 139.943 L1492.02 139.943 L1492.02 130.504 Z" fill="#000000" fill-rule="evenodd" fill-opacity="1" /><path clip-path="url(#clip920)" d="M1544.92 170.324 Q1544.92 162.223 1541.56 157.767 Q1538.24 153.311 1532.2 153.311 Q1526.21 153.311 1522.84 157.767 Q1519.52 162.223 1519.52 170.324 Q1519.52 178.386 1522.84 182.842 Q1526.21 187.298 1532.2 187.298 Q1538.24 187.298 1541.56 182.842 Q1544.92 178.386 1544.92 170.324 M1552.37 187.905 Q1552.37 199.491 1547.23 205.122 Q1542.09 210.793 1531.47 210.793 Q1527.54 210.793 1524.06 210.185 Q1520.57 209.618 1517.29 208.403 L1517.29 201.152 Q1520.57 202.934 1523.78 203.785 Q1526.98 204.635 1530.3 204.635 Q1537.63 204.635 1541.27 200.787 Q1544.92 196.979 1544.92 189.242 L1544.92 185.556 Q1542.61 189.566 1539.01 191.551 Q1535.4 193.536 1530.38 193.536 Q1522.03 193.536 1516.93 187.176 Q1511.82 180.816 1511.82 170.324 Q1511.82 159.792 1516.93 153.432 Q1522.03 147.072 1530.38 147.072 Q1535.4 147.072 1539.01 149.057 Q1542.61 151.042 1544.92 155.052 L1544.92 148.166 L1552.37 148.166 L1552.37 187.905 Z" fill="#000000" fill-rule="evenodd" fill-opacity="1" /><path clip-path="url(#clip920)" d="M1597.58 155.052 L1597.58 130.504 L1605.04 130.504 L1605.04 193.536 L1597.58 193.536 L1597.58 186.73 Q1595.23 190.781 1591.63 192.766 Q1588.06 194.711 1583.04 194.711 Q1574.82 194.711 1569.63 188.148 Q1564.49 181.586 1564.49 170.891 Q1564.49 160.197 1569.63 153.635 Q1574.82 147.072 1583.04 147.072 Q1588.06 147.072 1591.63 149.057 Q1595.23 151.002 1597.58 155.052 M1572.18 170.891 Q1572.18 179.115 1575.55 183.814 Q1578.95 188.472 1584.86 188.472 Q1590.78 188.472 1594.18 183.814 Q1597.58 179.115 1597.58 170.891 Q1597.58 162.668 1594.18 158.01 Q1590.78 153.311 1584.86 153.311 Q1578.95 153.311 1575.55 158.01 Q1572.18 162.668 1572.18 170.891 Z" fill="#000000" fill-rule="evenodd" fill-opacity="1" /><path clip-path="url(#clip920)" d="M1643.36 130.504 L1643.36 136.702 L1636.23 136.702 Q1632.22 136.702 1630.64 138.322 Q1629.1 139.943 1629.1 144.155 L1629.1 148.166 L1641.37 148.166 L1641.37 153.959 L1629.1 153.959 L1629.1 193.536 L1621.6 193.536 L1621.6 153.959 L1614.47 153.959 L1614.47 148.166 L1621.6 148.166 L1621.6 145.006 Q1621.6 137.431 1625.13 133.988 Q1628.65 130.504 1636.31 130.504 L1643.36 130.504 Z" fill="#000000" fill-rule="evenodd" fill-opacity="1" /><path clip-path="url(#clip920)" d="M922.722 225.761 L922.722 233.741 Q918.064 231.513 913.932 230.419 Q909.8 229.326 905.951 229.326 Q899.267 229.326 895.622 231.918 Q892.016 234.511 892.016 239.291 Q892.016 243.301 894.406 245.367 Q896.837 247.393 903.561 248.649 L908.504 249.661 Q917.659 251.403 921.993 255.819 Q926.368 260.194 926.368 267.566 Q926.368 276.357 920.454 280.894 Q914.58 285.431 903.197 285.431 Q898.903 285.431 894.042 284.459 Q889.221 283.486 884.036 281.582 L884.036 273.157 Q889.019 275.952 893.799 277.369 Q898.579 278.787 903.197 278.787 Q910.205 278.787 914.013 276.033 Q917.821 273.278 917.821 268.174 Q917.821 263.718 915.066 261.206 Q912.352 258.695 906.113 257.439 L901.131 256.467 Q891.976 254.644 887.884 250.755 Q883.793 246.866 883.793 239.939 Q883.793 231.918 889.424 227.3 Q895.095 222.682 905.02 222.682 Q909.273 222.682 913.689 223.452 Q918.104 224.222 922.722 225.761 Z" fill="#000000" fill-rule="evenodd" fill-opacity="1" /><path clip-path="url(#clip920)" d="M938.804 238.886 L946.258 238.886 L946.258 284.256 L938.804 284.256 L938.804 238.886 M938.804 221.224 L946.258 221.224 L946.258 230.663 L938.804 230.663 L938.804 221.224 Z" fill="#000000" fill-rule="evenodd" fill-opacity="1" /><path clip-path="url(#clip920)" d="M958.613 238.886 L994.018 238.886 L994.018 245.691 L965.986 278.301 L994.018 278.301 L994.018 284.256 L957.6 284.256 L957.6 277.45 L985.633 244.841 L958.613 244.841 L958.613 238.886 Z" fill="#000000" fill-rule="evenodd" fill-opacity="1" /><path clip-path="url(#clip920)" d="M1044.21 259.708 L1044.21 263.353 L1009.94 263.353 Q1010.42 271.05 1014.56 275.101 Q1018.73 279.111 1026.14 279.111 Q1030.44 279.111 1034.45 278.058 Q1038.5 277.005 1042.47 274.898 L1042.47 281.947 Q1038.46 283.648 1034.24 284.54 Q1030.03 285.431 1025.7 285.431 Q1014.84 285.431 1008.48 279.111 Q1002.16 272.792 1002.16 262.017 Q1002.16 250.877 1008.16 244.355 Q1014.19 237.792 1024.4 237.792 Q1033.55 237.792 1038.86 243.706 Q1044.21 249.58 1044.21 259.708 M1036.76 257.52 Q1036.67 251.403 1033.31 247.757 Q1029.99 244.112 1024.48 244.112 Q1018.24 244.112 1014.48 247.636 Q1010.75 251.16 1010.18 257.561 L1036.76 257.52 Z" fill="#000000" fill-rule="evenodd" fill-opacity="1" /><path clip-path="url(#clip920)" d="M1058.35 273.967 L1066.89 273.967 L1066.89 284.256 L1058.35 284.256 L1058.35 273.967 M1058.35 241.357 L1066.89 241.357 L1066.89 251.646 L1058.35 251.646 L1058.35 241.357 Z" fill="#000000" fill-rule="evenodd" fill-opacity="1" /><path clip-path="url(#clip920)" d="M1128.67 221.305 Q1123.24 230.622 1120.61 239.737 Q1117.98 248.851 1117.98 258.209 Q1117.98 267.566 1120.61 276.762 Q1123.28 285.917 1128.67 295.193 L1122.19 295.193 Q1116.11 285.674 1113.07 276.478 Q1110.08 267.283 1110.08 258.209 Q1110.08 249.175 1113.07 240.02 Q1116.07 230.865 1122.19 221.305 L1128.67 221.305 Z" fill="#000000" fill-rule="evenodd" fill-opacity="1" /><path clip-path="url(#clip920)" d="M1145.6 277.369 L1158.97 277.369 L1158.97 231.23 L1144.43 234.146 L1144.43 226.693 L1158.89 223.776 L1167.07 223.776 L1167.07 277.369 L1180.44 277.369 L1180.44 284.256 L1145.6 284.256 L1145.6 277.369 Z" fill="#000000" fill-rule="evenodd" fill-opacity="1" /><path clip-path="url(#clip920)" d="M1214.47 229.164 Q1208.15 229.164 1204.95 235.402 Q1201.79 241.6 1201.79 254.077 Q1201.79 266.513 1204.95 272.751 Q1208.15 278.949 1214.47 278.949 Q1220.83 278.949 1223.99 272.751 Q1227.19 266.513 1227.19 254.077 Q1227.19 241.6 1223.99 235.402 Q1220.83 229.164 1214.47 229.164 M1214.47 222.682 Q1224.64 222.682 1229.98 230.744 Q1235.37 238.764 1235.37 254.077 Q1235.37 269.349 1229.98 277.41 Q1224.64 285.431 1214.47 285.431 Q1204.3 285.431 1198.91 277.41 Q1193.57 269.349 1193.57 254.077 Q1193.57 238.764 1198.91 230.744 Q1204.3 222.682 1214.47 222.682 Z" fill="#000000" fill-rule="evenodd" fill-opacity="1" /><path clip-path="url(#clip920)" d="M1267.25 229.164 Q1260.93 229.164 1257.73 235.402 Q1254.57 241.6 1254.57 254.077 Q1254.57 266.513 1257.73 272.751 Q1260.93 278.949 1267.25 278.949 Q1273.61 278.949 1276.77 272.751 Q1279.97 266.513 1279.97 254.077 Q1279.97 241.6 1276.77 235.402 Q1273.61 229.164 1267.25 229.164 M1267.25 222.682 Q1277.42 222.682 1282.77 230.744 Q1288.15 238.764 1288.15 254.077 Q1288.15 269.349 1282.77 277.41 Q1277.42 285.431 1267.25 285.431 Q1257.08 285.431 1251.7 277.41 Q1246.35 269.349 1246.35 254.077 Q1246.35 238.764 1251.7 230.744 Q1257.08 222.682 1267.25 222.682 Z" fill="#000000" fill-rule="evenodd" fill-opacity="1" /><path clip-path="url(#clip920)" d="M1320.03 229.164 Q1313.72 229.164 1310.52 235.402 Q1307.36 241.6 1307.36 254.077 Q1307.36 266.513 1310.52 272.751 Q1313.72 278.949 1320.03 278.949 Q1326.39 278.949 1329.55 272.751 Q1332.75 266.513 1332.75 254.077 Q1332.75 241.6 1329.55 235.402 Q1326.39 229.164 1320.03 229.164 M1320.03 222.682 Q1330.2 222.682 1335.55 230.744 Q1340.94 238.764 1340.94 254.077 Q1340.94 269.349 1335.55 277.41 Q1330.2 285.431 1320.03 285.431 Q1309.87 285.431 1304.48 277.41 Q1299.13 269.349 1299.13 254.077 Q1299.13 238.764 1304.48 230.744 Q1309.87 222.682 1320.03 222.682 Z" fill="#000000" fill-rule="evenodd" fill-opacity="1" /><path clip-path="url(#clip920)" d="M1372.82 229.164 Q1366.5 229.164 1363.3 235.402 Q1360.14 241.6 1360.14 254.077 Q1360.14 266.513 1363.3 272.751 Q1366.5 278.949 1372.82 278.949 Q1379.18 278.949 1382.34 272.751 Q1385.54 266.513 1385.54 254.077 Q1385.54 241.6 1382.34 235.402 Q1379.18 229.164 1372.82 229.164 M1372.82 222.682 Q1382.99 222.682 1388.33 230.744 Q1393.72 238.764 1393.72 254.077 Q1393.72 269.349 1388.33 277.41 Q1382.99 285.431 1372.82 285.431 Q1362.65 285.431 1357.26 277.41 Q1351.92 269.349 1351.92 254.077 Q1351.92 238.764 1357.26 230.744 Q1362.65 222.682 1372.82 222.682 Z" fill="#000000" fill-rule="evenodd" fill-opacity="1" /><path clip-path="url(#clip920)" d="M1408.95 273.967 L1417.5 273.967 L1417.5 280.934 L1410.86 293.897 L1405.63 293.897 L1408.95 280.934 L1408.95 273.967 Z" fill="#000000" fill-rule="evenodd" fill-opacity="1" /><path clip-path="url(#clip920)" d="M1462.26 277.369 L1475.63 277.369 L1475.63 231.23 L1461.09 234.146 L1461.09 226.693 L1475.55 223.776 L1483.73 223.776 L1483.73 277.369 L1497.1 277.369 L1497.1 284.256 L1462.26 284.256 L1462.26 277.369 Z" fill="#000000" fill-rule="evenodd" fill-opacity="1" /><path clip-path="url(#clip920)" d="M1531.13 229.164 Q1524.81 229.164 1521.61 235.402 Q1518.45 241.6 1518.45 254.077 Q1518.45 266.513 1521.61 272.751 Q1524.81 278.949 1531.13 278.949 Q1537.49 278.949 1540.65 272.751 Q1543.85 266.513 1543.85 254.077 Q1543.85 241.6 1540.65 235.402 Q1537.49 229.164 1531.13 229.164 M1531.13 222.682 Q1541.3 222.682 1546.64 230.744 Q1552.03 238.764 1552.03 254.077 Q1552.03 269.349 1546.64 277.41 Q1541.3 285.431 1531.13 285.431 Q1520.96 285.431 1515.57 277.41 Q1510.22 269.349 1510.22 254.077 Q1510.22 238.764 1515.57 230.744 Q1520.96 222.682 1531.13 222.682 Z" fill="#000000" fill-rule="evenodd" fill-opacity="1" /><path clip-path="url(#clip920)" d="M1583.91 229.164 Q1577.59 229.164 1574.39 235.402 Q1571.23 241.6 1571.23 254.077 Q1571.23 266.513 1574.39 272.751 Q1577.59 278.949 1583.91 278.949 Q1590.27 278.949 1593.43 272.751 Q1596.63 266.513 1596.63 254.077 Q1596.63 241.6 1593.43 235.402 Q1590.27 229.164 1583.91 229.164 M1583.91 222.682 Q1594.08 222.682 1599.43 230.744 Q1604.81 238.764 1604.81 254.077 Q1604.81 269.349 1599.43 277.41 Q1594.08 285.431 1583.91 285.431 Q1573.74 285.431 1568.36 277.41 Q1563.01 269.349 1563.01 254.077 Q1563.01 238.764 1568.36 230.744 Q1573.74 222.682 1583.91 222.682 Z" fill="#000000" fill-rule="evenodd" fill-opacity="1" /><path clip-path="url(#clip920)" d="M1636.69 229.164 Q1630.37 229.164 1627.17 235.402 Q1624.01 241.6 1624.01 254.077 Q1624.01 266.513 1627.17 272.751 Q1630.37 278.949 1636.69 278.949 Q1643.05 278.949 1646.21 272.751 Q1649.41 266.513 1649.41 254.077 Q1649.41 241.6 1646.21 235.402 Q1643.05 229.164 1636.69 229.164 M1636.69 222.682 Q1646.86 222.682 1652.21 230.744 Q1657.6 238.764 1657.6 254.077 Q1657.6 269.349 1652.21 277.41 Q1646.86 285.431 1636.69 285.431 Q1626.53 285.431 1621.14 277.41 Q1615.79 269.349 1615.79 254.077 Q1615.79 238.764 1621.14 230.744 Q1626.53 222.682 1636.69 222.682 Z" fill="#000000" fill-rule="evenodd" fill-opacity="1" /><path clip-path="url(#clip920)" d="M1669.75 221.305 L1676.23 221.305 Q1682.31 230.865 1685.3 240.02 Q1688.34 249.175 1688.34 258.209 Q1688.34 267.283 1685.3 276.478 Q1682.31 285.674 1676.23 295.193 L1669.75 295.193 Q1675.14 285.917 1677.77 276.762 Q1680.44 267.566 1680.44 258.209 Q1680.44 248.851 1677.77 239.737 Q1675.14 230.622 1669.75 221.305 Z" fill="#000000" fill-rule="evenodd" fill-opacity="1" /><path clip-path="url(#clip922)" d="
M333.548 1165.18 L333.548 1417.71 L445.609 1417.71 L445.609 1165.18 L333.548 1165.18 L333.548 1165.18  Z
  " fill="#009af9" fill-rule="evenodd" fill-opacity="1"/>
<polyline clip-path="url(#clip922)" style="stroke:#000000; stroke-linecap:butt; stroke-linejoin:round; stroke-width:4; stroke-opacity:1; fill:none" points="
  333.548,1165.18 333.548,1417.71 445.609,1417.71 445.609,1165.18 333.548,1165.18 
  "/>
<path clip-path="url(#clip922)" d="
M613.701 1132.24 L613.701 1417.71 L725.762 1417.71 L725.762 1132.24 L613.701 1132.24 L613.701 1132.24  Z
  " fill="#009af9" fill-rule="evenodd" fill-opacity="1"/>
<polyline clip-path="url(#clip922)" style="stroke:#000000; stroke-linecap:butt; stroke-linejoin:round; stroke-width:4; stroke-opacity:1; fill:none" points="
  613.701,1132.24 613.701,1417.71 725.762,1417.71 725.762,1132.24 613.701,1132.24 
  "/>
<path clip-path="url(#clip922)" d="
M893.854 655.771 L893.854 1417.71 L1005.92 1417.71 L1005.92 655.771 L893.854 655.771 L893.854 655.771  Z
  " fill="#009af9" fill-rule="evenodd" fill-opacity="1"/>
<polyline clip-path="url(#clip922)" style="stroke:#000000; stroke-linecap:butt; stroke-linejoin:round; stroke-width:4; stroke-opacity:1; fill:none" points="
  893.854,655.771 893.854,1417.71 1005.92,1417.71 1005.92,655.771 893.854,655.771 
  "/>
<path clip-path="url(#clip922)" d="
M1174.01 278.605 L1174.01 1417.71 L1286.07 1417.71 L1286.07 278.605 L1174.01 278.605 L1174.01 278.605  Z
  " fill="#009af9" fill-rule="evenodd" fill-opacity="1"/>
<polyline clip-path="url(#clip922)" style="stroke:#000000; stroke-linecap:butt; stroke-linejoin:round; stroke-width:4; stroke-opacity:1; fill:none" points="
  1174.01,278.605 1174.01,1417.71 1286.07,1417.71 1286.07,278.605 1174.01,278.605 
  "/>
<path clip-path="url(#clip922)" d="
M1454.16 1199.34 L1454.16 1417.71 L1566.22 1417.71 L1566.22 1199.34 L1454.16 1199.34 L1454.16 1199.34  Z
  " fill="#009af9" fill-rule="evenodd" fill-opacity="1"/>
<polyline clip-path="url(#clip922)" style="stroke:#000000; stroke-linecap:butt; stroke-linejoin:round; stroke-width:4; stroke-opacity:1; fill:none" points="
  1454.16,1199.34 1454.16,1417.71 1566.22,1417.71 1566.22,1199.34 1454.16,1199.34 
  "/>
<path clip-path="url(#clip922)" d="
M1734.31 1127.85 L1734.31 1417.71 L1846.37 1417.71 L1846.37 1127.85 L1734.31 1127.85 L1734.31 1127.85  Z
  " fill="#009af9" fill-rule="evenodd" fill-opacity="1"/>
<polyline clip-path="url(#clip922)" style="stroke:#000000; stroke-linecap:butt; stroke-linejoin:round; stroke-width:4; stroke-opacity:1; fill:none" points="
  1734.31,1127.85 1734.31,1417.71 1846.37,1417.71 1846.37,1127.85 1734.31,1127.85 
  "/>
<path clip-path="url(#clip922)" d="
M2014.47 1105.22 L2014.47 1417.71 L2126.53 1417.71 L2126.53 1105.22 L2014.47 1105.22 L2014.47 1105.22  Z
  " fill="#009af9" fill-rule="evenodd" fill-opacity="1"/>
<polyline clip-path="url(#clip922)" style="stroke:#000000; stroke-linecap:butt; stroke-linejoin:round; stroke-width:4; stroke-opacity:1; fill:none" points="
  2014.47,1105.22 2014.47,1417.71 2126.53,1417.71 2126.53,1105.22 2014.47,1105.22 
  "/>
<circle clip-path="url(#clip922)" style="fill:#009af9; stroke:none; fill-opacity:0" cx="389.579" cy="1165.18" r="2"/>
<circle clip-path="url(#clip922)" style="fill:#009af9; stroke:none; fill-opacity:0" cx="669.732" cy="1132.24" r="2"/>
<circle clip-path="url(#clip922)" style="fill:#009af9; stroke:none; fill-opacity:0" cx="949.885" cy="655.771" r="2"/>
<circle clip-path="url(#clip922)" style="fill:#009af9; stroke:none; fill-opacity:0" cx="1230.04" cy="278.605" r="2"/>
<circle clip-path="url(#clip922)" style="fill:#009af9; stroke:none; fill-opacity:0" cx="1510.19" cy="1199.34" r="2"/>
<circle clip-path="url(#clip922)" style="fill:#009af9; stroke:none; fill-opacity:0" cx="1790.34" cy="1127.85" r="2"/>
<circle clip-path="url(#clip922)" style="fill:#009af9; stroke:none; fill-opacity:0" cx="2070.5" cy="1105.22" r="2"/>
<path clip-path="url(#clip922)" d="
M445.609 1414.27 L445.609 1417.71 L557.67 1417.71 L557.67 1414.27 L445.609 1414.27 L445.609 1414.27  Z
  " fill="#e26f46" fill-rule="evenodd" fill-opacity="1"/>
<polyline clip-path="url(#clip922)" style="stroke:#000000; stroke-linecap:butt; stroke-linejoin:round; stroke-width:4; stroke-opacity:1; fill:none" points="
  445.609,1414.27 445.609,1417.71 557.67,1417.71 557.67,1414.27 445.609,1414.27 
  "/>
<path clip-path="url(#clip922)" d="
M725.762 1381.25 L725.762 1417.71 L837.823 1417.71 L837.823 1381.25 L725.762 1381.25 L725.762 1381.25  Z
  " fill="#e26f46" fill-rule="evenodd" fill-opacity="1"/>
<polyline clip-path="url(#clip922)" style="stroke:#000000; stroke-linecap:butt; stroke-linejoin:round; stroke-width:4; stroke-opacity:1; fill:none" points="
  725.762,1381.25 725.762,1417.71 837.823,1417.71 837.823,1381.25 725.762,1381.25 
  "/>
<path clip-path="url(#clip922)" d="
M1005.92 881.638 L1005.92 1417.71 L1117.98 1417.71 L1117.98 881.638 L1005.92 881.638 L1005.92 881.638  Z
  " fill="#e26f46" fill-rule="evenodd" fill-opacity="1"/>
<polyline clip-path="url(#clip922)" style="stroke:#000000; stroke-linecap:butt; stroke-linejoin:round; stroke-width:4; stroke-opacity:1; fill:none" points="
  1005.92,881.638 1005.92,1417.71 1117.98,1417.71 1117.98,881.638 1005.92,881.638 
  "/>
<path clip-path="url(#clip922)" d="
M1286.07 1338.38 L1286.07 1417.71 L1398.13 1417.71 L1398.13 1338.38 L1286.07 1338.38 L1286.07 1338.38  Z
  " fill="#e26f46" fill-rule="evenodd" fill-opacity="1"/>
<polyline clip-path="url(#clip922)" style="stroke:#000000; stroke-linecap:butt; stroke-linejoin:round; stroke-width:4; stroke-opacity:1; fill:none" points="
  1286.07,1338.38 1286.07,1417.71 1398.13,1417.71 1398.13,1338.38 1286.07,1338.38 
  "/>
<path clip-path="url(#clip922)" d="
M1566.22 1226.77 L1566.22 1417.71 L1678.28 1417.71 L1678.28 1226.77 L1566.22 1226.77 L1566.22 1226.77  Z
  " fill="#e26f46" fill-rule="evenodd" fill-opacity="1"/>
<polyline clip-path="url(#clip922)" style="stroke:#000000; stroke-linecap:butt; stroke-linejoin:round; stroke-width:4; stroke-opacity:1; fill:none" points="
  1566.22,1226.77 1566.22,1417.71 1678.28,1417.71 1678.28,1226.77 1566.22,1226.77 
  "/>
<path clip-path="url(#clip922)" d="
M1846.37 1155.36 L1846.37 1417.71 L1958.44 1417.71 L1958.44 1155.36 L1846.37 1155.36 L1846.37 1155.36  Z
  " fill="#e26f46" fill-rule="evenodd" fill-opacity="1"/>
<polyline clip-path="url(#clip922)" style="stroke:#000000; stroke-linecap:butt; stroke-linejoin:round; stroke-width:4; stroke-opacity:1; fill:none" points="
  1846.37,1155.36 1846.37,1417.71 1958.44,1417.71 1958.44,1155.36 1846.37,1155.36 
  "/>
<path clip-path="url(#clip922)" d="
M2126.53 1134.66 L2126.53 1417.71 L2238.59 1417.71 L2238.59 1134.66 L2126.53 1134.66 L2126.53 1134.66  Z
  " fill="#e26f46" fill-rule="evenodd" fill-opacity="1"/>
<polyline clip-path="url(#clip922)" style="stroke:#000000; stroke-linecap:butt; stroke-linejoin:round; stroke-width:4; stroke-opacity:1; fill:none" points="
  2126.53,1134.66 2126.53,1417.71 2238.59,1417.71 2238.59,1134.66 2126.53,1134.66 
  "/>
<circle clip-path="url(#clip922)" style="fill:#e26f46; stroke:none; fill-opacity:0" cx="501.64" cy="1414.27" r="2"/>
<circle clip-path="url(#clip922)" style="fill:#e26f46; stroke:none; fill-opacity:0" cx="781.793" cy="1381.25" r="2"/>
<circle clip-path="url(#clip922)" style="fill:#e26f46; stroke:none; fill-opacity:0" cx="1061.95" cy="881.638" r="2"/>
<circle clip-path="url(#clip922)" style="fill:#e26f46; stroke:none; fill-opacity:0" cx="1342.1" cy="1338.38" r="2"/>
<circle clip-path="url(#clip922)" style="fill:#e26f46; stroke:none; fill-opacity:0" cx="1622.25" cy="1226.77" r="2"/>
<circle clip-path="url(#clip922)" style="fill:#e26f46; stroke:none; fill-opacity:0" cx="1902.4" cy="1155.36" r="2"/>
<circle clip-path="url(#clip922)" style="fill:#e26f46; stroke:none; fill-opacity:0" cx="2182.56" cy="1134.66" r="2"/>
<path clip-path="url(#clip920)" d="
M1962.08 440.201 L2281.64 440.201 L2281.64 284.681 L1962.08 284.681  Z
  " fill="#ffffff" fill-rule="evenodd" fill-opacity="1"/>
<polyline clip-path="url(#clip920)" style="stroke:#000000; stroke-linecap:butt; stroke-linejoin:round; stroke-width:4; stroke-opacity:1; fill:none" points="
  1962.08,440.201 2281.64,440.201 2281.64,284.681 1962.08,284.681 1962.08,440.201 
  "/>
<path clip-path="url(#clip920)" d="
M1985.78 357.257 L2128.01 357.257 L2128.01 315.785 L1985.78 315.785 L1985.78 357.257  Z
  " fill="#009af9" fill-rule="evenodd" fill-opacity="1"/>
<polyline clip-path="url(#clip920)" style="stroke:#000000; stroke-linecap:butt; stroke-linejoin:round; stroke-width:4; stroke-opacity:1; fill:none" points="
  1985.78,357.257 2128.01,357.257 2128.01,315.785 1985.78,315.785 1985.78,357.257 
  "/>
<path clip-path="url(#clip920)" d="M2152.38 349.865 L2160.02 349.865 L2160.02 323.5 L2151.71 325.167 L2151.71 320.907 L2159.98 319.241 L2164.65 319.241 L2164.65 349.865 L2172.29 349.865 L2172.29 353.801 L2152.38 353.801 L2152.38 349.865 Z" fill="#000000" fill-rule="evenodd" fill-opacity="1" /><path clip-path="url(#clip920)" d="M2197.66 328.639 L2197.66 332.667 Q2195.86 331.741 2193.91 331.278 Q2191.97 330.815 2189.88 330.815 Q2186.71 330.815 2185.11 331.787 Q2183.54 332.759 2183.54 334.704 Q2183.54 336.185 2184.68 337.041 Q2185.81 337.875 2189.24 338.639 L2190.69 338.963 Q2195.23 339.935 2197.13 341.717 Q2199.05 343.477 2199.05 346.648 Q2199.05 350.259 2196.18 352.365 Q2193.33 354.472 2188.33 354.472 Q2186.25 354.472 2183.98 354.055 Q2181.74 353.662 2179.24 352.852 L2179.24 348.453 Q2181.6 349.68 2183.89 350.305 Q2186.18 350.907 2188.43 350.907 Q2191.43 350.907 2193.05 349.889 Q2194.68 348.847 2194.68 346.972 Q2194.68 345.236 2193.49 344.31 Q2192.34 343.384 2188.38 342.528 L2186.9 342.18 Q2182.94 341.347 2181.18 339.634 Q2179.42 337.898 2179.42 334.889 Q2179.42 331.231 2182.01 329.241 Q2184.61 327.25 2189.37 327.25 Q2191.74 327.25 2193.82 327.597 Q2195.9 327.944 2197.66 328.639 Z" fill="#000000" fill-rule="evenodd" fill-opacity="1" /><path clip-path="url(#clip920)" d="M2210.05 320.514 L2210.05 327.875 L2218.82 327.875 L2218.82 331.185 L2210.05 331.185 L2210.05 345.259 Q2210.05 348.43 2210.9 349.333 Q2211.78 350.236 2214.44 350.236 L2218.82 350.236 L2218.82 353.801 L2214.44 353.801 Q2209.51 353.801 2207.64 351.972 Q2205.76 350.12 2205.76 345.259 L2205.76 331.185 L2202.64 331.185 L2202.64 327.875 L2205.76 327.875 L2205.76 320.514 L2210.05 320.514 Z" fill="#000000" fill-rule="evenodd" fill-opacity="1" /><path clip-path="url(#clip920)" d="
M1985.78 409.097 L2128.01 409.097 L2128.01 367.625 L1985.78 367.625 L1985.78 409.097  Z
  " fill="#e26f46" fill-rule="evenodd" fill-opacity="1"/>
<polyline clip-path="url(#clip920)" style="stroke:#000000; stroke-linecap:butt; stroke-linejoin:round; stroke-width:4; stroke-opacity:1; fill:none" points="
  1985.78,409.097 2128.01,409.097 2128.01,367.625 1985.78,367.625 1985.78,409.097 
  "/>
<path clip-path="url(#clip920)" d="M2157.34 401.705 L2173.66 401.705 L2173.66 405.641 L2151.71 405.641 L2151.71 401.705 Q2154.37 398.951 2158.96 394.321 Q2163.56 389.669 2164.74 388.326 Q2166.99 385.803 2167.87 384.067 Q2168.77 382.307 2168.77 380.618 Q2168.77 377.863 2166.83 376.127 Q2164.91 374.391 2161.8 374.391 Q2159.61 374.391 2157.15 375.155 Q2154.72 375.919 2151.94 377.47 L2151.94 372.747 Q2154.77 371.613 2157.22 371.034 Q2159.68 370.456 2161.71 370.456 Q2167.08 370.456 2170.28 373.141 Q2173.47 375.826 2173.47 380.317 Q2173.47 382.446 2172.66 384.368 Q2171.87 386.266 2169.77 388.858 Q2169.19 389.53 2166.09 392.747 Q2162.99 395.942 2157.34 401.705 Z" fill="#000000" fill-rule="evenodd" fill-opacity="1" /><path clip-path="url(#clip920)" d="M2204.42 389.993 L2204.42 405.641 L2200.16 405.641 L2200.16 390.131 Q2200.16 386.451 2198.73 384.622 Q2197.29 382.794 2194.42 382.794 Q2190.97 382.794 2188.98 384.993 Q2186.99 387.192 2186.99 390.988 L2186.99 405.641 L2182.71 405.641 L2182.71 379.715 L2186.99 379.715 L2186.99 383.743 Q2188.52 381.405 2190.58 380.247 Q2192.66 379.09 2195.37 379.09 Q2199.84 379.09 2202.13 381.868 Q2204.42 384.622 2204.42 389.993 Z" fill="#000000" fill-rule="evenodd" fill-opacity="1" /><path clip-path="url(#clip920)" d="M2229.98 383.65 L2229.98 369.622 L2234.24 369.622 L2234.24 405.641 L2229.98 405.641 L2229.98 401.752 Q2228.63 404.067 2226.57 405.201 Q2224.54 406.312 2221.67 406.312 Q2216.97 406.312 2214 402.562 Q2211.06 398.812 2211.06 392.701 Q2211.06 386.59 2214 382.84 Q2216.97 379.09 2221.67 379.09 Q2224.54 379.09 2226.57 380.224 Q2228.63 381.335 2229.98 383.65 M2215.46 392.701 Q2215.46 397.4 2217.38 400.085 Q2219.33 402.747 2222.71 402.747 Q2226.09 402.747 2228.03 400.085 Q2229.98 397.4 2229.98 392.701 Q2229.98 388.002 2228.03 385.34 Q2226.09 382.655 2222.71 382.655 Q2219.33 382.655 2217.38 385.34 Q2215.46 388.002 2215.46 392.701 Z" fill="#000000" fill-rule="evenodd" fill-opacity="1" /></svg>
