<?xml version="1.0" encoding="utf-8"?>
<svg xmlns="http://www.w3.org/2000/svg" xmlns:xlink="http://www.w3.org/1999/xlink" width="600" height="400" viewBox="0 0 2400 1600">
<defs>
  <clipPath id="clip840">
    <rect x="0" y="0" width="2400" height="1600"/>
  </clipPath>
</defs>
<path clip-path="url(#clip840)" d="
M0 1600 L2400 1600 L2400 0 L0 0  Z
  " fill="#ffffff" fill-rule="evenodd" fill-opacity="1"/>
<defs>
  <clipPath id="clip841">
    <rect x="480" y="0" width="1681" height="1600"/>
  </clipPath>
</defs>
<path clip-path="url(#clip840)" d="
M247.459 1451.89 L2352.76 1451.89 L2352.76 244.432 L247.459 244.432  Z
  " fill="#ffffff" fill-rule="evenodd" fill-opacity="1"/>
<defs>
  <clipPath id="clip842">
    <rect x="247" y="244" width="2106" height="1208"/>
  </clipPath>
</defs>
<polyline clip-path="url(#clip842)" style="stroke:#000000; stroke-linecap:butt; stroke-linejoin:round; stroke-width:2; stroke-opacity:0.1; fill:none" points="
  489.31,1451.89 489.31,244.432 
  "/>
<polyline clip-path="url(#clip842)" style="stroke:#000000; stroke-linecap:butt; stroke-linejoin:round; stroke-width:2; stroke-opacity:0.1; fill:none" points="
  813.629,1451.89 813.629,244.432 
  "/>
<polyline clip-path="url(#clip842)" style="stroke:#000000; stroke-linecap:butt; stroke-linejoin:round; stroke-width:2; stroke-opacity:0.1; fill:none" points="
  1137.95,1451.89 1137.95,244.432 
  "/>
<polyline clip-path="url(#clip842)" style="stroke:#000000; stroke-linecap:butt; stroke-linejoin:round; stroke-width:2; stroke-opacity:0.1; fill:none" points="
  1462.27,1451.89 1462.27,244.432 
  "/>
<polyline clip-path="url(#clip842)" style="stroke:#000000; stroke-linecap:butt; stroke-linejoin:round; stroke-width:2; stroke-opacity:0.1; fill:none" points="
  1786.59,1451.89 1786.59,244.432 
  "/>
<polyline clip-path="url(#clip842)" style="stroke:#000000; stroke-linecap:butt; stroke-linejoin:round; stroke-width:2; stroke-opacity:0.1; fill:none" points="
  2110.9,1451.89 2110.9,244.432 
  "/>
<polyline clip-path="url(#clip840)" style="stroke:#000000; stroke-linecap:butt; stroke-linejoin:round; stroke-width:4; stroke-opacity:1; fill:none" points="
  247.459,1451.89 2352.76,1451.89 
  "/>
<polyline clip-path="url(#clip840)" style="stroke:#000000; stroke-linecap:butt; stroke-linejoin:round; stroke-width:4; stroke-opacity:1; fill:none" points="
  489.31,1451.89 489.31,1432.99 
  "/>
<polyline clip-path="url(#clip840)" style="stroke:#000000; stroke-linecap:butt; stroke-linejoin:round; stroke-width:4; stroke-opacity:1; fill:none" points="
  813.629,1451.89 813.629,1432.99 
  "/>
<polyline clip-path="url(#clip840)" style="stroke:#000000; stroke-linecap:butt; stroke-linejoin:round; stroke-width:4; stroke-opacity:1; fill:none" points="
  1137.95,1451.89 1137.95,1432.99 
  "/>
<polyline clip-path="url(#clip840)" style="stroke:#000000; stroke-linecap:butt; stroke-linejoin:round; stroke-width:4; stroke-opacity:1; fill:none" points="
  1462.27,1451.89 1462.27,1432.99 
  "/>
<polyline clip-path="url(#clip840)" style="stroke:#000000; stroke-linecap:butt; stroke-linejoin:round; stroke-width:4; stroke-opacity:1; fill:none" points="
  1786.59,1451.89 1786.59,1432.99 
  "/>
<polyline clip-path="url(#clip840)" style="stroke:#000000; stroke-linecap:butt; stroke-linejoin:round; stroke-width:4; stroke-opacity:1; fill:none" points="
  2110.9,1451.89 2110.9,1432.99 
  "/>
<path clip-path="url(#clip840)" d="M420.363 1484.33 L414.021 1501.53 L426.729 1501.53 L420.363 1484.33 M417.725 1479.73 L423.025 1479.73 L436.197 1514.29 L431.336 1514.29 L428.188 1505.42 L412.609 1505.42 L409.461 1514.29 L404.53 1514.29 L417.725 1479.73 Z" fill="#000000" fill-rule="evenodd" fill-opacity="1" /><path clip-path="url(#clip840)" d="M456.081 1492.34 Q455.363 1491.93 454.507 1491.74 Q453.673 1491.53 452.655 1491.53 Q449.044 1491.53 447.099 1493.89 Q445.178 1496.23 445.178 1500.63 L445.178 1514.29 L440.896 1514.29 L440.896 1488.36 L445.178 1488.36 L445.178 1492.39 Q446.521 1490.03 448.674 1488.89 Q450.826 1487.74 453.905 1487.74 Q454.345 1487.74 454.877 1487.81 Q455.41 1487.85 456.058 1487.97 L456.081 1492.34 Z" fill="#000000" fill-rule="evenodd" fill-opacity="1" /><path clip-path="url(#clip840)" d="M474.738 1492.34 Q474.021 1491.93 473.164 1491.74 Q472.331 1491.53 471.312 1491.53 Q467.701 1491.53 465.757 1493.89 Q463.835 1496.23 463.835 1500.63 L463.835 1514.29 L459.553 1514.29 L459.553 1488.36 L463.835 1488.36 L463.835 1492.39 Q465.178 1490.03 467.331 1488.89 Q469.484 1487.74 472.562 1487.74 Q473.002 1487.74 473.534 1487.81 Q474.067 1487.85 474.715 1487.97 L474.738 1492.34 Z" fill="#000000" fill-rule="evenodd" fill-opacity="1" /><path clip-path="url(#clip840)" d="M488.21 1491.35 Q484.784 1491.35 482.794 1494.03 Q480.803 1496.7 480.803 1501.35 Q480.803 1506 482.771 1508.69 Q484.761 1511.35 488.21 1511.35 Q491.613 1511.35 493.604 1508.66 Q495.595 1505.98 495.595 1501.35 Q495.595 1496.74 493.604 1494.06 Q491.613 1491.35 488.21 1491.35 M488.21 1487.74 Q493.766 1487.74 496.937 1491.35 Q500.108 1494.96 500.108 1501.35 Q500.108 1507.71 496.937 1511.35 Q493.766 1514.96 488.21 1514.96 Q482.632 1514.96 479.46 1511.35 Q476.312 1507.71 476.312 1501.35 Q476.312 1494.96 479.46 1491.35 Q482.632 1487.74 488.21 1487.74 Z" fill="#000000" fill-rule="evenodd" fill-opacity="1" /><path clip-path="url(#clip840)" d="M504.692 1488.36 L508.951 1488.36 L514.275 1508.59 L519.576 1488.36 L524.599 1488.36 L529.923 1508.59 L535.224 1488.36 L539.483 1488.36 L532.701 1514.29 L527.678 1514.29 L522.099 1493.04 L516.497 1514.29 L511.474 1514.29 L504.692 1488.36 Z" fill="#000000" fill-rule="evenodd" fill-opacity="1" /><path clip-path="url(#clip840)" d="M542.192 1508.41 L547.076 1508.41 L547.076 1514.29 L542.192 1514.29 L542.192 1508.41 Z" fill="#000000" fill-rule="evenodd" fill-opacity="1" /><path clip-path="url(#clip840)" d="M556.659 1488.36 L560.918 1488.36 L560.918 1514.75 Q560.918 1519.7 559.02 1521.93 Q557.145 1524.15 552.955 1524.15 L551.335 1524.15 L551.335 1520.54 L552.469 1520.54 Q554.9 1520.54 555.779 1519.4 Q556.659 1518.29 556.659 1514.75 L556.659 1488.36 M556.659 1478.27 L560.918 1478.27 L560.918 1483.66 L556.659 1483.66 L556.659 1478.27 Z" fill="#000000" fill-rule="evenodd" fill-opacity="1" /><path clip-path="url(#clip840)" d="M569.83 1478.27 L574.089 1478.27 L574.089 1514.29 L569.83 1514.29 L569.83 1478.27 Z" fill="#000000" fill-rule="evenodd" fill-opacity="1" /><path clip-path="url(#clip840)" d="M779.59 1482.39 L779.59 1487.32 Q777.229 1485.12 774.543 1484.03 Q771.881 1482.95 768.872 1482.95 Q762.946 1482.95 759.798 1486.58 Q756.65 1490.19 756.65 1497.04 Q756.65 1503.87 759.798 1507.51 Q762.946 1511.12 768.872 1511.12 Q771.881 1511.12 774.543 1510.03 Q777.229 1508.94 779.59 1506.74 L779.59 1511.63 Q777.136 1513.29 774.381 1514.13 Q771.65 1514.96 768.594 1514.96 Q760.747 1514.96 756.233 1510.17 Q751.719 1505.35 751.719 1497.04 Q751.719 1488.71 756.233 1483.92 Q760.747 1479.1 768.594 1479.1 Q771.696 1479.1 774.428 1479.94 Q777.182 1480.75 779.59 1482.39 Z" fill="#000000" fill-rule="evenodd" fill-opacity="1" /><path clip-path="url(#clip840)" d="M807.529 1480.86 L807.529 1485.42 Q804.867 1484.15 802.506 1483.52 Q800.145 1482.9 797.946 1482.9 Q794.127 1482.9 792.043 1484.38 Q789.983 1485.86 789.983 1488.59 Q789.983 1490.89 791.349 1492.07 Q792.738 1493.22 796.58 1493.94 L799.404 1494.52 Q804.636 1495.51 807.113 1498.04 Q809.613 1500.54 809.613 1504.75 Q809.613 1509.77 806.233 1512.37 Q802.877 1514.96 796.372 1514.96 Q793.918 1514.96 791.141 1514.4 Q788.386 1513.85 785.423 1512.76 L785.423 1507.95 Q788.27 1509.54 791.002 1510.35 Q793.733 1511.16 796.372 1511.16 Q800.377 1511.16 802.553 1509.59 Q804.728 1508.01 804.728 1505.1 Q804.728 1502.55 803.154 1501.12 Q801.603 1499.68 798.039 1498.96 L795.191 1498.41 Q789.96 1497.37 787.622 1495.14 Q785.284 1492.92 785.284 1488.96 Q785.284 1484.38 788.502 1481.74 Q791.742 1479.1 797.414 1479.1 Q799.844 1479.1 802.367 1479.54 Q804.89 1479.98 807.529 1480.86 Z" fill="#000000" fill-rule="evenodd" fill-opacity="1" /><path clip-path="url(#clip840)" d="M825.816 1514.29 L812.622 1479.73 L817.506 1479.73 L828.455 1508.82 L839.427 1479.73 L844.288 1479.73 L831.117 1514.29 L825.816 1514.29 Z" fill="#000000" fill-rule="evenodd" fill-opacity="1" /><path clip-path="url(#clip840)" d="M843.64 1508.41 L848.524 1508.41 L848.524 1514.29 L843.64 1514.29 L843.64 1508.41 Z" fill="#000000" fill-rule="evenodd" fill-opacity="1" /><path clip-path="url(#clip840)" d="M858.108 1488.36 L862.367 1488.36 L862.367 1514.75 Q862.367 1519.7 860.469 1521.93 Q858.594 1524.15 854.404 1524.15 L852.784 1524.15 L852.784 1520.54 L853.918 1520.54 Q856.349 1520.54 857.228 1519.4 Q858.108 1518.29 858.108 1514.75 L858.108 1488.36 M858.108 1478.27 L862.367 1478.27 L862.367 1483.66 L858.108 1483.66 L858.108 1478.27 Z" fill="#000000" fill-rule="evenodd" fill-opacity="1" /><path clip-path="url(#clip840)" d="M871.279 1478.27 L875.538 1478.27 L875.538 1514.29 L871.279 1514.29 L871.279 1478.27 Z" fill="#000000" fill-rule="evenodd" fill-opacity="1" /><path clip-path="url(#clip840)" d="M1090.27 1479.73 L1094.95 1479.73 L1094.95 1511.88 Q1094.95 1518.13 1092.57 1520.95 Q1090.21 1523.78 1084.95 1523.78 L1083.17 1523.78 L1083.17 1519.84 L1084.63 1519.84 Q1087.73 1519.84 1089 1518.11 Q1090.27 1516.37 1090.27 1511.88 L1090.27 1479.73 Z" fill="#000000" fill-rule="evenodd" fill-opacity="1" /><path clip-path="url(#clip840)" d="M1108.93 1483.57 L1108.93 1510.45 L1114.58 1510.45 Q1121.73 1510.45 1125.04 1507.2 Q1128.38 1503.96 1128.38 1496.97 Q1128.38 1490.03 1125.04 1486.81 Q1121.73 1483.57 1114.58 1483.57 L1108.93 1483.57 M1104.26 1479.73 L1113.86 1479.73 Q1123.91 1479.73 1128.61 1483.92 Q1133.31 1488.08 1133.31 1496.97 Q1133.31 1505.91 1128.58 1510.1 Q1123.86 1514.29 1113.86 1514.29 L1104.26 1514.29 L1104.26 1479.73 Z" fill="#000000" fill-rule="evenodd" fill-opacity="1" /><path clip-path="url(#clip840)" d="M1140.76 1479.73 L1160.62 1479.73 L1160.62 1483.66 L1145.44 1483.66 L1145.44 1493.85 L1159.14 1493.85 L1159.14 1497.78 L1145.44 1497.78 L1145.44 1514.29 L1140.76 1514.29 L1140.76 1479.73 Z" fill="#000000" fill-rule="evenodd" fill-opacity="1" /><path clip-path="url(#clip840)" d="M1160.83 1508.41 L1165.71 1508.41 L1165.71 1514.29 L1160.83 1514.29 L1160.83 1508.41 Z" fill="#000000" fill-rule="evenodd" fill-opacity="1" /><path clip-path="url(#clip840)" d="M1175.3 1488.36 L1179.56 1488.36 L1179.56 1514.75 Q1179.56 1519.7 1177.66 1521.93 Q1175.78 1524.15 1171.59 1524.15 L1169.97 1524.15 L1169.97 1520.54 L1171.11 1520.54 Q1173.54 1520.54 1174.42 1519.4 Q1175.3 1518.29 1175.3 1514.75 L1175.3 1488.36 M1175.3 1478.27 L1179.56 1478.27 L1179.56 1483.66 L1175.3 1483.66 L1175.3 1478.27 Z" fill="#000000" fill-rule="evenodd" fill-opacity="1" /><path clip-path="url(#clip840)" d="M1188.47 1478.27 L1192.73 1478.27 L1192.73 1514.29 L1188.47 1514.29 L1188.47 1478.27 Z" fill="#000000" fill-rule="evenodd" fill-opacity="1" /><path clip-path="url(#clip840)" d="M1396.72 1479.73 L1401.4 1479.73 L1401.4 1511.88 Q1401.4 1518.13 1399.01 1520.95 Q1396.65 1523.78 1391.4 1523.78 L1389.62 1523.78 L1389.62 1519.84 L1391.08 1519.84 Q1394.18 1519.84 1395.45 1518.11 Q1396.72 1516.37 1396.72 1511.88 L1396.72 1479.73 Z" fill="#000000" fill-rule="evenodd" fill-opacity="1" /><path clip-path="url(#clip840)" d="M1410.7 1479.73 L1415.38 1479.73 L1415.38 1510.35 L1432.21 1510.35 L1432.21 1514.29 L1410.7 1514.29 L1410.7 1479.73 Z" fill="#000000" fill-rule="evenodd" fill-opacity="1" /><path clip-path="url(#clip840)" d="M1457.83 1480.86 L1457.83 1485.42 Q1455.17 1484.15 1452.81 1483.52 Q1450.45 1482.9 1448.25 1482.9 Q1444.43 1482.9 1442.35 1484.38 Q1440.29 1485.86 1440.29 1488.59 Q1440.29 1490.89 1441.65 1492.07 Q1443.04 1493.22 1446.88 1493.94 L1449.71 1494.52 Q1454.94 1495.51 1457.42 1498.04 Q1459.92 1500.54 1459.92 1504.75 Q1459.92 1509.77 1456.54 1512.37 Q1453.18 1514.96 1446.68 1514.96 Q1444.22 1514.96 1441.45 1514.4 Q1438.69 1513.85 1435.73 1512.76 L1435.73 1507.95 Q1438.57 1509.54 1441.31 1510.35 Q1444.04 1511.16 1446.68 1511.16 Q1450.68 1511.16 1452.86 1509.59 Q1455.03 1508.01 1455.03 1505.1 Q1455.03 1502.55 1453.46 1501.12 Q1451.91 1499.68 1448.34 1498.96 L1445.5 1498.41 Q1440.26 1497.37 1437.93 1495.14 Q1435.59 1492.92 1435.59 1488.96 Q1435.59 1484.38 1438.81 1481.74 Q1442.05 1479.1 1447.72 1479.1 Q1450.15 1479.1 1452.67 1479.54 Q1455.2 1479.98 1457.83 1480.86 Z" fill="#000000" fill-rule="evenodd" fill-opacity="1" /><path clip-path="url(#clip840)" d="M1481.24 1482.9 Q1476.14 1482.9 1473.13 1486.7 Q1470.15 1490.49 1470.15 1497.04 Q1470.15 1503.57 1473.13 1507.37 Q1476.14 1511.16 1481.24 1511.16 Q1486.33 1511.16 1489.29 1507.37 Q1492.28 1503.57 1492.28 1497.04 Q1492.28 1490.49 1489.29 1486.7 Q1486.33 1482.9 1481.24 1482.9 M1481.24 1479.1 Q1488.51 1479.1 1492.86 1483.99 Q1497.21 1488.85 1497.21 1497.04 Q1497.21 1505.21 1492.86 1510.1 Q1488.51 1514.96 1481.24 1514.96 Q1473.94 1514.96 1469.57 1510.1 Q1465.22 1505.24 1465.22 1497.04 Q1465.22 1488.85 1469.57 1483.99 Q1473.94 1479.1 1481.24 1479.1 Z" fill="#000000" fill-rule="evenodd" fill-opacity="1" /><path clip-path="url(#clip840)" d="M1503.02 1508.41 L1507.9 1508.41 L1507.9 1514.29 L1503.02 1514.29 L1503.02 1508.41 Z" fill="#000000" fill-rule="evenodd" fill-opacity="1" /><path clip-path="url(#clip840)" d="M1517.49 1488.36 L1521.75 1488.36 L1521.75 1514.75 Q1521.75 1519.7 1519.85 1521.93 Q1517.97 1524.15 1513.78 1524.15 L1512.16 1524.15 L1512.16 1520.54 L1513.3 1520.54 Q1515.73 1520.54 1516.61 1519.4 Q1517.49 1518.29 1517.49 1514.75 L1517.49 1488.36 M1517.49 1478.27 L1521.75 1478.27 L1521.75 1483.66 L1517.49 1483.66 L1517.49 1478.27 Z" fill="#000000" fill-rule="evenodd" fill-opacity="1" /><path clip-path="url(#clip840)" d="M1530.66 1478.27 L1534.92 1478.27 L1534.92 1514.29 L1530.66 1514.29 L1530.66 1478.27 Z" fill="#000000" fill-rule="evenodd" fill-opacity="1" /><path clip-path="url(#clip840)" d="M1641.91 1479.73 L1646.59 1479.73 L1646.59 1511.88 Q1646.59 1518.13 1644.2 1520.95 Q1641.84 1523.78 1636.59 1523.78 L1634.8 1523.78 L1634.8 1519.84 L1636.26 1519.84 Q1639.36 1519.84 1640.64 1518.11 Q1641.91 1516.37 1641.91 1511.88 L1641.91 1479.73 Z" fill="#000000" fill-rule="evenodd" fill-opacity="1" /><path clip-path="url(#clip840)" d="M1676.61 1480.86 L1676.61 1485.42 Q1673.95 1484.15 1671.59 1483.52 Q1669.23 1482.9 1667.03 1482.9 Q1663.21 1482.9 1661.12 1484.38 Q1659.06 1485.86 1659.06 1488.59 Q1659.06 1490.89 1660.43 1492.07 Q1661.82 1493.22 1665.66 1493.94 L1668.48 1494.52 Q1673.72 1495.51 1676.19 1498.04 Q1678.69 1500.54 1678.69 1504.75 Q1678.69 1509.77 1675.31 1512.37 Q1671.96 1514.96 1665.45 1514.96 Q1663 1514.96 1660.22 1514.4 Q1657.47 1513.85 1654.5 1512.76 L1654.5 1507.95 Q1657.35 1509.54 1660.08 1510.35 Q1662.81 1511.16 1665.45 1511.16 Q1669.46 1511.16 1671.63 1509.59 Q1673.81 1508.01 1673.81 1505.1 Q1673.81 1502.55 1672.23 1501.12 Q1670.68 1499.68 1667.12 1498.96 L1664.27 1498.41 Q1659.04 1497.37 1656.7 1495.14 Q1654.36 1492.92 1654.36 1488.96 Q1654.36 1484.38 1657.58 1481.74 Q1660.82 1479.1 1666.49 1479.1 Q1668.92 1479.1 1671.45 1479.54 Q1673.97 1479.98 1676.61 1480.86 Z" fill="#000000" fill-rule="evenodd" fill-opacity="1" /><path clip-path="url(#clip840)" d="M1700.01 1482.9 Q1694.92 1482.9 1691.91 1486.7 Q1688.92 1490.49 1688.92 1497.04 Q1688.92 1503.57 1691.91 1507.37 Q1694.92 1511.16 1700.01 1511.16 Q1705.1 1511.16 1708.07 1507.37 Q1711.05 1503.57 1711.05 1497.04 Q1711.05 1490.49 1708.07 1486.7 Q1705.1 1482.9 1700.01 1482.9 M1700.01 1479.1 Q1707.28 1479.1 1711.63 1483.99 Q1715.98 1488.85 1715.98 1497.04 Q1715.98 1505.21 1711.63 1510.1 Q1707.28 1514.96 1700.01 1514.96 Q1692.72 1514.96 1688.35 1510.1 Q1683.99 1505.24 1683.99 1497.04 Q1683.99 1488.85 1688.35 1483.99 Q1692.72 1479.1 1700.01 1479.1 Z" fill="#000000" fill-rule="evenodd" fill-opacity="1" /><path clip-path="url(#clip840)" d="M1723.3 1479.73 L1729.6 1479.73 L1744.92 1508.64 L1744.92 1479.73 L1749.46 1479.73 L1749.46 1514.29 L1743.16 1514.29 L1727.84 1485.38 L1727.84 1514.29 L1723.3 1514.29 L1723.3 1479.73 Z" fill="#000000" fill-rule="evenodd" fill-opacity="1" /><path clip-path="url(#clip840)" d="M1753.97 1479.73 L1783.21 1479.73 L1783.21 1483.66 L1770.94 1483.66 L1770.94 1514.29 L1766.24 1514.29 L1766.24 1483.66 L1753.97 1483.66 L1753.97 1479.73 Z" fill="#000000" fill-rule="evenodd" fill-opacity="1" /><path clip-path="url(#clip840)" d="M1791.47 1501.26 Q1786.31 1501.26 1784.32 1502.44 Q1782.33 1503.62 1782.33 1506.46 Q1782.33 1508.73 1783.81 1510.07 Q1785.31 1511.39 1787.88 1511.39 Q1791.42 1511.39 1793.55 1508.89 Q1795.71 1506.37 1795.71 1502.2 L1795.71 1501.26 L1791.47 1501.26 M1799.97 1499.5 L1799.97 1514.29 L1795.71 1514.29 L1795.71 1510.35 Q1794.25 1512.71 1792.07 1513.85 Q1789.9 1514.96 1786.75 1514.96 Q1782.77 1514.96 1780.41 1512.74 Q1778.07 1510.49 1778.07 1506.74 Q1778.07 1502.37 1780.98 1500.14 Q1783.92 1497.92 1789.73 1497.92 L1795.71 1497.92 L1795.71 1497.51 Q1795.71 1494.57 1793.76 1492.97 Q1791.84 1491.35 1788.35 1491.35 Q1786.12 1491.35 1784.02 1491.88 Q1781.91 1492.41 1779.97 1493.48 L1779.97 1489.54 Q1782.3 1488.64 1784.5 1488.2 Q1786.7 1487.74 1788.78 1487.74 Q1794.41 1487.74 1797.19 1490.65 Q1799.97 1493.57 1799.97 1499.5 Z" fill="#000000" fill-rule="evenodd" fill-opacity="1" /><path clip-path="url(#clip840)" d="M1827.35 1501.35 Q1827.35 1496.65 1825.41 1493.99 Q1823.48 1491.3 1820.1 1491.3 Q1816.72 1491.3 1814.78 1493.99 Q1812.86 1496.65 1812.86 1501.35 Q1812.86 1506.05 1814.78 1508.73 Q1816.72 1511.39 1820.1 1511.39 Q1823.48 1511.39 1825.41 1508.73 Q1827.35 1506.05 1827.35 1501.35 M1812.86 1492.3 Q1814.2 1489.98 1816.24 1488.87 Q1818.3 1487.74 1821.15 1487.74 Q1825.87 1487.74 1828.81 1491.49 Q1831.77 1495.24 1831.77 1501.35 Q1831.77 1507.46 1828.81 1511.21 Q1825.87 1514.96 1821.15 1514.96 Q1818.3 1514.96 1816.24 1513.85 Q1814.2 1512.71 1812.86 1510.4 L1812.86 1514.29 L1808.58 1514.29 L1808.58 1478.27 L1812.86 1478.27 L1812.86 1492.3 Z" fill="#000000" fill-rule="evenodd" fill-opacity="1" /><path clip-path="url(#clip840)" d="M1838.83 1478.27 L1843.09 1478.27 L1843.09 1514.29 L1838.83 1514.29 L1838.83 1478.27 Z" fill="#000000" fill-rule="evenodd" fill-opacity="1" /><path clip-path="url(#clip840)" d="M1874.18 1500.26 L1874.18 1502.34 L1854.59 1502.34 Q1854.87 1506.74 1857.23 1509.06 Q1859.62 1511.35 1863.85 1511.35 Q1866.31 1511.35 1868.6 1510.75 Q1870.91 1510.14 1873.18 1508.94 L1873.18 1512.97 Q1870.89 1513.94 1868.48 1514.45 Q1866.08 1514.96 1863.6 1514.96 Q1857.4 1514.96 1853.76 1511.35 Q1850.15 1507.74 1850.15 1501.58 Q1850.15 1495.21 1853.58 1491.49 Q1857.03 1487.74 1862.86 1487.74 Q1868.09 1487.74 1871.12 1491.12 Q1874.18 1494.47 1874.18 1500.26 M1869.92 1499.01 Q1869.87 1495.51 1867.95 1493.43 Q1866.05 1491.35 1862.9 1491.35 Q1859.34 1491.35 1857.19 1493.36 Q1855.06 1495.38 1854.73 1499.03 L1869.92 1499.01 Z" fill="#000000" fill-rule="evenodd" fill-opacity="1" /><path clip-path="url(#clip840)" d="M1897.7 1489.13 L1897.7 1493.15 Q1895.89 1492.23 1893.95 1491.76 Q1892 1491.3 1889.92 1491.3 Q1886.75 1491.3 1885.15 1492.27 Q1883.58 1493.25 1883.58 1495.19 Q1883.58 1496.67 1884.71 1497.53 Q1885.84 1498.36 1889.27 1499.13 L1890.73 1499.45 Q1895.27 1500.42 1897.16 1502.2 Q1899.09 1503.96 1899.09 1507.14 Q1899.09 1510.75 1896.21 1512.85 Q1893.37 1514.96 1888.37 1514.96 Q1886.28 1514.96 1884.02 1514.54 Q1881.77 1514.15 1879.27 1513.34 L1879.27 1508.94 Q1881.63 1510.17 1883.92 1510.79 Q1886.21 1511.39 1888.46 1511.39 Q1891.47 1511.39 1893.09 1510.38 Q1894.71 1509.33 1894.71 1507.46 Q1894.71 1505.72 1893.53 1504.8 Q1892.37 1503.87 1888.41 1503.01 L1886.93 1502.67 Q1882.97 1501.83 1881.21 1500.12 Q1879.46 1498.39 1879.46 1495.38 Q1879.46 1491.72 1882.05 1489.73 Q1884.64 1487.74 1889.41 1487.74 Q1891.77 1487.74 1893.85 1488.08 Q1895.94 1488.43 1897.7 1489.13 Z" fill="#000000" fill-rule="evenodd" fill-opacity="1" /><path clip-path="url(#clip840)" d="M1906.47 1508.41 L1911.35 1508.41 L1911.35 1514.29 L1906.47 1514.29 L1906.47 1508.41 Z" fill="#000000" fill-rule="evenodd" fill-opacity="1" /><path clip-path="url(#clip840)" d="M1920.94 1488.36 L1925.2 1488.36 L1925.2 1514.75 Q1925.2 1519.7 1923.3 1521.93 Q1921.42 1524.15 1917.23 1524.15 L1915.61 1524.15 L1915.61 1520.54 L1916.75 1520.54 Q1919.18 1520.54 1920.06 1519.4 Q1920.94 1518.29 1920.94 1514.75 L1920.94 1488.36 M1920.94 1478.27 L1925.2 1478.27 L1925.2 1483.66 L1920.94 1483.66 L1920.94 1478.27 Z" fill="#000000" fill-rule="evenodd" fill-opacity="1" /><path clip-path="url(#clip840)" d="M1934.11 1478.27 L1938.37 1478.27 L1938.37 1514.29 L1934.11 1514.29 L1934.11 1478.27 Z" fill="#000000" fill-rule="evenodd" fill-opacity="1" /><path clip-path="url(#clip840)" d="M1667.98 1543.19 Q1664.55 1543.19 1662.56 1545.87 Q1660.57 1548.54 1660.57 1553.19 Q1660.57 1557.84 1662.54 1560.53 Q1664.53 1563.19 1667.98 1563.19 Q1671.38 1563.19 1673.37 1560.5 Q1675.36 1557.82 1675.36 1553.19 Q1675.36 1548.58 1673.37 1545.9 Q1671.38 1543.19 1667.98 1543.19 M1667.98 1539.58 Q1673.53 1539.58 1676.7 1543.19 Q1679.87 1546.8 1679.87 1553.19 Q1679.87 1559.55 1676.7 1563.19 Q1673.53 1566.8 1667.98 1566.8 Q1662.4 1566.8 1659.23 1563.19 Q1656.08 1559.55 1656.08 1553.19 Q1656.08 1546.8 1659.23 1543.19 Q1662.4 1539.58 1667.98 1539.58 Z" fill="#000000" fill-rule="evenodd" fill-opacity="1" /><path clip-path="url(#clip840)" d="M1705.54 1553.19 Q1705.54 1548.49 1703.6 1545.83 Q1701.68 1543.14 1698.3 1543.14 Q1694.92 1543.14 1692.98 1545.83 Q1691.05 1548.49 1691.05 1553.19 Q1691.05 1557.89 1692.98 1560.57 Q1694.92 1563.23 1698.3 1563.23 Q1701.68 1563.23 1703.6 1560.57 Q1705.54 1557.89 1705.54 1553.19 M1691.05 1544.14 Q1692.4 1541.82 1694.43 1540.71 Q1696.49 1539.58 1699.34 1539.58 Q1704.06 1539.58 1707 1543.33 Q1709.97 1547.08 1709.97 1553.19 Q1709.97 1559.3 1707 1563.05 Q1704.06 1566.8 1699.34 1566.8 Q1696.49 1566.8 1694.43 1565.69 Q1692.4 1564.55 1691.05 1562.24 L1691.05 1566.13 L1686.77 1566.13 L1686.77 1530.11 L1691.05 1530.11 L1691.05 1544.14 Z" fill="#000000" fill-rule="evenodd" fill-opacity="1" /><path clip-path="url(#clip840)" d="M1717.03 1540.2 L1721.29 1540.2 L1721.29 1566.59 Q1721.29 1571.54 1719.39 1573.77 Q1717.51 1575.99 1713.32 1575.99 L1711.7 1575.99 L1711.7 1572.38 L1712.84 1572.38 Q1715.27 1572.38 1716.15 1571.24 Q1717.03 1570.13 1717.03 1566.59 L1717.03 1540.2 M1717.03 1530.11 L1721.29 1530.11 L1721.29 1535.5 L1717.03 1535.5 L1717.03 1530.11 Z" fill="#000000" fill-rule="evenodd" fill-opacity="1" /><path clip-path="url(#clip840)" d="M1752.37 1552.1 L1752.37 1554.18 L1732.79 1554.18 Q1733.07 1558.58 1735.43 1560.9 Q1737.81 1563.19 1742.05 1563.19 Q1744.5 1563.19 1746.79 1562.59 Q1749.11 1561.98 1751.38 1560.78 L1751.38 1564.81 Q1749.09 1565.78 1746.68 1566.29 Q1744.27 1566.8 1741.79 1566.8 Q1735.59 1566.8 1731.96 1563.19 Q1728.35 1559.58 1728.35 1553.42 Q1728.35 1547.05 1731.77 1543.33 Q1735.22 1539.58 1741.05 1539.58 Q1746.29 1539.58 1749.32 1542.96 Q1752.37 1546.31 1752.37 1552.1 M1748.11 1550.85 Q1748.07 1547.35 1746.15 1545.27 Q1744.25 1543.19 1741.1 1543.19 Q1737.54 1543.19 1735.38 1545.2 Q1733.25 1547.22 1732.93 1550.87 L1748.11 1550.85 Z" fill="#000000" fill-rule="evenodd" fill-opacity="1" /><path clip-path="url(#clip840)" d="M1778.02 1541.2 L1778.02 1545.18 Q1776.22 1544.18 1774.39 1543.7 Q1772.58 1543.19 1770.73 1543.19 Q1766.59 1543.19 1764.29 1545.83 Q1762 1548.44 1762 1553.19 Q1762 1557.93 1764.29 1560.57 Q1766.59 1563.19 1770.73 1563.19 Q1772.58 1563.19 1774.39 1562.7 Q1776.22 1562.19 1778.02 1561.2 L1778.02 1565.13 Q1776.24 1565.97 1774.32 1566.38 Q1772.42 1566.8 1770.27 1566.8 Q1764.41 1566.8 1760.96 1563.12 Q1757.51 1559.44 1757.51 1553.19 Q1757.51 1546.85 1760.98 1543.21 Q1764.48 1539.58 1770.54 1539.58 Q1772.51 1539.58 1774.39 1539.99 Q1776.26 1540.39 1778.02 1541.2 Z" fill="#000000" fill-rule="evenodd" fill-opacity="1" /><path clip-path="url(#clip840)" d="M1789.64 1532.84 L1789.64 1540.2 L1798.41 1540.2 L1798.41 1543.51 L1789.64 1543.51 L1789.64 1557.59 Q1789.64 1560.76 1790.5 1561.66 Q1791.38 1562.56 1794.04 1562.56 L1798.41 1562.56 L1798.41 1566.13 L1794.04 1566.13 Q1789.11 1566.13 1787.23 1564.3 Q1785.36 1562.45 1785.36 1557.59 L1785.36 1543.51 L1782.23 1543.51 L1782.23 1540.2 L1785.36 1540.2 L1785.36 1532.84 L1789.64 1532.84 Z" fill="#000000" fill-rule="evenodd" fill-opacity="1" /><path clip-path="url(#clip840)" d="M1808.23 1532.84 L1808.23 1540.2 L1817 1540.2 L1817 1543.51 L1808.23 1543.51 L1808.23 1557.59 Q1808.23 1560.76 1809.09 1561.66 Q1809.97 1562.56 1812.63 1562.56 L1817 1562.56 L1817 1566.13 L1812.63 1566.13 Q1807.7 1566.13 1805.82 1564.3 Q1803.95 1562.45 1803.95 1557.59 L1803.95 1543.51 L1800.82 1543.51 L1800.82 1540.2 L1803.95 1540.2 L1803.95 1532.84 L1808.23 1532.84 Z" fill="#000000" fill-rule="evenodd" fill-opacity="1" /><path clip-path="url(#clip840)" d="M1834.39 1553.1 Q1829.22 1553.1 1827.23 1554.28 Q1825.24 1555.46 1825.24 1558.3 Q1825.24 1560.57 1826.72 1561.91 Q1828.23 1563.23 1830.8 1563.23 Q1834.34 1563.23 1836.47 1560.73 Q1838.62 1558.21 1838.62 1554.04 L1838.62 1553.1 L1834.39 1553.1 M1842.88 1551.34 L1842.88 1566.13 L1838.62 1566.13 L1838.62 1562.19 Q1837.16 1564.55 1834.99 1565.69 Q1832.81 1566.8 1829.66 1566.8 Q1825.68 1566.8 1823.32 1564.58 Q1820.98 1562.33 1820.98 1558.58 Q1820.98 1554.21 1823.9 1551.98 Q1826.84 1549.76 1832.65 1549.76 L1838.62 1549.76 L1838.62 1549.35 Q1838.62 1546.41 1836.68 1544.81 Q1834.76 1543.19 1831.26 1543.19 Q1829.04 1543.19 1826.93 1543.72 Q1824.83 1544.25 1822.88 1545.32 L1822.88 1541.38 Q1825.22 1540.48 1827.42 1540.04 Q1829.62 1539.58 1831.7 1539.58 Q1837.33 1539.58 1840.1 1542.49 Q1842.88 1545.41 1842.88 1551.34 Z" fill="#000000" fill-rule="evenodd" fill-opacity="1" /><path clip-path="url(#clip840)" d="M1870.27 1553.19 Q1870.27 1548.49 1868.32 1545.83 Q1866.4 1543.14 1863.02 1543.14 Q1859.64 1543.14 1857.7 1545.83 Q1855.78 1548.49 1855.78 1553.19 Q1855.78 1557.89 1857.7 1560.57 Q1859.64 1563.23 1863.02 1563.23 Q1866.4 1563.23 1868.32 1560.57 Q1870.27 1557.89 1870.27 1553.19 M1855.78 1544.14 Q1857.12 1541.82 1859.15 1540.71 Q1861.22 1539.58 1864.06 1539.58 Q1868.78 1539.58 1871.72 1543.33 Q1874.69 1547.08 1874.69 1553.19 Q1874.69 1559.3 1871.72 1563.05 Q1868.78 1566.8 1864.06 1566.8 Q1861.22 1566.8 1859.15 1565.69 Q1857.12 1564.55 1855.78 1562.24 L1855.78 1566.13 L1851.49 1566.13 L1851.49 1530.11 L1855.78 1530.11 L1855.78 1544.14 Z" fill="#000000" fill-rule="evenodd" fill-opacity="1" /><path clip-path="url(#clip840)" d="M1881.75 1530.11 L1886.01 1530.11 L1886.01 1566.13 L1881.75 1566.13 L1881.75 1530.11 Z" fill="#000000" fill-rule="evenodd" fill-opacity="1" /><path clip-path="url(#clip840)" d="M1917.09 1552.1 L1917.09 1554.18 L1897.51 1554.18 Q1897.79 1558.58 1900.15 1560.9 Q1902.53 1563.19 1906.77 1563.19 Q1909.22 1563.19 1911.52 1562.59 Q1913.83 1561.98 1916.1 1560.78 L1916.1 1564.81 Q1913.81 1565.78 1911.4 1566.29 Q1908.99 1566.8 1906.52 1566.8 Q1900.31 1566.8 1896.68 1563.19 Q1893.07 1559.58 1893.07 1553.42 Q1893.07 1547.05 1896.49 1543.33 Q1899.94 1539.58 1905.77 1539.58 Q1911.01 1539.58 1914.04 1542.96 Q1917.09 1546.31 1917.09 1552.1 M1912.84 1550.85 Q1912.79 1547.35 1910.87 1545.27 Q1908.97 1543.19 1905.82 1543.19 Q1902.26 1543.19 1900.1 1545.2 Q1897.97 1547.22 1897.65 1550.87 L1912.84 1550.85 Z" fill="#000000" fill-rule="evenodd" fill-opacity="1" /><path clip-path="url(#clip840)" d="M1990.7 1480.86 L1990.7 1485.42 Q1988.04 1484.15 1985.67 1483.52 Q1983.31 1482.9 1981.11 1482.9 Q1977.29 1482.9 1975.21 1484.38 Q1973.15 1485.86 1973.15 1488.59 Q1973.15 1490.89 1974.52 1492.07 Q1975.91 1493.22 1979.75 1493.94 L1982.57 1494.52 Q1987.8 1495.51 1990.28 1498.04 Q1992.78 1500.54 1992.78 1504.75 Q1992.78 1509.77 1989.4 1512.37 Q1986.04 1514.96 1979.54 1514.96 Q1977.09 1514.96 1974.31 1514.4 Q1971.55 1513.85 1968.59 1512.76 L1968.59 1507.95 Q1971.44 1509.54 1974.17 1510.35 Q1976.9 1511.16 1979.54 1511.16 Q1983.54 1511.16 1985.72 1509.59 Q1987.9 1508.01 1987.9 1505.1 Q1987.9 1502.55 1986.32 1501.12 Q1984.77 1499.68 1981.21 1498.96 L1978.36 1498.41 Q1973.13 1497.37 1970.79 1495.14 Q1968.45 1492.92 1968.45 1488.96 Q1968.45 1484.38 1971.67 1481.74 Q1974.91 1479.1 1980.58 1479.1 Q1983.01 1479.1 1985.54 1479.54 Q1988.06 1479.98 1990.7 1480.86 Z" fill="#000000" fill-rule="evenodd" fill-opacity="1" /><path clip-path="url(#clip840)" d="M2022.06 1500.26 L2022.06 1502.34 L2002.48 1502.34 Q2002.76 1506.74 2005.12 1509.06 Q2007.5 1511.35 2011.74 1511.35 Q2014.19 1511.35 2016.48 1510.75 Q2018.8 1510.14 2021.07 1508.94 L2021.07 1512.97 Q2018.78 1513.94 2016.37 1514.45 Q2013.96 1514.96 2011.48 1514.96 Q2005.28 1514.96 2001.65 1511.35 Q1998.03 1507.74 1998.03 1501.58 Q1998.03 1495.21 2001.46 1491.49 Q2004.91 1487.74 2010.74 1487.74 Q2015.97 1487.74 2019.01 1491.12 Q2022.06 1494.47 2022.06 1500.26 M2017.8 1499.01 Q2017.76 1495.51 2015.84 1493.43 Q2013.94 1491.35 2010.79 1491.35 Q2007.22 1491.35 2005.07 1493.36 Q2002.94 1495.38 2002.62 1499.03 L2017.8 1499.01 Z" fill="#000000" fill-rule="evenodd" fill-opacity="1" /><path clip-path="url(#clip840)" d="M2044.08 1492.34 Q2043.36 1491.93 2042.5 1491.74 Q2041.67 1491.53 2040.65 1491.53 Q2037.04 1491.53 2035.09 1493.89 Q2033.17 1496.23 2033.17 1500.63 L2033.17 1514.29 L2028.89 1514.29 L2028.89 1488.36 L2033.17 1488.36 L2033.17 1492.39 Q2034.52 1490.03 2036.67 1488.89 Q2038.82 1487.74 2041.9 1487.74 Q2042.34 1487.74 2042.87 1487.81 Q2043.41 1487.85 2044.05 1487.97 L2044.08 1492.34 Z" fill="#000000" fill-rule="evenodd" fill-opacity="1" /><path clip-path="url(#clip840)" d="M2048.54 1488.36 L2052.8 1488.36 L2052.8 1514.29 L2048.54 1514.29 L2048.54 1488.36 M2048.54 1478.27 L2052.8 1478.27 L2052.8 1483.66 L2048.54 1483.66 L2048.54 1478.27 Z" fill="#000000" fill-rule="evenodd" fill-opacity="1" /><path clip-path="url(#clip840)" d="M2073.5 1501.26 Q2068.34 1501.26 2066.34 1502.44 Q2064.35 1503.62 2064.35 1506.46 Q2064.35 1508.73 2065.84 1510.07 Q2067.34 1511.39 2069.91 1511.39 Q2073.45 1511.39 2075.58 1508.89 Q2077.73 1506.37 2077.73 1502.2 L2077.73 1501.26 L2073.5 1501.26 M2081.99 1499.5 L2081.99 1514.29 L2077.73 1514.29 L2077.73 1510.35 Q2076.28 1512.71 2074.1 1513.85 Q2071.92 1514.96 2068.78 1514.96 Q2064.79 1514.96 2062.43 1512.74 Q2060.09 1510.49 2060.09 1506.74 Q2060.09 1502.37 2063.01 1500.14 Q2065.95 1497.92 2071.76 1497.92 L2077.73 1497.92 L2077.73 1497.51 Q2077.73 1494.57 2075.79 1492.97 Q2073.87 1491.35 2070.37 1491.35 Q2068.15 1491.35 2066.04 1491.88 Q2063.94 1492.41 2061.99 1493.48 L2061.99 1489.54 Q2064.33 1488.64 2066.53 1488.2 Q2068.73 1487.74 2070.81 1487.74 Q2076.44 1487.74 2079.22 1490.65 Q2081.99 1493.57 2081.99 1499.5 Z" fill="#000000" fill-rule="evenodd" fill-opacity="1" /><path clip-path="url(#clip840)" d="M2090.77 1478.27 L2095.03 1478.27 L2095.03 1514.29 L2090.77 1514.29 L2090.77 1478.27 Z" fill="#000000" fill-rule="evenodd" fill-opacity="1" /><path clip-path="url(#clip840)" d="M2103.94 1488.36 L2108.2 1488.36 L2108.2 1514.29 L2103.94 1514.29 L2103.94 1488.36 M2103.94 1478.27 L2108.2 1478.27 L2108.2 1483.66 L2103.94 1483.66 L2103.94 1478.27 Z" fill="#000000" fill-rule="evenodd" fill-opacity="1" /><path clip-path="url(#clip840)" d="M2115.26 1488.36 L2135.49 1488.36 L2135.49 1492.25 L2119.47 1510.89 L2135.49 1510.89 L2135.49 1514.29 L2114.68 1514.29 L2114.68 1510.4 L2130.7 1491.76 L2115.26 1491.76 L2115.26 1488.36 Z" fill="#000000" fill-rule="evenodd" fill-opacity="1" /><path clip-path="url(#clip840)" d="M2153.77 1501.26 Q2148.61 1501.26 2146.62 1502.44 Q2144.63 1503.62 2144.63 1506.46 Q2144.63 1508.73 2146.11 1510.07 Q2147.62 1511.39 2150.19 1511.39 Q2153.73 1511.39 2155.86 1508.89 Q2158.01 1506.37 2158.01 1502.2 L2158.01 1501.26 L2153.77 1501.26 M2162.27 1499.5 L2162.27 1514.29 L2158.01 1514.29 L2158.01 1510.35 Q2156.55 1512.71 2154.38 1513.85 Q2152.2 1514.96 2149.05 1514.96 Q2145.07 1514.96 2142.71 1512.74 Q2140.37 1510.49 2140.37 1506.74 Q2140.37 1502.37 2143.29 1500.14 Q2146.23 1497.92 2152.04 1497.92 L2158.01 1497.92 L2158.01 1497.51 Q2158.01 1494.57 2156.07 1492.97 Q2154.15 1491.35 2150.65 1491.35 Q2148.43 1491.35 2146.32 1491.88 Q2144.21 1492.41 2142.27 1493.48 L2142.27 1489.54 Q2144.61 1488.64 2146.81 1488.2 Q2149.01 1487.74 2151.09 1487.74 Q2156.71 1487.74 2159.49 1490.65 Q2162.27 1493.57 2162.27 1499.5 Z" fill="#000000" fill-rule="evenodd" fill-opacity="1" /><path clip-path="url(#clip840)" d="M2175.26 1481 L2175.26 1488.36 L2184.03 1488.36 L2184.03 1491.67 L2175.26 1491.67 L2175.26 1505.75 Q2175.26 1508.92 2176.11 1509.82 Q2176.99 1510.72 2179.65 1510.72 L2184.03 1510.72 L2184.03 1514.29 L2179.65 1514.29 Q2174.72 1514.29 2172.85 1512.46 Q2170.97 1510.61 2170.97 1505.75 L2170.97 1491.67 L2167.85 1491.67 L2167.85 1488.36 L2170.97 1488.36 L2170.97 1481 L2175.26 1481 Z" fill="#000000" fill-rule="evenodd" fill-opacity="1" /><path clip-path="url(#clip840)" d="M2189.63 1488.36 L2193.89 1488.36 L2193.89 1514.29 L2189.63 1514.29 L2189.63 1488.36 M2189.63 1478.27 L2193.89 1478.27 L2193.89 1483.66 L2189.63 1483.66 L2189.63 1478.27 Z" fill="#000000" fill-rule="evenodd" fill-opacity="1" /><path clip-path="url(#clip840)" d="M2212.85 1491.35 Q2209.42 1491.35 2207.43 1494.03 Q2205.44 1496.7 2205.44 1501.35 Q2205.44 1506 2207.41 1508.69 Q2209.4 1511.35 2212.85 1511.35 Q2216.25 1511.35 2218.24 1508.66 Q2220.23 1505.98 2220.23 1501.35 Q2220.23 1496.74 2218.24 1494.06 Q2216.25 1491.35 2212.85 1491.35 M2212.85 1487.74 Q2218.4 1487.74 2221.58 1491.35 Q2224.75 1494.96 2224.75 1501.35 Q2224.75 1507.71 2221.58 1511.35 Q2218.4 1514.96 2212.85 1514.96 Q2207.27 1514.96 2204.1 1511.35 Q2200.95 1507.71 2200.95 1501.35 Q2200.95 1494.96 2204.1 1491.35 Q2207.27 1487.74 2212.85 1487.74 Z" fill="#000000" fill-rule="evenodd" fill-opacity="1" /><path clip-path="url(#clip840)" d="M2253.36 1498.64 L2253.36 1514.29 L2249.1 1514.29 L2249.1 1498.78 Q2249.1 1495.1 2247.66 1493.27 Q2246.23 1491.44 2243.36 1491.44 Q2239.91 1491.44 2237.92 1493.64 Q2235.93 1495.84 2235.93 1499.64 L2235.93 1514.29 L2231.64 1514.29 L2231.64 1488.36 L2235.93 1488.36 L2235.93 1492.39 Q2237.46 1490.05 2239.52 1488.89 Q2241.6 1487.74 2244.31 1487.74 Q2248.77 1487.74 2251.07 1490.51 Q2253.36 1493.27 2253.36 1498.64 Z" fill="#000000" fill-rule="evenodd" fill-opacity="1" /><polyline clip-path="url(#clip842)" style="stroke:#000000; stroke-linecap:butt; stroke-linejoin:round; stroke-width:2; stroke-opacity:0.1; fill:none" points="
  247.459,1417.71 2352.76,1417.71 
  "/>
<polyline clip-path="url(#clip842)" style="stroke:#000000; stroke-linecap:butt; stroke-linejoin:round; stroke-width:2; stroke-opacity:0.1; fill:none" points="
  247.459,1153.53 2352.76,1153.53 
  "/>
<polyline clip-path="url(#clip842)" style="stroke:#000000; stroke-linecap:butt; stroke-linejoin:round; stroke-width:2; stroke-opacity:0.1; fill:none" points="
  247.459,889.346 2352.76,889.346 
  "/>
<polyline clip-path="url(#clip842)" style="stroke:#000000; stroke-linecap:butt; stroke-linejoin:round; stroke-width:2; stroke-opacity:0.1; fill:none" points="
  247.459,625.162 2352.76,625.162 
  "/>
<polyline clip-path="url(#clip842)" style="stroke:#000000; stroke-linecap:butt; stroke-linejoin:round; stroke-width:2; stroke-opacity:0.1; fill:none" points="
  247.459,360.977 2352.76,360.977 
  "/>
<polyline clip-path="url(#clip840)" style="stroke:#000000; stroke-linecap:butt; stroke-linejoin:round; stroke-width:4; stroke-opacity:1; fill:none" points="
  247.459,1451.89 247.459,244.432 
  "/>
<polyline clip-path="url(#clip840)" style="stroke:#000000; stroke-linecap:butt; stroke-linejoin:round; stroke-width:4; stroke-opacity:1; fill:none" points="
  247.459,1417.71 266.356,1417.71 
  "/>
<polyline clip-path="url(#clip840)" style="stroke:#000000; stroke-linecap:butt; stroke-linejoin:round; stroke-width:4; stroke-opacity:1; fill:none" points="
  247.459,1153.53 266.356,1153.53 
  "/>
<polyline clip-path="url(#clip840)" style="stroke:#000000; stroke-linecap:butt; stroke-linejoin:round; stroke-width:4; stroke-opacity:1; fill:none" points="
  247.459,889.346 266.356,889.346 
  "/>
<polyline clip-path="url(#clip840)" style="stroke:#000000; stroke-linecap:butt; stroke-linejoin:round; stroke-width:4; stroke-opacity:1; fill:none" points="
  247.459,625.162 266.356,625.162 
  "/>
<polyline clip-path="url(#clip840)" style="stroke:#000000; stroke-linecap:butt; stroke-linejoin:round; stroke-width:4; stroke-opacity:1; fill:none" points="
  247.459,360.977 266.356,360.977 
  "/>
<path clip-path="url(#clip840)" d="M154.283 1403.51 Q150.672 1403.51 148.843 1407.08 Q147.038 1410.62 147.038 1417.75 Q147.038 1424.86 148.843 1428.42 Q150.672 1431.96 154.283 1431.96 Q157.917 1431.96 159.723 1428.42 Q161.552 1424.86 161.552 1417.75 Q161.552 1410.62 159.723 1407.08 Q157.917 1403.51 154.283 1403.51 M154.283 1399.81 Q160.093 1399.81 163.149 1404.42 Q166.227 1409 166.227 1417.75 Q166.227 1426.48 163.149 1431.08 Q160.093 1435.67 154.283 1435.67 Q148.473 1435.67 145.394 1431.08 Q142.339 1426.48 142.339 1417.75 Q142.339 1409 145.394 1404.42 Q148.473 1399.81 154.283 1399.81 Z" fill="#000000" fill-rule="evenodd" fill-opacity="1" /><path clip-path="url(#clip840)" d="M174.445 1429.12 L179.329 1429.12 L179.329 1434.99 L174.445 1434.99 L174.445 1429.12 Z" fill="#000000" fill-rule="evenodd" fill-opacity="1" /><path clip-path="url(#clip840)" d="M199.514 1403.51 Q195.903 1403.51 194.075 1407.08 Q192.269 1410.62 192.269 1417.75 Q192.269 1424.86 194.075 1428.42 Q195.903 1431.96 199.514 1431.96 Q203.149 1431.96 204.954 1428.42 Q206.783 1424.86 206.783 1417.75 Q206.783 1410.62 204.954 1407.08 Q203.149 1403.51 199.514 1403.51 M199.514 1399.81 Q205.324 1399.81 208.38 1404.42 Q211.459 1409 211.459 1417.75 Q211.459 1426.48 208.38 1431.08 Q205.324 1435.67 199.514 1435.67 Q193.704 1435.67 190.625 1431.08 Q187.57 1426.48 187.57 1417.75 Q187.57 1409 190.625 1404.42 Q193.704 1399.81 199.514 1399.81 Z" fill="#000000" fill-rule="evenodd" fill-opacity="1" /><path clip-path="url(#clip840)" d="M149.306 1166.88 L165.626 1166.88 L165.626 1170.81 L143.681 1170.81 L143.681 1166.88 Q146.343 1164.12 150.927 1159.49 Q155.533 1154.84 156.714 1153.5 Q158.959 1150.97 159.839 1149.24 Q160.741 1147.48 160.741 1145.79 Q160.741 1143.03 158.797 1141.3 Q156.876 1139.56 153.774 1139.56 Q151.575 1139.56 149.121 1140.32 Q146.691 1141.09 143.913 1142.64 L143.913 1137.92 Q146.737 1136.78 149.191 1136.2 Q151.644 1135.63 153.681 1135.63 Q159.052 1135.63 162.246 1138.31 Q165.44 1141 165.44 1145.49 Q165.44 1147.62 164.63 1149.54 Q163.843 1151.44 161.737 1154.03 Q161.158 1154.7 158.056 1157.92 Q154.954 1161.11 149.306 1166.88 Z" fill="#000000" fill-rule="evenodd" fill-opacity="1" /><path clip-path="url(#clip840)" d="M175.44 1164.93 L180.325 1164.93 L180.325 1170.81 L175.44 1170.81 L175.44 1164.93 Z" fill="#000000" fill-rule="evenodd" fill-opacity="1" /><path clip-path="url(#clip840)" d="M190.556 1136.25 L208.912 1136.25 L208.912 1140.19 L194.838 1140.19 L194.838 1148.66 Q195.857 1148.31 196.875 1148.15 Q197.894 1147.96 198.912 1147.96 Q204.699 1147.96 208.079 1151.13 Q211.459 1154.31 211.459 1159.72 Q211.459 1165.3 207.987 1168.4 Q204.514 1171.48 198.195 1171.48 Q196.019 1171.48 193.75 1171.11 Q191.505 1170.74 189.098 1170 L189.098 1165.3 Q191.181 1166.44 193.403 1166.99 Q195.625 1167.55 198.102 1167.55 Q202.107 1167.55 204.445 1165.44 Q206.783 1163.33 206.783 1159.72 Q206.783 1156.11 204.445 1154 Q202.107 1151.9 198.102 1151.9 Q196.227 1151.9 194.352 1152.31 Q192.5 1152.73 190.556 1153.61 L190.556 1136.25 Z" fill="#000000" fill-rule="evenodd" fill-opacity="1" /><path clip-path="url(#clip840)" d="M144.329 872.066 L162.686 872.066 L162.686 876.001 L148.612 876.001 L148.612 884.473 Q149.63 884.126 150.649 883.964 Q151.667 883.779 152.686 883.779 Q158.473 883.779 161.852 886.95 Q165.232 890.121 165.232 895.538 Q165.232 901.117 161.76 904.219 Q158.288 907.297 151.968 907.297 Q149.792 907.297 147.524 906.927 Q145.279 906.556 142.871 905.816 L142.871 901.117 Q144.954 902.251 147.177 902.806 Q149.399 903.362 151.876 903.362 Q155.88 903.362 158.218 901.256 Q160.556 899.149 160.556 895.538 Q160.556 891.927 158.218 889.82 Q155.88 887.714 151.876 887.714 Q150.001 887.714 148.126 888.131 Q146.274 888.547 144.329 889.427 L144.329 872.066 Z" fill="#000000" fill-rule="evenodd" fill-opacity="1" /><path clip-path="url(#clip840)" d="M174.445 900.746 L179.329 900.746 L179.329 906.626 L174.445 906.626 L174.445 900.746 Z" fill="#000000" fill-rule="evenodd" fill-opacity="1" /><path clip-path="url(#clip840)" d="M199.514 875.145 Q195.903 875.145 194.075 878.709 Q192.269 882.251 192.269 889.381 Q192.269 896.487 194.075 900.052 Q195.903 903.594 199.514 903.594 Q203.149 903.594 204.954 900.052 Q206.783 896.487 206.783 889.381 Q206.783 882.251 204.954 878.709 Q203.149 875.145 199.514 875.145 M199.514 871.441 Q205.324 871.441 208.38 876.047 Q211.459 880.631 211.459 889.381 Q211.459 898.107 208.38 902.714 Q205.324 907.297 199.514 907.297 Q193.704 907.297 190.625 902.714 Q187.57 898.107 187.57 889.381 Q187.57 880.631 190.625 876.047 Q193.704 871.441 199.514 871.441 Z" fill="#000000" fill-rule="evenodd" fill-opacity="1" /><path clip-path="url(#clip840)" d="M144.098 607.882 L166.32 607.882 L166.32 609.872 L153.774 642.442 L148.89 642.442 L160.695 611.817 L144.098 611.817 L144.098 607.882 Z" fill="#000000" fill-rule="evenodd" fill-opacity="1" /><path clip-path="url(#clip840)" d="M175.44 636.562 L180.325 636.562 L180.325 642.442 L175.44 642.442 L175.44 636.562 Z" fill="#000000" fill-rule="evenodd" fill-opacity="1" /><path clip-path="url(#clip840)" d="M190.556 607.882 L208.912 607.882 L208.912 611.817 L194.838 611.817 L194.838 620.289 Q195.857 619.942 196.875 619.78 Q197.894 619.594 198.912 619.594 Q204.699 619.594 208.079 622.766 Q211.459 625.937 211.459 631.354 Q211.459 636.932 207.987 640.034 Q204.514 643.113 198.195 643.113 Q196.019 643.113 193.75 642.742 Q191.505 642.372 189.098 641.631 L189.098 636.932 Q191.181 638.067 193.403 638.622 Q195.625 639.178 198.102 639.178 Q202.107 639.178 204.445 637.071 Q206.783 634.965 206.783 631.354 Q206.783 627.743 204.445 625.636 Q202.107 623.53 198.102 623.53 Q196.227 623.53 194.352 623.946 Q192.5 624.363 190.556 625.243 L190.556 607.882 Z" fill="#000000" fill-rule="evenodd" fill-opacity="1" /><path clip-path="url(#clip840)" d="M114.931 374.322 L122.57 374.322 L122.57 347.956 L114.26 349.623 L114.26 345.364 L122.524 343.697 L127.2 343.697 L127.2 374.322 L134.839 374.322 L134.839 378.257 L114.931 378.257 L114.931 374.322 Z" fill="#000000" fill-rule="evenodd" fill-opacity="1" /><path clip-path="url(#clip840)" d="M154.283 346.776 Q150.672 346.776 148.843 350.341 Q147.038 353.882 147.038 361.012 Q147.038 368.118 148.843 371.683 Q150.672 375.225 154.283 375.225 Q157.917 375.225 159.723 371.683 Q161.552 368.118 161.552 361.012 Q161.552 353.882 159.723 350.341 Q157.917 346.776 154.283 346.776 M154.283 343.072 Q160.093 343.072 163.149 347.679 Q166.227 352.262 166.227 361.012 Q166.227 369.739 163.149 374.345 Q160.093 378.929 154.283 378.929 Q148.473 378.929 145.394 374.345 Q142.339 369.739 142.339 361.012 Q142.339 352.262 145.394 347.679 Q148.473 343.072 154.283 343.072 Z" fill="#000000" fill-rule="evenodd" fill-opacity="1" /><path clip-path="url(#clip840)" d="M174.445 372.378 L179.329 372.378 L179.329 378.257 L174.445 378.257 L174.445 372.378 Z" fill="#000000" fill-rule="evenodd" fill-opacity="1" /><path clip-path="url(#clip840)" d="M199.514 346.776 Q195.903 346.776 194.075 350.341 Q192.269 353.882 192.269 361.012 Q192.269 368.118 194.075 371.683 Q195.903 375.225 199.514 375.225 Q203.149 375.225 204.954 371.683 Q206.783 368.118 206.783 361.012 Q206.783 353.882 204.954 350.341 Q203.149 346.776 199.514 346.776 M199.514 343.072 Q205.324 343.072 208.38 347.679 Q211.459 352.262 211.459 361.012 Q211.459 369.739 208.38 374.345 Q205.324 378.929 199.514 378.929 Q193.704 378.929 190.625 374.345 Q187.57 369.739 187.57 361.012 Q187.57 352.262 190.625 347.679 Q193.704 343.072 199.514 343.072 Z" fill="#000000" fill-rule="evenodd" fill-opacity="1" /><path clip-path="url(#clip840)" d="M18.0438 932.41 L24.314 932.41 Q22.5634 936.07 21.704 939.317 Q20.8447 942.563 20.8447 945.587 Q20.8447 950.839 22.8817 953.703 Q24.9187 956.536 28.6745 956.536 Q31.8255 956.536 33.4488 954.658 Q35.0402 952.749 36.0269 947.465 L36.8226 943.582 Q38.1912 936.389 41.6605 932.983 Q45.098 929.546 50.8908 929.546 Q57.7976 929.546 61.3624 934.193 Q64.9272 938.808 64.9272 947.751 Q64.9272 951.125 64.1633 954.945 Q63.3994 958.732 61.9035 962.806 L55.2831 962.806 Q57.4793 958.891 58.5933 955.136 Q59.7073 951.38 59.7073 947.751 Q59.7073 942.245 57.543 939.253 Q55.3786 936.261 51.3682 936.261 Q47.8671 936.261 45.8937 938.426 Q43.9204 940.558 42.9337 945.46 L42.1698 949.375 Q40.7375 956.568 37.682 959.783 Q34.6264 962.997 29.1837 962.997 Q22.8817 962.997 19.2532 958.573 Q15.6248 954.117 15.6248 946.319 Q15.6248 942.977 16.2295 939.508 Q16.8343 936.039 18.0438 932.41 Z" fill="#000000" fill-rule="evenodd" fill-opacity="1" /><path clip-path="url(#clip840)" d="M44.7161 889.282 L47.5806 889.282 L47.5806 916.209 Q53.6281 915.827 56.8109 912.581 Q59.9619 909.303 59.9619 903.478 Q59.9619 900.104 59.1344 896.953 Q58.3069 893.77 56.6518 890.651 L62.1899 890.651 Q63.5267 893.802 64.227 897.112 Q64.9272 900.422 64.9272 903.828 Q64.9272 912.358 59.9619 917.355 Q54.9967 922.32 46.5303 922.32 Q37.7774 922.32 32.6531 917.61 Q27.4968 912.867 27.4968 904.847 Q27.4968 897.653 32.1438 893.484 Q36.7589 889.282 44.7161 889.282 M42.9973 895.139 Q38.1912 895.203 35.3266 897.844 Q32.4621 900.454 32.4621 904.783 Q32.4621 909.685 35.2312 912.645 Q38.0002 915.573 43.0292 916.018 L42.9973 895.139 Z" fill="#000000" fill-rule="evenodd" fill-opacity="1" /><path clip-path="url(#clip840)" d="M29.7248 854.016 L35.1993 854.016 Q33.8307 856.499 33.1623 859.014 Q32.4621 861.496 32.4621 864.042 Q32.4621 869.74 36.0905 872.891 Q39.6872 876.042 46.212 876.042 Q52.7369 876.042 56.3653 872.891 Q59.9619 869.74 59.9619 864.042 Q59.9619 861.496 59.2935 859.014 Q58.5933 856.499 57.2247 854.016 L62.6355 854.016 Q63.7814 856.467 64.3543 859.109 Q64.9272 861.719 64.9272 864.679 Q64.9272 872.732 59.8664 877.474 Q54.8057 882.217 46.212 882.217 Q37.491 882.217 32.4939 877.442 Q27.4968 872.636 27.4968 864.297 Q27.4968 861.592 28.0697 859.014 Q28.6108 856.435 29.7248 854.016 Z" fill="#000000" fill-rule="evenodd" fill-opacity="1" /><path clip-path="url(#clip840)" d="M32.4621 830.018 Q32.4621 834.728 36.1542 837.466 Q39.8145 840.203 46.212 840.203 Q52.6095 840.203 56.3017 837.497 Q59.9619 834.76 59.9619 830.018 Q59.9619 825.339 56.2698 822.602 Q52.5777 819.864 46.212 819.864 Q39.8781 819.864 36.186 822.602 Q32.4621 825.339 32.4621 830.018 M27.4968 830.018 Q27.4968 822.379 32.4621 818.018 Q37.4273 813.658 46.212 813.658 Q54.9649 813.658 59.9619 818.018 Q64.9272 822.379 64.9272 830.018 Q64.9272 837.688 59.9619 842.049 Q54.9649 846.378 46.212 846.378 Q37.4273 846.378 32.4621 842.049 Q27.4968 837.688 27.4968 830.018 Z" fill="#000000" fill-rule="evenodd" fill-opacity="1" /><path clip-path="url(#clip840)" d="M42.4881 774.318 L64.0042 774.318 L64.0042 780.174 L42.679 780.174 Q37.6183 780.174 35.1038 782.148 Q32.5894 784.121 32.5894 788.068 Q32.5894 792.81 35.6131 795.547 Q38.6368 798.285 43.8567 798.285 L64.0042 798.285 L64.0042 804.173 L28.3562 804.173 L28.3562 798.285 L33.8944 798.285 Q30.6797 796.184 29.0883 793.351 Q27.4968 790.487 27.4968 786.763 Q27.4968 780.62 31.3163 777.469 Q35.1038 774.318 42.4881 774.318 Z" fill="#000000" fill-rule="evenodd" fill-opacity="1" /><path clip-path="url(#clip840)" d="M33.7671 739.179 L14.479 739.179 L14.479 733.323 L64.0042 733.323 L64.0042 739.179 L58.657 739.179 Q61.8398 741.025 63.3994 743.858 Q64.9272 746.659 64.9272 750.606 Q64.9272 757.067 59.771 761.141 Q54.6147 765.183 46.212 765.183 Q37.8093 765.183 32.6531 761.141 Q27.4968 757.067 27.4968 750.606 Q27.4968 746.659 29.0564 743.858 Q30.5842 741.025 33.7671 739.179 M46.212 759.136 Q52.6732 759.136 56.3653 756.494 Q60.0256 753.82 60.0256 749.173 Q60.0256 744.526 56.3653 741.853 Q52.6732 739.179 46.212 739.179 Q39.7508 739.179 36.0905 741.853 Q32.3984 744.526 32.3984 749.173 Q32.3984 753.82 36.0905 756.494 Q39.7508 759.136 46.212 759.136 Z" fill="#000000" fill-rule="evenodd" fill-opacity="1" /><path clip-path="url(#clip840)" d="M918.127 42.336 L926.391 42.336 L939.111 93.4584 L951.79 42.336 L960.986 42.336 L973.706 93.4584 L986.385 42.336 L994.689 42.336 L979.498 102.816 L969.209 102.816 L956.449 50.3163 L943.567 102.816 L933.278 102.816 L918.127 42.336 Z" fill="#000000" fill-rule="evenodd" fill-opacity="1" /><path clip-path="url(#clip840)" d="M1027.79 64.4134 Q1026.53 63.6843 1025.03 63.3602 Q1023.57 62.9956 1021.79 62.9956 Q1015.47 62.9956 1012.07 67.1275 Q1008.71 71.2189 1008.71 78.9157 L1008.71 102.816 L1001.21 102.816 L1001.21 57.4459 L1008.71 57.4459 L1008.71 64.4944 Q1011.06 60.3625 1014.82 58.3776 Q1018.59 56.3521 1023.98 56.3521 Q1024.75 56.3521 1025.68 56.4737 Q1026.61 56.5547 1027.74 56.7572 L1027.79 64.4134 Z" fill="#000000" fill-rule="evenodd" fill-opacity="1" /><path clip-path="url(#clip840)" d="M1035.6 57.4459 L1043.06 57.4459 L1043.06 102.816 L1035.6 102.816 L1035.6 57.4459 M1035.6 39.7839 L1043.06 39.7839 L1043.06 49.2225 L1035.6 49.2225 L1035.6 39.7839 Z" fill="#000000" fill-rule="evenodd" fill-opacity="1" /><path clip-path="url(#clip840)" d="M1066.03 44.564 L1066.03 57.4459 L1081.38 57.4459 L1081.38 63.2387 L1066.03 63.2387 L1066.03 87.8682 Q1066.03 93.4179 1067.52 94.9978 Q1069.06 96.5776 1073.72 96.5776 L1081.38 96.5776 L1081.38 102.816 L1073.72 102.816 Q1065.09 102.816 1061.81 99.6158 Q1058.53 96.3751 1058.53 87.8682 L1058.53 63.2387 L1053.06 63.2387 L1053.06 57.4459 L1058.53 57.4459 L1058.53 44.564 L1066.03 44.564 Z" fill="#000000" fill-rule="evenodd" fill-opacity="1" /><path clip-path="url(#clip840)" d="M1129.99 78.2675 L1129.99 81.9133 L1095.72 81.9133 Q1096.21 89.6101 1100.34 93.661 Q1104.51 97.6714 1111.92 97.6714 Q1116.22 97.6714 1120.23 96.6181 Q1124.28 95.5649 1128.25 93.4584 L1128.25 100.507 Q1124.24 102.208 1120.02 103.1 Q1115.81 103.991 1111.48 103.991 Q1100.62 103.991 1094.26 97.6714 Q1087.94 91.3519 1087.94 80.5765 Q1087.94 69.4365 1093.94 62.9146 Q1099.97 56.3521 1110.18 56.3521 Q1119.34 56.3521 1124.64 62.2664 Q1129.99 68.1403 1129.99 78.2675 M1122.54 76.08 Q1122.45 69.9632 1119.09 66.3174 Q1115.77 62.6715 1110.26 62.6715 Q1104.02 62.6715 1100.26 66.1958 Q1096.53 69.7201 1095.96 76.1205 L1122.54 76.08 Z" fill="#000000" fill-rule="evenodd" fill-opacity="1" /><path clip-path="url(#clip840)" d="M1177.1 49.0605 L1177.1 71.7861 L1187.39 71.7861 Q1193.1 71.7861 1196.22 68.8289 Q1199.34 65.8718 1199.34 60.403 Q1199.34 54.9748 1196.22 52.0177 Q1193.1 49.0605 1187.39 49.0605 L1177.1 49.0605 M1168.92 42.336 L1187.39 42.336 Q1197.56 42.336 1202.74 46.954 Q1207.97 51.5316 1207.97 60.403 Q1207.97 69.3555 1202.74 73.9331 Q1197.56 78.5106 1187.39 78.5106 L1177.1 78.5106 L1177.1 102.816 L1168.92 102.816 L1168.92 42.336 Z" fill="#000000" fill-rule="evenodd" fill-opacity="1" /><path clip-path="url(#clip840)" d="M1254.47 78.2675 L1254.47 81.9133 L1220.2 81.9133 Q1220.69 89.6101 1224.82 93.661 Q1228.99 97.6714 1236.41 97.6714 Q1240.7 97.6714 1244.71 96.6181 Q1248.76 95.5649 1252.73 93.4584 L1252.73 100.507 Q1248.72 102.208 1244.51 103.1 Q1240.3 103.991 1235.96 103.991 Q1225.1 103.991 1218.74 97.6714 Q1212.43 91.3519 1212.43 80.5765 Q1212.43 69.4365 1218.42 62.9146 Q1224.46 56.3521 1234.66 56.3521 Q1243.82 56.3521 1249.13 62.2664 Q1254.47 68.1403 1254.47 78.2675 M1247.02 76.08 Q1246.94 69.9632 1243.58 66.3174 Q1240.26 62.6715 1234.75 62.6715 Q1228.51 62.6715 1224.74 66.1958 Q1221.01 69.7201 1220.45 76.1205 L1247.02 76.08 Z" fill="#000000" fill-rule="evenodd" fill-opacity="1" /><path clip-path="url(#clip840)" d="M1293 64.4134 Q1291.74 63.6843 1290.24 63.3602 Q1288.79 62.9956 1287 62.9956 Q1280.68 62.9956 1277.28 67.1275 Q1273.92 71.2189 1273.92 78.9157 L1273.92 102.816 L1266.42 102.816 L1266.42 57.4459 L1273.92 57.4459 L1273.92 64.4944 Q1276.27 60.3625 1280.04 58.3776 Q1283.8 56.3521 1289.19 56.3521 Q1289.96 56.3521 1290.89 56.4737 Q1291.82 56.5547 1292.96 56.7572 L1293 64.4134 Z" fill="#000000" fill-rule="evenodd" fill-opacity="1" /><path clip-path="url(#clip840)" d="M1323.78 39.7839 L1323.78 45.9818 L1316.66 45.9818 Q1312.64 45.9818 1311.07 47.6022 Q1309.53 49.2225 1309.53 53.4355 L1309.53 57.4459 L1321.8 57.4459 L1321.8 63.2387 L1309.53 63.2387 L1309.53 102.816 L1302.03 102.816 L1302.03 63.2387 L1294.9 63.2387 L1294.9 57.4459 L1302.03 57.4459 L1302.03 54.2862 Q1302.03 46.711 1305.56 43.2677 Q1309.08 39.7839 1316.74 39.7839 L1323.78 39.7839 Z" fill="#000000" fill-rule="evenodd" fill-opacity="1" /><path clip-path="url(#clip840)" d="M1347.6 62.6715 Q1341.61 62.6715 1338.13 67.3706 Q1334.64 72.0291 1334.64 80.1714 Q1334.64 88.3138 1338.08 93.0128 Q1341.57 97.6714 1347.6 97.6714 Q1353.56 97.6714 1357.04 92.9723 Q1360.53 88.2733 1360.53 80.1714 Q1360.53 72.1101 1357.04 67.4111 Q1353.56 62.6715 1347.6 62.6715 M1347.6 56.3521 Q1357.33 56.3521 1362.88 62.6715 Q1368.43 68.9909 1368.43 80.1714 Q1368.43 91.3114 1362.88 97.6714 Q1357.33 103.991 1347.6 103.991 Q1337.84 103.991 1332.29 97.6714 Q1326.78 91.3114 1326.78 80.1714 Q1326.78 68.9909 1332.29 62.6715 Q1337.84 56.3521 1347.6 56.3521 Z" fill="#000000" fill-rule="evenodd" fill-opacity="1" /><path clip-path="url(#clip840)" d="M1407.07 64.4134 Q1405.82 63.6843 1404.32 63.3602 Q1402.86 62.9956 1401.08 62.9956 Q1394.76 62.9956 1391.35 67.1275 Q1387.99 71.2189 1387.99 78.9157 L1387.99 102.816 L1380.5 102.816 L1380.5 57.4459 L1387.99 57.4459 L1387.99 64.4944 Q1390.34 60.3625 1394.11 58.3776 Q1397.88 56.3521 1403.26 56.3521 Q1404.03 56.3521 1404.96 56.4737 Q1405.9 56.5547 1407.03 56.7572 L1407.07 64.4134 Z" fill="#000000" fill-rule="evenodd" fill-opacity="1" /><path clip-path="url(#clip840)" d="M1448.76 66.1553 Q1451.55 61.1322 1455.44 58.7422 Q1459.33 56.3521 1464.59 56.3521 Q1471.68 56.3521 1475.53 61.3347 Q1479.38 66.2768 1479.38 75.4319 L1479.38 102.816 L1471.89 102.816 L1471.89 75.6749 Q1471.89 69.153 1469.58 65.9933 Q1467.27 62.8336 1462.53 62.8336 Q1456.74 62.8336 1453.37 66.6819 Q1450.01 70.5303 1450.01 77.1738 L1450.01 102.816 L1442.52 102.816 L1442.52 75.6749 Q1442.52 69.1125 1440.21 65.9933 Q1437.9 62.8336 1433.08 62.8336 Q1427.37 62.8336 1424 66.7224 Q1420.64 70.5708 1420.64 77.1738 L1420.64 102.816 L1413.15 102.816 L1413.15 57.4459 L1420.64 57.4459 L1420.64 64.4944 Q1423.19 60.322 1426.76 58.3371 Q1430.32 56.3521 1435.23 56.3521 Q1440.17 56.3521 1443.61 58.8637 Q1447.09 61.3752 1448.76 66.1553 Z" fill="#000000" fill-rule="evenodd" fill-opacity="1" /><path clip-path="url(#clip840)" d="M1514.87 80.0094 Q1505.83 80.0094 1502.35 82.0754 Q1498.86 84.1413 1498.86 89.1239 Q1498.86 93.0938 1501.46 95.4434 Q1504.09 97.7524 1508.59 97.7524 Q1514.78 97.7524 1518.51 93.3774 Q1522.28 88.9619 1522.28 81.6703 L1522.28 80.0094 L1514.87 80.0094 M1529.73 76.9307 L1529.73 102.816 L1522.28 102.816 L1522.28 95.9295 Q1519.73 100.061 1515.92 102.046 Q1512.11 103.991 1506.6 103.991 Q1499.63 103.991 1495.5 100.102 Q1491.41 96.1725 1491.41 89.6101 Q1491.41 81.9538 1496.52 78.065 Q1501.66 74.1761 1511.83 74.1761 L1522.28 74.1761 L1522.28 73.4469 Q1522.28 68.3023 1518.88 65.5072 Q1515.51 62.6715 1509.4 62.6715 Q1505.51 62.6715 1501.82 63.6032 Q1498.14 64.535 1494.73 66.3984 L1494.73 59.5118 Q1498.82 57.932 1502.67 57.1623 Q1506.52 56.3521 1510.17 56.3521 Q1520.01 56.3521 1524.87 61.4563 Q1529.73 66.5604 1529.73 76.9307 Z" fill="#000000" fill-rule="evenodd" fill-opacity="1" /><path clip-path="url(#clip840)" d="M1582.8 75.4319 L1582.8 102.816 L1575.35 102.816 L1575.35 75.6749 Q1575.35 69.234 1572.83 66.0338 Q1570.32 62.8336 1565.3 62.8336 Q1559.26 62.8336 1555.78 66.6819 Q1552.3 70.5303 1552.3 77.1738 L1552.3 102.816 L1544.8 102.816 L1544.8 57.4459 L1552.3 57.4459 L1552.3 64.4944 Q1554.97 60.403 1558.58 58.3776 Q1562.22 56.3521 1566.96 56.3521 Q1574.78 56.3521 1578.79 61.2132 Q1582.8 66.0338 1582.8 75.4319 Z" fill="#000000" fill-rule="evenodd" fill-opacity="1" /><path clip-path="url(#clip840)" d="M1630.32 59.1878 L1630.32 66.1553 Q1627.16 64.4134 1623.96 63.5627 Q1620.8 62.6715 1617.56 62.6715 Q1610.31 62.6715 1606.29 67.2896 Q1602.28 71.8671 1602.28 80.1714 Q1602.28 88.4758 1606.29 93.0938 Q1610.31 97.6714 1617.56 97.6714 Q1620.8 97.6714 1623.96 96.8207 Q1627.16 95.9295 1630.32 94.1876 L1630.32 101.074 Q1627.2 102.532 1623.84 103.262 Q1620.51 103.991 1616.75 103.991 Q1606.5 103.991 1600.46 97.5498 Q1594.43 91.1089 1594.43 80.1714 Q1594.43 69.072 1600.5 62.712 Q1606.62 56.3521 1617.23 56.3521 Q1620.68 56.3521 1623.96 57.0813 Q1627.24 57.7699 1630.32 59.1878 Z" fill="#000000" fill-rule="evenodd" fill-opacity="1" /><path clip-path="url(#clip840)" d="M1682.09 78.2675 L1682.09 81.9133 L1647.82 81.9133 Q1648.3 89.6101 1652.43 93.661 Q1656.61 97.6714 1664.02 97.6714 Q1668.31 97.6714 1672.32 96.6181 Q1676.38 95.5649 1680.35 93.4584 L1680.35 100.507 Q1676.34 102.208 1672.12 103.1 Q1667.91 103.991 1663.57 103.991 Q1652.72 103.991 1646.36 97.6714 Q1640.04 91.3519 1640.04 80.5765 Q1640.04 69.4365 1646.03 62.9146 Q1652.07 56.3521 1662.28 56.3521 Q1671.43 56.3521 1676.74 62.2664 Q1682.09 68.1403 1682.09 78.2675 M1674.63 76.08 Q1674.55 69.9632 1671.19 66.3174 Q1667.87 62.6715 1662.36 62.6715 Q1656.12 62.6715 1652.35 66.1958 Q1648.63 69.7201 1648.06 76.1205 L1674.63 76.08 Z" fill="#000000" fill-rule="evenodd" fill-opacity="1" /><path clip-path="url(#clip840)" d="M951 139.781 L951 186.811 L960.885 186.811 Q973.402 186.811 979.195 181.14 Q985.028 175.469 985.028 163.235 Q985.028 151.083 979.195 145.452 Q973.402 139.781 960.885 139.781 L951 139.781 M942.818 133.056 L959.629 133.056 Q977.21 133.056 985.433 140.388 Q993.656 147.68 993.656 163.235 Q993.656 178.872 985.393 186.204 Q977.129 193.536 959.629 193.536 L942.818 193.536 L942.818 133.056 Z" fill="#000000" fill-rule="evenodd" fill-opacity="1" /><path clip-path="url(#clip840)" d="M1027 170.729 Q1017.96 170.729 1014.48 172.795 Q1010.99 174.861 1010.99 179.844 Q1010.99 183.814 1013.59 186.163 Q1016.22 188.472 1020.72 188.472 Q1026.91 188.472 1030.64 184.097 Q1034.41 179.682 1034.41 172.39 L1034.41 170.729 L1027 170.729 M1041.86 167.651 L1041.86 193.536 L1034.41 193.536 L1034.41 186.649 Q1031.86 190.781 1028.05 192.766 Q1024.24 194.711 1018.73 194.711 Q1011.76 194.711 1007.63 190.822 Q1003.54 186.893 1003.54 180.33 Q1003.54 172.674 1008.64 168.785 Q1013.79 164.896 1023.96 164.896 L1034.41 164.896 L1034.41 164.167 Q1034.41 159.022 1031.01 156.227 Q1027.64 153.392 1021.53 153.392 Q1017.64 153.392 1013.95 154.323 Q1010.27 155.255 1006.86 157.118 L1006.86 150.232 Q1010.95 148.652 1014.8 147.882 Q1018.65 147.072 1022.3 147.072 Q1032.14 147.072 1037 152.176 Q1041.86 157.28 1041.86 167.651 Z" fill="#000000" fill-rule="evenodd" fill-opacity="1" /><path clip-path="url(#clip840)" d="M1064.59 135.284 L1064.59 148.166 L1079.94 148.166 L1079.94 153.959 L1064.59 153.959 L1064.59 178.588 Q1064.59 184.138 1066.09 185.718 Q1067.63 187.298 1072.28 187.298 L1079.94 187.298 L1079.94 193.536 L1072.28 193.536 Q1063.66 193.536 1060.37 190.336 Q1057.09 187.095 1057.09 178.588 L1057.09 153.959 L1051.62 153.959 L1051.62 148.166 L1057.09 148.166 L1057.09 135.284 L1064.59 135.284 Z" fill="#000000" fill-rule="evenodd" fill-opacity="1" /><path clip-path="url(#clip840)" d="M1110.36 170.729 Q1101.33 170.729 1097.85 172.795 Q1094.36 174.861 1094.36 179.844 Q1094.36 183.814 1096.95 186.163 Q1099.59 188.472 1104.08 188.472 Q1110.28 188.472 1114.01 184.097 Q1117.78 179.682 1117.78 172.39 L1117.78 170.729 L1110.36 170.729 M1125.23 167.651 L1125.23 193.536 L1117.78 193.536 L1117.78 186.649 Q1115.22 190.781 1111.42 192.766 Q1107.61 194.711 1102.1 194.711 Q1095.13 194.711 1091 190.822 Q1086.91 186.893 1086.91 180.33 Q1086.91 172.674 1092.01 168.785 Q1097.16 164.896 1107.32 164.896 L1117.78 164.896 L1117.78 164.167 Q1117.78 159.022 1114.37 156.227 Q1111.01 153.392 1104.89 153.392 Q1101.01 153.392 1097.32 154.323 Q1093.63 155.255 1090.23 157.118 L1090.23 150.232 Q1094.32 148.652 1098.17 147.882 Q1102.02 147.072 1105.66 147.072 Q1115.51 147.072 1120.37 152.176 Q1125.23 157.28 1125.23 167.651 Z" fill="#000000" fill-rule="evenodd" fill-opacity="1" /><path clip-path="url(#clip840)" d="M1140.91 133.056 L1175.66 133.056 L1175.66 139.943 L1149.09 139.943 L1149.09 157.767 L1173.07 157.767 L1173.07 164.653 L1149.09 164.653 L1149.09 193.536 L1140.91 193.536 L1140.91 133.056 Z" fill="#000000" fill-rule="evenodd" fill-opacity="1" /><path clip-path="url(#clip840)" d="M1208.56 155.133 Q1207.3 154.404 1205.8 154.08 Q1204.34 153.716 1202.56 153.716 Q1196.24 153.716 1192.84 157.848 Q1189.48 161.939 1189.48 169.636 L1189.48 193.536 L1181.98 193.536 L1181.98 148.166 L1189.48 148.166 L1189.48 155.214 Q1191.83 151.083 1195.59 149.098 Q1199.36 147.072 1204.75 147.072 Q1205.52 147.072 1206.45 147.194 Q1207.38 147.275 1208.52 147.477 L1208.56 155.133 Z" fill="#000000" fill-rule="evenodd" fill-opacity="1" /><path clip-path="url(#clip840)" d="M1236.99 170.729 Q1227.96 170.729 1224.48 172.795 Q1220.99 174.861 1220.99 179.844 Q1220.99 183.814 1223.59 186.163 Q1226.22 188.472 1230.72 188.472 Q1236.91 188.472 1240.64 184.097 Q1244.41 179.682 1244.41 172.39 L1244.41 170.729 L1236.99 170.729 M1251.86 167.651 L1251.86 193.536 L1244.41 193.536 L1244.41 186.649 Q1241.86 190.781 1238.05 192.766 Q1234.24 194.711 1228.73 194.711 Q1221.76 194.711 1217.63 190.822 Q1213.54 186.893 1213.54 180.33 Q1213.54 172.674 1218.64 168.785 Q1223.79 164.896 1233.96 164.896 L1244.41 164.896 L1244.41 164.167 Q1244.41 159.022 1241 156.227 Q1237.64 153.392 1231.53 153.392 Q1227.64 153.392 1223.95 154.323 Q1220.26 155.255 1216.86 157.118 L1216.86 150.232 Q1220.95 148.652 1224.8 147.882 Q1228.65 147.072 1232.3 147.072 Q1242.14 147.072 1247 152.176 Q1251.86 157.28 1251.86 167.651 Z" fill="#000000" fill-rule="evenodd" fill-opacity="1" /><path clip-path="url(#clip840)" d="M1302.54 156.875 Q1305.33 151.852 1309.22 149.462 Q1313.11 147.072 1318.38 147.072 Q1325.47 147.072 1329.31 152.055 Q1333.16 156.997 1333.16 166.152 L1333.16 193.536 L1325.67 193.536 L1325.67 166.395 Q1325.67 159.873 1323.36 156.713 Q1321.05 153.554 1316.31 153.554 Q1310.52 153.554 1307.16 157.402 Q1303.79 161.25 1303.79 167.894 L1303.79 193.536 L1296.3 193.536 L1296.3 166.395 Q1296.3 159.832 1293.99 156.713 Q1291.68 153.554 1286.86 153.554 Q1281.15 153.554 1277.79 157.442 Q1274.42 161.291 1274.42 167.894 L1274.42 193.536 L1266.93 193.536 L1266.93 148.166 L1274.42 148.166 L1274.42 155.214 Q1276.98 151.042 1280.54 149.057 Q1284.11 147.072 1289.01 147.072 Q1293.95 147.072 1297.39 149.584 Q1300.88 152.095 1302.54 156.875 Z" fill="#000000" fill-rule="evenodd" fill-opacity="1" /><path clip-path="url(#clip840)" d="M1386.84 168.988 L1386.84 172.633 L1352.57 172.633 Q1353.05 180.33 1357.18 184.381 Q1361.36 188.391 1368.77 188.391 Q1373.06 188.391 1377.07 187.338 Q1381.13 186.285 1385.1 184.178 L1385.1 191.227 Q1381.08 192.928 1376.87 193.82 Q1372.66 194.711 1368.32 194.711 Q1357.47 194.711 1351.11 188.391 Q1344.79 182.072 1344.79 171.297 Q1344.79 160.157 1350.78 153.635 Q1356.82 147.072 1367.03 147.072 Q1376.18 147.072 1381.49 152.986 Q1386.84 158.86 1386.84 168.988 M1379.38 166.8 Q1379.3 160.683 1375.94 157.037 Q1372.62 153.392 1367.11 153.392 Q1360.87 153.392 1357.1 156.916 Q1353.38 160.44 1352.81 166.841 L1379.38 166.8 Z" fill="#000000" fill-rule="evenodd" fill-opacity="1" /><path clip-path="url(#clip840)" d="M1400.97 183.247 L1409.52 183.247 L1409.52 193.536 L1400.97 193.536 L1400.97 183.247 M1400.97 150.637 L1409.52 150.637 L1409.52 160.926 L1400.97 160.926 L1400.97 150.637 Z" fill="#000000" fill-rule="evenodd" fill-opacity="1" /><path clip-path="url(#clip840)" d="M1485.96 170.891 Q1485.96 162.668 1482.56 158.01 Q1479.2 153.311 1473.28 153.311 Q1467.37 153.311 1463.97 158.01 Q1460.6 162.668 1460.6 170.891 Q1460.6 179.115 1463.97 183.814 Q1467.37 188.472 1473.28 188.472 Q1479.2 188.472 1482.56 183.814 Q1485.96 179.115 1485.96 170.891 M1460.6 155.052 Q1462.95 151.002 1466.52 149.057 Q1470.12 147.072 1475.11 147.072 Q1483.37 147.072 1488.51 153.635 Q1493.7 160.197 1493.7 170.891 Q1493.7 181.586 1488.51 188.148 Q1483.37 194.711 1475.11 194.711 Q1470.12 194.711 1466.52 192.766 Q1462.95 190.781 1460.6 186.73 L1460.6 193.536 L1453.11 193.536 L1453.11 130.504 L1460.6 130.504 L1460.6 155.052 Z" fill="#000000" fill-rule="evenodd" fill-opacity="1" /><path clip-path="url(#clip840)" d="M1506.06 148.166 L1513.51 148.166 L1513.51 193.536 L1506.06 193.536 L1506.06 148.166 M1506.06 130.504 L1513.51 130.504 L1513.51 139.943 L1506.06 139.943 L1506.06 130.504 Z" fill="#000000" fill-rule="evenodd" fill-opacity="1" /><path clip-path="url(#clip840)" d="M1558.96 170.324 Q1558.96 162.223 1555.6 157.767 Q1552.28 153.311 1546.24 153.311 Q1540.24 153.311 1536.88 157.767 Q1533.56 162.223 1533.56 170.324 Q1533.56 178.386 1536.88 182.842 Q1540.24 187.298 1546.24 187.298 Q1552.28 187.298 1555.6 182.842 Q1558.96 178.386 1558.96 170.324 M1566.41 187.905 Q1566.41 199.491 1561.27 205.122 Q1556.12 210.793 1545.51 210.793 Q1541.58 210.793 1538.1 210.185 Q1534.61 209.618 1531.33 208.403 L1531.33 201.152 Q1534.61 202.934 1537.81 203.785 Q1541.01 204.635 1544.34 204.635 Q1551.67 204.635 1555.31 200.787 Q1558.96 196.979 1558.96 189.242 L1558.96 185.556 Q1556.65 189.566 1553.05 191.551 Q1549.44 193.536 1544.42 193.536 Q1536.07 193.536 1530.97 187.176 Q1525.86 180.816 1525.86 170.324 Q1525.86 159.792 1530.97 153.432 Q1536.07 147.072 1544.42 147.072 Q1549.44 147.072 1553.05 149.057 Q1556.65 151.042 1558.96 155.052 L1558.96 148.166 L1566.41 148.166 L1566.41 187.905 Z" fill="#000000" fill-rule="evenodd" fill-opacity="1" /><path clip-path="url(#clip840)" d="M1611.62 155.052 L1611.62 130.504 L1619.08 130.504 L1619.08 193.536 L1611.62 193.536 L1611.62 186.73 Q1609.27 190.781 1605.67 192.766 Q1602.1 194.711 1597.08 194.711 Q1588.86 194.711 1583.67 188.148 Q1578.53 181.586 1578.53 170.891 Q1578.53 160.197 1583.67 153.635 Q1588.86 147.072 1597.08 147.072 Q1602.1 147.072 1605.67 149.057 Q1609.27 151.002 1611.62 155.052 M1586.22 170.891 Q1586.22 179.115 1589.58 183.814 Q1592.99 188.472 1598.9 188.472 Q1604.82 188.472 1608.22 183.814 Q1611.62 179.115 1611.62 170.891 Q1611.62 162.668 1608.22 158.01 Q1604.82 153.311 1598.9 153.311 Q1592.99 153.311 1589.58 158.01 Q1586.22 162.668 1586.22 170.891 Z" fill="#000000" fill-rule="evenodd" fill-opacity="1" /><path clip-path="url(#clip840)" d="M1657.4 130.504 L1657.4 136.702 L1650.27 136.702 Q1646.26 136.702 1644.68 138.322 Q1643.14 139.943 1643.14 144.155 L1643.14 148.166 L1655.41 148.166 L1655.41 153.959 L1643.14 153.959 L1643.14 193.536 L1635.64 193.536 L1635.64 153.959 L1628.51 153.959 L1628.51 148.166 L1635.64 148.166 L1635.64 145.006 Q1635.64 137.431 1639.17 133.988 Q1642.69 130.504 1650.35 130.504 L1657.4 130.504 Z" fill="#000000" fill-rule="evenodd" fill-opacity="1" /><path clip-path="url(#clip840)" d="M936.761 225.761 L936.761 233.741 Q932.103 231.513 927.971 230.419 Q923.839 229.326 919.991 229.326 Q913.307 229.326 909.661 231.918 Q906.056 234.511 906.056 239.291 Q906.056 243.301 908.446 245.367 Q910.876 247.393 917.601 248.649 L922.543 249.661 Q931.698 251.403 936.032 255.819 Q940.407 260.194 940.407 267.566 Q940.407 276.357 934.493 280.894 Q928.619 285.431 917.236 285.431 Q912.942 285.431 908.081 284.459 Q903.26 283.486 898.075 281.582 L898.075 273.157 Q903.058 275.952 907.838 277.369 Q912.618 278.787 917.236 278.787 Q924.244 278.787 928.052 276.033 Q931.86 273.278 931.86 268.174 Q931.86 263.718 929.105 261.206 Q926.391 258.695 920.153 257.439 L915.17 256.467 Q906.015 254.644 901.924 250.755 Q897.832 246.866 897.832 239.939 Q897.832 231.918 903.463 227.3 Q909.134 222.682 919.059 222.682 Q923.312 222.682 927.728 223.452 Q932.143 224.222 936.761 225.761 Z" fill="#000000" fill-rule="evenodd" fill-opacity="1" /><path clip-path="url(#clip840)" d="M952.844 238.886 L960.297 238.886 L960.297 284.256 L952.844 284.256 L952.844 238.886 M952.844 221.224 L960.297 221.224 L960.297 230.663 L952.844 230.663 L952.844 221.224 Z" fill="#000000" fill-rule="evenodd" fill-opacity="1" /><path clip-path="url(#clip840)" d="M972.652 238.886 L1008.06 238.886 L1008.06 245.691 L980.025 278.301 L1008.06 278.301 L1008.06 284.256 L971.64 284.256 L971.64 277.45 L999.672 244.841 L972.652 244.841 L972.652 238.886 Z" fill="#000000" fill-rule="evenodd" fill-opacity="1" /><path clip-path="url(#clip840)" d="M1058.25 259.708 L1058.25 263.353 L1023.98 263.353 Q1024.46 271.05 1028.6 275.101 Q1032.77 279.111 1040.18 279.111 Q1044.47 279.111 1048.49 278.058 Q1052.54 277.005 1056.51 274.898 L1056.51 281.947 Q1052.5 283.648 1048.28 284.54 Q1044.07 285.431 1039.74 285.431 Q1028.88 285.431 1022.52 279.111 Q1016.2 272.792 1016.2 262.017 Q1016.2 250.877 1022.2 244.355 Q1028.23 237.792 1038.44 237.792 Q1047.59 237.792 1052.9 243.706 Q1058.25 249.58 1058.25 259.708 M1050.79 257.52 Q1050.71 251.403 1047.35 247.757 Q1044.03 244.112 1038.52 244.112 Q1032.28 244.112 1028.51 247.636 Q1024.79 251.16 1024.22 257.561 L1050.79 257.52 Z" fill="#000000" fill-rule="evenodd" fill-opacity="1" /><path clip-path="url(#clip840)" d="M1072.39 273.967 L1080.93 273.967 L1080.93 284.256 L1072.39 284.256 L1072.39 273.967 M1072.39 241.357 L1080.93 241.357 L1080.93 251.646 L1072.39 251.646 L1072.39 241.357 Z" fill="#000000" fill-rule="evenodd" fill-opacity="1" /><path clip-path="url(#clip840)" d="M1142.71 221.305 Q1137.28 230.622 1134.65 239.737 Q1132.02 248.851 1132.02 258.209 Q1132.02 267.566 1134.65 276.762 Q1137.32 285.917 1142.71 295.193 L1136.23 295.193 Q1130.15 285.674 1127.11 276.478 Q1124.12 267.283 1124.12 258.209 Q1124.12 249.175 1127.11 240.02 Q1130.11 230.865 1136.23 221.305 L1142.71 221.305 Z" fill="#000000" fill-rule="evenodd" fill-opacity="1" /><path clip-path="url(#clip840)" d="M1159.64 277.369 L1173.01 277.369 L1173.01 231.23 L1158.47 234.146 L1158.47 226.693 L1172.93 223.776 L1181.11 223.776 L1181.11 277.369 L1194.48 277.369 L1194.48 284.256 L1159.64 284.256 L1159.64 277.369 Z" fill="#000000" fill-rule="evenodd" fill-opacity="1" /><path clip-path="url(#clip840)" d="M1228.51 229.164 Q1222.19 229.164 1218.99 235.402 Q1215.83 241.6 1215.83 254.077 Q1215.83 266.513 1218.99 272.751 Q1222.19 278.949 1228.51 278.949 Q1234.87 278.949 1238.03 272.751 Q1241.23 266.513 1241.23 254.077 Q1241.23 241.6 1238.03 235.402 Q1234.87 229.164 1228.51 229.164 M1228.51 222.682 Q1238.68 222.682 1244.02 230.744 Q1249.41 238.764 1249.41 254.077 Q1249.41 269.349 1244.02 277.41 Q1238.68 285.431 1228.51 285.431 Q1218.34 285.431 1212.95 277.41 Q1207.6 269.349 1207.6 254.077 Q1207.6 238.764 1212.95 230.744 Q1218.34 222.682 1228.51 222.682 Z" fill="#000000" fill-rule="evenodd" fill-opacity="1" /><path clip-path="url(#clip840)" d="M1281.29 229.164 Q1274.97 229.164 1271.77 235.402 Q1268.61 241.6 1268.61 254.077 Q1268.61 266.513 1271.77 272.751 Q1274.97 278.949 1281.29 278.949 Q1287.65 278.949 1290.81 272.751 Q1294.01 266.513 1294.01 254.077 Q1294.01 241.6 1290.81 235.402 Q1287.65 229.164 1281.29 229.164 M1281.29 222.682 Q1291.46 222.682 1296.81 230.744 Q1302.19 238.764 1302.19 254.077 Q1302.19 269.349 1296.81 277.41 Q1291.46 285.431 1281.29 285.431 Q1271.12 285.431 1265.74 277.41 Q1260.39 269.349 1260.39 254.077 Q1260.39 238.764 1265.74 230.744 Q1271.12 222.682 1281.29 222.682 Z" fill="#000000" fill-rule="evenodd" fill-opacity="1" /><path clip-path="url(#clip840)" d="M1334.07 229.164 Q1327.75 229.164 1324.55 235.402 Q1321.39 241.6 1321.39 254.077 Q1321.39 266.513 1324.55 272.751 Q1327.75 278.949 1334.07 278.949 Q1340.43 278.949 1343.59 272.751 Q1346.79 266.513 1346.79 254.077 Q1346.79 241.6 1343.59 235.402 Q1340.43 229.164 1334.07 229.164 M1334.07 222.682 Q1344.24 222.682 1349.59 230.744 Q1354.98 238.764 1354.98 254.077 Q1354.98 269.349 1349.59 277.41 Q1344.24 285.431 1334.07 285.431 Q1323.91 285.431 1318.52 277.41 Q1313.17 269.349 1313.17 254.077 Q1313.17 238.764 1318.52 230.744 Q1323.91 222.682 1334.07 222.682 Z" fill="#000000" fill-rule="evenodd" fill-opacity="1" /><path clip-path="url(#clip840)" d="M1386.86 229.164 Q1380.54 229.164 1377.34 235.402 Q1374.18 241.6 1374.18 254.077 Q1374.18 266.513 1377.34 272.751 Q1380.54 278.949 1386.86 278.949 Q1393.22 278.949 1396.38 272.751 Q1399.58 266.513 1399.58 254.077 Q1399.58 241.6 1396.38 235.402 Q1393.22 229.164 1386.86 229.164 M1386.86 222.682 Q1397.03 222.682 1402.37 230.744 Q1407.76 238.764 1407.76 254.077 Q1407.76 269.349 1402.37 277.41 Q1397.03 285.431 1386.86 285.431 Q1376.69 285.431 1371.3 277.41 Q1365.95 269.349 1365.95 254.077 Q1365.95 238.764 1371.3 230.744 Q1376.69 222.682 1386.86 222.682 Z" fill="#000000" fill-rule="evenodd" fill-opacity="1" /><path clip-path="url(#clip840)" d="M1422.99 273.967 L1431.54 273.967 L1431.54 280.934 L1424.9 293.897 L1419.67 293.897 L1422.99 280.934 L1422.99 273.967 Z" fill="#000000" fill-rule="evenodd" fill-opacity="1" /><path clip-path="url(#clip840)" d="M1476.3 277.369 L1489.67 277.369 L1489.67 231.23 L1475.13 234.146 L1475.13 226.693 L1489.59 223.776 L1497.77 223.776 L1497.77 277.369 L1511.14 277.369 L1511.14 284.256 L1476.3 284.256 L1476.3 277.369 Z" fill="#000000" fill-rule="evenodd" fill-opacity="1" /><path clip-path="url(#clip840)" d="M1545.17 229.164 Q1538.85 229.164 1535.65 235.402 Q1532.49 241.6 1532.49 254.077 Q1532.49 266.513 1535.65 272.751 Q1538.85 278.949 1545.17 278.949 Q1551.53 278.949 1554.69 272.751 Q1557.89 266.513 1557.89 254.077 Q1557.89 241.6 1554.69 235.402 Q1551.53 229.164 1545.17 229.164 M1545.17 222.682 Q1555.33 222.682 1560.68 230.744 Q1566.07 238.764 1566.07 254.077 Q1566.07 269.349 1560.68 277.41 Q1555.33 285.431 1545.17 285.431 Q1535 285.431 1529.61 277.41 Q1524.26 269.349 1524.26 254.077 Q1524.26 238.764 1529.61 230.744 Q1535 222.682 1545.17 222.682 Z" fill="#000000" fill-rule="evenodd" fill-opacity="1" /><path clip-path="url(#clip840)" d="M1597.95 229.164 Q1591.63 229.164 1588.43 235.402 Q1585.27 241.6 1585.27 254.077 Q1585.27 266.513 1588.43 272.751 Q1591.63 278.949 1597.95 278.949 Q1604.31 278.949 1607.47 272.751 Q1610.67 266.513 1610.67 254.077 Q1610.67 241.6 1607.47 235.402 Q1604.31 229.164 1597.95 229.164 M1597.95 222.682 Q1608.12 222.682 1613.47 230.744 Q1618.85 238.764 1618.85 254.077 Q1618.85 269.349 1613.47 277.41 Q1608.12 285.431 1597.95 285.431 Q1587.78 285.431 1582.39 277.41 Q1577.05 269.349 1577.05 254.077 Q1577.05 238.764 1582.39 230.744 Q1587.78 222.682 1597.95 222.682 Z" fill="#000000" fill-rule="evenodd" fill-opacity="1" /><path clip-path="url(#clip840)" d="M1650.73 229.164 Q1644.41 229.164 1641.21 235.402 Q1638.05 241.6 1638.05 254.077 Q1638.05 266.513 1641.21 272.751 Q1644.41 278.949 1650.73 278.949 Q1657.09 278.949 1660.25 272.751 Q1663.45 266.513 1663.45 254.077 Q1663.45 241.6 1660.25 235.402 Q1657.09 229.164 1650.73 229.164 M1650.73 222.682 Q1660.9 222.682 1666.25 230.744 Q1671.64 238.764 1671.64 254.077 Q1671.64 269.349 1666.25 277.41 Q1660.9 285.431 1650.73 285.431 Q1640.57 285.431 1635.18 277.41 Q1629.83 269.349 1629.83 254.077 Q1629.83 238.764 1635.18 230.744 Q1640.57 222.682 1650.73 222.682 Z" fill="#000000" fill-rule="evenodd" fill-opacity="1" /><path clip-path="url(#clip840)" d="M1683.79 221.305 L1690.27 221.305 Q1696.35 230.865 1699.34 240.02 Q1702.38 249.175 1702.38 258.209 Q1702.38 267.283 1699.34 276.478 Q1696.35 285.674 1690.27 295.193 L1683.79 295.193 Q1689.18 285.917 1691.81 276.762 Q1694.48 267.566 1694.48 258.209 Q1694.48 248.851 1691.81 239.737 Q1689.18 230.622 1683.79 221.305 Z" fill="#000000" fill-rule="evenodd" fill-opacity="1" /><path clip-path="url(#clip842)" d="
M359.582 1158.19 L359.582 1417.71 L489.31 1417.71 L489.31 1158.19 L359.582 1158.19 L359.582 1158.19  Z
  " fill="#009af9" fill-rule="evenodd" fill-opacity="1"/>
<polyline clip-path="url(#clip842)" style="stroke:#000000; stroke-linecap:butt; stroke-linejoin:round; stroke-width:4; stroke-opacity:1; fill:none" points="
  359.582,1158.19 359.582,1417.71 489.31,1417.71 489.31,1158.19 359.582,1158.19 
  "/>
<path clip-path="url(#clip842)" d="
M683.901 278.605 L683.901 1417.71 L813.629 1417.71 L813.629 278.605 L683.901 278.605 L683.901 278.605  Z
  " fill="#009af9" fill-rule="evenodd" fill-opacity="1"/>
<polyline clip-path="url(#clip842)" style="stroke:#000000; stroke-linecap:butt; stroke-linejoin:round; stroke-width:4; stroke-opacity:1; fill:none" points="
  683.901,278.605 683.901,1417.71 813.629,1417.71 813.629,278.605 683.901,278.605 
  "/>
<path clip-path="url(#clip842)" d="
M1008.22 1401.05 L1008.22 1417.71 L1137.95 1417.71 L1137.95 1401.05 L1008.22 1401.05 L1008.22 1401.05  Z
  " fill="#009af9" fill-rule="evenodd" fill-opacity="1"/>
<polyline clip-path="url(#clip842)" style="stroke:#000000; stroke-linecap:butt; stroke-linejoin:round; stroke-width:4; stroke-opacity:1; fill:none" points="
  1008.22,1401.05 1008.22,1417.71 1137.95,1417.71 1137.95,1401.05 1008.22,1401.05 
  "/>
<path clip-path="url(#clip842)" d="
M1332.54 1303.69 L1332.54 1417.71 L1462.27 1417.71 L1462.27 1303.69 L1332.54 1303.69 L1332.54 1303.69  Z
  " fill="#009af9" fill-rule="evenodd" fill-opacity="1"/>
<polyline clip-path="url(#clip842)" style="stroke:#000000; stroke-linecap:butt; stroke-linejoin:round; stroke-width:4; stroke-opacity:1; fill:none" points="
  1332.54,1303.69 1332.54,1417.71 1462.27,1417.71 1462.27,1303.69 1332.54,1303.69 
  "/>
<path clip-path="url(#clip842)" d="
M1656.86 1361.43 L1656.86 1417.71 L1786.59 1417.71 L1786.59 1361.43 L1656.86 1361.43 L1656.86 1361.43  Z
  " fill="#009af9" fill-rule="evenodd" fill-opacity="1"/>
<polyline clip-path="url(#clip842)" style="stroke:#000000; stroke-linecap:butt; stroke-linejoin:round; stroke-width:4; stroke-opacity:1; fill:none" points="
  1656.86,1361.43 1656.86,1417.71 1786.59,1417.71 1786.59,1361.43 1656.86,1361.43 
  "/>
<path clip-path="url(#clip842)" d="
M1981.18 1380.51 L1981.18 1417.71 L2110.9 1417.71 L2110.9 1380.51 L1981.18 1380.51 L1981.18 1380.51  Z
  " fill="#009af9" fill-rule="evenodd" fill-opacity="1"/>
<polyline clip-path="url(#clip842)" style="stroke:#000000; stroke-linecap:butt; stroke-linejoin:round; stroke-width:4; stroke-opacity:1; fill:none" points="
  1981.18,1380.51 1981.18,1417.71 2110.9,1417.71 2110.9,1380.51 1981.18,1380.51 
  "/>
<circle clip-path="url(#clip842)" style="fill:#009af9; stroke:none; fill-opacity:0" cx="424.446" cy="1158.19" r="2"/>
<circle clip-path="url(#clip842)" style="fill:#009af9; stroke:none; fill-opacity:0" cx="748.765" cy="278.605" r="2"/>
<circle clip-path="url(#clip842)" style="fill:#009af9; stroke:none; fill-opacity:0" cx="1073.08" cy="1401.05" r="2"/>
<circle clip-path="url(#clip842)" style="fill:#009af9; stroke:none; fill-opacity:0" cx="1397.4" cy="1303.69" r="2"/>
<circle clip-path="url(#clip842)" style="fill:#009af9; stroke:none; fill-opacity:0" cx="1721.72" cy="1361.43" r="2"/>
<circle clip-path="url(#clip842)" style="fill:#009af9; stroke:none; fill-opacity:0" cx="2046.04" cy="1380.51" r="2"/>
<path clip-path="url(#clip842)" d="
M489.31 1408.69 L489.31 1417.71 L619.037 1417.71 L619.037 1408.69 L489.31 1408.69 L489.31 1408.69  Z
  " fill="#e26f46" fill-rule="evenodd" fill-opacity="1"/>
<polyline clip-path="url(#clip842)" style="stroke:#000000; stroke-linecap:butt; stroke-linejoin:round; stroke-width:4; stroke-opacity:1; fill:none" points="
  489.31,1408.69 489.31,1417.71 619.037,1417.71 619.037,1408.69 489.31,1408.69 
  "/>
<path clip-path="url(#clip842)" d="
M813.629 911.824 L813.629 1417.71 L943.356 1417.71 L943.356 911.824 L813.629 911.824 L813.629 911.824  Z
  " fill="#e26f46" fill-rule="evenodd" fill-opacity="1"/>
<polyline clip-path="url(#clip842)" style="stroke:#000000; stroke-linecap:butt; stroke-linejoin:round; stroke-width:4; stroke-opacity:1; fill:none" points="
  813.629,911.824 813.629,1417.71 943.356,1417.71 943.356,911.824 813.629,911.824 
  "/>
<path clip-path="url(#clip842)" d="
M1137.95 1406.88 L1137.95 1417.71 L1267.68 1417.71 L1267.68 1406.88 L1137.95 1406.88 L1137.95 1406.88  Z
  " fill="#e26f46" fill-rule="evenodd" fill-opacity="1"/>
<polyline clip-path="url(#clip842)" style="stroke:#000000; stroke-linecap:butt; stroke-linejoin:round; stroke-width:4; stroke-opacity:1; fill:none" points="
  1137.95,1406.88 1137.95,1417.71 1267.68,1417.71 1267.68,1406.88 1137.95,1406.88 
  "/>
<path clip-path="url(#clip842)" d="
M1462.27 1312.59 L1462.27 1417.71 L1591.99 1417.71 L1591.99 1312.59 L1462.27 1312.59 L1462.27 1312.59  Z
  " fill="#e26f46" fill-rule="evenodd" fill-opacity="1"/>
<polyline clip-path="url(#clip842)" style="stroke:#000000; stroke-linecap:butt; stroke-linejoin:round; stroke-width:4; stroke-opacity:1; fill:none" points="
  1462.27,1312.59 1462.27,1417.71 1591.99,1417.71 1591.99,1312.59 1462.27,1312.59 
  "/>
<path clip-path="url(#clip842)" d="
M1786.59 1361.43 L1786.59 1417.71 L1916.31 1417.71 L1916.31 1361.43 L1786.59 1361.43 L1786.59 1361.43  Z
  " fill="#e26f46" fill-rule="evenodd" fill-opacity="1"/>
<polyline clip-path="url(#clip842)" style="stroke:#000000; stroke-linecap:butt; stroke-linejoin:round; stroke-width:4; stroke-opacity:1; fill:none" points="
  1786.59,1361.43 1786.59,1417.71 1916.31,1417.71 1916.31,1361.43 1786.59,1361.43 
  "/>
<path clip-path="url(#clip842)" d="
M2110.9 1380.51 L2110.9 1417.71 L2240.63 1417.71 L2240.63 1380.51 L2110.9 1380.51 L2110.9 1380.51  Z
  " fill="#e26f46" fill-rule="evenodd" fill-opacity="1"/>
<polyline clip-path="url(#clip842)" style="stroke:#000000; stroke-linecap:butt; stroke-linejoin:round; stroke-width:4; stroke-opacity:1; fill:none" points="
  2110.9,1380.51 2110.9,1417.71 2240.63,1417.71 2240.63,1380.51 2110.9,1380.51 
  "/>
<circle clip-path="url(#clip842)" style="fill:#e26f46; stroke:none; fill-opacity:0" cx="554.174" cy="1408.69" r="2"/>
<circle clip-path="url(#clip842)" style="fill:#e26f46; stroke:none; fill-opacity:0" cx="878.493" cy="911.824" r="2"/>
<circle clip-path="url(#clip842)" style="fill:#e26f46; stroke:none; fill-opacity:0" cx="1202.81" cy="1406.88" r="2"/>
<circle clip-path="url(#clip842)" style="fill:#e26f46; stroke:none; fill-opacity:0" cx="1527.13" cy="1312.59" r="2"/>
<circle clip-path="url(#clip842)" style="fill:#e26f46; stroke:none; fill-opacity:0" cx="1851.45" cy="1361.43" r="2"/>
<circle clip-path="url(#clip842)" style="fill:#e26f46; stroke:none; fill-opacity:0" cx="2175.77" cy="1380.51" r="2"/>
<path clip-path="url(#clip840)" d="
M1966.13 440.201 L2282.58 440.201 L2282.58 284.681 L1966.13 284.681  Z
  " fill="#ffffff" fill-rule="evenodd" fill-opacity="1"/>
<polyline clip-path="url(#clip840)" style="stroke:#000000; stroke-linecap:butt; stroke-linejoin:round; stroke-width:4; stroke-opacity:1; fill:none" points="
  1966.13,440.201 2282.58,440.201 2282.58,284.681 1966.13,284.681 1966.13,440.201 
  "/>
<path clip-path="url(#clip840)" d="
M1989.53 357.257 L2129.88 357.257 L2129.88 315.785 L1989.53 315.785 L1989.53 357.257  Z
  " fill="#009af9" fill-rule="evenodd" fill-opacity="1"/>
<polyline clip-path="url(#clip840)" style="stroke:#000000; stroke-linecap:butt; stroke-linejoin:round; stroke-width:4; stroke-opacity:1; fill:none" points="
  1989.53,357.257 2129.88,357.257 2129.88,315.785 1989.53,315.785 1989.53,357.257 
  "/>
<path clip-path="url(#clip840)" d="M2153.94 349.865 L2161.58 349.865 L2161.58 323.5 L2153.27 325.167 L2153.27 320.907 L2161.54 319.241 L2166.21 319.241 L2166.21 349.865 L2173.85 349.865 L2173.85 353.801 L2153.94 353.801 L2153.94 349.865 Z" fill="#000000" fill-rule="evenodd" fill-opacity="1" /><path clip-path="url(#clip840)" d="M2199.22 328.639 L2199.22 332.667 Q2197.42 331.741 2195.47 331.278 Q2193.53 330.815 2191.44 330.815 Q2188.27 330.815 2186.67 331.787 Q2185.1 332.759 2185.1 334.704 Q2185.1 336.185 2186.24 337.041 Q2187.37 337.875 2190.8 338.639 L2192.25 338.963 Q2196.79 339.935 2198.69 341.717 Q2200.61 343.477 2200.61 346.648 Q2200.61 350.259 2197.74 352.365 Q2194.89 354.472 2189.89 354.472 Q2187.81 354.472 2185.54 354.055 Q2183.3 353.662 2180.8 352.852 L2180.8 348.453 Q2183.16 349.68 2185.45 350.305 Q2187.74 350.907 2189.99 350.907 Q2192.99 350.907 2194.61 349.889 Q2196.23 348.847 2196.23 346.972 Q2196.23 345.236 2195.05 344.31 Q2193.9 343.384 2189.94 342.528 L2188.46 342.18 Q2184.5 341.347 2182.74 339.634 Q2180.98 337.898 2180.98 334.889 Q2180.98 331.231 2183.57 329.241 Q2186.17 327.25 2190.93 327.25 Q2193.3 327.25 2195.38 327.597 Q2197.46 327.944 2199.22 328.639 Z" fill="#000000" fill-rule="evenodd" fill-opacity="1" /><path clip-path="url(#clip840)" d="M2211.61 320.514 L2211.61 327.875 L2220.38 327.875 L2220.38 331.185 L2211.61 331.185 L2211.61 345.259 Q2211.61 348.43 2212.46 349.333 Q2213.34 350.236 2216 350.236 L2220.38 350.236 L2220.38 353.801 L2216 353.801 Q2211.07 353.801 2209.2 351.972 Q2207.32 350.12 2207.32 345.259 L2207.32 331.185 L2204.2 331.185 L2204.2 327.875 L2207.32 327.875 L2207.32 320.514 L2211.61 320.514 Z" fill="#000000" fill-rule="evenodd" fill-opacity="1" /><path clip-path="url(#clip840)" d="
M1989.53 409.097 L2129.88 409.097 L2129.88 367.625 L1989.53 367.625 L1989.53 409.097  Z
  " fill="#e26f46" fill-rule="evenodd" fill-opacity="1"/>
<polyline clip-path="url(#clip840)" style="stroke:#000000; stroke-linecap:butt; stroke-linejoin:round; stroke-width:4; stroke-opacity:1; fill:none" points="
  1989.53,409.097 2129.88,409.097 2129.88,367.625 1989.53,367.625 1989.53,409.097 
  "/>
<path clip-path="url(#clip840)" d="M2158.9 401.705 L2175.22 401.705 L2175.22 405.641 L2153.27 405.641 L2153.27 401.705 Q2155.93 398.951 2160.52 394.321 Q2165.12 389.669 2166.3 388.326 Q2168.55 385.803 2169.43 384.067 Q2170.33 382.307 2170.33 380.618 Q2170.33 377.863 2168.39 376.127 Q2166.47 374.391 2163.36 374.391 Q2161.17 374.391 2158.71 375.155 Q2156.28 375.919 2153.5 377.47 L2153.5 372.747 Q2156.33 371.613 2158.78 371.034 Q2161.24 370.456 2163.27 370.456 Q2168.64 370.456 2171.84 373.141 Q2175.03 375.826 2175.03 380.317 Q2175.03 382.446 2174.22 384.368 Q2173.43 386.266 2171.33 388.858 Q2170.75 389.53 2167.65 392.747 Q2164.55 395.942 2158.9 401.705 Z" fill="#000000" fill-rule="evenodd" fill-opacity="1" /><path clip-path="url(#clip840)" d="M2205.98 389.993 L2205.98 405.641 L2201.72 405.641 L2201.72 390.131 Q2201.72 386.451 2200.29 384.622 Q2198.85 382.794 2195.98 382.794 Q2192.53 382.794 2190.54 384.993 Q2188.55 387.192 2188.55 390.988 L2188.55 405.641 L2184.27 405.641 L2184.27 379.715 L2188.55 379.715 L2188.55 383.743 Q2190.08 381.405 2192.14 380.247 Q2194.22 379.09 2196.93 379.09 Q2201.4 379.09 2203.69 381.868 Q2205.98 384.622 2205.98 389.993 Z" fill="#000000" fill-rule="evenodd" fill-opacity="1" /><path clip-path="url(#clip840)" d="M2231.54 383.65 L2231.54 369.622 L2235.79 369.622 L2235.79 405.641 L2231.54 405.641 L2231.54 401.752 Q2230.19 404.067 2228.13 405.201 Q2226.1 406.312 2223.23 406.312 Q2218.53 406.312 2215.56 402.562 Q2212.62 398.812 2212.62 392.701 Q2212.62 386.59 2215.56 382.84 Q2218.53 379.09 2223.23 379.09 Q2226.1 379.09 2228.13 380.224 Q2230.19 381.335 2231.54 383.65 M2217.02 392.701 Q2217.02 397.4 2218.94 400.085 Q2220.89 402.747 2224.27 402.747 Q2227.65 402.747 2229.59 400.085 Q2231.54 397.4 2231.54 392.701 Q2231.54 388.002 2229.59 385.34 Q2227.65 382.655 2224.27 382.655 Q2220.89 382.655 2218.94 385.34 Q2217.02 388.002 2217.02 392.701 Z" fill="#000000" fill-rule="evenodd" fill-opacity="1" /></svg>
