<?xml version="1.0" encoding="utf-8"?>
<svg xmlns="http://www.w3.org/2000/svg" xmlns:xlink="http://www.w3.org/1999/xlink" width="600" height="400" viewBox="0 0 2400 1600">
<defs>
  <clipPath id="clip530">
    <rect x="0" y="0" width="2400" height="1600"/>
  </clipPath>
</defs>
<path clip-path="url(#clip530)" d="
M0 1600 L2400 1600 L2400 0 L0 0  Z
  " fill="#ffffff" fill-rule="evenodd" fill-opacity="1"/>
<defs>
  <clipPath id="clip531">
    <rect x="480" y="0" width="1681" height="1600"/>
  </clipPath>
</defs>
<path clip-path="url(#clip530)" d="
M170.857 1486.45 L2352.76 1486.45 L2352.76 47.2441 L170.857 47.2441  Z
  " fill="#ffffff" fill-rule="evenodd" fill-opacity="1"/>
<defs>
  <clipPath id="clip532">
    <rect x="170" y="47" width="2183" height="1440"/>
  </clipPath>
</defs>
<polyline clip-path="url(#clip532)" style="stroke:#000000; stroke-linecap:butt; stroke-linejoin:round; stroke-width:2; stroke-opacity:0.1; fill:none" points="
  440.241,1486.45 440.241,47.2441 
  "/>
<polyline clip-path="url(#clip532)" style="stroke:#000000; stroke-linecap:butt; stroke-linejoin:round; stroke-width:2; stroke-opacity:0.1; fill:none" points="
  738.992,1486.45 738.992,47.2441 
  "/>
<polyline clip-path="url(#clip532)" style="stroke:#000000; stroke-linecap:butt; stroke-linejoin:round; stroke-width:2; stroke-opacity:0.1; fill:none" points="
  1037.74,1486.45 1037.74,47.2441 
  "/>
<polyline clip-path="url(#clip532)" style="stroke:#000000; stroke-linecap:butt; stroke-linejoin:round; stroke-width:2; stroke-opacity:0.1; fill:none" points="
  1336.49,1486.45 1336.49,47.2441 
  "/>
<polyline clip-path="url(#clip532)" style="stroke:#000000; stroke-linecap:butt; stroke-linejoin:round; stroke-width:2; stroke-opacity:0.1; fill:none" points="
  1635.25,1486.45 1635.25,47.2441 
  "/>
<polyline clip-path="url(#clip532)" style="stroke:#000000; stroke-linecap:butt; stroke-linejoin:round; stroke-width:2; stroke-opacity:0.1; fill:none" points="
  1934,1486.45 1934,47.2441 
  "/>
<polyline clip-path="url(#clip532)" style="stroke:#000000; stroke-linecap:butt; stroke-linejoin:round; stroke-width:2; stroke-opacity:0.1; fill:none" points="
  2232.75,1486.45 2232.75,47.2441 
  "/>
<polyline clip-path="url(#clip530)" style="stroke:#000000; stroke-linecap:butt; stroke-linejoin:round; stroke-width:4; stroke-opacity:1; fill:none" points="
  170.857,1486.45 2352.76,1486.45 
  "/>
<polyline clip-path="url(#clip530)" style="stroke:#000000; stroke-linecap:butt; stroke-linejoin:round; stroke-width:4; stroke-opacity:1; fill:none" points="
  440.241,1486.45 440.241,1467.55 
  "/>
<polyline clip-path="url(#clip530)" style="stroke:#000000; stroke-linecap:butt; stroke-linejoin:round; stroke-width:4; stroke-opacity:1; fill:none" points="
  738.992,1486.45 738.992,1467.55 
  "/>
<polyline clip-path="url(#clip530)" style="stroke:#000000; stroke-linecap:butt; stroke-linejoin:round; stroke-width:4; stroke-opacity:1; fill:none" points="
  1037.74,1486.45 1037.74,1467.55 
  "/>
<polyline clip-path="url(#clip530)" style="stroke:#000000; stroke-linecap:butt; stroke-linejoin:round; stroke-width:4; stroke-opacity:1; fill:none" points="
  1336.49,1486.45 1336.49,1467.55 
  "/>
<polyline clip-path="url(#clip530)" style="stroke:#000000; stroke-linecap:butt; stroke-linejoin:round; stroke-width:4; stroke-opacity:1; fill:none" points="
  1635.25,1486.45 1635.25,1467.55 
  "/>
<polyline clip-path="url(#clip530)" style="stroke:#000000; stroke-linecap:butt; stroke-linejoin:round; stroke-width:4; stroke-opacity:1; fill:none" points="
  1934,1486.45 1934,1467.55 
  "/>
<polyline clip-path="url(#clip530)" style="stroke:#000000; stroke-linecap:butt; stroke-linejoin:round; stroke-width:4; stroke-opacity:1; fill:none" points="
  2232.75,1486.45 2232.75,1467.55 
  "/>
<path clip-path="url(#clip530)" d="M409.709 1532.02 L439.385 1532.02 L439.385 1535.95 L409.709 1535.95 L409.709 1532.02 Z" fill="#000000" fill-rule="evenodd" fill-opacity="1" /><path clip-path="url(#clip530)" d="M463.644 1530.21 Q467 1530.93 468.875 1533.2 Q470.773 1535.47 470.773 1538.8 Q470.773 1543.92 467.255 1546.72 Q463.736 1549.52 457.255 1549.52 Q455.079 1549.52 452.764 1549.08 Q450.473 1548.66 448.019 1547.81 L448.019 1543.29 Q449.963 1544.43 452.278 1545.01 Q454.593 1545.58 457.116 1545.58 Q461.514 1545.58 463.806 1543.85 Q466.121 1542.11 466.121 1538.8 Q466.121 1535.75 463.968 1534.03 Q461.838 1532.3 458.019 1532.3 L453.991 1532.3 L453.991 1528.45 L458.204 1528.45 Q461.653 1528.45 463.482 1527.09 Q465.311 1525.7 465.311 1523.11 Q465.311 1520.45 463.412 1519.03 Q461.537 1517.6 458.019 1517.6 Q456.098 1517.6 453.899 1518.01 Q451.7 1518.43 449.061 1519.31 L449.061 1515.14 Q451.723 1514.4 454.037 1514.03 Q456.375 1513.66 458.436 1513.66 Q463.76 1513.66 466.861 1516.09 Q469.963 1518.5 469.963 1522.62 Q469.963 1525.49 468.32 1527.48 Q466.676 1529.45 463.644 1530.21 Z" fill="#000000" fill-rule="evenodd" fill-opacity="1" /><path clip-path="url(#clip530)" d="M708.935 1532.02 L738.61 1532.02 L738.61 1535.95 L708.935 1535.95 L708.935 1532.02 Z" fill="#000000" fill-rule="evenodd" fill-opacity="1" /><path clip-path="url(#clip530)" d="M752.731 1544.91 L769.05 1544.91 L769.05 1548.85 L747.106 1548.85 L747.106 1544.91 Q749.768 1542.16 754.351 1537.53 Q758.957 1532.88 760.138 1531.53 Q762.383 1529.01 763.263 1527.27 Q764.166 1525.51 764.166 1523.82 Q764.166 1521.07 762.221 1519.33 Q760.3 1517.6 757.198 1517.6 Q754.999 1517.6 752.545 1518.36 Q750.115 1519.13 747.337 1520.68 L747.337 1515.95 Q750.161 1514.82 752.615 1514.24 Q755.069 1513.66 757.106 1513.66 Q762.476 1513.66 765.67 1516.35 Q768.865 1519.03 768.865 1523.52 Q768.865 1525.65 768.055 1527.57 Q767.268 1529.47 765.161 1532.07 Q764.582 1532.74 761.481 1535.95 Q758.379 1539.15 752.731 1544.91 Z" fill="#000000" fill-rule="evenodd" fill-opacity="1" /><path clip-path="url(#clip530)" d="M1007.5 1532.02 L1037.18 1532.02 L1037.18 1535.95 L1007.5 1535.95 L1007.5 1532.02 Z" fill="#000000" fill-rule="evenodd" fill-opacity="1" /><path clip-path="url(#clip530)" d="M1048.08 1544.91 L1055.72 1544.91 L1055.72 1518.55 L1047.41 1520.21 L1047.41 1515.95 L1055.67 1514.29 L1060.35 1514.29 L1060.35 1544.91 L1067.99 1544.91 L1067.99 1548.85 L1048.08 1548.85 L1048.08 1544.91 Z" fill="#000000" fill-rule="evenodd" fill-opacity="1" /><path clip-path="url(#clip530)" d="M1336.49 1517.37 Q1332.88 1517.37 1331.05 1520.93 Q1329.25 1524.47 1329.25 1531.6 Q1329.25 1538.71 1331.05 1542.27 Q1332.88 1545.82 1336.49 1545.82 Q1340.13 1545.82 1341.93 1542.27 Q1343.76 1538.71 1343.76 1531.6 Q1343.76 1524.47 1341.93 1520.93 Q1340.13 1517.37 1336.49 1517.37 M1336.49 1513.66 Q1342.3 1513.66 1345.36 1518.27 Q1348.44 1522.85 1348.44 1531.6 Q1348.44 1540.33 1345.36 1544.94 Q1342.3 1549.52 1336.49 1549.52 Q1330.68 1549.52 1327.61 1544.94 Q1324.55 1540.33 1324.55 1531.6 Q1324.55 1522.85 1327.61 1518.27 Q1330.68 1513.66 1336.49 1513.66 Z" fill="#000000" fill-rule="evenodd" fill-opacity="1" /><path clip-path="url(#clip530)" d="M1625.63 1544.91 L1633.27 1544.91 L1633.27 1518.55 L1624.96 1520.21 L1624.96 1515.95 L1633.22 1514.29 L1637.9 1514.29 L1637.9 1544.91 L1645.53 1544.91 L1645.53 1548.85 L1625.63 1548.85 L1625.63 1544.91 Z" fill="#000000" fill-rule="evenodd" fill-opacity="1" /><path clip-path="url(#clip530)" d="M1928.65 1544.91 L1944.97 1544.91 L1944.97 1548.85 L1923.02 1548.85 L1923.02 1544.91 Q1925.69 1542.16 1930.27 1537.53 Q1934.88 1532.88 1936.06 1531.53 Q1938.3 1529.01 1939.18 1527.27 Q1940.08 1525.51 1940.08 1523.82 Q1940.08 1521.07 1938.14 1519.33 Q1936.22 1517.6 1933.12 1517.6 Q1930.92 1517.6 1928.46 1518.36 Q1926.03 1519.13 1923.26 1520.68 L1923.26 1515.95 Q1926.08 1514.82 1928.53 1514.24 Q1930.99 1513.66 1933.02 1513.66 Q1938.39 1513.66 1941.59 1516.35 Q1944.78 1519.03 1944.78 1523.52 Q1944.78 1525.65 1943.97 1527.57 Q1943.19 1529.47 1941.08 1532.07 Q1940.5 1532.74 1937.4 1535.95 Q1934.3 1539.15 1928.65 1544.91 Z" fill="#000000" fill-rule="evenodd" fill-opacity="1" /><path clip-path="url(#clip530)" d="M2237 1530.21 Q2240.35 1530.93 2242.23 1533.2 Q2244.12 1535.47 2244.12 1538.8 Q2244.12 1543.92 2240.61 1546.72 Q2237.09 1549.52 2230.61 1549.52 Q2228.43 1549.52 2226.12 1549.08 Q2223.82 1548.66 2221.37 1547.81 L2221.37 1543.29 Q2223.31 1544.43 2225.63 1545.01 Q2227.94 1545.58 2230.47 1545.58 Q2234.87 1545.58 2237.16 1543.85 Q2239.47 1542.11 2239.47 1538.8 Q2239.47 1535.75 2237.32 1534.03 Q2235.19 1532.3 2231.37 1532.3 L2227.34 1532.3 L2227.34 1528.45 L2231.56 1528.45 Q2235 1528.45 2236.83 1527.09 Q2238.66 1525.7 2238.66 1523.11 Q2238.66 1520.45 2236.76 1519.03 Q2234.89 1517.6 2231.37 1517.6 Q2229.45 1517.6 2227.25 1518.01 Q2225.05 1518.43 2222.41 1519.31 L2222.41 1515.14 Q2225.07 1514.4 2227.39 1514.03 Q2229.73 1513.66 2231.79 1513.66 Q2237.11 1513.66 2240.21 1516.09 Q2243.31 1518.5 2243.31 1522.62 Q2243.31 1525.49 2241.67 1527.48 Q2240.03 1529.45 2237 1530.21 Z" fill="#000000" fill-rule="evenodd" fill-opacity="1" /><polyline clip-path="url(#clip532)" style="stroke:#000000; stroke-linecap:butt; stroke-linejoin:round; stroke-width:2; stroke-opacity:0.1; fill:none" points="
  170.857,1445.72 2352.76,1445.72 
  "/>
<polyline clip-path="url(#clip532)" style="stroke:#000000; stroke-linecap:butt; stroke-linejoin:round; stroke-width:2; stroke-opacity:0.1; fill:none" points="
  170.857,1102.85 2352.76,1102.85 
  "/>
<polyline clip-path="url(#clip532)" style="stroke:#000000; stroke-linecap:butt; stroke-linejoin:round; stroke-width:2; stroke-opacity:0.1; fill:none" points="
  170.857,759.989 2352.76,759.989 
  "/>
<polyline clip-path="url(#clip532)" style="stroke:#000000; stroke-linecap:butt; stroke-linejoin:round; stroke-width:2; stroke-opacity:0.1; fill:none" points="
  170.857,417.125 2352.76,417.125 
  "/>
<polyline clip-path="url(#clip532)" style="stroke:#000000; stroke-linecap:butt; stroke-linejoin:round; stroke-width:2; stroke-opacity:0.1; fill:none" points="
  170.857,74.2617 2352.76,74.2617 
  "/>
<polyline clip-path="url(#clip530)" style="stroke:#000000; stroke-linecap:butt; stroke-linejoin:round; stroke-width:4; stroke-opacity:1; fill:none" points="
  170.857,1486.45 170.857,47.2441 
  "/>
<polyline clip-path="url(#clip530)" style="stroke:#000000; stroke-linecap:butt; stroke-linejoin:round; stroke-width:4; stroke-opacity:1; fill:none" points="
  170.857,1445.72 189.755,1445.72 
  "/>
<polyline clip-path="url(#clip530)" style="stroke:#000000; stroke-linecap:butt; stroke-linejoin:round; stroke-width:4; stroke-opacity:1; fill:none" points="
  170.857,1102.85 189.755,1102.85 
  "/>
<polyline clip-path="url(#clip530)" style="stroke:#000000; stroke-linecap:butt; stroke-linejoin:round; stroke-width:4; stroke-opacity:1; fill:none" points="
  170.857,759.989 189.755,759.989 
  "/>
<polyline clip-path="url(#clip530)" style="stroke:#000000; stroke-linecap:butt; stroke-linejoin:round; stroke-width:4; stroke-opacity:1; fill:none" points="
  170.857,417.125 189.755,417.125 
  "/>
<polyline clip-path="url(#clip530)" style="stroke:#000000; stroke-linecap:butt; stroke-linejoin:round; stroke-width:4; stroke-opacity:1; fill:none" points="
  170.857,74.2617 189.755,74.2617 
  "/>
<path clip-path="url(#clip530)" d="M122.913 1431.51 Q119.302 1431.51 117.473 1435.08 Q115.668 1438.62 115.668 1445.75 Q115.668 1452.86 117.473 1456.42 Q119.302 1459.96 122.913 1459.96 Q126.547 1459.96 128.353 1456.42 Q130.182 1452.86 130.182 1445.75 Q130.182 1438.62 128.353 1435.08 Q126.547 1431.51 122.913 1431.51 M122.913 1427.81 Q128.723 1427.81 131.779 1432.42 Q134.857 1437 134.857 1445.75 Q134.857 1454.48 131.779 1459.08 Q128.723 1463.67 122.913 1463.67 Q117.103 1463.67 114.024 1459.08 Q110.969 1454.48 110.969 1445.75 Q110.969 1437 114.024 1432.42 Q117.103 1427.81 122.913 1427.81 Z" fill="#000000" fill-rule="evenodd" fill-opacity="1" /><path clip-path="url(#clip530)" d="M82.7975 1085.57 L101.154 1085.57 L101.154 1089.51 L87.0799 1089.51 L87.0799 1097.98 Q88.0984 1097.63 89.1169 1097.47 Q90.1354 1097.29 91.1539 1097.29 Q96.941 1097.29 100.321 1100.46 Q103.7 1103.63 103.7 1109.04 Q103.7 1114.62 100.228 1117.72 Q96.7558 1120.8 90.4364 1120.8 Q88.2604 1120.8 85.9919 1120.43 Q83.7466 1120.06 81.3392 1119.32 L81.3392 1114.62 Q83.4225 1115.76 85.6447 1116.31 Q87.8669 1116.87 90.3438 1116.87 Q94.3484 1116.87 96.6863 1114.76 Q99.0243 1112.66 99.0243 1109.04 Q99.0243 1105.43 96.6863 1103.33 Q94.3484 1101.22 90.3438 1101.22 Q88.4688 1101.22 86.5938 1101.64 Q84.7419 1102.05 82.7975 1102.93 L82.7975 1085.57 Z" fill="#000000" fill-rule="evenodd" fill-opacity="1" /><path clip-path="url(#clip530)" d="M122.913 1088.65 Q119.302 1088.65 117.473 1092.22 Q115.668 1095.76 115.668 1102.89 Q115.668 1109.99 117.473 1113.56 Q119.302 1117.1 122.913 1117.1 Q126.547 1117.1 128.353 1113.56 Q130.182 1109.99 130.182 1102.89 Q130.182 1095.76 128.353 1092.22 Q126.547 1088.65 122.913 1088.65 M122.913 1084.95 Q128.723 1084.95 131.779 1089.55 Q134.857 1094.14 134.857 1102.89 Q134.857 1111.61 131.779 1116.22 Q128.723 1120.8 122.913 1120.8 Q117.103 1120.8 114.024 1116.22 Q110.969 1111.61 110.969 1102.89 Q110.969 1094.14 114.024 1089.55 Q117.103 1084.95 122.913 1084.95 Z" fill="#000000" fill-rule="evenodd" fill-opacity="1" /><path clip-path="url(#clip530)" d="M53.3995 773.334 L61.0384 773.334 L61.0384 746.968 L52.7282 748.635 L52.7282 744.375 L60.9921 742.709 L65.668 742.709 L65.668 773.334 L73.3068 773.334 L73.3068 777.269 L53.3995 777.269 L53.3995 773.334 Z" fill="#000000" fill-rule="evenodd" fill-opacity="1" /><path clip-path="url(#clip530)" d="M92.7512 745.787 Q89.1401 745.787 87.3114 749.352 Q85.5058 752.894 85.5058 760.023 Q85.5058 767.13 87.3114 770.695 Q89.1401 774.236 92.7512 774.236 Q96.3854 774.236 98.1909 770.695 Q100.02 767.13 100.02 760.023 Q100.02 752.894 98.1909 749.352 Q96.3854 745.787 92.7512 745.787 M92.7512 742.084 Q98.5613 742.084 101.617 746.69 Q104.696 751.273 104.696 760.023 Q104.696 768.75 101.617 773.357 Q98.5613 777.94 92.7512 777.94 Q86.941 777.94 83.8623 773.357 Q80.8068 768.75 80.8068 760.023 Q80.8068 751.273 83.8623 746.69 Q86.941 742.084 92.7512 742.084 Z" fill="#000000" fill-rule="evenodd" fill-opacity="1" /><path clip-path="url(#clip530)" d="M122.913 745.787 Q119.302 745.787 117.473 749.352 Q115.668 752.894 115.668 760.023 Q115.668 767.13 117.473 770.695 Q119.302 774.236 122.913 774.236 Q126.547 774.236 128.353 770.695 Q130.182 767.13 130.182 760.023 Q130.182 752.894 128.353 749.352 Q126.547 745.787 122.913 745.787 M122.913 742.084 Q128.723 742.084 131.779 746.69 Q134.857 751.273 134.857 760.023 Q134.857 768.75 131.779 773.357 Q128.723 777.94 122.913 777.94 Q117.103 777.94 114.024 773.357 Q110.969 768.75 110.969 760.023 Q110.969 751.273 114.024 746.69 Q117.103 742.084 122.913 742.084 Z" fill="#000000" fill-rule="evenodd" fill-opacity="1" /><path clip-path="url(#clip530)" d="M53.3995 430.47 L61.0384 430.47 L61.0384 404.104 L52.7282 405.771 L52.7282 401.512 L60.9921 399.845 L65.668 399.845 L65.668 430.47 L73.3068 430.47 L73.3068 434.405 L53.3995 434.405 L53.3995 430.47 Z" fill="#000000" fill-rule="evenodd" fill-opacity="1" /><path clip-path="url(#clip530)" d="M82.7975 399.845 L101.154 399.845 L101.154 403.78 L87.0799 403.78 L87.0799 412.253 Q88.0984 411.905 89.1169 411.743 Q90.1354 411.558 91.1539 411.558 Q96.941 411.558 100.321 414.729 Q103.7 417.901 103.7 423.317 Q103.7 428.896 100.228 431.998 Q96.7558 435.077 90.4364 435.077 Q88.2604 435.077 85.9919 434.706 Q83.7466 434.336 81.3392 433.595 L81.3392 428.896 Q83.4225 430.03 85.6447 430.586 Q87.8669 431.141 90.3438 431.141 Q94.3484 431.141 96.6863 429.035 Q99.0243 426.928 99.0243 423.317 Q99.0243 419.706 96.6863 417.6 Q94.3484 415.493 90.3438 415.493 Q88.4688 415.493 86.5938 415.91 Q84.7419 416.327 82.7975 417.206 L82.7975 399.845 Z" fill="#000000" fill-rule="evenodd" fill-opacity="1" /><path clip-path="url(#clip530)" d="M122.913 402.924 Q119.302 402.924 117.473 406.489 Q115.668 410.03 115.668 417.16 Q115.668 424.266 117.473 427.831 Q119.302 431.373 122.913 431.373 Q126.547 431.373 128.353 427.831 Q130.182 424.266 130.182 417.16 Q130.182 410.03 128.353 406.489 Q126.547 402.924 122.913 402.924 M122.913 399.22 Q128.723 399.22 131.779 403.827 Q134.857 408.41 134.857 417.16 Q134.857 425.887 131.779 430.493 Q128.723 435.077 122.913 435.077 Q117.103 435.077 114.024 430.493 Q110.969 425.887 110.969 417.16 Q110.969 408.41 114.024 403.827 Q117.103 399.22 122.913 399.22 Z" fill="#000000" fill-rule="evenodd" fill-opacity="1" /><path clip-path="url(#clip530)" d="M56.6171 87.6066 L72.9365 87.6066 L72.9365 91.5417 L50.9921 91.5417 L50.9921 87.6066 Q53.6541 84.852 58.2375 80.2224 Q62.8439 75.5696 64.0245 74.227 Q66.2698 71.7039 67.1494 69.9678 Q68.0522 68.2085 68.0522 66.5187 Q68.0522 63.7641 66.1078 62.028 Q64.1865 60.2919 61.0847 60.2919 Q58.8856 60.2919 56.4319 61.0558 Q54.0014 61.8197 51.2236 63.3706 L51.2236 58.6484 Q54.0477 57.5141 56.5014 56.9354 Q58.955 56.3567 60.9921 56.3567 Q66.3624 56.3567 69.5568 59.0419 Q72.7513 61.7271 72.7513 66.2178 Q72.7513 68.3474 71.9411 70.2687 Q71.1541 72.1668 69.0476 74.7594 Q68.4689 75.4307 65.367 78.6483 Q62.2652 81.8427 56.6171 87.6066 Z" fill="#000000" fill-rule="evenodd" fill-opacity="1" /><path clip-path="url(#clip530)" d="M92.7512 60.0604 Q89.1401 60.0604 87.3114 63.6252 Q85.5058 67.1669 85.5058 74.2965 Q85.5058 81.4029 87.3114 84.9677 Q89.1401 88.5093 92.7512 88.5093 Q96.3854 88.5093 98.1909 84.9677 Q100.02 81.4029 100.02 74.2965 Q100.02 67.1669 98.1909 63.6252 Q96.3854 60.0604 92.7512 60.0604 M92.7512 56.3567 Q98.5613 56.3567 101.617 60.9632 Q104.696 65.5465 104.696 74.2965 Q104.696 83.0233 101.617 87.6297 Q98.5613 92.213 92.7512 92.213 Q86.941 92.213 83.8623 87.6297 Q80.8068 83.0233 80.8068 74.2965 Q80.8068 65.5465 83.8623 60.9632 Q86.941 56.3567 92.7512 56.3567 Z" fill="#000000" fill-rule="evenodd" fill-opacity="1" /><path clip-path="url(#clip530)" d="M122.913 60.0604 Q119.302 60.0604 117.473 63.6252 Q115.668 67.1669 115.668 74.2965 Q115.668 81.4029 117.473 84.9677 Q119.302 88.5093 122.913 88.5093 Q126.547 88.5093 128.353 84.9677 Q130.182 81.4029 130.182 74.2965 Q130.182 67.1669 128.353 63.6252 Q126.547 60.0604 122.913 60.0604 M122.913 56.3567 Q128.723 56.3567 131.779 60.9632 Q134.857 65.5465 134.857 74.2965 Q134.857 83.0233 131.779 87.6297 Q128.723 92.213 122.913 92.213 Q117.103 92.213 114.024 87.6297 Q110.969 83.0233 110.969 74.2965 Q110.969 65.5465 114.024 60.9632 Q117.103 56.3567 122.913 56.3567 Z" fill="#000000" fill-rule="evenodd" fill-opacity="1" /><path clip-path="url(#clip532)" d="
M290.866 1432 L290.866 1445.72 L440.241 1445.72 L440.241 1432 L290.866 1432 L290.866 1432  Z
  " fill="#009af9" fill-rule="evenodd" fill-opacity="1"/>
<polyline clip-path="url(#clip532)" style="stroke:#000000; stroke-linecap:butt; stroke-linejoin:round; stroke-width:4; stroke-opacity:1; fill:none" points="
  290.866,1432 290.866,1445.72 440.241,1445.72 440.241,1432 290.866,1432 
  "/>
<path clip-path="url(#clip532)" d="
M440.241 1438.86 L440.241 1445.72 L589.617 1445.72 L589.617 1438.86 L440.241 1438.86 L440.241 1438.86  Z
  " fill="#009af9" fill-rule="evenodd" fill-opacity="1"/>
<polyline clip-path="url(#clip532)" style="stroke:#000000; stroke-linecap:butt; stroke-linejoin:round; stroke-width:4; stroke-opacity:1; fill:none" points="
  440.241,1438.86 440.241,1445.72 589.617,1445.72 589.617,1438.86 440.241,1438.86 
  "/>
<path clip-path="url(#clip532)" d="
M589.617 1281.14 L589.617 1445.72 L738.992 1445.72 L738.992 1281.14 L589.617 1281.14 L589.617 1281.14  Z
  " fill="#009af9" fill-rule="evenodd" fill-opacity="1"/>
<polyline clip-path="url(#clip532)" style="stroke:#000000; stroke-linecap:butt; stroke-linejoin:round; stroke-width:4; stroke-opacity:1; fill:none" points="
  589.617,1281.14 589.617,1445.72 738.992,1445.72 738.992,1281.14 589.617,1281.14 
  "/>
<path clip-path="url(#clip532)" d="
M738.992 1164.57 L738.992 1445.72 L888.368 1445.72 L888.368 1164.57 L738.992 1164.57 L738.992 1164.57  Z
  " fill="#009af9" fill-rule="evenodd" fill-opacity="1"/>
<polyline clip-path="url(#clip532)" style="stroke:#000000; stroke-linecap:butt; stroke-linejoin:round; stroke-width:4; stroke-opacity:1; fill:none" points="
  738.992,1164.57 738.992,1445.72 888.368,1445.72 888.368,1164.57 738.992,1164.57 
  "/>
<path clip-path="url(#clip532)" d="
M888.368 794.275 L888.368 1445.72 L1037.74 1445.72 L1037.74 794.275 L888.368 794.275 L888.368 794.275  Z
  " fill="#009af9" fill-rule="evenodd" fill-opacity="1"/>
<polyline clip-path="url(#clip532)" style="stroke:#000000; stroke-linecap:butt; stroke-linejoin:round; stroke-width:4; stroke-opacity:1; fill:none" points="
  888.368,794.275 888.368,1445.72 1037.74,1445.72 1037.74,794.275 888.368,794.275 
  "/>
<path clip-path="url(#clip532)" d="
M1037.74 513.127 L1037.74 1445.72 L1187.12 1445.72 L1187.12 513.127 L1037.74 513.127 L1037.74 513.127  Z
  " fill="#009af9" fill-rule="evenodd" fill-opacity="1"/>
<polyline clip-path="url(#clip532)" style="stroke:#000000; stroke-linecap:butt; stroke-linejoin:round; stroke-width:4; stroke-opacity:1; fill:none" points="
  1037.74,513.127 1037.74,1445.72 1187.12,1445.72 1187.12,513.127 1037.74,513.127 
  "/>
<path clip-path="url(#clip532)" d="
M1187.12 218.264 L1187.12 1445.72 L1336.49 1445.72 L1336.49 218.264 L1187.12 218.264 L1187.12 218.264  Z
  " fill="#009af9" fill-rule="evenodd" fill-opacity="1"/>
<polyline clip-path="url(#clip532)" style="stroke:#000000; stroke-linecap:butt; stroke-linejoin:round; stroke-width:4; stroke-opacity:1; fill:none" points="
  1187.12,218.264 1187.12,1445.72 1336.49,1445.72 1336.49,218.264 1187.12,218.264 
  "/>
<path clip-path="url(#clip532)" d="
M1336.49 87.9763 L1336.49 1445.72 L1485.87 1445.72 L1485.87 87.9763 L1336.49 87.9763 L1336.49 87.9763  Z
  " fill="#009af9" fill-rule="evenodd" fill-opacity="1"/>
<polyline clip-path="url(#clip532)" style="stroke:#000000; stroke-linecap:butt; stroke-linejoin:round; stroke-width:4; stroke-opacity:1; fill:none" points="
  1336.49,87.9763 1336.49,1445.72 1485.87,1445.72 1485.87,87.9763 1336.49,87.9763 
  "/>
<path clip-path="url(#clip532)" d="
M1485.87 437.697 L1485.87 1445.72 L1635.25 1445.72 L1635.25 437.697 L1485.87 437.697 L1485.87 437.697  Z
  " fill="#009af9" fill-rule="evenodd" fill-opacity="1"/>
<polyline clip-path="url(#clip532)" style="stroke:#000000; stroke-linecap:butt; stroke-linejoin:round; stroke-width:4; stroke-opacity:1; fill:none" points="
  1485.87,437.697 1485.87,1445.72 1635.25,1445.72 1635.25,437.697 1485.87,437.697 
  "/>
<path clip-path="url(#clip532)" d="
M1635.25 766.846 L1635.25 1445.72 L1784.62 1445.72 L1784.62 766.846 L1635.25 766.846 L1635.25 766.846  Z
  " fill="#009af9" fill-rule="evenodd" fill-opacity="1"/>
<polyline clip-path="url(#clip532)" style="stroke:#000000; stroke-linecap:butt; stroke-linejoin:round; stroke-width:4; stroke-opacity:1; fill:none" points="
  1635.25,766.846 1635.25,1445.72 1784.62,1445.72 1784.62,766.846 1635.25,766.846 
  "/>
<path clip-path="url(#clip532)" d="
M1784.62 1102.85 L1784.62 1445.72 L1934 1445.72 L1934 1102.85 L1784.62 1102.85 L1784.62 1102.85  Z
  " fill="#009af9" fill-rule="evenodd" fill-opacity="1"/>
<polyline clip-path="url(#clip532)" style="stroke:#000000; stroke-linecap:butt; stroke-linejoin:round; stroke-width:4; stroke-opacity:1; fill:none" points="
  1784.62,1102.85 1784.62,1445.72 1934,1445.72 1934,1102.85 1784.62,1102.85 
  "/>
<path clip-path="url(#clip532)" d="
M1934 1301.71 L1934 1445.72 L2083.37 1445.72 L2083.37 1301.71 L1934 1301.71 L1934 1301.71  Z
  " fill="#009af9" fill-rule="evenodd" fill-opacity="1"/>
<polyline clip-path="url(#clip532)" style="stroke:#000000; stroke-linecap:butt; stroke-linejoin:round; stroke-width:4; stroke-opacity:1; fill:none" points="
  1934,1301.71 1934,1445.72 2083.37,1445.72 2083.37,1301.71 1934,1301.71 
  "/>
<path clip-path="url(#clip532)" d="
M2083.37 1397.71 L2083.37 1445.72 L2232.75 1445.72 L2232.75 1397.71 L2083.37 1397.71 L2083.37 1397.71  Z
  " fill="#009af9" fill-rule="evenodd" fill-opacity="1"/>
<polyline clip-path="url(#clip532)" style="stroke:#000000; stroke-linecap:butt; stroke-linejoin:round; stroke-width:4; stroke-opacity:1; fill:none" points="
  2083.37,1397.71 2083.37,1445.72 2232.75,1445.72 2232.75,1397.71 2083.37,1397.71 
  "/>
<circle clip-path="url(#clip532)" style="fill:#009af9; stroke:none; fill-opacity:0" cx="365.553" cy="1432" r="2"/>
<circle clip-path="url(#clip532)" style="fill:#009af9; stroke:none; fill-opacity:0" cx="514.929" cy="1438.86" r="2"/>
<circle clip-path="url(#clip532)" style="fill:#009af9; stroke:none; fill-opacity:0" cx="664.305" cy="1281.14" r="2"/>
<circle clip-path="url(#clip532)" style="fill:#009af9; stroke:none; fill-opacity:0" cx="813.68" cy="1164.57" r="2"/>
<circle clip-path="url(#clip532)" style="fill:#009af9; stroke:none; fill-opacity:0" cx="963.056" cy="794.275" r="2"/>
<circle clip-path="url(#clip532)" style="fill:#009af9; stroke:none; fill-opacity:0" cx="1112.43" cy="513.127" r="2"/>
<circle clip-path="url(#clip532)" style="fill:#009af9; stroke:none; fill-opacity:0" cx="1261.81" cy="218.264" r="2"/>
<circle clip-path="url(#clip532)" style="fill:#009af9; stroke:none; fill-opacity:0" cx="1411.18" cy="87.9763" r="2"/>
<circle clip-path="url(#clip532)" style="fill:#009af9; stroke:none; fill-opacity:0" cx="1560.56" cy="437.697" r="2"/>
<circle clip-path="url(#clip532)" style="fill:#009af9; stroke:none; fill-opacity:0" cx="1709.93" cy="766.846" r="2"/>
<circle clip-path="url(#clip532)" style="fill:#009af9; stroke:none; fill-opacity:0" cx="1859.31" cy="1102.85" r="2"/>
<circle clip-path="url(#clip532)" style="fill:#009af9; stroke:none; fill-opacity:0" cx="2008.68" cy="1301.71" r="2"/>
<circle clip-path="url(#clip532)" style="fill:#009af9; stroke:none; fill-opacity:0" cx="2158.06" cy="1397.71" r="2"/>
<path clip-path="url(#clip530)" d="
M2012.36 198.898 L2280.03 198.898 L2280.03 95.2176 L2012.36 95.2176  Z
  " fill="#ffffff" fill-rule="evenodd" fill-opacity="1"/>
<polyline clip-path="url(#clip530)" style="stroke:#000000; stroke-linecap:butt; stroke-linejoin:round; stroke-width:4; stroke-opacity:1; fill:none" points="
  2012.36,198.898 2280.03,198.898 2280.03,95.2176 2012.36,95.2176 2012.36,198.898 
  "/>
<path clip-path="url(#clip530)" d="
M2036.6 167.794 L2182.06 167.794 L2182.06 126.322 L2036.6 126.322 L2036.6 167.794  Z
  " fill="#009af9" fill-rule="evenodd" fill-opacity="1"/>
<polyline clip-path="url(#clip530)" style="stroke:#000000; stroke-linecap:butt; stroke-linejoin:round; stroke-width:4; stroke-opacity:1; fill:none" points="
  2036.6,167.794 2182.06,167.794 2182.06,126.322 2036.6,126.322 2036.6,167.794 
  "/>
<path clip-path="url(#clip530)" d="M2220.15 166.745 Q2218.34 171.375 2216.63 172.787 Q2214.92 174.199 2212.05 174.199 L2208.65 174.199 L2208.65 170.634 L2211.15 170.634 Q2212.91 170.634 2213.88 169.8 Q2214.85 168.967 2216.03 165.865 L2216.79 163.921 L2206.31 138.412 L2210.82 138.412 L2218.92 158.689 L2227.03 138.412 L2231.54 138.412 L2220.15 166.745 Z" fill="#000000" fill-rule="evenodd" fill-opacity="1" /></svg>
