<?xml version="1.0" encoding="utf-8"?>
<svg xmlns="http://www.w3.org/2000/svg" xmlns:xlink="http://www.w3.org/1999/xlink" width="600" height="400" viewBox="0 0 2400 1600">
<defs>
  <clipPath id="clip610">
    <rect x="0" y="0" width="2400" height="1600"/>
  </clipPath>
</defs>
<path clip-path="url(#clip610)" d="
M0 1600 L2400 1600 L2400 0 L0 0  Z
  " fill="#ffffff" fill-rule="evenodd" fill-opacity="1"/>
<defs>
  <clipPath id="clip611">
    <rect x="480" y="0" width="1681" height="1600"/>
  </clipPath>
</defs>
<path clip-path="url(#clip610)" d="
M148.057 1486.45 L2352.76 1486.45 L2352.76 47.2441 L148.057 47.2441  Z
  " fill="#ffffff" fill-rule="evenodd" fill-opacity="1"/>
<defs>
  <clipPath id="clip612">
    <rect x="148" y="47" width="2206" height="1440"/>
  </clipPath>
</defs>
<polyline clip-path="url(#clip612)" style="stroke:#000000; stroke-linecap:butt; stroke-linejoin:round; stroke-width:2; stroke-opacity:0.1; fill:none" points="
  672.655,1486.45 672.655,47.2441 
  "/>
<polyline clip-path="url(#clip612)" style="stroke:#000000; stroke-linecap:butt; stroke-linejoin:round; stroke-width:2; stroke-opacity:0.1; fill:none" points="
  1828.16,1486.45 1828.16,47.2441 
  "/>
<polyline clip-path="url(#clip610)" style="stroke:#000000; stroke-linecap:butt; stroke-linejoin:round; stroke-width:4; stroke-opacity:1; fill:none" points="
  148.057,1486.45 2352.76,1486.45 
  "/>
<polyline clip-path="url(#clip610)" style="stroke:#000000; stroke-linecap:butt; stroke-linejoin:round; stroke-width:4; stroke-opacity:1; fill:none" points="
  672.655,1486.45 672.655,1467.55 
  "/>
<polyline clip-path="url(#clip610)" style="stroke:#000000; stroke-linecap:butt; stroke-linejoin:round; stroke-width:4; stroke-opacity:1; fill:none" points="
  1828.16,1486.45 1828.16,1467.55 
  "/>
<path clip-path="url(#clip610)" d="M675.109 1535.82 Q669.947 1535.82 667.956 1537 Q665.965 1538.18 665.965 1541.02 Q665.965 1543.29 667.447 1544.63 Q668.951 1545.95 671.521 1545.95 Q675.062 1545.95 677.192 1543.45 Q679.345 1540.93 679.345 1536.76 L679.345 1535.82 L675.109 1535.82 M683.604 1534.06 L683.604 1548.85 L679.345 1548.85 L679.345 1544.91 Q677.886 1547.27 675.71 1548.41 Q673.534 1549.52 670.386 1549.52 Q666.405 1549.52 664.044 1547.3 Q661.706 1545.05 661.706 1541.3 Q661.706 1536.93 664.623 1534.7 Q667.562 1532.48 673.372 1532.48 L679.345 1532.48 L679.345 1532.07 Q679.345 1529.13 677.4 1527.53 Q675.479 1525.91 671.984 1525.91 Q669.761 1525.91 667.655 1526.44 Q665.548 1526.97 663.604 1528.04 L663.604 1524.1 Q665.942 1523.2 668.141 1522.76 Q670.34 1522.3 672.423 1522.3 Q678.048 1522.3 680.826 1525.21 Q683.604 1528.13 683.604 1534.06 Z" fill="#000000" fill-rule="evenodd" fill-opacity="1" /><path clip-path="url(#clip610)" d="M1835.33 1535.91 Q1835.33 1531.21 1833.39 1528.55 Q1831.47 1525.86 1828.09 1525.86 Q1824.71 1525.86 1822.76 1528.55 Q1820.84 1531.21 1820.84 1535.91 Q1820.84 1540.61 1822.76 1543.29 Q1824.71 1545.95 1828.09 1545.95 Q1831.47 1545.95 1833.39 1543.29 Q1835.33 1540.61 1835.33 1535.91 M1820.84 1526.86 Q1822.19 1524.54 1824.22 1523.43 Q1826.28 1522.3 1829.13 1522.3 Q1833.85 1522.3 1836.79 1526.05 Q1839.75 1529.8 1839.75 1535.91 Q1839.75 1542.02 1836.79 1545.77 Q1833.85 1549.52 1829.13 1549.52 Q1826.28 1549.52 1824.22 1548.41 Q1822.19 1547.27 1820.84 1544.96 L1820.84 1548.85 L1816.56 1548.85 L1816.56 1512.83 L1820.84 1512.83 L1820.84 1526.86 Z" fill="#000000" fill-rule="evenodd" fill-opacity="1" /><polyline clip-path="url(#clip612)" style="stroke:#000000; stroke-linecap:butt; stroke-linejoin:round; stroke-width:2; stroke-opacity:0.1; fill:none" points="
  148.057,1397.13 2352.76,1397.13 
  "/>
<polyline clip-path="url(#clip612)" style="stroke:#000000; stroke-linecap:butt; stroke-linejoin:round; stroke-width:2; stroke-opacity:0.1; fill:none" points="
  148.057,1178.15 2352.76,1178.15 
  "/>
<polyline clip-path="url(#clip612)" style="stroke:#000000; stroke-linecap:butt; stroke-linejoin:round; stroke-width:2; stroke-opacity:0.1; fill:none" points="
  148.057,959.168 2352.76,959.168 
  "/>
<polyline clip-path="url(#clip612)" style="stroke:#000000; stroke-linecap:butt; stroke-linejoin:round; stroke-width:2; stroke-opacity:0.1; fill:none" points="
  148.057,740.188 2352.76,740.188 
  "/>
<polyline clip-path="url(#clip612)" style="stroke:#000000; stroke-linecap:butt; stroke-linejoin:round; stroke-width:2; stroke-opacity:0.1; fill:none" points="
  148.057,521.208 2352.76,521.208 
  "/>
<polyline clip-path="url(#clip612)" style="stroke:#000000; stroke-linecap:butt; stroke-linejoin:round; stroke-width:2; stroke-opacity:0.1; fill:none" points="
  148.057,302.228 2352.76,302.228 
  "/>
<polyline clip-path="url(#clip612)" style="stroke:#000000; stroke-linecap:butt; stroke-linejoin:round; stroke-width:2; stroke-opacity:0.1; fill:none" points="
  148.057,83.2481 2352.76,83.2481 
  "/>
<polyline clip-path="url(#clip610)" style="stroke:#000000; stroke-linecap:butt; stroke-linejoin:round; stroke-width:4; stroke-opacity:1; fill:none" points="
  148.057,1486.45 148.057,47.2441 
  "/>
<polyline clip-path="url(#clip610)" style="stroke:#000000; stroke-linecap:butt; stroke-linejoin:round; stroke-width:4; stroke-opacity:1; fill:none" points="
  148.057,1397.13 166.954,1397.13 
  "/>
<polyline clip-path="url(#clip610)" style="stroke:#000000; stroke-linecap:butt; stroke-linejoin:round; stroke-width:4; stroke-opacity:1; fill:none" points="
  148.057,1178.15 166.954,1178.15 
  "/>
<polyline clip-path="url(#clip610)" style="stroke:#000000; stroke-linecap:butt; stroke-linejoin:round; stroke-width:4; stroke-opacity:1; fill:none" points="
  148.057,959.168 166.954,959.168 
  "/>
<polyline clip-path="url(#clip610)" style="stroke:#000000; stroke-linecap:butt; stroke-linejoin:round; stroke-width:4; stroke-opacity:1; fill:none" points="
  148.057,740.188 166.954,740.188 
  "/>
<polyline clip-path="url(#clip610)" style="stroke:#000000; stroke-linecap:butt; stroke-linejoin:round; stroke-width:4; stroke-opacity:1; fill:none" points="
  148.057,521.208 166.954,521.208 
  "/>
<polyline clip-path="url(#clip610)" style="stroke:#000000; stroke-linecap:butt; stroke-linejoin:round; stroke-width:4; stroke-opacity:1; fill:none" points="
  148.057,302.228 166.954,302.228 
  "/>
<polyline clip-path="url(#clip610)" style="stroke:#000000; stroke-linecap:butt; stroke-linejoin:round; stroke-width:4; stroke-opacity:1; fill:none" points="
  148.057,83.2481 166.954,83.2481 
  "/>
<path clip-path="url(#clip610)" d="M50.9921 1397.58 L80.6679 1397.58 L80.6679 1401.51 L50.9921 1401.51 L50.9921 1397.58 Z" fill="#000000" fill-rule="evenodd" fill-opacity="1" /><path clip-path="url(#clip610)" d="M104.927 1395.77 Q108.283 1396.49 110.158 1398.76 Q112.057 1401.03 112.057 1404.36 Q112.057 1409.48 108.538 1412.28 Q105.02 1415.08 98.5382 1415.08 Q96.3623 1415.08 94.0475 1414.64 Q91.7558 1414.22 89.3021 1413.37 L89.3021 1408.85 Q91.2465 1409.99 93.5613 1410.56 Q95.8761 1411.14 98.3993 1411.14 Q102.797 1411.14 105.089 1409.41 Q107.404 1407.67 107.404 1404.36 Q107.404 1401.31 105.251 1399.59 Q103.121 1397.86 99.3021 1397.86 L95.2743 1397.86 L95.2743 1394.01 L99.4872 1394.01 Q102.936 1394.01 104.765 1392.65 Q106.594 1391.26 106.594 1388.67 Q106.594 1386 104.696 1384.59 Q102.821 1383.16 99.3021 1383.16 Q97.3808 1383.16 95.1817 1383.57 Q92.9826 1383.99 90.3438 1384.87 L90.3438 1380.7 Q93.0058 1379.96 95.3206 1379.59 Q97.6585 1379.22 99.7187 1379.22 Q105.043 1379.22 108.145 1381.65 Q111.246 1384.06 111.246 1388.18 Q111.246 1391.05 109.603 1393.04 Q107.959 1395.01 104.927 1395.77 Z" fill="#000000" fill-rule="evenodd" fill-opacity="1" /><path clip-path="url(#clip610)" d="M51.9412 1178.6 L81.617 1178.6 L81.617 1182.53 L51.9412 1182.53 L51.9412 1178.6 Z" fill="#000000" fill-rule="evenodd" fill-opacity="1" /><path clip-path="url(#clip610)" d="M95.7373 1191.49 L112.057 1191.49 L112.057 1195.43 L90.1123 1195.43 L90.1123 1191.49 Q92.7743 1188.74 97.3576 1184.11 Q101.964 1179.46 103.145 1178.11 Q105.39 1175.59 106.27 1173.85 Q107.172 1172.09 107.172 1170.4 Q107.172 1167.65 105.228 1165.91 Q103.307 1164.18 100.205 1164.18 Q98.0058 1164.18 95.5521 1164.94 Q93.1215 1165.71 90.3438 1167.26 L90.3438 1162.53 Q93.1678 1161.4 95.6215 1160.82 Q98.0752 1160.24 100.112 1160.24 Q105.483 1160.24 108.677 1162.93 Q111.871 1165.61 111.871 1170.1 Q111.871 1172.23 111.061 1174.15 Q110.274 1176.05 108.168 1178.65 Q107.589 1179.32 104.487 1182.53 Q101.385 1185.73 95.7373 1191.49 Z" fill="#000000" fill-rule="evenodd" fill-opacity="1" /><path clip-path="url(#clip610)" d="M51.5708 959.619 L81.2466 959.619 L81.2466 963.554 L51.5708 963.554 L51.5708 959.619 Z" fill="#000000" fill-rule="evenodd" fill-opacity="1" /><path clip-path="url(#clip610)" d="M92.1493 972.512 L99.7882 972.512 L99.7882 946.147 L91.478 947.813 L91.478 943.554 L99.7419 941.888 L104.418 941.888 L104.418 972.512 L112.057 972.512 L112.057 976.448 L92.1493 976.448 L92.1493 972.512 Z" fill="#000000" fill-rule="evenodd" fill-opacity="1" /><path clip-path="url(#clip610)" d="M100.112 725.986 Q96.5011 725.986 94.6724 729.551 Q92.8669 733.093 92.8669 740.222 Q92.8669 747.329 94.6724 750.894 Q96.5011 754.435 100.112 754.435 Q103.746 754.435 105.552 750.894 Q107.381 747.329 107.381 740.222 Q107.381 733.093 105.552 729.551 Q103.746 725.986 100.112 725.986 M100.112 722.283 Q105.922 722.283 108.978 726.889 Q112.057 731.472 112.057 740.222 Q112.057 748.949 108.978 753.556 Q105.922 758.139 100.112 758.139 Q94.3021 758.139 91.2234 753.556 Q88.1679 748.949 88.1679 740.222 Q88.1679 731.472 91.2234 726.889 Q94.3021 722.283 100.112 722.283 Z" fill="#000000" fill-rule="evenodd" fill-opacity="1" /><path clip-path="url(#clip610)" d="M92.1493 534.553 L99.7882 534.553 L99.7882 508.187 L91.478 509.854 L91.478 505.594 L99.7419 503.928 L104.418 503.928 L104.418 534.553 L112.057 534.553 L112.057 538.488 L92.1493 538.488 L92.1493 534.553 Z" fill="#000000" fill-rule="evenodd" fill-opacity="1" /><path clip-path="url(#clip610)" d="M95.7373 315.573 L112.057 315.573 L112.057 319.508 L90.1123 319.508 L90.1123 315.573 Q92.7743 312.818 97.3576 308.189 Q101.964 303.536 103.145 302.193 Q105.39 299.67 106.27 297.934 Q107.172 296.175 107.172 294.485 Q107.172 291.73 105.228 289.994 Q103.307 288.258 100.205 288.258 Q98.0058 288.258 95.5521 289.022 Q93.1215 289.786 90.3438 291.337 L90.3438 286.615 Q93.1678 285.48 95.6215 284.902 Q98.0752 284.323 100.112 284.323 Q105.483 284.323 108.677 287.008 Q111.871 289.693 111.871 294.184 Q111.871 296.314 111.061 298.235 Q110.274 300.133 108.168 302.726 Q107.589 303.397 104.487 306.615 Q101.385 309.809 95.7373 315.573 Z" fill="#000000" fill-rule="evenodd" fill-opacity="1" /><path clip-path="url(#clip610)" d="M104.927 81.8939 Q108.283 82.6115 110.158 84.88 Q112.057 87.1485 112.057 90.4819 Q112.057 95.5976 108.538 98.3985 Q105.02 101.199 98.5382 101.199 Q96.3623 101.199 94.0475 100.76 Q91.7558 100.343 89.3021 99.4864 L89.3021 94.9726 Q91.2465 96.1068 93.5613 96.6855 Q95.8761 97.2642 98.3993 97.2642 Q102.797 97.2642 105.089 95.5281 Q107.404 93.792 107.404 90.4819 Q107.404 87.4263 105.251 85.7134 Q103.121 83.9773 99.3021 83.9773 L95.2743 83.9773 L95.2743 80.1347 L99.4872 80.1347 Q102.936 80.1347 104.765 78.769 Q106.594 77.3801 106.594 74.7875 Q106.594 72.1255 104.696 70.7134 Q102.821 69.2783 99.3021 69.2783 Q97.3808 69.2783 95.1817 69.6949 Q92.9826 70.1116 90.3438 70.9912 L90.3438 66.8246 Q93.0058 66.0838 95.3206 65.7135 Q97.6585 65.3431 99.7187 65.3431 Q105.043 65.3431 108.145 67.7736 Q111.246 70.181 111.246 74.3014 Q111.246 77.1717 109.603 79.1625 Q107.959 81.1301 104.927 81.8939 Z" fill="#000000" fill-rule="evenodd" fill-opacity="1" /><path clip-path="url(#clip612)" d="
M711.103 1278.85 L715.876 1271.02 L720.602 1263.19 L725.185 1255.35 L729.539 1247.52 L733.594 1239.69 L737.305 1231.85 L740.653 1224.02 L743.65 1216.19 L746.333 1208.35 
  L748.767 1200.52 L751.036 1192.69 L753.24 1184.85 L755.484 1177.02 L757.88 1169.19 L760.533 1161.35 L763.544 1153.52 L767.005 1145.69 L770.999 1137.85 L775.6 1130.02 
  L780.872 1122.19 L786.868 1114.35 L793.631 1106.52 L801.189 1098.69 L809.557 1090.85 L818.735 1083.02 L828.699 1075.19 L839.41 1067.35 L850.802 1059.52 L862.787 1051.69 
  L875.253 1043.85 L888.064 1036.02 L901.064 1028.19 L914.085 1020.35 L926.95 1012.52 L939.491 1004.69 L951.556 996.855 L963.024 989.022 L973.817 981.188 L983.9 973.355 
  L993.288 965.522 L1002.04 957.688 L1010.24 949.855 L1017.99 942.022 L1025.41 934.188 L1032.58 926.355 L1039.57 918.522 L1046.41 910.688 L1053.1 902.855 L1059.62 895.022 
  L1065.92 887.189 L1071.93 879.355 L1077.61 871.522 L1082.91 863.689 L1087.79 855.855 L1092.25 848.022 L1096.31 840.189 L1099.99 832.355 L1103.34 824.522 L1106.42 816.689 
  L1109.31 808.855 L1112.08 801.022 L1114.79 793.189 L1117.5 785.355 L1120.24 777.522 L1123.01 769.689 L1125.78 761.855 L1128.46 754.022 L1130.9 746.189 L1132.92 738.355 
  L1134.32 730.522 L1134.86 722.689 L1134.32 714.855 L1132.52 707.022 L1129.33 699.189 L1124.7 691.355 L1118.67 683.522 L1111.37 675.689 L1103.01 667.856 L1093.89 660.022 
  L1084.34 652.189 L1074.75 644.356 L1065.47 636.522 L1056.85 628.689 L1049.19 620.856 L1042.7 613.022 L1037.5 605.189 L1033.61 597.356 L1030.94 589.522 L1029.3 581.689 
  L1028.39 573.856 L1027.85 566.022 L1027.28 558.189 L1026.24 550.356 L1024.34 542.522 L1021.24 534.689 L1016.67 526.856 L1010.48 519.022 L1002.62 511.189 L993.174 503.356 
  L982.296 495.522 L970.228 487.689 L957.254 479.856 L943.676 472.023 L929.788 464.189 L915.854 456.356 L902.097 448.523 L888.694 440.689 L875.773 432.856 L863.422 425.023 
  L851.696 417.189 L840.625 409.356 L830.225 401.523 L820.501 393.689 L811.455 385.856 L803.085 378.023 L795.389 370.189 L788.364 362.356 L782.002 354.523 L776.29 346.689 
  L771.207 338.856 L766.717 331.023 L762.775 323.189 L759.318 315.356 L756.268 307.523 L753.536 299.689 L751.022 291.856 L748.621 284.023 L746.229 276.189 L743.754 268.356 
  L741.114 260.523 L738.251 252.69 L735.131 244.856 L731.747 237.023 L728.12 229.19 L724.292 221.356 L720.326 213.523 L716.297 205.69 L712.284 197.856 L708.365 190.023 
  L704.608 182.19 L701.066 174.356 L697.778 166.523 L694.764 158.69 L692.029 150.856 L689.564 143.023 L687.352 135.19 L685.37 127.356 L659.94 127.356 L657.958 135.19 
  L655.746 143.023 L653.281 150.856 L650.545 158.69 L647.532 166.523 L644.244 174.356 L640.702 182.19 L636.945 190.023 L633.026 197.856 L629.013 205.69 L624.984 213.523 
  L621.018 221.356 L617.19 229.19 L613.562 237.023 L610.179 244.856 L607.059 252.69 L604.196 260.523 L601.556 268.356 L599.08 276.189 L596.689 284.023 L594.288 291.856 
  L591.773 299.689 L589.041 307.523 L585.992 315.356 L582.535 323.189 L578.592 331.023 L574.103 338.856 L569.019 346.689 L563.308 354.523 L556.946 362.356 L549.921 370.189 
  L542.225 378.023 L533.855 385.856 L524.808 393.689 L515.084 401.523 L504.684 409.356 L493.614 417.189 L481.888 425.023 L469.537 432.856 L456.616 440.689 L443.213 448.523 
  L429.456 456.356 L415.522 464.189 L401.634 472.023 L388.056 479.856 L375.081 487.689 L363.013 495.522 L352.136 503.356 L342.688 511.189 L334.834 519.022 L328.643 526.856 
  L324.074 534.689 L320.97 542.522 L319.071 550.356 L318.034 558.189 L317.458 566.022 L316.92 573.856 L316.01 581.689 L314.367 589.522 L311.699 597.356 L307.81 605.189 
  L302.611 613.022 L296.119 620.856 L288.458 628.689 L279.843 636.522 L270.564 644.356 L260.967 652.189 L251.421 660.022 L242.299 667.856 L233.942 675.689 L226.64 683.522 
  L220.61 691.355 L215.982 699.189 L212.794 707.022 L210.993 714.855 L210.454 722.689 L210.991 730.522 L212.385 738.355 L214.41 746.189 L216.851 754.022 L219.525 761.855 
  L222.295 769.689 L225.072 777.522 L227.815 785.355 L230.524 793.189 L233.232 801.022 L235.997 808.855 L238.886 816.689 L241.971 824.522 L245.322 832.355 L249.001 840.189 
  L253.056 848.022 L257.518 855.855 L262.402 863.689 L267.697 871.522 L273.375 879.355 L279.391 887.189 L285.687 895.022 L292.207 902.855 L298.902 910.688 L305.743 918.522 
  L312.731 926.355 L319.9 934.188 L327.316 942.022 L335.071 949.855 L343.271 957.688 L352.021 965.522 L361.41 973.355 L371.493 981.188 L382.286 989.022 L393.754 996.855 
  L405.819 1004.69 L418.36 1012.52 L431.225 1020.35 L444.245 1028.19 L457.246 1036.02 L470.057 1043.85 L482.523 1051.69 L494.508 1059.52 L505.9 1067.35 L516.61 1075.19 
  L526.575 1083.02 L535.752 1090.85 L544.121 1098.69 L551.679 1106.52 L558.441 1114.35 L564.438 1122.19 L569.709 1130.02 L574.311 1137.85 L578.305 1145.69 L581.766 1153.52 
  L584.777 1161.35 L587.43 1169.19 L589.825 1177.02 L592.07 1184.85 L594.274 1192.69 L596.543 1200.52 L598.977 1208.35 L601.66 1216.19 L604.657 1224.02 L608.005 1231.85 
  L611.716 1239.69 L615.771 1247.52 L620.124 1255.35 L624.707 1263.19 L629.434 1271.02 L634.206 1278.85 L711.103 1278.85  Z
  " fill="#009af9" fill-rule="evenodd" fill-opacity="1"/>
<polyline clip-path="url(#clip612)" style="stroke:#000000; stroke-linecap:butt; stroke-linejoin:round; stroke-width:4; stroke-opacity:1; fill:none" points="
  711.103,1278.85 715.876,1271.02 720.602,1263.19 725.185,1255.35 729.539,1247.52 733.594,1239.69 737.305,1231.85 740.653,1224.02 743.65,1216.19 746.333,1208.35 
  748.767,1200.52 751.036,1192.69 753.24,1184.85 755.484,1177.02 757.88,1169.19 760.533,1161.35 763.544,1153.52 767.005,1145.69 770.999,1137.85 775.6,1130.02 
  780.872,1122.19 786.868,1114.35 793.631,1106.52 801.189,1098.69 809.557,1090.85 818.735,1083.02 828.699,1075.19 839.41,1067.35 850.802,1059.52 862.787,1051.69 
  875.253,1043.85 888.064,1036.02 901.064,1028.19 914.085,1020.35 926.95,1012.52 939.491,1004.69 951.556,996.855 963.024,989.022 973.817,981.188 983.9,973.355 
  993.288,965.522 1002.04,957.688 1010.24,949.855 1017.99,942.022 1025.41,934.188 1032.58,926.355 1039.57,918.522 1046.41,910.688 1053.1,902.855 1059.62,895.022 
  1065.92,887.189 1071.93,879.355 1077.61,871.522 1082.91,863.689 1087.79,855.855 1092.25,848.022 1096.31,840.189 1099.99,832.355 1103.34,824.522 1106.42,816.689 
  1109.31,808.855 1112.08,801.022 1114.79,793.189 1117.5,785.355 1120.24,777.522 1123.01,769.689 1125.78,761.855 1128.46,754.022 1130.9,746.189 1132.92,738.355 
  1134.32,730.522 1134.86,722.689 1134.32,714.855 1132.52,707.022 1129.33,699.189 1124.7,691.355 1118.67,683.522 1111.37,675.689 1103.01,667.856 1093.89,660.022 
  1084.34,652.189 1074.75,644.356 1065.47,636.522 1056.85,628.689 1049.19,620.856 1042.7,613.022 1037.5,605.189 1033.61,597.356 1030.94,589.522 1029.3,581.689 
  1028.39,573.856 1027.85,566.022 1027.28,558.189 1026.24,550.356 1024.34,542.522 1021.24,534.689 1016.67,526.856 1010.48,519.022 1002.62,511.189 993.174,503.356 
  982.296,495.522 970.228,487.689 957.254,479.856 943.676,472.023 929.788,464.189 915.854,456.356 902.097,448.523 888.694,440.689 875.773,432.856 863.422,425.023 
  851.696,417.189 840.625,409.356 830.225,401.523 820.501,393.689 811.455,385.856 803.085,378.023 795.389,370.189 788.364,362.356 782.002,354.523 776.29,346.689 
  771.207,338.856 766.717,331.023 762.775,323.189 759.318,315.356 756.268,307.523 753.536,299.689 751.022,291.856 748.621,284.023 746.229,276.189 743.754,268.356 
  741.114,260.523 738.251,252.69 735.131,244.856 731.747,237.023 728.12,229.19 724.292,221.356 720.326,213.523 716.297,205.69 712.284,197.856 708.365,190.023 
  704.608,182.19 701.066,174.356 697.778,166.523 694.764,158.69 692.029,150.856 689.564,143.023 687.352,135.19 685.37,127.356 659.94,127.356 657.958,135.19 
  655.746,143.023 653.281,150.856 650.545,158.69 647.532,166.523 644.244,174.356 640.702,182.19 636.945,190.023 633.026,197.856 629.013,205.69 624.984,213.523 
  621.018,221.356 617.19,229.19 613.562,237.023 610.179,244.856 607.059,252.69 604.196,260.523 601.556,268.356 599.08,276.189 596.689,284.023 594.288,291.856 
  591.773,299.689 589.041,307.523 585.992,315.356 582.535,323.189 578.592,331.023 574.103,338.856 569.019,346.689 563.308,354.523 556.946,362.356 549.921,370.189 
  542.225,378.023 533.855,385.856 524.808,393.689 515.084,401.523 504.684,409.356 493.614,417.189 481.888,425.023 469.537,432.856 456.616,440.689 443.213,448.523 
  429.456,456.356 415.522,464.189 401.634,472.023 388.056,479.856 375.081,487.689 363.013,495.522 352.136,503.356 342.688,511.189 334.834,519.022 328.643,526.856 
  324.074,534.689 320.97,542.522 319.071,550.356 318.034,558.189 317.458,566.022 316.92,573.856 316.01,581.689 314.367,589.522 311.699,597.356 307.81,605.189 
  302.611,613.022 296.119,620.856 288.458,628.689 279.843,636.522 270.564,644.356 260.967,652.189 251.421,660.022 242.299,667.856 233.942,675.689 226.64,683.522 
  220.61,691.355 215.982,699.189 212.794,707.022 210.993,714.855 210.454,722.689 210.991,730.522 212.385,738.355 214.41,746.189 216.851,754.022 219.525,761.855 
  222.295,769.689 225.072,777.522 227.815,785.355 230.524,793.189 233.232,801.022 235.997,808.855 238.886,816.689 241.971,824.522 245.322,832.355 249.001,840.189 
  253.056,848.022 257.518,855.855 262.402,863.689 267.697,871.522 273.375,879.355 279.391,887.189 285.687,895.022 292.207,902.855 298.902,910.688 305.743,918.522 
  312.731,926.355 319.9,934.188 327.316,942.022 335.071,949.855 343.271,957.688 352.021,965.522 361.41,973.355 371.493,981.188 382.286,989.022 393.754,996.855 
  405.819,1004.69 418.36,1012.52 431.225,1020.35 444.245,1028.19 457.246,1036.02 470.057,1043.85 482.523,1051.69 494.508,1059.52 505.9,1067.35 516.61,1075.19 
  526.575,1083.02 535.752,1090.85 544.121,1098.69 551.679,1106.52 558.441,1114.35 564.438,1122.19 569.709,1130.02 574.311,1137.85 578.305,1145.69 581.766,1153.52 
  584.777,1161.35 587.43,1169.19 589.825,1177.02 592.07,1184.85 594.274,1192.69 596.543,1200.52 598.977,1208.35 601.66,1216.19 604.657,1224.02 608.005,1231.85 
  611.716,1239.69 615.771,1247.52 620.124,1255.35 624.707,1263.19 629.434,1271.02 634.206,1278.85 711.103,1278.85 
  "/>
<path clip-path="url(#clip612)" d="
M1836.21 1445.72 L1836.23 1436.84 L1836.04 1427.97 L1835.68 1419.09 L1835.2 1410.22 L1834.68 1401.35 L1834.21 1392.47 L1833.86 1383.6 L1833.72 1374.72 L1833.86 1365.85 
  L1834.33 1356.97 L1835.18 1348.1 L1836.43 1339.23 L1838.1 1330.35 L1840.17 1321.48 L1842.63 1312.6 L1845.43 1303.73 L1848.52 1294.86 L1851.86 1285.98 L1855.37 1277.11 
  L1859.02 1268.23 L1862.77 1259.36 L1866.59 1250.49 L1870.49 1241.61 L1874.49 1232.74 L1878.62 1223.86 L1882.91 1214.99 L1887.4 1206.11 L1892.08 1197.24 L1896.94 1188.37 
  L1901.93 1179.49 L1907 1170.62 L1912.08 1161.74 L1917.11 1152.87 L1922.08 1144 L1926.99 1135.12 L1931.92 1126.25 L1936.98 1117.37 L1942.3 1108.5 L1948.02 1099.63 
  L1954.26 1090.75 L1961.11 1081.88 L1968.55 1073 L1976.52 1064.13 L1984.86 1055.25 L1993.37 1046.38 L2001.8 1037.51 L2009.91 1028.63 L2017.52 1019.76 L2024.52 1010.88 
  L2030.93 1002.01 L2036.85 993.136 L2042.52 984.262 L2048.24 975.388 L2054.32 966.514 L2061.08 957.639 L2068.73 948.765 L2077.4 939.891 L2087.08 931.017 L2097.64 922.143 
  L2108.85 913.269 L2120.45 904.395 L2132.13 895.521 L2143.67 886.647 L2154.9 877.772 L2165.72 868.898 L2176.14 860.024 L2186.24 851.15 L2196.12 842.276 L2205.89 833.402 
  L2215.6 824.528 L2225.27 815.654 L2234.83 806.779 L2244.13 797.905 L2252.98 789.031 L2261.16 780.157 L2268.47 771.283 L2274.75 762.409 L2279.9 753.535 L2283.91 744.661 
  L2286.85 735.787 L2288.81 726.912 L2289.94 718.038 L2290.36 709.164 L2290.16 700.29 L2289.39 691.416 L2288.02 682.542 L2285.99 673.668 L2283.23 664.794 L2279.65 655.92 
  L2275.2 647.045 L2269.85 638.171 L2263.64 629.297 L2256.63 620.423 L2248.91 611.549 L2240.57 602.675 L2231.68 593.801 L2222.3 584.927 L2212.46 576.053 L2202.15 567.178 
  L2191.34 558.304 L2180.01 549.43 L2168.14 540.556 L2155.72 531.682 L2142.77 522.808 L2129.37 513.934 L2115.62 505.06 L2101.64 496.186 L2087.61 487.311 L2073.7 478.437 
  L2060.13 469.563 L2047.07 460.689 L2034.71 451.815 L2023.19 442.941 L2012.6 434.067 L2003.02 425.193 L1994.43 416.318 L1986.78 407.444 L1979.98 398.57 L1973.85 389.696 
  L1968.24 380.822 L1962.94 371.948 L1957.76 363.074 L1952.54 354.2 L1947.14 345.326 L1941.47 336.451 L1935.49 327.577 L1929.21 318.703 L1922.68 309.829 L1915.96 300.955 
  L1909.16 292.081 L1902.37 283.207 L1895.68 274.333 L1889.19 265.459 L1882.97 256.584 L1877.08 247.71 L1871.6 238.836 L1866.57 229.962 L1862.05 221.088 L1858.09 212.214 
  L1854.71 203.34 L1851.94 194.466 L1849.76 185.592 L1848.15 176.717 L1847.04 167.843 L1846.35 158.969 L1845.97 150.095 L1845.78 141.221 L1845.66 132.347 L1845.5 123.473 
  L1845.2 114.599 L1844.69 105.725 L1843.93 96.8504 L1842.91 87.9763 L1813.4 87.9763 L1812.39 96.8504 L1811.63 105.725 L1811.11 114.599 L1810.81 123.473 L1810.65 132.347 
  L1810.54 141.221 L1810.35 150.095 L1809.97 158.969 L1809.28 167.843 L1808.17 176.717 L1806.55 185.592 L1804.38 194.466 L1801.6 203.34 L1798.23 212.214 L1794.26 221.088 
  L1789.75 229.962 L1784.72 238.836 L1779.23 247.71 L1773.35 256.584 L1767.13 265.459 L1760.63 274.333 L1753.95 283.207 L1747.16 292.081 L1740.35 300.955 L1733.64 309.829 
  L1727.1 318.703 L1720.82 327.577 L1714.84 336.451 L1709.17 345.326 L1703.77 354.2 L1698.55 363.074 L1693.38 371.948 L1688.08 380.822 L1682.46 389.696 L1676.34 398.57 
  L1669.53 407.444 L1661.88 416.318 L1653.3 425.193 L1643.71 434.067 L1633.13 442.941 L1621.6 451.815 L1609.24 460.689 L1596.19 469.563 L1582.61 478.437 L1568.71 487.311 
  L1554.68 496.186 L1540.7 505.06 L1526.94 513.934 L1513.54 522.808 L1500.6 531.682 L1488.18 540.556 L1476.3 549.43 L1464.97 558.304 L1454.17 567.178 L1443.85 576.053 
  L1434.01 584.927 L1424.64 593.801 L1415.75 602.675 L1407.4 611.549 L1399.68 620.423 L1392.67 629.297 L1386.46 638.171 L1381.12 647.045 L1376.66 655.92 L1373.08 664.794 
  L1370.32 673.668 L1368.3 682.542 L1366.93 691.416 L1366.15 700.29 L1365.96 709.164 L1366.38 718.038 L1367.51 726.912 L1369.47 735.787 L1372.4 744.661 L1376.42 753.535 
  L1381.57 762.409 L1387.85 771.283 L1395.16 780.157 L1403.34 789.031 L1412.19 797.905 L1421.49 806.779 L1431.04 815.654 L1440.71 824.528 L1450.43 833.402 L1460.19 842.276 
  L1470.07 851.15 L1480.17 860.024 L1490.6 868.898 L1501.42 877.772 L1512.64 886.647 L1524.18 895.521 L1535.87 904.395 L1547.46 913.269 L1558.68 922.143 L1569.24 931.017 
  L1578.91 939.891 L1587.59 948.765 L1595.24 957.639 L1601.99 966.514 L1608.08 975.388 L1613.79 984.262 L1619.46 993.136 L1625.39 1002.01 L1631.79 1010.88 L1638.8 1019.76 
  L1646.41 1028.63 L1654.52 1037.51 L1662.95 1046.38 L1671.45 1055.25 L1679.79 1064.13 L1687.76 1073 L1695.21 1081.88 L1702.05 1090.75 L1708.3 1099.63 L1714.02 1108.5 
  L1719.34 1117.37 L1724.39 1126.25 L1729.32 1135.12 L1734.24 1144 L1739.2 1152.87 L1744.24 1161.74 L1749.31 1170.62 L1754.38 1179.49 L1759.38 1188.37 L1764.24 1197.24 
  L1768.92 1206.11 L1773.4 1214.99 L1777.69 1223.86 L1781.82 1232.74 L1785.82 1241.61 L1789.72 1250.49 L1793.54 1259.36 L1797.29 1268.23 L1800.94 1277.11 L1804.46 1285.98 
  L1807.79 1294.86 L1810.89 1303.73 L1813.69 1312.6 L1816.14 1321.48 L1818.22 1330.35 L1819.88 1339.23 L1821.14 1348.1 L1821.99 1356.97 L1822.46 1365.85 L1822.59 1374.72 
  L1822.45 1383.6 L1822.11 1392.47 L1821.63 1401.35 L1821.12 1410.22 L1820.64 1419.09 L1820.28 1427.97 L1820.09 1436.84 L1820.1 1445.72 L1836.21 1445.72  Z
  " fill="#009af9" fill-rule="evenodd" fill-opacity="1"/>
<polyline clip-path="url(#clip612)" style="stroke:#000000; stroke-linecap:butt; stroke-linejoin:round; stroke-width:4; stroke-opacity:1; fill:none" points="
  1836.21,1445.72 1836.23,1436.84 1836.04,1427.97 1835.68,1419.09 1835.2,1410.22 1834.68,1401.35 1834.21,1392.47 1833.86,1383.6 1833.72,1374.72 1833.86,1365.85 
  1834.33,1356.97 1835.18,1348.1 1836.43,1339.23 1838.1,1330.35 1840.17,1321.48 1842.63,1312.6 1845.43,1303.73 1848.52,1294.86 1851.86,1285.98 1855.37,1277.11 
  1859.02,1268.23 1862.77,1259.36 1866.59,1250.49 1870.49,1241.61 1874.49,1232.74 1878.62,1223.86 1882.91,1214.99 1887.4,1206.11 1892.08,1197.24 1896.94,1188.37 
  1901.93,1179.49 1907,1170.62 1912.08,1161.74 1917.11,1152.87 1922.08,1144 1926.99,1135.12 1931.92,1126.25 1936.98,1117.37 1942.3,1108.5 1948.02,1099.63 
  1954.26,1090.75 1961.11,1081.88 1968.55,1073 1976.52,1064.13 1984.86,1055.25 1993.37,1046.38 2001.8,1037.51 2009.91,1028.63 2017.52,1019.76 2024.52,1010.88 
  2030.93,1002.01 2036.85,993.136 2042.52,984.262 2048.24,975.388 2054.32,966.514 2061.08,957.639 2068.73,948.765 2077.4,939.891 2087.08,931.017 2097.64,922.143 
  2108.85,913.269 2120.45,904.395 2132.13,895.521 2143.67,886.647 2154.9,877.772 2165.72,868.898 2176.14,860.024 2186.24,851.15 2196.12,842.276 2205.89,833.402 
  2215.6,824.528 2225.27,815.654 2234.83,806.779 2244.13,797.905 2252.98,789.031 2261.16,780.157 2268.47,771.283 2274.75,762.409 2279.9,753.535 2283.91,744.661 
  2286.85,735.787 2288.81,726.912 2289.94,718.038 2290.36,709.164 2290.16,700.29 2289.39,691.416 2288.02,682.542 2285.99,673.668 2283.23,664.794 2279.65,655.92 
  2275.2,647.045 2269.85,638.171 2263.64,629.297 2256.63,620.423 2248.91,611.549 2240.57,602.675 2231.68,593.801 2222.3,584.927 2212.46,576.053 2202.15,567.178 
  2191.34,558.304 2180.01,549.43 2168.14,540.556 2155.72,531.682 2142.77,522.808 2129.37,513.934 2115.62,505.06 2101.64,496.186 2087.61,487.311 2073.7,478.437 
  2060.13,469.563 2047.07,460.689 2034.71,451.815 2023.19,442.941 2012.6,434.067 2003.02,425.193 1994.43,416.318 1986.78,407.444 1979.98,398.57 1973.85,389.696 
  1968.24,380.822 1962.94,371.948 1957.76,363.074 1952.54,354.2 1947.14,345.326 1941.47,336.451 1935.49,327.577 1929.21,318.703 1922.68,309.829 1915.96,300.955 
  1909.16,292.081 1902.37,283.207 1895.68,274.333 1889.19,265.459 1882.97,256.584 1877.08,247.71 1871.6,238.836 1866.57,229.962 1862.05,221.088 1858.09,212.214 
  1854.71,203.34 1851.94,194.466 1849.76,185.592 1848.15,176.717 1847.04,167.843 1846.35,158.969 1845.97,150.095 1845.78,141.221 1845.66,132.347 1845.5,123.473 
  1845.2,114.599 1844.69,105.725 1843.93,96.8504 1842.91,87.9763 1813.4,87.9763 1812.39,96.8504 1811.63,105.725 1811.11,114.599 1810.81,123.473 1810.65,132.347 
  1810.54,141.221 1810.35,150.095 1809.97,158.969 1809.28,167.843 1808.17,176.717 1806.55,185.592 1804.38,194.466 1801.6,203.34 1798.23,212.214 1794.26,221.088 
  1789.75,229.962 1784.72,238.836 1779.23,247.71 1773.35,256.584 1767.13,265.459 1760.63,274.333 1753.95,283.207 1747.16,292.081 1740.35,300.955 1733.64,309.829 
  1727.1,318.703 1720.82,327.577 1714.84,336.451 1709.17,345.326 1703.77,354.2 1698.55,363.074 1693.38,371.948 1688.08,380.822 1682.46,389.696 1676.34,398.57 
  1669.53,407.444 1661.88,416.318 1653.3,425.193 1643.71,434.067 1633.13,442.941 1621.6,451.815 1609.24,460.689 1596.19,469.563 1582.61,478.437 1568.71,487.311 
  1554.68,496.186 1540.7,505.06 1526.94,513.934 1513.54,522.808 1500.6,531.682 1488.18,540.556 1476.3,549.43 1464.97,558.304 1454.17,567.178 1443.85,576.053 
  1434.01,584.927 1424.64,593.801 1415.75,602.675 1407.4,611.549 1399.68,620.423 1392.67,629.297 1386.46,638.171 1381.12,647.045 1376.66,655.92 1373.08,664.794 
  1370.32,673.668 1368.3,682.542 1366.93,691.416 1366.15,700.29 1365.96,709.164 1366.38,718.038 1367.51,726.912 1369.47,735.787 1372.4,744.661 1376.42,753.535 
  1381.57,762.409 1387.85,771.283 1395.16,780.157 1403.34,789.031 1412.19,797.905 1421.49,806.779 1431.04,815.654 1440.71,824.528 1450.43,833.402 1460.19,842.276 
  1470.07,851.15 1480.17,860.024 1490.6,868.898 1501.42,877.772 1512.64,886.647 1524.18,895.521 1535.87,904.395 1547.46,913.269 1558.68,922.143 1569.24,931.017 
  1578.91,939.891 1587.59,948.765 1595.24,957.639 1601.99,966.514 1608.08,975.388 1613.79,984.262 1619.46,993.136 1625.39,1002.01 1631.79,1010.88 1638.8,1019.76 
  1646.41,1028.63 1654.52,1037.51 1662.95,1046.38 1671.45,1055.25 1679.79,1064.13 1687.76,1073 1695.21,1081.88 1702.05,1090.75 1708.3,1099.63 1714.02,1108.5 
  1719.34,1117.37 1724.39,1126.25 1729.32,1135.12 1734.24,1144 1739.2,1152.87 1744.24,1161.74 1749.31,1170.62 1754.38,1179.49 1759.38,1188.37 1764.24,1197.24 
  1768.92,1206.11 1773.4,1214.99 1777.69,1223.86 1781.82,1232.74 1785.82,1241.61 1789.72,1250.49 1793.54,1259.36 1797.29,1268.23 1800.94,1277.11 1804.46,1285.98 
  1807.79,1294.86 1810.89,1303.73 1813.69,1312.6 1816.14,1321.48 1818.22,1330.35 1819.88,1339.23 1821.14,1348.1 1821.99,1356.97 1822.46,1365.85 1822.59,1374.72 
  1822.45,1383.6 1822.11,1392.47 1821.63,1401.35 1821.12,1410.22 1820.64,1419.09 1820.28,1427.97 1820.09,1436.84 1820.1,1445.72 1836.21,1445.72 
  "/>
<path clip-path="url(#clip610)" d="
M2009.07 198.898 L2279.27 198.898 L2279.27 95.2176 L2009.07 95.2176  Z
  " fill="#ffffff" fill-rule="evenodd" fill-opacity="1"/>
<polyline clip-path="url(#clip610)" style="stroke:#000000; stroke-linecap:butt; stroke-linejoin:round; stroke-width:4; stroke-opacity:1; fill:none" points="
  2009.07,198.898 2279.27,198.898 2279.27,95.2176 2009.07,95.2176 2009.07,198.898 
  "/>
<path clip-path="url(#clip610)" d="
M2033.56 167.794 L2180.54 167.794 L2180.54 126.322 L2033.56 126.322 L2033.56 167.794  Z
  " fill="#009af9" fill-rule="evenodd" fill-opacity="1"/>
<polyline clip-path="url(#clip610)" style="stroke:#000000; stroke-linecap:butt; stroke-linejoin:round; stroke-width:4; stroke-opacity:1; fill:none" points="
  2033.56,167.794 2180.54,167.794 2180.54,126.322 2033.56,126.322 2033.56,167.794 
  "/>
<path clip-path="url(#clip610)" d="M2218.88 166.745 Q2217.08 171.375 2215.37 172.787 Q2213.65 174.199 2210.78 174.199 L2207.38 174.199 L2207.38 170.634 L2209.88 170.634 Q2211.64 170.634 2212.61 169.8 Q2213.58 168.967 2214.76 165.865 L2215.53 163.921 L2205.04 138.412 L2209.56 138.412 L2217.66 158.689 L2225.76 138.412 L2230.27 138.412 L2218.88 166.745 Z" fill="#000000" fill-rule="evenodd" fill-opacity="1" /></svg>
