<?xml version="1.0" encoding="utf-8"?>
<svg xmlns="http://www.w3.org/2000/svg" xmlns:xlink="http://www.w3.org/1999/xlink" width="600" height="400" viewBox="0 0 2400 1600">
<defs>
  <clipPath id="clip490">
    <rect x="0" y="0" width="2400" height="1600"/>
  </clipPath>
</defs>
<path clip-path="url(#clip490)" d="
M0 1600 L2400 1600 L2400 0 L0 0  Z
  " fill="#ffffff" fill-rule="evenodd" fill-opacity="1"/>
<defs>
  <clipPath id="clip491">
    <rect x="480" y="0" width="1681" height="1600"/>
  </clipPath>
</defs>
<path clip-path="url(#clip490)" d="
M156.598 1486.45 L2352.76 1486.45 L2352.76 47.2441 L156.598 47.2441  Z
  " fill="#ffffff" fill-rule="evenodd" fill-opacity="1"/>
<defs>
  <clipPath id="clip492">
    <rect x="156" y="47" width="2197" height="1440"/>
  </clipPath>
</defs>
<polyline clip-path="url(#clip492)" style="stroke:#000000; stroke-linecap:butt; stroke-linejoin:round; stroke-width:2; stroke-opacity:0.1; fill:none" points="
  180.366,1486.45 180.366,47.2441 
  "/>
<polyline clip-path="url(#clip492)" style="stroke:#000000; stroke-linecap:butt; stroke-linejoin:round; stroke-width:2; stroke-opacity:0.1; fill:none" points="
  715.806,1486.45 715.806,47.2441 
  "/>
<polyline clip-path="url(#clip492)" style="stroke:#000000; stroke-linecap:butt; stroke-linejoin:round; stroke-width:2; stroke-opacity:0.1; fill:none" points="
  1251.25,1486.45 1251.25,47.2441 
  "/>
<polyline clip-path="url(#clip492)" style="stroke:#000000; stroke-linecap:butt; stroke-linejoin:round; stroke-width:2; stroke-opacity:0.1; fill:none" points="
  1786.69,1486.45 1786.69,47.2441 
  "/>
<polyline clip-path="url(#clip492)" style="stroke:#000000; stroke-linecap:butt; stroke-linejoin:round; stroke-width:2; stroke-opacity:0.1; fill:none" points="
  2322.13,1486.45 2322.13,47.2441 
  "/>
<polyline clip-path="url(#clip490)" style="stroke:#000000; stroke-linecap:butt; stroke-linejoin:round; stroke-width:4; stroke-opacity:1; fill:none" points="
  156.598,1486.45 2352.76,1486.45 
  "/>
<polyline clip-path="url(#clip490)" style="stroke:#000000; stroke-linecap:butt; stroke-linejoin:round; stroke-width:4; stroke-opacity:1; fill:none" points="
  180.366,1486.45 180.366,1467.55 
  "/>
<polyline clip-path="url(#clip490)" style="stroke:#000000; stroke-linecap:butt; stroke-linejoin:round; stroke-width:4; stroke-opacity:1; fill:none" points="
  715.806,1486.45 715.806,1467.55 
  "/>
<polyline clip-path="url(#clip490)" style="stroke:#000000; stroke-linecap:butt; stroke-linejoin:round; stroke-width:4; stroke-opacity:1; fill:none" points="
  1251.25,1486.45 1251.25,1467.55 
  "/>
<polyline clip-path="url(#clip490)" style="stroke:#000000; stroke-linecap:butt; stroke-linejoin:round; stroke-width:4; stroke-opacity:1; fill:none" points="
  1786.69,1486.45 1786.69,1467.55 
  "/>
<polyline clip-path="url(#clip490)" style="stroke:#000000; stroke-linecap:butt; stroke-linejoin:round; stroke-width:4; stroke-opacity:1; fill:none" points="
  2322.13,1486.45 2322.13,1467.55 
  "/>
<path clip-path="url(#clip490)" d="M149.266 1532.02 L178.942 1532.02 L178.942 1535.95 L149.266 1535.95 L149.266 1532.02 Z" fill="#000000" fill-rule="evenodd" fill-opacity="1" /><path clip-path="url(#clip490)" d="M201.882 1518.36 L190.076 1536.81 L201.882 1536.81 L201.882 1518.36 M200.655 1514.29 L206.535 1514.29 L206.535 1536.81 L211.465 1536.81 L211.465 1540.7 L206.535 1540.7 L206.535 1548.85 L201.882 1548.85 L201.882 1540.7 L186.28 1540.7 L186.28 1536.19 L200.655 1514.29 Z" fill="#000000" fill-rule="evenodd" fill-opacity="1" /><path clip-path="url(#clip490)" d="M685.749 1532.02 L715.424 1532.02 L715.424 1535.95 L685.749 1535.95 L685.749 1532.02 Z" fill="#000000" fill-rule="evenodd" fill-opacity="1" /><path clip-path="url(#clip490)" d="M729.545 1544.91 L745.864 1544.91 L745.864 1548.85 L723.92 1548.85 L723.92 1544.91 Q726.582 1542.16 731.165 1537.53 Q735.771 1532.88 736.952 1531.53 Q739.197 1529.01 740.077 1527.27 Q740.98 1525.51 740.98 1523.82 Q740.98 1521.07 739.035 1519.33 Q737.114 1517.6 734.012 1517.6 Q731.813 1517.6 729.359 1518.36 Q726.929 1519.13 724.151 1520.68 L724.151 1515.95 Q726.975 1514.82 729.429 1514.24 Q731.883 1513.66 733.92 1513.66 Q739.29 1513.66 742.484 1516.35 Q745.679 1519.03 745.679 1523.52 Q745.679 1525.65 744.869 1527.57 Q744.082 1529.47 741.975 1532.07 Q741.396 1532.74 738.295 1535.95 Q735.193 1539.15 729.545 1544.91 Z" fill="#000000" fill-rule="evenodd" fill-opacity="1" /><path clip-path="url(#clip490)" d="M1251.25 1517.37 Q1247.64 1517.37 1245.81 1520.93 Q1244 1524.47 1244 1531.6 Q1244 1538.71 1245.81 1542.27 Q1247.64 1545.82 1251.25 1545.82 Q1254.88 1545.82 1256.69 1542.27 Q1258.52 1538.71 1258.52 1531.6 Q1258.52 1524.47 1256.69 1520.93 Q1254.88 1517.37 1251.25 1517.37 M1251.25 1513.66 Q1257.06 1513.66 1260.11 1518.27 Q1263.19 1522.85 1263.19 1531.6 Q1263.19 1540.33 1260.11 1544.94 Q1257.06 1549.52 1251.25 1549.52 Q1245.44 1549.52 1242.36 1544.94 Q1239.3 1540.33 1239.3 1531.6 Q1239.3 1522.85 1242.36 1518.27 Q1245.44 1513.66 1251.25 1513.66 Z" fill="#000000" fill-rule="evenodd" fill-opacity="1" /><path clip-path="url(#clip490)" d="M1781.34 1544.91 L1797.66 1544.91 L1797.66 1548.85 L1775.72 1548.85 L1775.72 1544.91 Q1778.38 1542.16 1782.96 1537.53 Q1787.57 1532.88 1788.75 1531.53 Q1790.99 1529.01 1791.87 1527.27 Q1792.78 1525.51 1792.78 1523.82 Q1792.78 1521.07 1790.83 1519.33 Q1788.91 1517.6 1785.81 1517.6 Q1783.61 1517.6 1781.16 1518.36 Q1778.72 1519.13 1775.95 1520.68 L1775.95 1515.95 Q1778.77 1514.82 1781.22 1514.24 Q1783.68 1513.66 1785.72 1513.66 Q1791.09 1513.66 1794.28 1516.35 Q1797.47 1519.03 1797.47 1523.52 Q1797.47 1525.65 1796.66 1527.57 Q1795.88 1529.47 1793.77 1532.07 Q1793.19 1532.74 1790.09 1535.95 Q1786.99 1539.15 1781.34 1544.91 Z" fill="#000000" fill-rule="evenodd" fill-opacity="1" /><path clip-path="url(#clip490)" d="M2325.14 1518.36 L2313.33 1536.81 L2325.14 1536.81 L2325.14 1518.36 M2323.91 1514.29 L2329.79 1514.29 L2329.79 1536.81 L2334.72 1536.81 L2334.72 1540.7 L2329.79 1540.7 L2329.79 1548.85 L2325.14 1548.85 L2325.14 1540.7 L2309.54 1540.7 L2309.54 1536.19 L2323.91 1514.29 Z" fill="#000000" fill-rule="evenodd" fill-opacity="1" /><polyline clip-path="url(#clip492)" style="stroke:#000000; stroke-linecap:butt; stroke-linejoin:round; stroke-width:2; stroke-opacity:0.1; fill:none" points="
  156.598,1445.72 2352.76,1445.72 
  "/>
<polyline clip-path="url(#clip492)" style="stroke:#000000; stroke-linecap:butt; stroke-linejoin:round; stroke-width:2; stroke-opacity:0.1; fill:none" points="
  156.598,1103.3 2352.76,1103.3 
  "/>
<polyline clip-path="url(#clip492)" style="stroke:#000000; stroke-linecap:butt; stroke-linejoin:round; stroke-width:2; stroke-opacity:0.1; fill:none" points="
  156.598,760.875 2352.76,760.875 
  "/>
<polyline clip-path="url(#clip492)" style="stroke:#000000; stroke-linecap:butt; stroke-linejoin:round; stroke-width:2; stroke-opacity:0.1; fill:none" points="
  156.598,418.453 2352.76,418.453 
  "/>
<polyline clip-path="url(#clip492)" style="stroke:#000000; stroke-linecap:butt; stroke-linejoin:round; stroke-width:2; stroke-opacity:0.1; fill:none" points="
  156.598,76.031 2352.76,76.031 
  "/>
<polyline clip-path="url(#clip490)" style="stroke:#000000; stroke-linecap:butt; stroke-linejoin:round; stroke-width:4; stroke-opacity:1; fill:none" points="
  156.598,1486.45 156.598,47.2441 
  "/>
<polyline clip-path="url(#clip490)" style="stroke:#000000; stroke-linecap:butt; stroke-linejoin:round; stroke-width:4; stroke-opacity:1; fill:none" points="
  156.598,1445.72 175.496,1445.72 
  "/>
<polyline clip-path="url(#clip490)" style="stroke:#000000; stroke-linecap:butt; stroke-linejoin:round; stroke-width:4; stroke-opacity:1; fill:none" points="
  156.598,1103.3 175.496,1103.3 
  "/>
<polyline clip-path="url(#clip490)" style="stroke:#000000; stroke-linecap:butt; stroke-linejoin:round; stroke-width:4; stroke-opacity:1; fill:none" points="
  156.598,760.875 175.496,760.875 
  "/>
<polyline clip-path="url(#clip490)" style="stroke:#000000; stroke-linecap:butt; stroke-linejoin:round; stroke-width:4; stroke-opacity:1; fill:none" points="
  156.598,418.453 175.496,418.453 
  "/>
<polyline clip-path="url(#clip490)" style="stroke:#000000; stroke-linecap:butt; stroke-linejoin:round; stroke-width:4; stroke-opacity:1; fill:none" points="
  156.598,76.031 175.496,76.031 
  "/>
<path clip-path="url(#clip490)" d="M63.4226 1431.52 Q59.8115 1431.52 57.9828 1435.08 Q56.1773 1438.62 56.1773 1445.75 Q56.1773 1452.86 57.9828 1456.43 Q59.8115 1459.97 63.4226 1459.97 Q67.0569 1459.97 68.8624 1456.43 Q70.6911 1452.86 70.6911 1445.75 Q70.6911 1438.62 68.8624 1435.08 Q67.0569 1431.52 63.4226 1431.52 M63.4226 1427.81 Q69.2328 1427.81 72.2883 1432.42 Q75.367 1437 75.367 1445.75 Q75.367 1454.48 72.2883 1459.09 Q69.2328 1463.67 63.4226 1463.67 Q57.6125 1463.67 54.5338 1459.09 Q51.4782 1454.48 51.4782 1445.75 Q51.4782 1437 54.5338 1432.42 Q57.6125 1427.81 63.4226 1427.81 Z" fill="#000000" fill-rule="evenodd" fill-opacity="1" /><path clip-path="url(#clip490)" d="M83.5845 1457.12 L88.4688 1457.12 L88.4688 1463 L83.5845 1463 L83.5845 1457.12 Z" fill="#000000" fill-rule="evenodd" fill-opacity="1" /><path clip-path="url(#clip490)" d="M108.654 1431.52 Q105.043 1431.52 103.214 1435.08 Q101.409 1438.62 101.409 1445.75 Q101.409 1452.86 103.214 1456.43 Q105.043 1459.97 108.654 1459.97 Q112.288 1459.97 114.094 1456.43 Q115.922 1452.86 115.922 1445.75 Q115.922 1438.62 114.094 1435.08 Q112.288 1431.52 108.654 1431.52 M108.654 1427.81 Q114.464 1427.81 117.52 1432.42 Q120.598 1437 120.598 1445.75 Q120.598 1454.48 117.52 1459.09 Q114.464 1463.67 108.654 1463.67 Q102.844 1463.67 99.765 1459.09 Q96.7095 1454.48 96.7095 1445.75 Q96.7095 1437 99.765 1432.42 Q102.844 1427.81 108.654 1427.81 Z" fill="#000000" fill-rule="evenodd" fill-opacity="1" /><path clip-path="url(#clip490)" d="M64.6495 1089.1 Q61.0384 1089.1 59.2097 1092.66 Q57.4041 1096.2 57.4041 1103.33 Q57.4041 1110.44 59.2097 1114 Q61.0384 1117.54 64.6495 1117.54 Q68.2837 1117.54 70.0892 1114 Q71.9179 1110.44 71.9179 1103.33 Q71.9179 1096.2 70.0892 1092.66 Q68.2837 1089.1 64.6495 1089.1 M64.6495 1085.39 Q70.4596 1085.39 73.5152 1090 Q76.5938 1094.58 76.5938 1103.33 Q76.5938 1112.06 73.5152 1116.67 Q70.4596 1121.25 64.6495 1121.25 Q58.8393 1121.25 55.7606 1116.67 Q52.7051 1112.06 52.7051 1103.33 Q52.7051 1094.58 55.7606 1090 Q58.8393 1085.39 64.6495 1085.39 Z" fill="#000000" fill-rule="evenodd" fill-opacity="1" /><path clip-path="url(#clip490)" d="M84.8114 1114.7 L89.6956 1114.7 L89.6956 1120.58 L84.8114 1120.58 L84.8114 1114.7 Z" fill="#000000" fill-rule="evenodd" fill-opacity="1" /><path clip-path="url(#clip490)" d="M100.691 1116.64 L108.33 1116.64 L108.33 1090.28 L100.02 1091.94 L100.02 1087.68 L108.283 1086.02 L112.959 1086.02 L112.959 1116.64 L120.598 1116.64 L120.598 1120.58 L100.691 1120.58 L100.691 1116.64 Z" fill="#000000" fill-rule="evenodd" fill-opacity="1" /><path clip-path="url(#clip490)" d="M65.0198 746.674 Q61.4087 746.674 59.58 750.239 Q57.7745 753.78 57.7745 760.91 Q57.7745 768.016 59.58 771.581 Q61.4087 775.123 65.0198 775.123 Q68.6541 775.123 70.4596 771.581 Q72.2883 768.016 72.2883 760.91 Q72.2883 753.78 70.4596 750.239 Q68.6541 746.674 65.0198 746.674 M65.0198 742.97 Q70.83 742.97 73.8855 747.577 Q76.9642 752.16 76.9642 760.91 Q76.9642 769.637 73.8855 774.243 Q70.83 778.826 65.0198 778.826 Q59.2097 778.826 56.131 774.243 Q53.0754 769.637 53.0754 760.91 Q53.0754 752.16 56.131 747.577 Q59.2097 742.97 65.0198 742.97 Z" fill="#000000" fill-rule="evenodd" fill-opacity="1" /><path clip-path="url(#clip490)" d="M85.1818 772.276 L90.066 772.276 L90.066 778.155 L85.1818 778.155 L85.1818 772.276 Z" fill="#000000" fill-rule="evenodd" fill-opacity="1" /><path clip-path="url(#clip490)" d="M104.279 774.22 L120.598 774.22 L120.598 778.155 L98.6539 778.155 L98.6539 774.22 Q101.316 771.465 105.899 766.836 Q110.506 762.183 111.686 760.84 Q113.932 758.317 114.811 756.581 Q115.714 754.822 115.714 753.132 Q115.714 750.377 113.77 748.641 Q111.848 746.905 108.746 746.905 Q106.547 746.905 104.094 747.669 Q101.663 748.433 98.8854 749.984 L98.8854 745.262 Q101.709 744.128 104.163 743.549 Q106.617 742.97 108.654 742.97 Q114.024 742.97 117.219 745.655 Q120.413 748.34 120.413 752.831 Q120.413 754.961 119.603 756.882 Q118.816 758.78 116.709 761.373 Q116.131 762.044 113.029 765.262 Q109.927 768.456 104.279 774.22 Z" fill="#000000" fill-rule="evenodd" fill-opacity="1" /><path clip-path="url(#clip490)" d="M64.0708 404.252 Q60.4597 404.252 58.631 407.817 Q56.8254 411.358 56.8254 418.488 Q56.8254 425.594 58.631 429.159 Q60.4597 432.701 64.0708 432.701 Q67.705 432.701 69.5105 429.159 Q71.3392 425.594 71.3392 418.488 Q71.3392 411.358 69.5105 407.817 Q67.705 404.252 64.0708 404.252 M64.0708 400.548 Q69.8809 400.548 72.9365 405.154 Q76.0151 409.738 76.0151 418.488 Q76.0151 427.215 72.9365 431.821 Q69.8809 436.404 64.0708 436.404 Q58.2606 436.404 55.1819 431.821 Q52.1264 427.215 52.1264 418.488 Q52.1264 409.738 55.1819 405.154 Q58.2606 400.548 64.0708 400.548 Z" fill="#000000" fill-rule="evenodd" fill-opacity="1" /><path clip-path="url(#clip490)" d="M84.2327 429.853 L89.1169 429.853 L89.1169 435.733 L84.2327 435.733 L84.2327 429.853 Z" fill="#000000" fill-rule="evenodd" fill-opacity="1" /><path clip-path="url(#clip490)" d="M113.469 417.099 Q116.825 417.816 118.7 420.085 Q120.598 422.353 120.598 425.687 Q120.598 430.802 117.08 433.603 Q113.561 436.404 107.08 436.404 Q104.904 436.404 102.589 435.965 Q100.297 435.548 97.8437 434.691 L97.8437 430.178 Q99.7882 431.312 102.103 431.89 Q104.418 432.469 106.941 432.469 Q111.339 432.469 113.631 430.733 Q115.945 428.997 115.945 425.687 Q115.945 422.631 113.793 420.918 Q111.663 419.182 107.844 419.182 L103.816 419.182 L103.816 415.34 L108.029 415.34 Q111.478 415.34 113.307 413.974 Q115.135 412.585 115.135 409.992 Q115.135 407.33 113.237 405.918 Q111.362 404.483 107.844 404.483 Q105.922 404.483 103.723 404.9 Q101.524 405.317 98.8854 406.196 L98.8854 402.03 Q101.547 401.289 103.862 400.918 Q106.2 400.548 108.26 400.548 Q113.584 400.548 116.686 402.979 Q119.788 405.386 119.788 409.506 Q119.788 412.377 118.145 414.367 Q116.501 416.335 113.469 417.099 Z" fill="#000000" fill-rule="evenodd" fill-opacity="1" /><path clip-path="url(#clip490)" d="M62.9365 61.8296 Q59.3254 61.8296 57.4967 65.3944 Q55.6912 68.9361 55.6912 76.0657 Q55.6912 83.1721 57.4967 86.7369 Q59.3254 90.2786 62.9365 90.2786 Q66.5707 90.2786 68.3763 86.7369 Q70.205 83.1721 70.205 76.0657 Q70.205 68.9361 68.3763 65.3944 Q66.5707 61.8296 62.9365 61.8296 M62.9365 58.126 Q68.7467 58.126 71.8022 62.7324 Q74.8809 67.3157 74.8809 76.0657 Q74.8809 84.7925 71.8022 89.3989 Q68.7467 93.9822 62.9365 93.9822 Q57.1264 93.9822 54.0477 89.3989 Q50.9921 84.7925 50.9921 76.0657 Q50.9921 67.3157 54.0477 62.7324 Q57.1264 58.126 62.9365 58.126 Z" fill="#000000" fill-rule="evenodd" fill-opacity="1" /><path clip-path="url(#clip490)" d="M83.0984 87.4314 L87.9827 87.4314 L87.9827 93.311 L83.0984 93.311 L83.0984 87.4314 Z" fill="#000000" fill-rule="evenodd" fill-opacity="1" /><path clip-path="url(#clip490)" d="M111.015 62.825 L99.2095 81.274 L111.015 81.274 L111.015 62.825 M109.788 58.751 L115.668 58.751 L115.668 81.274 L120.598 81.274 L120.598 85.1628 L115.668 85.1628 L115.668 93.311 L111.015 93.311 L111.015 85.1628 L95.4132 85.1628 L95.4132 80.649 L109.788 58.751 Z" fill="#000000" fill-rule="evenodd" fill-opacity="1" /><polyline clip-path="url(#clip492)" style="stroke:#009af9; stroke-linecap:butt; stroke-linejoin:round; stroke-width:4; stroke-opacity:1; fill:none" points="
  218.754,1445.72 229.165,1445.71 239.576,1445.71 249.988,1445.7 260.399,1445.68 270.81,1445.65 281.221,1445.6 291.633,1445.52 302.044,1445.4 312.455,1445.22 
  322.867,1444.94 333.278,1444.56 343.689,1444.02 354.1,1443.31 364.512,1442.38 374.923,1441.21 385.334,1439.78 395.746,1438.09 406.157,1436.15 416.568,1433.98 
  426.979,1431.63 437.391,1429.15 447.802,1426.58 458.213,1423.95 468.625,1421.31 479.036,1418.62 489.447,1415.87 499.858,1412.97 510.27,1409.82 520.681,1406.29 
  531.092,1402.24 541.504,1397.55 551.915,1392.08 562.326,1385.73 572.738,1378.46 583.149,1370.25 593.56,1361.12 603.971,1351.16 614.383,1340.48 624.794,1329.23 
  635.205,1317.58 645.617,1305.72 656.028,1293.82 666.439,1282.05 676.85,1270.53 687.262,1259.36 697.673,1248.55 708.084,1238.03 718.496,1227.67 728.907,1217.25 
  739.318,1206.46 749.729,1194.95 760.141,1182.36 770.552,1168.3 780.963,1152.47 791.375,1134.62 801.786,1114.65 812.197,1092.58 822.609,1068.58 833.02,1042.95 
  843.431,1016.06 853.842,988.361 864.254,960.252 874.665,932.099 885.076,904.17 895.488,876.632 905.899,849.561 916.31,822.966 926.721,796.826 937.133,771.126 
  947.544,745.873 957.955,721.103 968.367,696.863 978.778,673.19 989.189,650.073 999.6,627.431 1010.01,605.097 1020.42,582.828 1030.83,560.322 1041.25,537.264 
  1051.66,513.37 1062.07,488.442 1072.48,462.413 1082.89,435.388 1093.3,407.666 1103.71,379.741 1114.12,352.274 1124.54,326.044 1134.95,301.864 1145.36,280.481 
  1155.77,262.466 1166.18,248.11 1176.59,237.354 1187,229.751 1197.41,224.503 1207.83,220.539 1218.24,216.659 1228.65,211.7 1239.06,204.709 1249.47,195.092 
  1259.88,182.713 1270.29,167.921 1280.71,151.51 1291.12,134.615 1301.53,118.569 1311.94,104.742 1322.35,94.3945 1332.76,88.5602 1343.17,87.9763 1353.58,93.0578 
  1364,103.91 1374.41,120.363 1384.82,142.026 1395.23,168.328 1405.64,198.566 1416.05,231.941 1426.46,267.596 1436.87,304.652 1447.29,342.255 1457.7,379.631 
  1468.11,416.132 1478.52,451.289 1488.93,484.835 1499.34,516.724 1509.75,547.105 1520.16,576.296 1530.58,604.723 1540.99,632.858 1551.4,661.159 1561.81,690.016 
  1572.22,719.711 1582.63,750.392 1593.04,782.072 1603.46,814.63 1613.87,847.835 1624.28,881.372 1634.69,914.869 1645.1,947.93 1655.51,980.164 1665.92,1011.21 
  1676.33,1040.74 1686.75,1068.51 1697.16,1094.35 1707.57,1118.14 1717.98,1139.87 1728.39,1159.61 1738.8,1177.48 1749.21,1193.66 1759.62,1208.39 1770.04,1221.88 
  1780.45,1234.35 1790.86,1245.99 1801.27,1256.96 1811.68,1267.35 1822.09,1277.25 1832.5,1286.72 1842.91,1295.82 1853.33,1304.64 1863.74,1313.25 1874.15,1321.75 
  1884.56,1330.23 1894.97,1338.77 1905.38,1347.4 1915.79,1356.11 1926.21,1364.84 1936.62,1373.49 1947.03,1381.92 1957.44,1389.97 1967.85,1397.52 1978.26,1404.43 
  1988.67,1410.62 1999.08,1416.05 2009.5,1420.74 2019.91,1424.71 2030.32,1428.05 2040.73,1430.84 2051.14,1433.18 2061.55,1435.16 2071.96,1436.86 2082.37,1438.32 
  2092.79,1439.61 2103.2,1440.73 2113.61,1441.71 2124.02,1442.56 2134.43,1443.28 2144.84,1443.88 2155.25,1444.36 2165.67,1444.74 2176.08,1445.04 2186.49,1445.25 
  2196.9,1445.41 2207.31,1445.52 2217.72,1445.59 2228.13,1445.64 2238.54,1445.67 2248.96,1445.69 2259.37,1445.7 2269.78,1445.71 2280.19,1445.71 2290.6,1445.72 
  
  "/>
</svg>
