<?xml version="1.0" encoding="utf-8"?>
<svg xmlns="http://www.w3.org/2000/svg" xmlns:xlink="http://www.w3.org/1999/xlink" width="600" height="400" viewBox="0 0 2400 1600">
<defs>
  <clipPath id="clip450">
    <rect x="0" y="0" width="2400" height="1600"/>
  </clipPath>
</defs>
<path clip-path="url(#clip450)" d="
M0 1600 L2400 1600 L2400 0 L0 0  Z
  " fill="#ffffff" fill-rule="evenodd" fill-opacity="1"/>
<defs>
  <clipPath id="clip451">
    <rect x="480" y="0" width="1681" height="1600"/>
  </clipPath>
</defs>
<path clip-path="url(#clip450)" d="
M148.057 1486.45 L2352.76 1486.45 L2352.76 47.2441 L148.057 47.2441  Z
  " fill="#ffffff" fill-rule="evenodd" fill-opacity="1"/>
<defs>
  <clipPath id="clip452">
    <rect x="148" y="47" width="2206" height="1440"/>
  </clipPath>
</defs>
<polyline clip-path="url(#clip452)" style="stroke:#000000; stroke-linecap:butt; stroke-linejoin:round; stroke-width:2; stroke-opacity:0.1; fill:none" points="
  193.079,1486.45 193.079,47.2441 
  "/>
<polyline clip-path="url(#clip452)" style="stroke:#000000; stroke-linecap:butt; stroke-linejoin:round; stroke-width:2; stroke-opacity:0.1; fill:none" points="
  544.023,1486.45 544.023,47.2441 
  "/>
<polyline clip-path="url(#clip452)" style="stroke:#000000; stroke-linecap:butt; stroke-linejoin:round; stroke-width:2; stroke-opacity:0.1; fill:none" points="
  894.966,1486.45 894.966,47.2441 
  "/>
<polyline clip-path="url(#clip452)" style="stroke:#000000; stroke-linecap:butt; stroke-linejoin:round; stroke-width:2; stroke-opacity:0.1; fill:none" points="
  1245.91,1486.45 1245.91,47.2441 
  "/>
<polyline clip-path="url(#clip452)" style="stroke:#000000; stroke-linecap:butt; stroke-linejoin:round; stroke-width:2; stroke-opacity:0.1; fill:none" points="
  1596.85,1486.45 1596.85,47.2441 
  "/>
<polyline clip-path="url(#clip452)" style="stroke:#000000; stroke-linecap:butt; stroke-linejoin:round; stroke-width:2; stroke-opacity:0.1; fill:none" points="
  1947.8,1486.45 1947.8,47.2441 
  "/>
<polyline clip-path="url(#clip452)" style="stroke:#000000; stroke-linecap:butt; stroke-linejoin:round; stroke-width:2; stroke-opacity:0.1; fill:none" points="
  2298.74,1486.45 2298.74,47.2441 
  "/>
<polyline clip-path="url(#clip450)" style="stroke:#000000; stroke-linecap:butt; stroke-linejoin:round; stroke-width:4; stroke-opacity:1; fill:none" points="
  148.057,1486.45 2352.76,1486.45 
  "/>
<polyline clip-path="url(#clip450)" style="stroke:#000000; stroke-linecap:butt; stroke-linejoin:round; stroke-width:4; stroke-opacity:1; fill:none" points="
  193.079,1486.45 193.079,1467.55 
  "/>
<polyline clip-path="url(#clip450)" style="stroke:#000000; stroke-linecap:butt; stroke-linejoin:round; stroke-width:4; stroke-opacity:1; fill:none" points="
  544.023,1486.45 544.023,1467.55 
  "/>
<polyline clip-path="url(#clip450)" style="stroke:#000000; stroke-linecap:butt; stroke-linejoin:round; stroke-width:4; stroke-opacity:1; fill:none" points="
  894.966,1486.45 894.966,1467.55 
  "/>
<polyline clip-path="url(#clip450)" style="stroke:#000000; stroke-linecap:butt; stroke-linejoin:round; stroke-width:4; stroke-opacity:1; fill:none" points="
  1245.91,1486.45 1245.91,1467.55 
  "/>
<polyline clip-path="url(#clip450)" style="stroke:#000000; stroke-linecap:butt; stroke-linejoin:round; stroke-width:4; stroke-opacity:1; fill:none" points="
  1596.85,1486.45 1596.85,1467.55 
  "/>
<polyline clip-path="url(#clip450)" style="stroke:#000000; stroke-linecap:butt; stroke-linejoin:round; stroke-width:4; stroke-opacity:1; fill:none" points="
  1947.8,1486.45 1947.8,1467.55 
  "/>
<polyline clip-path="url(#clip450)" style="stroke:#000000; stroke-linecap:butt; stroke-linejoin:round; stroke-width:4; stroke-opacity:1; fill:none" points="
  2298.74,1486.45 2298.74,1467.55 
  "/>
<path clip-path="url(#clip450)" d="M162.547 1532.02 L192.223 1532.02 L192.223 1535.95 L162.547 1535.95 L162.547 1532.02 Z" fill="#000000" fill-rule="evenodd" fill-opacity="1" /><path clip-path="url(#clip450)" d="M216.482 1530.21 Q219.838 1530.93 221.713 1533.2 Q223.612 1535.47 223.612 1538.8 Q223.612 1543.92 220.093 1546.72 Q216.575 1549.52 210.093 1549.52 Q207.917 1549.52 205.602 1549.08 Q203.311 1548.66 200.857 1547.81 L200.857 1543.29 Q202.802 1544.43 205.116 1545.01 Q207.431 1545.58 209.954 1545.58 Q214.352 1545.58 216.644 1543.85 Q218.959 1542.11 218.959 1538.8 Q218.959 1535.75 216.806 1534.03 Q214.676 1532.3 210.857 1532.3 L206.829 1532.3 L206.829 1528.45 L211.042 1528.45 Q214.491 1528.45 216.32 1527.09 Q218.149 1525.7 218.149 1523.11 Q218.149 1520.45 216.251 1519.03 Q214.376 1517.6 210.857 1517.6 Q208.936 1517.6 206.737 1518.01 Q204.538 1518.43 201.899 1519.31 L201.899 1515.14 Q204.561 1514.4 206.876 1514.03 Q209.214 1513.66 211.274 1513.66 Q216.598 1513.66 219.7 1516.09 Q222.801 1518.5 222.801 1522.62 Q222.801 1525.49 221.158 1527.48 Q219.514 1529.45 216.482 1530.21 Z" fill="#000000" fill-rule="evenodd" fill-opacity="1" /><path clip-path="url(#clip450)" d="M513.965 1532.02 L543.641 1532.02 L543.641 1535.95 L513.965 1535.95 L513.965 1532.02 Z" fill="#000000" fill-rule="evenodd" fill-opacity="1" /><path clip-path="url(#clip450)" d="M557.761 1544.91 L574.081 1544.91 L574.081 1548.85 L552.136 1548.85 L552.136 1544.91 Q554.798 1542.16 559.382 1537.53 Q563.988 1532.88 565.169 1531.53 Q567.414 1529.01 568.294 1527.27 Q569.196 1525.51 569.196 1523.82 Q569.196 1521.07 567.252 1519.33 Q565.331 1517.6 562.229 1517.6 Q560.03 1517.6 557.576 1518.36 Q555.145 1519.13 552.368 1520.68 L552.368 1515.95 Q555.192 1514.82 557.645 1514.24 Q560.099 1513.66 562.136 1513.66 Q567.506 1513.66 570.701 1516.35 Q573.895 1519.03 573.895 1523.52 Q573.895 1525.65 573.085 1527.57 Q572.298 1529.47 570.192 1532.07 Q569.613 1532.74 566.511 1535.95 Q563.409 1539.15 557.761 1544.91 Z" fill="#000000" fill-rule="evenodd" fill-opacity="1" /><path clip-path="url(#clip450)" d="M864.723 1532.02 L894.399 1532.02 L894.399 1535.95 L864.723 1535.95 L864.723 1532.02 Z" fill="#000000" fill-rule="evenodd" fill-opacity="1" /><path clip-path="url(#clip450)" d="M905.302 1544.91 L912.941 1544.91 L912.941 1518.55 L904.631 1520.21 L904.631 1515.95 L912.894 1514.29 L917.57 1514.29 L917.57 1544.91 L925.209 1544.91 L925.209 1548.85 L905.302 1548.85 L905.302 1544.91 Z" fill="#000000" fill-rule="evenodd" fill-opacity="1" /><path clip-path="url(#clip450)" d="M1245.91 1517.37 Q1242.3 1517.37 1240.47 1520.93 Q1238.66 1524.47 1238.66 1531.6 Q1238.66 1538.71 1240.47 1542.27 Q1242.3 1545.82 1245.91 1545.82 Q1249.54 1545.82 1251.35 1542.27 Q1253.18 1538.71 1253.18 1531.6 Q1253.18 1524.47 1251.35 1520.93 Q1249.54 1517.37 1245.91 1517.37 M1245.91 1513.66 Q1251.72 1513.66 1254.78 1518.27 Q1257.85 1522.85 1257.85 1531.6 Q1257.85 1540.33 1254.78 1544.94 Q1251.72 1549.52 1245.91 1549.52 Q1240.1 1549.52 1237.02 1544.94 Q1233.97 1540.33 1233.97 1531.6 Q1233.97 1522.85 1237.02 1518.27 Q1240.1 1513.66 1245.91 1513.66 Z" fill="#000000" fill-rule="evenodd" fill-opacity="1" /><path clip-path="url(#clip450)" d="M1587.24 1544.91 L1594.87 1544.91 L1594.87 1518.55 L1586.56 1520.21 L1586.56 1515.95 L1594.83 1514.29 L1599.5 1514.29 L1599.5 1544.91 L1607.14 1544.91 L1607.14 1548.85 L1587.24 1548.85 L1587.24 1544.91 Z" fill="#000000" fill-rule="evenodd" fill-opacity="1" /><path clip-path="url(#clip450)" d="M1942.45 1544.91 L1958.77 1544.91 L1958.77 1548.85 L1936.82 1548.85 L1936.82 1544.91 Q1939.49 1542.16 1944.07 1537.53 Q1948.68 1532.88 1949.86 1531.53 Q1952.1 1529.01 1952.98 1527.27 Q1953.88 1525.51 1953.88 1523.82 Q1953.88 1521.07 1951.94 1519.33 Q1950.02 1517.6 1946.92 1517.6 Q1944.72 1517.6 1942.26 1518.36 Q1939.83 1519.13 1937.06 1520.68 L1937.06 1515.95 Q1939.88 1514.82 1942.33 1514.24 Q1944.79 1513.66 1946.82 1513.66 Q1952.19 1513.66 1955.39 1516.35 Q1958.58 1519.03 1958.58 1523.52 Q1958.58 1525.65 1957.77 1527.57 Q1956.99 1529.47 1954.88 1532.07 Q1954.3 1532.74 1951.2 1535.95 Q1948.1 1539.15 1942.45 1544.91 Z" fill="#000000" fill-rule="evenodd" fill-opacity="1" /><path clip-path="url(#clip450)" d="M2302.99 1530.21 Q2306.34 1530.93 2308.22 1533.2 Q2310.12 1535.47 2310.12 1538.8 Q2310.12 1543.92 2306.6 1546.72 Q2303.08 1549.52 2296.6 1549.52 Q2294.42 1549.52 2292.11 1549.08 Q2289.82 1548.66 2287.36 1547.81 L2287.36 1543.29 Q2289.31 1544.43 2291.62 1545.01 Q2293.94 1545.58 2296.46 1545.58 Q2300.86 1545.58 2303.15 1543.85 Q2305.46 1542.11 2305.46 1538.8 Q2305.46 1535.75 2303.31 1534.03 Q2301.18 1532.3 2297.36 1532.3 L2293.34 1532.3 L2293.34 1528.45 L2297.55 1528.45 Q2301 1528.45 2302.83 1527.09 Q2304.65 1525.7 2304.65 1523.11 Q2304.65 1520.45 2302.76 1519.03 Q2300.88 1517.6 2297.36 1517.6 Q2295.44 1517.6 2293.24 1518.01 Q2291.04 1518.43 2288.4 1519.31 L2288.4 1515.14 Q2291.07 1514.4 2293.38 1514.03 Q2295.72 1513.66 2297.78 1513.66 Q2303.1 1513.66 2306.21 1516.09 Q2309.31 1518.5 2309.31 1522.62 Q2309.31 1525.49 2307.66 1527.48 Q2306.02 1529.45 2302.99 1530.21 Z" fill="#000000" fill-rule="evenodd" fill-opacity="1" /><polyline clip-path="url(#clip452)" style="stroke:#000000; stroke-linecap:butt; stroke-linejoin:round; stroke-width:2; stroke-opacity:0.1; fill:none" points="
  148.057,1396.64 2352.76,1396.64 
  "/>
<polyline clip-path="url(#clip452)" style="stroke:#000000; stroke-linecap:butt; stroke-linejoin:round; stroke-width:2; stroke-opacity:0.1; fill:none" points="
  148.057,1177.83 2352.76,1177.83 
  "/>
<polyline clip-path="url(#clip452)" style="stroke:#000000; stroke-linecap:butt; stroke-linejoin:round; stroke-width:2; stroke-opacity:0.1; fill:none" points="
  148.057,959.019 2352.76,959.019 
  "/>
<polyline clip-path="url(#clip452)" style="stroke:#000000; stroke-linecap:butt; stroke-linejoin:round; stroke-width:2; stroke-opacity:0.1; fill:none" points="
  148.057,740.208 2352.76,740.208 
  "/>
<polyline clip-path="url(#clip452)" style="stroke:#000000; stroke-linecap:butt; stroke-linejoin:round; stroke-width:2; stroke-opacity:0.1; fill:none" points="
  148.057,521.397 2352.76,521.397 
  "/>
<polyline clip-path="url(#clip452)" style="stroke:#000000; stroke-linecap:butt; stroke-linejoin:round; stroke-width:2; stroke-opacity:0.1; fill:none" points="
  148.057,302.586 2352.76,302.586 
  "/>
<polyline clip-path="url(#clip452)" style="stroke:#000000; stroke-linecap:butt; stroke-linejoin:round; stroke-width:2; stroke-opacity:0.1; fill:none" points="
  148.057,83.7751 2352.76,83.7751 
  "/>
<polyline clip-path="url(#clip450)" style="stroke:#000000; stroke-linecap:butt; stroke-linejoin:round; stroke-width:4; stroke-opacity:1; fill:none" points="
  148.057,1486.45 148.057,47.2441 
  "/>
<polyline clip-path="url(#clip450)" style="stroke:#000000; stroke-linecap:butt; stroke-linejoin:round; stroke-width:4; stroke-opacity:1; fill:none" points="
  148.057,1396.64 166.954,1396.64 
  "/>
<polyline clip-path="url(#clip450)" style="stroke:#000000; stroke-linecap:butt; stroke-linejoin:round; stroke-width:4; stroke-opacity:1; fill:none" points="
  148.057,1177.83 166.954,1177.83 
  "/>
<polyline clip-path="url(#clip450)" style="stroke:#000000; stroke-linecap:butt; stroke-linejoin:round; stroke-width:4; stroke-opacity:1; fill:none" points="
  148.057,959.019 166.954,959.019 
  "/>
<polyline clip-path="url(#clip450)" style="stroke:#000000; stroke-linecap:butt; stroke-linejoin:round; stroke-width:4; stroke-opacity:1; fill:none" points="
  148.057,740.208 166.954,740.208 
  "/>
<polyline clip-path="url(#clip450)" style="stroke:#000000; stroke-linecap:butt; stroke-linejoin:round; stroke-width:4; stroke-opacity:1; fill:none" points="
  148.057,521.397 166.954,521.397 
  "/>
<polyline clip-path="url(#clip450)" style="stroke:#000000; stroke-linecap:butt; stroke-linejoin:round; stroke-width:4; stroke-opacity:1; fill:none" points="
  148.057,302.586 166.954,302.586 
  "/>
<polyline clip-path="url(#clip450)" style="stroke:#000000; stroke-linecap:butt; stroke-linejoin:round; stroke-width:4; stroke-opacity:1; fill:none" points="
  148.057,83.7751 166.954,83.7751 
  "/>
<path clip-path="url(#clip450)" d="M50.9921 1397.09 L80.6679 1397.09 L80.6679 1401.03 L50.9921 1401.03 L50.9921 1397.09 Z" fill="#000000" fill-rule="evenodd" fill-opacity="1" /><path clip-path="url(#clip450)" d="M104.927 1395.29 Q108.283 1396 110.158 1398.27 Q112.057 1400.54 112.057 1403.88 Q112.057 1408.99 108.538 1411.79 Q105.02 1414.59 98.5382 1414.59 Q96.3623 1414.59 94.0475 1414.15 Q91.7558 1413.74 89.3021 1412.88 L89.3021 1408.37 Q91.2465 1409.5 93.5613 1410.08 Q95.8761 1410.66 98.3993 1410.66 Q102.797 1410.66 105.089 1408.92 Q107.404 1407.19 107.404 1403.88 Q107.404 1400.82 105.251 1399.11 Q103.121 1397.37 99.3021 1397.37 L95.2743 1397.37 L95.2743 1393.53 L99.4872 1393.53 Q102.936 1393.53 104.765 1392.16 Q106.594 1390.77 106.594 1388.18 Q106.594 1385.52 104.696 1384.11 Q102.821 1382.67 99.3021 1382.67 Q97.3808 1382.67 95.1817 1383.09 Q92.9826 1383.5 90.3438 1384.38 L90.3438 1380.22 Q93.0058 1379.48 95.3206 1379.11 Q97.6585 1378.74 99.7187 1378.74 Q105.043 1378.74 108.145 1381.17 Q111.246 1383.57 111.246 1387.69 Q111.246 1390.57 109.603 1392.56 Q107.959 1394.52 104.927 1395.29 Z" fill="#000000" fill-rule="evenodd" fill-opacity="1" /><path clip-path="url(#clip450)" d="M51.9412 1178.28 L81.617 1178.28 L81.617 1182.22 L51.9412 1182.22 L51.9412 1178.28 Z" fill="#000000" fill-rule="evenodd" fill-opacity="1" /><path clip-path="url(#clip450)" d="M95.7373 1191.18 L112.057 1191.18 L112.057 1195.11 L90.1123 1195.11 L90.1123 1191.18 Q92.7743 1188.42 97.3576 1183.79 Q101.964 1179.14 103.145 1177.8 Q105.39 1175.27 106.27 1173.54 Q107.172 1171.78 107.172 1170.09 Q107.172 1167.33 105.228 1165.6 Q103.307 1163.86 100.205 1163.86 Q98.0058 1163.86 95.5521 1164.62 Q93.1215 1165.39 90.3438 1166.94 L90.3438 1162.22 Q93.1678 1161.08 95.6215 1160.5 Q98.0752 1159.93 100.112 1159.93 Q105.483 1159.93 108.677 1162.61 Q111.871 1165.3 111.871 1169.79 Q111.871 1171.92 111.061 1173.84 Q110.274 1175.74 108.168 1178.33 Q107.589 1179 104.487 1182.22 Q101.385 1185.41 95.7373 1191.18 Z" fill="#000000" fill-rule="evenodd" fill-opacity="1" /><path clip-path="url(#clip450)" d="M51.5708 959.471 L81.2466 959.471 L81.2466 963.406 L51.5708 963.406 L51.5708 959.471 Z" fill="#000000" fill-rule="evenodd" fill-opacity="1" /><path clip-path="url(#clip450)" d="M92.1493 972.364 L99.7882 972.364 L99.7882 945.999 L91.478 947.665 L91.478 943.406 L99.7419 941.739 L104.418 941.739 L104.418 972.364 L112.057 972.364 L112.057 976.299 L92.1493 976.299 L92.1493 972.364 Z" fill="#000000" fill-rule="evenodd" fill-opacity="1" /><path clip-path="url(#clip450)" d="M100.112 726.007 Q96.5011 726.007 94.6724 729.572 Q92.8669 733.113 92.8669 740.243 Q92.8669 747.349 94.6724 750.914 Q96.5011 754.456 100.112 754.456 Q103.746 754.456 105.552 750.914 Q107.381 747.349 107.381 740.243 Q107.381 733.113 105.552 729.572 Q103.746 726.007 100.112 726.007 M100.112 722.303 Q105.922 722.303 108.978 726.91 Q112.057 731.493 112.057 740.243 Q112.057 748.97 108.978 753.576 Q105.922 758.16 100.112 758.16 Q94.3021 758.16 91.2234 753.576 Q88.1679 748.97 88.1679 740.243 Q88.1679 731.493 91.2234 726.91 Q94.3021 722.303 100.112 722.303 Z" fill="#000000" fill-rule="evenodd" fill-opacity="1" /><path clip-path="url(#clip450)" d="M92.1493 534.742 L99.7882 534.742 L99.7882 508.376 L91.478 510.043 L91.478 505.784 L99.7419 504.117 L104.418 504.117 L104.418 534.742 L112.057 534.742 L112.057 538.677 L92.1493 538.677 L92.1493 534.742 Z" fill="#000000" fill-rule="evenodd" fill-opacity="1" /><path clip-path="url(#clip450)" d="M95.7373 315.931 L112.057 315.931 L112.057 319.866 L90.1123 319.866 L90.1123 315.931 Q92.7743 313.176 97.3576 308.547 Q101.964 303.894 103.145 302.551 Q105.39 300.028 106.27 298.292 Q107.172 296.533 107.172 294.843 Q107.172 292.088 105.228 290.352 Q103.307 288.616 100.205 288.616 Q98.0058 288.616 95.5521 289.38 Q93.1215 290.144 90.3438 291.695 L90.3438 286.973 Q93.1678 285.839 95.6215 285.26 Q98.0752 284.681 100.112 284.681 Q105.483 284.681 108.677 287.366 Q111.871 290.051 111.871 294.542 Q111.871 296.672 111.061 298.593 Q110.274 300.491 108.168 303.084 Q107.589 303.755 104.487 306.973 Q101.385 310.167 95.7373 315.931 Z" fill="#000000" fill-rule="evenodd" fill-opacity="1" /><path clip-path="url(#clip450)" d="M104.927 82.4209 Q108.283 83.1385 110.158 85.407 Q112.057 87.6755 112.057 91.0088 Q112.057 96.1245 108.538 98.9254 Q105.02 101.726 98.5382 101.726 Q96.3623 101.726 94.0475 101.287 Q91.7558 100.87 89.3021 100.013 L89.3021 95.4995 Q91.2465 96.6338 93.5613 97.2125 Q95.8761 97.7912 98.3993 97.7912 Q102.797 97.7912 105.089 96.0551 Q107.404 94.319 107.404 91.0088 Q107.404 87.9533 105.251 86.2403 Q103.121 84.5042 99.3021 84.5042 L95.2743 84.5042 L95.2743 80.6617 L99.4872 80.6617 Q102.936 80.6617 104.765 79.2959 Q106.594 77.907 106.594 75.3145 Q106.594 72.6524 104.696 71.2404 Q102.821 69.8052 99.3021 69.8052 Q97.3808 69.8052 95.1817 70.2219 Q92.9826 70.6386 90.3438 71.5182 L90.3438 67.3515 Q93.0058 66.6108 95.3206 66.2404 Q97.6585 65.8701 99.7187 65.8701 Q105.043 65.8701 108.145 68.3006 Q111.246 70.708 111.246 74.8284 Q111.246 77.6987 109.603 79.6894 Q107.959 81.657 104.927 82.4209 Z" fill="#000000" fill-rule="evenodd" fill-opacity="1" /><polyline clip-path="url(#clip452)" style="stroke:#009af9; stroke-linecap:butt; stroke-linejoin:round; stroke-width:4; stroke-opacity:1; fill:none" points="
  210.454,695.92 231.136,683.11 266.679,507.497 313.921,766.7 339.442,640.191 380.2,634.164 409.589,724.938 414.962,988.113 419.4,1072.12 426.073,762.532 
  437.428,910.288 443.575,483.793 449.464,1244.3 469.795,370.167 476.966,657.629 492.256,1038.01 495.622,586.072 498.7,797.766 505.32,898.045 506.231,448.289 
  514.227,862.812 517.833,1040.95 519.649,560.875 533.388,371.867 536.544,1066.78 540.183,622.965 541.424,1115.59 546.615,605.954 549.974,732.688 553.021,810.505 
  554.457,325.254 567.714,712.787 578.989,546.587 581.919,864.306 585.917,871.448 587.274,1135.87 593.569,898.495 603.753,639.453 608.203,614.165 611.029,402.653 
  623.863,827.287 630.335,945.037 630.349,541.658 632.506,528.74 637.992,789.861 638.198,556.349 639.34,715.36 643.386,902.639 646.002,744.124 649.502,638.31 
  650.963,578.217 652.614,655.298 658.691,263.752 682.208,391.89 692.625,803.954 693.915,736.936 695.34,456.634 698.436,697.535 702.096,795.051 706.784,646.192 
  707.983,673.025 710.976,741.151 714.435,544.666 714.435,982.106 717.59,826.278 719.812,1165.34 724.32,785.402 726.152,635.047 726.907,587.259 729.599,447.518 
  735.571,1099.34 737.536,473.605 739.236,730.27 741.206,1445.72 741.913,797.018 742.322,340.037 743.814,718.967 746.303,912.048 751.232,639.961 751.642,250.396 
  752.973,795.488 758.673,579.466 759.339,971.963 759.975,436.469 760.178,505.25 761.211,596.98 762.856,754.917 765.757,825.489 766.378,638.155 766.54,664.911 
  768.783,881.256 769.396,1007.07 770.629,532.231 771.004,861.985 773.961,663.292 779.235,1002.01 779.94,938.735 780.885,543.187 783.542,772.961 788.268,904.951 
  788.729,705.52 792.12,270.561 792.882,912.188 795.215,1216.89 799.405,761.532 799.958,576.508 802.419,886.122 810.671,793.087 810.851,592.868 812.267,677.89 
  813.371,782.255 818.639,590.086 819.703,545.577 819.892,356.783 820.132,1175.81 820.379,531.697 821.712,746.473 823.331,790.832 826.033,999.25 827.284,1017.46 
  828.813,860.575 832.998,971.009 835.096,594.288 835.526,625.716 835.808,775.929 838.228,784.465 840.528,537.71 841.516,1117.31 844.801,745.898 851.034,1111.85 
  853.112,1035.29 853.159,955.458 857.377,778.016 864.636,994.717 865.664,1070.99 867.914,598.557 868.921,652.963 869.185,250.581 871.476,587.861 872.949,782.639 
  873.383,707.381 874.733,1438.25 875.122,506.948 876.698,548.691 877.288,716.787 879.669,881.65 880.253,650.01 881.983,747.014 882.458,689.502 882.967,758.642 
  884.11,990.105 887.639,342.381 887.839,976.683 889.8,904.557 890.859,671.836 891.438,509.336 891.681,768.125 891.96,658.437 894.049,750.527 894.314,912.031 
  897.461,558.576 897.701,663.578 898.844,833.577 900.241,432.106 902.692,653.7 903.372,717.131 905.349,947.059 906.149,592.621 908.662,729.931 909.057,876.593 
  909.176,880.226 909.468,921.668 909.755,511.762 911.261,530.827 911.656,738.497 914.597,346.362 915.184,517.441 915.974,991.746 917.328,852.638 918.735,1130.87 
  919.799,384.967 920.284,865.235 920.846,579.641 921.744,903.903 922.357,843.525 925.62,978.062 926.479,770.061 930.987,310.261 932.386,665.75 932.445,666.264 
  934.016,661.721 935.816,842.134 936.691,1080.35 940.791,618.648 942.78,643.861 946.5,1145.8 948.406,642.276 948.921,739.087 949.015,687.821 952.06,631.544 
  953.109,767.852 959.648,640.39 960.201,343.209 961.189,812.024 964.181,828.453 964.725,355.809 966.827,647.278 967.367,400.316 969.393,774.653 969.453,524.048 
  970.002,959.082 971.145,880.236 973.69,458.327 973.794,462.732 974.606,554.551 974.706,818.194 976.092,704.773 977.819,887.159 981.602,1002.71 982.614,1064.58 
  984.231,608.27 986.862,478.016 988.316,556.782 988.731,700.876 988.991,566.486 989.128,526.383 990.026,710.118 990.059,908.675 991.542,769.611 993.254,824.917 
  994.041,729.653 997.131,446.759 998.564,1095.57 999.189,599.597 999.475,779.611 999.48,941.29 999.672,650.26 1000.43,874.525 1002.19,752.799 1002.53,971.745 
  1003.2,391.427 1007.59,490.402 1007.99,995.625 1009.31,473.983 1012.63,498.28 1013.05,908.588 1013.3,712.041 1013.53,553.991 1014.48,435.857 1015.71,602.164 
  1015.91,902.103 1017.23,1025.14 1018.37,435.566 1018.98,452.164 1020.5,597.602 1021.61,803.356 1023.45,632.852 1024.7,763.192 1026.49,547.34 1027.29,558.862 
  1029.37,654.456 1033.48,1155.29 1036.55,777.046 1036.79,434.326 1036.81,753.181 1038.24,901.03 1039.52,1045.49 1039.54,751.07 1040.77,815.712 1042.35,607.39 
  1044.27,466.488 1045.56,822.655 1048.73,833.152 1050.05,866.379 1050.84,510.287 1053.72,902.221 1056.39,631.725 1056.44,498.75 1057.36,582.586 1057.45,596.47 
  1058.43,611.355 1059.65,666.379 1061.5,1146.61 1061.78,706.097 1063.41,484.506 1064.3,1257.22 1064.73,594.405 1066.97,589.439 1067.18,755.399 1068.61,902.635 
  1068.69,1021.3 1068.78,675.624 1069.54,635.629 1070.68,684.035 1071.82,114.509 1073.07,891.666 1073.54,855.221 1075.67,689.495 1077.98,561.609 1079.86,1007.14 
  1080.28,602.316 1080.29,1027.74 1081.2,937.791 1081.23,419.987 1081.99,737.607 1082.25,1019.16 1083.39,742.965 1084.21,852.509 1084.9,1002.91 1086.41,514.872 
  1087.86,1200.44 1090.01,727.633 1090.13,545.734 1091.13,523.894 1092.61,539.126 1095.6,887.772 1095.68,411.144 1096.32,705.663 1096.62,681.092 1097.17,776.898 
  1098.36,958.367 1098.77,831.203 1099.42,400.991 1102.37,1234.25 1105.14,368.37 1105.22,1184.69 1105.43,679.917 1105.46,637.452 1109.17,564.415 1109.36,919.753 
  1110.85,669.939 1112.4,504.292 1112.9,771.031 1113.31,475.312 1113.42,899.151 1113.52,137.311 1115.61,595.07 1116.34,838.127 1119.97,632.539 1121.45,960.628 
  1121.63,980.12 1122.09,795.726 1122.97,605.337 1122.98,769.286 1125.56,549.164 1125.98,551.633 1126.1,826.049 1126.43,744.145 1127.58,826.987 1127.98,985.02 
  1128.58,695.044 1128.61,742.108 1129.37,577.726 1131.65,464.834 1131.85,584.711 1134.12,691.989 1135.03,648.415 1135.59,1080.43 1136.03,740.793 1138.11,791.603 
  1138.62,459.762 1139.8,302.764 1140.17,754.338 1140.49,87.9763 1140.83,603.963 1142.14,794.443 1142.43,836.53 1143.27,723.61 1143.33,646.684 1144.8,1068.94 
  1147.24,779.146 1147.47,97.9541 1150.09,1135.3 1150.21,540.428 1151.24,716.665 1151.62,509.67 1151.73,1185.89 1152.31,508.445 1153.28,833.749 1154.65,507.544 
  1155.71,776.808 1155.89,1297.33 1156.51,321.699 1156.56,426.74 1156.68,846.746 1157.01,664.514 1157.63,746.157 1157.92,543.674 1158.81,1039.59 1158.97,481.616 
  1159.66,509.467 1159.75,935.963 1161.08,808.353 1161.94,695.873 1161.96,508.004 1162.09,383.409 1164.75,738.784 1164.93,760.173 1165.47,1143.99 1166.04,774.037 
  1166.33,922.85 1166.35,694.141 1169.28,858.066 1169.53,313.543 1169.54,364.657 1170.41,384.07 1172.3,638.414 1172.97,597.023 1173.16,1000.88 1174.19,639.149 
  1174.75,722.947 1174.99,804.274 1174.99,330.969 1176.22,665.3 1179.72,704.735 1180.09,363.184 1183.42,735.296 1184.05,1024.23 1187.15,603.59 1187.32,998.808 
  1189.91,1052.39 1190.49,583.92 1190.6,885.29 1191.76,1255.63 1191.77,679.891 1192.03,689.224 1192.16,908.331 1192.56,575.561 1193.85,712.965 1194.03,726.482 
  1194.84,259.712 1196.23,1139.87 1196.55,1081.55 1198.41,188.675 1198.53,549.013 1200.09,650.175 1200.62,704.573 1201.13,1022.75 1202.23,835.591 1206.77,846.683 
  1206.84,312.589 1207.35,666.944 1208.06,890.081 1210.18,830.409 1210.69,234.323 1212.16,816.007 1212.59,1234.25 1215.02,657.445 1216.8,781.828 1220.43,510.327 
  1220.66,857.768 1221.69,883.407 1224.28,863.319 1225.02,708.425 1225.2,1044.58 1225.5,644.2 1225.61,829.017 1228.51,689.186 1229.3,890.411 1230.07,698.507 
  1230.28,1026.41 1231.12,772.359 1232.47,486.927 1234.24,613.608 1237.32,777.087 1237.49,464.96 1237.67,957.968 1237.67,1125.61 1238,1137.38 1241.69,749.639 
  1241.91,760.596 1245.45,648.177 1246.22,806.955 1246.5,580.201 1248.5,503.112 1252.93,572.69 1254.04,401.784 1254.24,426.886 1255.48,939.338 1257.25,696.011 
  1257.27,717.547 1257.31,487.795 1260.41,834.875 1261.11,860.315 1262.23,658.511 1262.28,998.19 1265.2,284.708 1266.3,627.79 1267.64,694.757 1268.94,666.889 
  1268.98,835.757 1270.18,322.003 1272.51,1009.12 1272.72,765.836 1273.42,857.01 1273.53,890.287 1274.05,630.709 1276.56,572.84 1276.58,835.779 1276.6,323.24 
  1277.14,991.523 1278.32,708.996 1279.92,729.42 1280.23,920.641 1280.67,652.631 1281.03,861.605 1282.23,1080.59 1282.99,756.692 1283.21,862.243 1286.77,378.796 
  1287.97,801.123 1288.1,420.94 1291.5,494.015 1292.97,988.714 1294.53,526.582 1294.62,912.263 1294.75,1153.2 1295.05,857.819 1295.13,962.031 1296.45,714.665 
  1297.25,1042.29 1299.44,961.497 1299.71,732.384 1300.57,760.42 1302.83,651.202 1304.31,689.409 1305.55,701.193 1305.87,871.848 1307.65,1129.42 1308.23,770.995 
  1309.13,1071.85 1309.42,510.458 1309.86,939.692 1309.87,1013.94 1310.43,532.654 1310.77,915.879 1310.95,662.158 1312.33,980.793 1315.02,269.155 1315.07,440.27 
  1315.33,1040 1315.38,942.918 1317.26,846.62 1317.82,971.852 1318.22,607.971 1319.18,673.082 1319.38,775.941 1319.6,749.073 1321.39,714.605 1322.37,245.549 
  1322.44,1109.9 1322.56,526.895 1323.05,1036.61 1323.07,877.574 1323.32,677.396 1325.01,786.853 1325.16,678.364 1325.6,533.12 1325.72,1094.06 1327.38,863.387 
  1329.05,953.39 1331.22,440.721 1331.48,684.069 1332.36,1084.45 1333.2,597.799 1333.35,983.603 1334.02,979.159 1334.43,878.406 1335.12,831.56 1335.44,204.052 
  1335.53,754.278 1335.59,730.054 1335.66,584.307 1337.5,712.992 1338.09,872.668 1338.35,679.212 1338.82,861.86 1339.39,766.23 1339.61,1112.34 1339.64,660.5 
  1339.79,802.009 1340.23,918.245 1340.67,823.538 1342.66,476.185 1343.21,789.166 1343.43,458.095 1343.61,495.114 1344.89,826.413 1345.41,1033.49 1346.77,749.877 
  1347.67,890.716 1349.78,657.382 1351.74,591.475 1351.77,869.437 1352.08,716.971 1355.29,624.67 1356.47,697.482 1357.08,749.019 1357.23,369.573 1357.61,669.87 
  1358.5,615.435 1359.3,707.64 1360.47,832.957 1360.87,581.11 1361.06,398.132 1361.73,260.746 1364.27,557.584 1364.76,677.238 1365.19,505.946 1365.54,539.961 
  1366.38,504.836 1368.37,689.44 1369.86,438.836 1370.95,846.111 1371.68,733.022 1372.05,897.945 1372.05,996.532 1374.57,631.199 1375.13,564.253 1375.29,254.74 
  1376.41,536.024 1377.25,409.915 1378.64,1048.81 1379.21,706.446 1381.64,675.234 1382.18,700.417 1383.03,869.951 1383.4,364.388 1383.46,337.706 1383.5,235.052 
  1383.75,596.625 1383.75,458.489 1384.69,547.992 1385.3,766.497 1386.64,1183.32 1386.73,430.345 1387.81,644.535 1389.07,1038.22 1390.11,337.936 1390.79,971.568 
  1392.68,597.359 1395,819.995 1395.26,490.767 1395.74,414.93 1395.98,666.695 1396.3,900.964 1396.64,548.606 1398.49,427.069 1399.95,630.543 1401.7,509.613 
  1402.33,569.446 1402.85,579.476 1402.97,288.108 1404.48,827.738 1405.01,775.472 1406.38,641.323 1407.01,791.134 1407.28,893.493 1407.74,523.781 1408.22,747.374 
  1409.56,894.083 1410.06,1278.55 1410.07,798.396 1410.56,597.466 1412.06,483.44 1412.15,898.252 1412.37,455.332 1412.87,487.493 1413.63,1211.06 1414.73,555.373 
  1415.45,538.661 1417.66,701.579 1419.2,470.399 1419.37,321.736 1420.04,805.717 1421.57,858.976 1422.85,990.442 1424.17,934.247 1425.5,510.814 1426.36,641.8 
  1428.48,539.182 1429.69,551.651 1429.74,294.667 1434.88,912.683 1436.55,436.997 1436.66,968.341 1437.15,626.463 1437.58,737.52 1437.69,931.983 1438.58,515.764 
  1440.93,396.993 1441.67,408.643 1442.07,435.254 1443.93,852.851 1445.48,866.269 1446.03,625.885 1447.72,1025.19 1448.26,833.717 1449.07,719.988 1449.27,1224.78 
  1449.56,797.858 1450.8,803.293 1450.83,643.486 1450.9,824.95 1450.91,648.193 1451.22,713.834 1452.3,654.041 1452.47,679.564 1452.98,965.892 1453.41,360.378 
  1453.51,985.126 1453.63,971.926 1454.6,962.679 1454.69,671.063 1456.94,738.866 1457.49,800.645 1458.51,711.034 1458.69,958.062 1458.89,981.374 1459.67,888.637 
  1461.14,935.509 1462.33,1100.87 1462.81,669.553 1462.95,815.636 1463.02,706.342 1463.14,844.797 1465.24,592.428 1465.39,576.122 1466.6,877.952 1468.06,879.674 
  1468.13,304.836 1470.02,630.295 1471.52,631.008 1472.23,612.643 1475.4,932.474 1476.98,921.478 1477.17,885.564 1480.66,708.991 1481.49,519.786 1481.58,907.818 
  1482.18,682.567 1482.32,804.284 1482.35,939.173 1482.8,893.704 1483.65,390.779 1485.58,841.076 1485.73,778.874 1486.17,1073.78 1487.01,686.65 1487.05,788.808 
  1487.18,873.778 1488.3,937.194 1488.47,798.246 1489.08,541.697 1493.26,801.02 1501.15,549.48 1503.27,913.488 1503.61,1192.15 1503.78,843.72 1504.39,657.233 
  1506.31,770.751 1506.32,951.46 1506.59,1196.33 1506.85,1003.36 1507.06,621.701 1508.22,637.267 1512.51,987.622 1514.25,336.158 1515.11,595.597 1516.55,820.093 
  1516.9,752.301 1517.63,911.377 1519.08,814.711 1520.12,891.483 1520.35,532.83 1520.64,738.805 1520.68,726.144 1520.69,776.98 1520.96,1005.16 1521.37,592.099 
  1523.07,856.634 1523.82,791.8 1524.77,535.508 1525.78,612.22 1529.03,918.761 1533.91,799.646 1534.37,863.49 1535.6,848.734 1535.62,537.692 1537.82,298.523 
  1538.45,431.507 1542.09,1258.28 1542.32,956.138 1543.09,1054.43 1543.71,726.311 1544.86,976.137 1544.99,382.435 1549.61,478.375 1551.6,1128.81 1552.22,805.195 
  1553.78,914.071 1557.09,319.372 1558.8,543.309 1563.09,726.888 1563.56,786.727 1564.54,959.999 1566.52,738.564 1569.42,584.065 1569.78,643.772 1570.94,1025.29 
  1572.11,526.972 1572.37,841.245 1573.06,783.518 1573.35,649.813 1574.8,1129.7 1576.46,750.831 1577.1,1065.43 1579.67,1000.9 1579.93,750.78 1585.05,781.776 
  1585.25,785.779 1585.83,364.151 1587.82,763.859 1590.27,511.492 1591.08,981.505 1592.01,1254.39 1592.14,643.773 1592.45,849.478 1593.57,732.963 1594.29,524.753 
  1594.82,535.189 1596.24,687.423 1596.69,946.171 1597.79,454.943 1599.88,755.48 1600.25,522.275 1600.33,799.142 1600.79,828.009 1606.27,225.487 1608.38,948.518 
  1611.21,496.595 1611.77,669.867 1613.64,489.921 1615.63,1204.9 1616,278.536 1617.79,957.263 1618.16,1238.63 1619.14,478.842 1619.89,777.935 1620.6,430.635 
  1622.37,556.128 1625.85,1037.79 1626.96,982.407 1627.54,988.945 1628.44,997.959 1629,620.675 1629.34,859.037 1631.28,630.828 1631.45,890.047 1633.54,1051.55 
  1636.67,577.215 1637.6,798.577 1638.6,460.772 1639.18,751.547 1641.23,747.095 1644.81,945.628 1645.08,1204.45 1647.83,1142.72 1650.26,709.818 1651.62,714.773 
  1654.36,855.28 1654.45,529.692 1655.82,724.664 1660.28,869.377 1663.44,868.464 1663.94,1277.78 1665.51,696.774 1665.73,878.463 1665.98,696.884 1666,654.449 
  1666,398.052 1669.65,164.611 1672.11,800.736 1672.41,1082.59 1672.65,507.979 1673.82,518.618 1673.97,1129.8 1677.58,1013.61 1679.53,372.521 1682.83,471.097 
  1683.06,918.916 1683.21,990.876 1685.27,912.079 1686.49,1046.68 1693.8,462.315 1695.84,1013.87 1695.88,727.97 1696.89,504.613 1697.69,800.712 1700.21,509.693 
  1700.46,1005.02 1706.29,612.918 1709.56,906.595 1710.39,1000.67 1710.81,598.814 1711.38,700.205 1712.19,687.187 1714.19,1238.8 1717.99,368.172 1718.25,672.735 
  1721.11,697.32 1722.55,507.659 1724.29,1143.29 1725.93,673.021 1726.26,227.494 1727.95,870.49 1728.09,1166.34 1732.94,438.841 1733.05,770.731 1733.28,553.085 
  1736.48,872.619 1737.29,631.35 1742.19,691.445 1746.27,591.627 1747.51,758.679 1748.68,1225.19 1750.45,717.033 1754.45,521.327 1755.6,476.301 1756.11,680.751 
  1759.61,565.807 1764.63,594.248 1768.38,997.144 1774.64,696.311 1783.2,507.133 1784.5,503.809 1788.61,809.729 1788.87,473.353 1789.76,704.635 1789.89,875.959 
  1793.78,725.323 1797.52,1146.42 1802.27,839.94 1807.24,694.67 1807.4,532.213 1811.76,967.627 1813.47,497.582 1814.12,817.761 1814.23,701.591 1815.58,594.777 
  1819.08,688.646 1833.94,779.374 1834.4,946.538 1846.2,1208.5 1849.39,590.017 1850.33,721.389 1850.98,666.199 1852.5,822.012 1852.96,596.61 1853,904.657 
  1857.57,1052.47 1858.81,819.961 1890.69,1046.53 1895.2,127.764 1897.7,872.718 1899.6,738.764 1907.71,897.363 1917.38,742.511 1920.67,709.861 1924.55,550.984 
  1934.16,527.902 1934.35,837.618 1944.16,782.847 1948.26,807.048 1948.51,670.826 1952.21,919.118 1954.35,660.516 1956.16,679.847 1958.38,953.209 1958.46,837.575 
  1965.39,919.181 1976.94,627.216 2000.5,443.064 2014.2,803.103 2021.38,558.923 2031.35,1063.11 2039.66,263.828 2050.34,744.032 2055.08,1063.64 2080.38,752.126 
  2080.83,840.594 2080.94,622.579 2081.1,441.123 2099.74,803.068 2104.27,1001.16 2112.06,555.876 2141.67,517.522 2145.83,566.54 2189.69,217.64 2290.36,551.277 
  
  "/>
<path clip-path="url(#clip450)" d="
M221.547 198.898 L554.128 198.898 L554.128 95.2176 L221.547 95.2176  Z
  " fill="#ffffff" fill-rule="evenodd" fill-opacity="1"/>
<polyline clip-path="url(#clip450)" style="stroke:#000000; stroke-linecap:butt; stroke-linejoin:round; stroke-width:4; stroke-opacity:1; fill:none" points="
  221.547,198.898 554.128,198.898 554.128,95.2176 221.547,95.2176 221.547,198.898 
  "/>
<polyline clip-path="url(#clip450)" style="stroke:#009af9; stroke-linecap:butt; stroke-linejoin:round; stroke-width:4; stroke-opacity:1; fill:none" points="
  246.043,147.058 393.023,147.058 
  "/>
<path clip-path="url(#clip450)" d="M431.362 166.745 Q429.557 171.375 427.844 172.787 Q426.131 174.199 423.261 174.199 L419.858 174.199 L419.858 170.634 L422.358 170.634 Q424.117 170.634 425.089 169.8 Q426.061 168.967 427.242 165.865 L428.006 163.921 L417.52 138.412 L422.034 138.412 L430.136 158.689 L438.237 138.412 L442.751 138.412 L431.362 166.745 Z" fill="#000000" fill-rule="evenodd" fill-opacity="1" /><path clip-path="url(#clip450)" d="M458.862 128.366 Q455.76 133.69 454.256 138.898 Q452.751 144.106 452.751 149.453 Q452.751 154.801 454.256 160.055 Q455.784 165.287 458.862 170.588 L455.159 170.588 Q451.686 165.148 449.95 159.893 Q448.237 154.639 448.237 149.453 Q448.237 144.291 449.95 139.06 Q451.663 133.828 455.159 128.366 L458.862 128.366 Z" fill="#000000" fill-rule="evenodd" fill-opacity="1" /><path clip-path="url(#clip450)" d="M488.677 138.412 L479.302 151.027 L489.163 164.338 L484.14 164.338 L476.594 154.152 L469.047 164.338 L464.024 164.338 L474.094 150.773 L464.881 138.412 L469.904 138.412 L476.779 147.648 L483.654 138.412 L488.677 138.412 Z" fill="#000000" fill-rule="evenodd" fill-opacity="1" /><path clip-path="url(#clip450)" d="M494.51 128.366 L498.214 128.366 Q501.686 133.828 503.399 139.06 Q505.135 144.291 505.135 149.453 Q505.135 154.639 503.399 159.893 Q501.686 165.148 498.214 170.588 L494.51 170.588 Q497.589 165.287 499.093 160.055 Q500.621 154.801 500.621 149.453 Q500.621 144.106 499.093 138.898 Q497.589 133.69 494.51 128.366 Z" fill="#000000" fill-rule="evenodd" fill-opacity="1" /></svg>
